G04 #@! TF.GenerationSoftware,KiCad,Pcbnew,(5.1.5)-3*
G04 #@! TF.CreationDate,2020-05-19T17:07:34-07:00*
G04 #@! TF.ProjectId,SM1REV1,534d3152-4556-4312-9e6b-696361645f70,rev?*
G04 #@! TF.SameCoordinates,Original*
G04 #@! TF.FileFunction,Copper,L2,Bot*
G04 #@! TF.FilePolarity,Positive*
%FSLAX46Y46*%
G04 Gerber Fmt 4.6, Leading zero omitted, Abs format (unit mm)*
G04 Created by KiCad (PCBNEW (5.1.5)-3) date 2020-05-19 17:07:34*
%MOMM*%
%LPD*%
G04 APERTURE LIST*
%ADD10O,1.700000X1.700000*%
%ADD11R,1.700000X1.700000*%
%ADD12C,4.000000*%
%ADD13O,1.727200X1.727200*%
%ADD14R,1.727200X1.727200*%
%ADD15C,0.254000*%
G04 APERTURE END LIST*
D10*
X115062000Y-147574000D03*
X112522000Y-147574000D03*
X109982000Y-147574000D03*
X107442000Y-147574000D03*
X104902000Y-147574000D03*
D11*
X102362000Y-147574000D03*
D10*
X115062000Y-56896000D03*
X112522000Y-56896000D03*
X109982000Y-56896000D03*
X107442000Y-56896000D03*
X104902000Y-56896000D03*
D11*
X102362000Y-56896000D03*
D12*
X77420000Y-182534000D03*
X81420000Y-176734000D03*
X88487000Y-178467000D03*
X90220000Y-185534000D03*
X84420000Y-189534000D03*
X77420000Y-160036852D03*
X81420000Y-154236852D03*
X88487000Y-155969852D03*
X90220000Y-163036852D03*
X84420000Y-167036852D03*
X77420000Y-137539710D03*
X81420000Y-131739710D03*
X88487000Y-133472710D03*
X90220000Y-140539710D03*
X84420000Y-144539710D03*
X77420000Y-115042568D03*
X81420000Y-109242568D03*
X88487000Y-110975568D03*
X90220000Y-118042568D03*
X84420000Y-122042568D03*
X77420000Y-92545426D03*
X81420000Y-86745426D03*
X88487000Y-88478426D03*
X90220000Y-95545426D03*
X84420000Y-99545426D03*
X77420000Y-70048284D03*
X81420000Y-64248284D03*
X88487000Y-65981284D03*
X90220000Y-73048284D03*
X84420000Y-77048284D03*
X77420000Y-47551142D03*
X81420000Y-41751142D03*
X88487000Y-43484142D03*
X90220000Y-50551142D03*
X84420000Y-54551142D03*
X77420000Y-25054000D03*
X81420000Y-19254000D03*
X88487000Y-20987000D03*
X90220000Y-28054000D03*
X84420000Y-32054000D03*
D13*
X113030000Y-25400000D03*
X113030000Y-22860000D03*
X110490000Y-25400000D03*
X110490000Y-22860000D03*
X107950000Y-25400000D03*
X107950000Y-22860000D03*
X105410000Y-25400000D03*
X105410000Y-22860000D03*
X102870000Y-25400000D03*
D14*
X102870000Y-22860000D03*
D15*
G36*
X79084893Y-18005859D02*
G01*
X78886261Y-18485399D01*
X78785000Y-18994475D01*
X78785000Y-19513525D01*
X78886261Y-20022601D01*
X79084893Y-20502141D01*
X79373262Y-20933715D01*
X79740285Y-21300738D01*
X80171859Y-21589107D01*
X80651399Y-21787739D01*
X81160475Y-21889000D01*
X81679525Y-21889000D01*
X82188601Y-21787739D01*
X82668141Y-21589107D01*
X83099715Y-21300738D01*
X83390382Y-21010071D01*
X85839352Y-21010071D01*
X85894727Y-21526159D01*
X86049721Y-22021526D01*
X86272742Y-22438772D01*
X86639501Y-22654894D01*
X88307395Y-20987000D01*
X88666605Y-20987000D01*
X90334499Y-22654894D01*
X90701258Y-22438772D01*
X90932776Y-21996400D01*
X101368328Y-21996400D01*
X101368328Y-23723600D01*
X101380588Y-23848082D01*
X101416898Y-23967780D01*
X101475863Y-24078094D01*
X101555215Y-24174785D01*
X101651906Y-24254137D01*
X101762220Y-24313102D01*
X101820023Y-24330636D01*
X101705961Y-24444698D01*
X101541958Y-24690147D01*
X101428990Y-24962875D01*
X101371400Y-25252401D01*
X101371400Y-25547599D01*
X101428990Y-25837125D01*
X101541958Y-26109853D01*
X101705961Y-26355302D01*
X101914698Y-26564039D01*
X102160147Y-26728042D01*
X102432875Y-26841010D01*
X102722401Y-26898600D01*
X103017599Y-26898600D01*
X103307125Y-26841010D01*
X103579853Y-26728042D01*
X103825302Y-26564039D01*
X104034039Y-26355302D01*
X104144559Y-26189897D01*
X104203183Y-26288488D01*
X104399707Y-26506854D01*
X104635056Y-26682684D01*
X104900186Y-26809222D01*
X105050974Y-26854958D01*
X105283000Y-26733817D01*
X105283000Y-25527000D01*
X105537000Y-25527000D01*
X105537000Y-26733817D01*
X105769026Y-26854958D01*
X105919814Y-26809222D01*
X106184944Y-26682684D01*
X106420293Y-26506854D01*
X106616817Y-26288488D01*
X106680000Y-26182230D01*
X106743183Y-26288488D01*
X106939707Y-26506854D01*
X107175056Y-26682684D01*
X107440186Y-26809222D01*
X107590974Y-26854958D01*
X107823000Y-26733817D01*
X107823000Y-25527000D01*
X108077000Y-25527000D01*
X108077000Y-26733817D01*
X108309026Y-26854958D01*
X108459814Y-26809222D01*
X108724944Y-26682684D01*
X108960293Y-26506854D01*
X109156817Y-26288488D01*
X109220000Y-26182230D01*
X109283183Y-26288488D01*
X109479707Y-26506854D01*
X109715056Y-26682684D01*
X109980186Y-26809222D01*
X110130974Y-26854958D01*
X110363000Y-26733817D01*
X110363000Y-25527000D01*
X108077000Y-25527000D01*
X107823000Y-25527000D01*
X105537000Y-25527000D01*
X105283000Y-25527000D01*
X105263000Y-25527000D01*
X105263000Y-25273000D01*
X105283000Y-25273000D01*
X105283000Y-22987000D01*
X105537000Y-22987000D01*
X105537000Y-25273000D01*
X107823000Y-25273000D01*
X107823000Y-22987000D01*
X108077000Y-22987000D01*
X108077000Y-25273000D01*
X110363000Y-25273000D01*
X110363000Y-22987000D01*
X108077000Y-22987000D01*
X107823000Y-22987000D01*
X105537000Y-22987000D01*
X105283000Y-22987000D01*
X105263000Y-22987000D01*
X105263000Y-22733000D01*
X105283000Y-22733000D01*
X105283000Y-21526183D01*
X105537000Y-21526183D01*
X105537000Y-22733000D01*
X107823000Y-22733000D01*
X107823000Y-21526183D01*
X108077000Y-21526183D01*
X108077000Y-22733000D01*
X110363000Y-22733000D01*
X110363000Y-21526183D01*
X110617000Y-21526183D01*
X110617000Y-22733000D01*
X110637000Y-22733000D01*
X110637000Y-22987000D01*
X110617000Y-22987000D01*
X110617000Y-25273000D01*
X110637000Y-25273000D01*
X110637000Y-25527000D01*
X110617000Y-25527000D01*
X110617000Y-26733817D01*
X110849026Y-26854958D01*
X110999814Y-26809222D01*
X111264944Y-26682684D01*
X111500293Y-26506854D01*
X111696817Y-26288488D01*
X111755441Y-26189897D01*
X111865961Y-26355302D01*
X112074698Y-26564039D01*
X112320147Y-26728042D01*
X112592875Y-26841010D01*
X112882401Y-26898600D01*
X113177599Y-26898600D01*
X113467125Y-26841010D01*
X113739853Y-26728042D01*
X113985302Y-26564039D01*
X114194039Y-26355302D01*
X114358042Y-26109853D01*
X114471010Y-25837125D01*
X114528600Y-25547599D01*
X114528600Y-25252401D01*
X114471010Y-24962875D01*
X114358042Y-24690147D01*
X114194039Y-24444698D01*
X113985302Y-24235961D01*
X113826719Y-24130000D01*
X113985302Y-24024039D01*
X114194039Y-23815302D01*
X114358042Y-23569853D01*
X114471010Y-23297125D01*
X114528600Y-23007599D01*
X114528600Y-22712401D01*
X114471010Y-22422875D01*
X114358042Y-22150147D01*
X114194039Y-21904698D01*
X113985302Y-21695961D01*
X113739853Y-21531958D01*
X113467125Y-21418990D01*
X113177599Y-21361400D01*
X112882401Y-21361400D01*
X112592875Y-21418990D01*
X112320147Y-21531958D01*
X112074698Y-21695961D01*
X111865961Y-21904698D01*
X111755441Y-22070103D01*
X111696817Y-21971512D01*
X111500293Y-21753146D01*
X111264944Y-21577316D01*
X110999814Y-21450778D01*
X110849026Y-21405042D01*
X110617000Y-21526183D01*
X110363000Y-21526183D01*
X110130974Y-21405042D01*
X109980186Y-21450778D01*
X109715056Y-21577316D01*
X109479707Y-21753146D01*
X109283183Y-21971512D01*
X109220000Y-22077770D01*
X109156817Y-21971512D01*
X108960293Y-21753146D01*
X108724944Y-21577316D01*
X108459814Y-21450778D01*
X108309026Y-21405042D01*
X108077000Y-21526183D01*
X107823000Y-21526183D01*
X107590974Y-21405042D01*
X107440186Y-21450778D01*
X107175056Y-21577316D01*
X106939707Y-21753146D01*
X106743183Y-21971512D01*
X106680000Y-22077770D01*
X106616817Y-21971512D01*
X106420293Y-21753146D01*
X106184944Y-21577316D01*
X105919814Y-21450778D01*
X105769026Y-21405042D01*
X105537000Y-21526183D01*
X105283000Y-21526183D01*
X105050974Y-21405042D01*
X104900186Y-21450778D01*
X104635056Y-21577316D01*
X104399707Y-21753146D01*
X104342624Y-21816574D01*
X104323102Y-21752220D01*
X104264137Y-21641906D01*
X104184785Y-21545215D01*
X104088094Y-21465863D01*
X103977780Y-21406898D01*
X103858082Y-21370588D01*
X103733600Y-21358328D01*
X102006400Y-21358328D01*
X101881918Y-21370588D01*
X101762220Y-21406898D01*
X101651906Y-21465863D01*
X101555215Y-21545215D01*
X101475863Y-21641906D01*
X101416898Y-21752220D01*
X101380588Y-21871918D01*
X101368328Y-21996400D01*
X90932776Y-21996400D01*
X90941938Y-21978895D01*
X91088275Y-21480902D01*
X91134648Y-20963929D01*
X91079273Y-20447841D01*
X90924279Y-19952474D01*
X90701258Y-19535228D01*
X90334499Y-19319106D01*
X88666605Y-20987000D01*
X88307395Y-20987000D01*
X86639501Y-19319106D01*
X86272742Y-19535228D01*
X86032062Y-19995105D01*
X85885725Y-20493098D01*
X85839352Y-21010071D01*
X83390382Y-21010071D01*
X83466738Y-20933715D01*
X83755107Y-20502141D01*
X83953739Y-20022601D01*
X84055000Y-19513525D01*
X84055000Y-19139501D01*
X86819106Y-19139501D01*
X88487000Y-20807395D01*
X90154894Y-19139501D01*
X89938772Y-18772742D01*
X89478895Y-18532062D01*
X88980902Y-18385725D01*
X88463929Y-18339352D01*
X87947841Y-18394727D01*
X87452474Y-18549721D01*
X87035228Y-18772742D01*
X86819106Y-19139501D01*
X84055000Y-19139501D01*
X84055000Y-18994475D01*
X83953739Y-18485399D01*
X83755107Y-18005859D01*
X83536038Y-17678000D01*
X123340000Y-17678000D01*
X123340001Y-191110000D01*
X86536038Y-191110000D01*
X86755107Y-190782141D01*
X86953739Y-190302601D01*
X87055000Y-189793525D01*
X87055000Y-189274475D01*
X86953739Y-188765399D01*
X86755107Y-188285859D01*
X86466738Y-187854285D01*
X86099715Y-187487262D01*
X85668141Y-187198893D01*
X85188601Y-187000261D01*
X84679525Y-186899000D01*
X84160475Y-186899000D01*
X83651399Y-187000261D01*
X83171859Y-187198893D01*
X82740285Y-187487262D01*
X82373262Y-187854285D01*
X82084893Y-188285859D01*
X81886261Y-188765399D01*
X81785000Y-189274475D01*
X81785000Y-189793525D01*
X81886261Y-190302601D01*
X82084893Y-190782141D01*
X82303962Y-191110000D01*
X75660000Y-191110000D01*
X75660000Y-185274475D01*
X87585000Y-185274475D01*
X87585000Y-185793525D01*
X87686261Y-186302601D01*
X87884893Y-186782141D01*
X88173262Y-187213715D01*
X88540285Y-187580738D01*
X88971859Y-187869107D01*
X89451399Y-188067739D01*
X89960475Y-188169000D01*
X90479525Y-188169000D01*
X90988601Y-188067739D01*
X91468141Y-187869107D01*
X91899715Y-187580738D01*
X92266738Y-187213715D01*
X92555107Y-186782141D01*
X92753739Y-186302601D01*
X92855000Y-185793525D01*
X92855000Y-185274475D01*
X92753739Y-184765399D01*
X92555107Y-184285859D01*
X92266738Y-183854285D01*
X91899715Y-183487262D01*
X91468141Y-183198893D01*
X90988601Y-183000261D01*
X90479525Y-182899000D01*
X89960475Y-182899000D01*
X89451399Y-183000261D01*
X88971859Y-183198893D01*
X88540285Y-183487262D01*
X88173262Y-183854285D01*
X87884893Y-184285859D01*
X87686261Y-184765399D01*
X87585000Y-185274475D01*
X75660000Y-185274475D01*
X75660000Y-184500453D01*
X75740285Y-184580738D01*
X76171859Y-184869107D01*
X76651399Y-185067739D01*
X77160475Y-185169000D01*
X77679525Y-185169000D01*
X78188601Y-185067739D01*
X78668141Y-184869107D01*
X79099715Y-184580738D01*
X79466738Y-184213715D01*
X79755107Y-183782141D01*
X79953739Y-183302601D01*
X80055000Y-182793525D01*
X80055000Y-182274475D01*
X79953739Y-181765399D01*
X79755107Y-181285859D01*
X79466738Y-180854285D01*
X79099715Y-180487262D01*
X78841158Y-180314499D01*
X86819106Y-180314499D01*
X87035228Y-180681258D01*
X87495105Y-180921938D01*
X87993098Y-181068275D01*
X88510071Y-181114648D01*
X89026159Y-181059273D01*
X89521526Y-180904279D01*
X89938772Y-180681258D01*
X90154894Y-180314499D01*
X88487000Y-178646605D01*
X86819106Y-180314499D01*
X78841158Y-180314499D01*
X78668141Y-180198893D01*
X78188601Y-180000261D01*
X77679525Y-179899000D01*
X77160475Y-179899000D01*
X76651399Y-180000261D01*
X76171859Y-180198893D01*
X75740285Y-180487262D01*
X75660000Y-180567547D01*
X75660000Y-176474475D01*
X78785000Y-176474475D01*
X78785000Y-176993525D01*
X78886261Y-177502601D01*
X79084893Y-177982141D01*
X79373262Y-178413715D01*
X79740285Y-178780738D01*
X80171859Y-179069107D01*
X80651399Y-179267739D01*
X81160475Y-179369000D01*
X81679525Y-179369000D01*
X82188601Y-179267739D01*
X82668141Y-179069107D01*
X83099715Y-178780738D01*
X83390382Y-178490071D01*
X85839352Y-178490071D01*
X85894727Y-179006159D01*
X86049721Y-179501526D01*
X86272742Y-179918772D01*
X86639501Y-180134894D01*
X88307395Y-178467000D01*
X88666605Y-178467000D01*
X90334499Y-180134894D01*
X90701258Y-179918772D01*
X90941938Y-179458895D01*
X91088275Y-178960902D01*
X91134648Y-178443929D01*
X91079273Y-177927841D01*
X90924279Y-177432474D01*
X90701258Y-177015228D01*
X90334499Y-176799106D01*
X88666605Y-178467000D01*
X88307395Y-178467000D01*
X86639501Y-176799106D01*
X86272742Y-177015228D01*
X86032062Y-177475105D01*
X85885725Y-177973098D01*
X85839352Y-178490071D01*
X83390382Y-178490071D01*
X83466738Y-178413715D01*
X83755107Y-177982141D01*
X83953739Y-177502601D01*
X84055000Y-176993525D01*
X84055000Y-176619501D01*
X86819106Y-176619501D01*
X88487000Y-178287395D01*
X90154894Y-176619501D01*
X89938772Y-176252742D01*
X89478895Y-176012062D01*
X88980902Y-175865725D01*
X88463929Y-175819352D01*
X87947841Y-175874727D01*
X87452474Y-176029721D01*
X87035228Y-176252742D01*
X86819106Y-176619501D01*
X84055000Y-176619501D01*
X84055000Y-176474475D01*
X83953739Y-175965399D01*
X83755107Y-175485859D01*
X83466738Y-175054285D01*
X83099715Y-174687262D01*
X82668141Y-174398893D01*
X82188601Y-174200261D01*
X81679525Y-174099000D01*
X81160475Y-174099000D01*
X80651399Y-174200261D01*
X80171859Y-174398893D01*
X79740285Y-174687262D01*
X79373262Y-175054285D01*
X79084893Y-175485859D01*
X78886261Y-175965399D01*
X78785000Y-176474475D01*
X75660000Y-176474475D01*
X75660000Y-166777327D01*
X81785000Y-166777327D01*
X81785000Y-167296377D01*
X81886261Y-167805453D01*
X82084893Y-168284993D01*
X82373262Y-168716567D01*
X82740285Y-169083590D01*
X83171859Y-169371959D01*
X83651399Y-169570591D01*
X84160475Y-169671852D01*
X84679525Y-169671852D01*
X85188601Y-169570591D01*
X85668141Y-169371959D01*
X86099715Y-169083590D01*
X86466738Y-168716567D01*
X86755107Y-168284993D01*
X86953739Y-167805453D01*
X87055000Y-167296377D01*
X87055000Y-166777327D01*
X86953739Y-166268251D01*
X86755107Y-165788711D01*
X86466738Y-165357137D01*
X86099715Y-164990114D01*
X85668141Y-164701745D01*
X85188601Y-164503113D01*
X84679525Y-164401852D01*
X84160475Y-164401852D01*
X83651399Y-164503113D01*
X83171859Y-164701745D01*
X82740285Y-164990114D01*
X82373262Y-165357137D01*
X82084893Y-165788711D01*
X81886261Y-166268251D01*
X81785000Y-166777327D01*
X75660000Y-166777327D01*
X75660000Y-162777327D01*
X87585000Y-162777327D01*
X87585000Y-163296377D01*
X87686261Y-163805453D01*
X87884893Y-164284993D01*
X88173262Y-164716567D01*
X88540285Y-165083590D01*
X88971859Y-165371959D01*
X89451399Y-165570591D01*
X89960475Y-165671852D01*
X90479525Y-165671852D01*
X90988601Y-165570591D01*
X91468141Y-165371959D01*
X91899715Y-165083590D01*
X92266738Y-164716567D01*
X92555107Y-164284993D01*
X92753739Y-163805453D01*
X92855000Y-163296377D01*
X92855000Y-162777327D01*
X92753739Y-162268251D01*
X92555107Y-161788711D01*
X92266738Y-161357137D01*
X91899715Y-160990114D01*
X91468141Y-160701745D01*
X90988601Y-160503113D01*
X90479525Y-160401852D01*
X89960475Y-160401852D01*
X89451399Y-160503113D01*
X88971859Y-160701745D01*
X88540285Y-160990114D01*
X88173262Y-161357137D01*
X87884893Y-161788711D01*
X87686261Y-162268251D01*
X87585000Y-162777327D01*
X75660000Y-162777327D01*
X75660000Y-162003305D01*
X75740285Y-162083590D01*
X76171859Y-162371959D01*
X76651399Y-162570591D01*
X77160475Y-162671852D01*
X77679525Y-162671852D01*
X78188601Y-162570591D01*
X78668141Y-162371959D01*
X79099715Y-162083590D01*
X79466738Y-161716567D01*
X79755107Y-161284993D01*
X79953739Y-160805453D01*
X80055000Y-160296377D01*
X80055000Y-159777327D01*
X79953739Y-159268251D01*
X79755107Y-158788711D01*
X79466738Y-158357137D01*
X79099715Y-157990114D01*
X78841158Y-157817351D01*
X86819106Y-157817351D01*
X87035228Y-158184110D01*
X87495105Y-158424790D01*
X87993098Y-158571127D01*
X88510071Y-158617500D01*
X89026159Y-158562125D01*
X89521526Y-158407131D01*
X89938772Y-158184110D01*
X90154894Y-157817351D01*
X88487000Y-156149457D01*
X86819106Y-157817351D01*
X78841158Y-157817351D01*
X78668141Y-157701745D01*
X78188601Y-157503113D01*
X77679525Y-157401852D01*
X77160475Y-157401852D01*
X76651399Y-157503113D01*
X76171859Y-157701745D01*
X75740285Y-157990114D01*
X75660000Y-158070399D01*
X75660000Y-153977327D01*
X78785000Y-153977327D01*
X78785000Y-154496377D01*
X78886261Y-155005453D01*
X79084893Y-155484993D01*
X79373262Y-155916567D01*
X79740285Y-156283590D01*
X80171859Y-156571959D01*
X80651399Y-156770591D01*
X81160475Y-156871852D01*
X81679525Y-156871852D01*
X82188601Y-156770591D01*
X82668141Y-156571959D01*
X83099715Y-156283590D01*
X83390382Y-155992923D01*
X85839352Y-155992923D01*
X85894727Y-156509011D01*
X86049721Y-157004378D01*
X86272742Y-157421624D01*
X86639501Y-157637746D01*
X88307395Y-155969852D01*
X88666605Y-155969852D01*
X90334499Y-157637746D01*
X90701258Y-157421624D01*
X90941938Y-156961747D01*
X91088275Y-156463754D01*
X91134648Y-155946781D01*
X91079273Y-155430693D01*
X90924279Y-154935326D01*
X90701258Y-154518080D01*
X90334499Y-154301958D01*
X88666605Y-155969852D01*
X88307395Y-155969852D01*
X86639501Y-154301958D01*
X86272742Y-154518080D01*
X86032062Y-154977957D01*
X85885725Y-155475950D01*
X85839352Y-155992923D01*
X83390382Y-155992923D01*
X83466738Y-155916567D01*
X83755107Y-155484993D01*
X83953739Y-155005453D01*
X84055000Y-154496377D01*
X84055000Y-154122353D01*
X86819106Y-154122353D01*
X88487000Y-155790247D01*
X90154894Y-154122353D01*
X89938772Y-153755594D01*
X89478895Y-153514914D01*
X88980902Y-153368577D01*
X88463929Y-153322204D01*
X87947841Y-153377579D01*
X87452474Y-153532573D01*
X87035228Y-153755594D01*
X86819106Y-154122353D01*
X84055000Y-154122353D01*
X84055000Y-153977327D01*
X83953739Y-153468251D01*
X83755107Y-152988711D01*
X83466738Y-152557137D01*
X83099715Y-152190114D01*
X82668141Y-151901745D01*
X82188601Y-151703113D01*
X81679525Y-151601852D01*
X81160475Y-151601852D01*
X80651399Y-151703113D01*
X80171859Y-151901745D01*
X79740285Y-152190114D01*
X79373262Y-152557137D01*
X79084893Y-152988711D01*
X78886261Y-153468251D01*
X78785000Y-153977327D01*
X75660000Y-153977327D01*
X75660000Y-148424000D01*
X100873928Y-148424000D01*
X100886188Y-148548482D01*
X100922498Y-148668180D01*
X100981463Y-148778494D01*
X101060815Y-148875185D01*
X101157506Y-148954537D01*
X101267820Y-149013502D01*
X101387518Y-149049812D01*
X101512000Y-149062072D01*
X102076250Y-149059000D01*
X102235000Y-148900250D01*
X102235000Y-147701000D01*
X101035750Y-147701000D01*
X100877000Y-147859750D01*
X100873928Y-148424000D01*
X75660000Y-148424000D01*
X75660000Y-144280185D01*
X81785000Y-144280185D01*
X81785000Y-144799235D01*
X81886261Y-145308311D01*
X82084893Y-145787851D01*
X82373262Y-146219425D01*
X82740285Y-146586448D01*
X83171859Y-146874817D01*
X83651399Y-147073449D01*
X84160475Y-147174710D01*
X84679525Y-147174710D01*
X85188601Y-147073449D01*
X85668141Y-146874817D01*
X85893854Y-146724000D01*
X100873928Y-146724000D01*
X100877000Y-147288250D01*
X101035750Y-147447000D01*
X102235000Y-147447000D01*
X102235000Y-146247750D01*
X102489000Y-146247750D01*
X102489000Y-147447000D01*
X102509000Y-147447000D01*
X102509000Y-147701000D01*
X102489000Y-147701000D01*
X102489000Y-148900250D01*
X102647750Y-149059000D01*
X103212000Y-149062072D01*
X103336482Y-149049812D01*
X103456180Y-149013502D01*
X103566494Y-148954537D01*
X103663185Y-148875185D01*
X103742537Y-148778494D01*
X103801502Y-148668180D01*
X103823513Y-148595620D01*
X103955368Y-148727475D01*
X104198589Y-148889990D01*
X104468842Y-149001932D01*
X104755740Y-149059000D01*
X105048260Y-149059000D01*
X105335158Y-149001932D01*
X105605411Y-148889990D01*
X105848632Y-148727475D01*
X106055475Y-148520632D01*
X106172000Y-148346240D01*
X106288525Y-148520632D01*
X106495368Y-148727475D01*
X106738589Y-148889990D01*
X107008842Y-149001932D01*
X107295740Y-149059000D01*
X107588260Y-149059000D01*
X107875158Y-149001932D01*
X108145411Y-148889990D01*
X108388632Y-148727475D01*
X108595475Y-148520632D01*
X108712000Y-148346240D01*
X108828525Y-148520632D01*
X109035368Y-148727475D01*
X109278589Y-148889990D01*
X109548842Y-149001932D01*
X109835740Y-149059000D01*
X110128260Y-149059000D01*
X110415158Y-149001932D01*
X110685411Y-148889990D01*
X110928632Y-148727475D01*
X111135475Y-148520632D01*
X111252000Y-148346240D01*
X111368525Y-148520632D01*
X111575368Y-148727475D01*
X111818589Y-148889990D01*
X112088842Y-149001932D01*
X112375740Y-149059000D01*
X112668260Y-149059000D01*
X112955158Y-149001932D01*
X113225411Y-148889990D01*
X113468632Y-148727475D01*
X113675475Y-148520632D01*
X113792000Y-148346240D01*
X113908525Y-148520632D01*
X114115368Y-148727475D01*
X114358589Y-148889990D01*
X114628842Y-149001932D01*
X114915740Y-149059000D01*
X115208260Y-149059000D01*
X115495158Y-149001932D01*
X115765411Y-148889990D01*
X116008632Y-148727475D01*
X116215475Y-148520632D01*
X116377990Y-148277411D01*
X116489932Y-148007158D01*
X116547000Y-147720260D01*
X116547000Y-147427740D01*
X116489932Y-147140842D01*
X116377990Y-146870589D01*
X116215475Y-146627368D01*
X116008632Y-146420525D01*
X115765411Y-146258010D01*
X115495158Y-146146068D01*
X115208260Y-146089000D01*
X114915740Y-146089000D01*
X114628842Y-146146068D01*
X114358589Y-146258010D01*
X114115368Y-146420525D01*
X113908525Y-146627368D01*
X113792000Y-146801760D01*
X113675475Y-146627368D01*
X113468632Y-146420525D01*
X113225411Y-146258010D01*
X112955158Y-146146068D01*
X112668260Y-146089000D01*
X112375740Y-146089000D01*
X112088842Y-146146068D01*
X111818589Y-146258010D01*
X111575368Y-146420525D01*
X111368525Y-146627368D01*
X111252000Y-146801760D01*
X111135475Y-146627368D01*
X110928632Y-146420525D01*
X110685411Y-146258010D01*
X110415158Y-146146068D01*
X110128260Y-146089000D01*
X109835740Y-146089000D01*
X109548842Y-146146068D01*
X109278589Y-146258010D01*
X109035368Y-146420525D01*
X108828525Y-146627368D01*
X108712000Y-146801760D01*
X108595475Y-146627368D01*
X108388632Y-146420525D01*
X108145411Y-146258010D01*
X107875158Y-146146068D01*
X107588260Y-146089000D01*
X107295740Y-146089000D01*
X107008842Y-146146068D01*
X106738589Y-146258010D01*
X106495368Y-146420525D01*
X106288525Y-146627368D01*
X106172000Y-146801760D01*
X106055475Y-146627368D01*
X105848632Y-146420525D01*
X105605411Y-146258010D01*
X105335158Y-146146068D01*
X105048260Y-146089000D01*
X104755740Y-146089000D01*
X104468842Y-146146068D01*
X104198589Y-146258010D01*
X103955368Y-146420525D01*
X103823513Y-146552380D01*
X103801502Y-146479820D01*
X103742537Y-146369506D01*
X103663185Y-146272815D01*
X103566494Y-146193463D01*
X103456180Y-146134498D01*
X103336482Y-146098188D01*
X103212000Y-146085928D01*
X102647750Y-146089000D01*
X102489000Y-146247750D01*
X102235000Y-146247750D01*
X102076250Y-146089000D01*
X101512000Y-146085928D01*
X101387518Y-146098188D01*
X101267820Y-146134498D01*
X101157506Y-146193463D01*
X101060815Y-146272815D01*
X100981463Y-146369506D01*
X100922498Y-146479820D01*
X100886188Y-146599518D01*
X100873928Y-146724000D01*
X85893854Y-146724000D01*
X86099715Y-146586448D01*
X86466738Y-146219425D01*
X86755107Y-145787851D01*
X86953739Y-145308311D01*
X87055000Y-144799235D01*
X87055000Y-144280185D01*
X86953739Y-143771109D01*
X86755107Y-143291569D01*
X86466738Y-142859995D01*
X86099715Y-142492972D01*
X85668141Y-142204603D01*
X85188601Y-142005971D01*
X84679525Y-141904710D01*
X84160475Y-141904710D01*
X83651399Y-142005971D01*
X83171859Y-142204603D01*
X82740285Y-142492972D01*
X82373262Y-142859995D01*
X82084893Y-143291569D01*
X81886261Y-143771109D01*
X81785000Y-144280185D01*
X75660000Y-144280185D01*
X75660000Y-140280185D01*
X87585000Y-140280185D01*
X87585000Y-140799235D01*
X87686261Y-141308311D01*
X87884893Y-141787851D01*
X88173262Y-142219425D01*
X88540285Y-142586448D01*
X88971859Y-142874817D01*
X89451399Y-143073449D01*
X89960475Y-143174710D01*
X90479525Y-143174710D01*
X90988601Y-143073449D01*
X91468141Y-142874817D01*
X91899715Y-142586448D01*
X92266738Y-142219425D01*
X92555107Y-141787851D01*
X92753739Y-141308311D01*
X92855000Y-140799235D01*
X92855000Y-140280185D01*
X92753739Y-139771109D01*
X92555107Y-139291569D01*
X92266738Y-138859995D01*
X91899715Y-138492972D01*
X91468141Y-138204603D01*
X90988601Y-138005971D01*
X90479525Y-137904710D01*
X89960475Y-137904710D01*
X89451399Y-138005971D01*
X88971859Y-138204603D01*
X88540285Y-138492972D01*
X88173262Y-138859995D01*
X87884893Y-139291569D01*
X87686261Y-139771109D01*
X87585000Y-140280185D01*
X75660000Y-140280185D01*
X75660000Y-139506163D01*
X75740285Y-139586448D01*
X76171859Y-139874817D01*
X76651399Y-140073449D01*
X77160475Y-140174710D01*
X77679525Y-140174710D01*
X78188601Y-140073449D01*
X78668141Y-139874817D01*
X79099715Y-139586448D01*
X79466738Y-139219425D01*
X79755107Y-138787851D01*
X79953739Y-138308311D01*
X80055000Y-137799235D01*
X80055000Y-137280185D01*
X79953739Y-136771109D01*
X79755107Y-136291569D01*
X79466738Y-135859995D01*
X79099715Y-135492972D01*
X78841158Y-135320209D01*
X86819106Y-135320209D01*
X87035228Y-135686968D01*
X87495105Y-135927648D01*
X87993098Y-136073985D01*
X88510071Y-136120358D01*
X89026159Y-136064983D01*
X89521526Y-135909989D01*
X89938772Y-135686968D01*
X90154894Y-135320209D01*
X88487000Y-133652315D01*
X86819106Y-135320209D01*
X78841158Y-135320209D01*
X78668141Y-135204603D01*
X78188601Y-135005971D01*
X77679525Y-134904710D01*
X77160475Y-134904710D01*
X76651399Y-135005971D01*
X76171859Y-135204603D01*
X75740285Y-135492972D01*
X75660000Y-135573257D01*
X75660000Y-131480185D01*
X78785000Y-131480185D01*
X78785000Y-131999235D01*
X78886261Y-132508311D01*
X79084893Y-132987851D01*
X79373262Y-133419425D01*
X79740285Y-133786448D01*
X80171859Y-134074817D01*
X80651399Y-134273449D01*
X81160475Y-134374710D01*
X81679525Y-134374710D01*
X82188601Y-134273449D01*
X82668141Y-134074817D01*
X83099715Y-133786448D01*
X83390382Y-133495781D01*
X85839352Y-133495781D01*
X85894727Y-134011869D01*
X86049721Y-134507236D01*
X86272742Y-134924482D01*
X86639501Y-135140604D01*
X88307395Y-133472710D01*
X88666605Y-133472710D01*
X90334499Y-135140604D01*
X90701258Y-134924482D01*
X90941938Y-134464605D01*
X91088275Y-133966612D01*
X91134648Y-133449639D01*
X91079273Y-132933551D01*
X90924279Y-132438184D01*
X90701258Y-132020938D01*
X90334499Y-131804816D01*
X88666605Y-133472710D01*
X88307395Y-133472710D01*
X86639501Y-131804816D01*
X86272742Y-132020938D01*
X86032062Y-132480815D01*
X85885725Y-132978808D01*
X85839352Y-133495781D01*
X83390382Y-133495781D01*
X83466738Y-133419425D01*
X83755107Y-132987851D01*
X83953739Y-132508311D01*
X84055000Y-131999235D01*
X84055000Y-131625211D01*
X86819106Y-131625211D01*
X88487000Y-133293105D01*
X90154894Y-131625211D01*
X89938772Y-131258452D01*
X89478895Y-131017772D01*
X88980902Y-130871435D01*
X88463929Y-130825062D01*
X87947841Y-130880437D01*
X87452474Y-131035431D01*
X87035228Y-131258452D01*
X86819106Y-131625211D01*
X84055000Y-131625211D01*
X84055000Y-131480185D01*
X83953739Y-130971109D01*
X83755107Y-130491569D01*
X83466738Y-130059995D01*
X83099715Y-129692972D01*
X82668141Y-129404603D01*
X82188601Y-129205971D01*
X81679525Y-129104710D01*
X81160475Y-129104710D01*
X80651399Y-129205971D01*
X80171859Y-129404603D01*
X79740285Y-129692972D01*
X79373262Y-130059995D01*
X79084893Y-130491569D01*
X78886261Y-130971109D01*
X78785000Y-131480185D01*
X75660000Y-131480185D01*
X75660000Y-121783043D01*
X81785000Y-121783043D01*
X81785000Y-122302093D01*
X81886261Y-122811169D01*
X82084893Y-123290709D01*
X82373262Y-123722283D01*
X82740285Y-124089306D01*
X83171859Y-124377675D01*
X83651399Y-124576307D01*
X84160475Y-124677568D01*
X84679525Y-124677568D01*
X85188601Y-124576307D01*
X85668141Y-124377675D01*
X86099715Y-124089306D01*
X86466738Y-123722283D01*
X86755107Y-123290709D01*
X86953739Y-122811169D01*
X87055000Y-122302093D01*
X87055000Y-121783043D01*
X86953739Y-121273967D01*
X86755107Y-120794427D01*
X86466738Y-120362853D01*
X86099715Y-119995830D01*
X85668141Y-119707461D01*
X85188601Y-119508829D01*
X84679525Y-119407568D01*
X84160475Y-119407568D01*
X83651399Y-119508829D01*
X83171859Y-119707461D01*
X82740285Y-119995830D01*
X82373262Y-120362853D01*
X82084893Y-120794427D01*
X81886261Y-121273967D01*
X81785000Y-121783043D01*
X75660000Y-121783043D01*
X75660000Y-117783043D01*
X87585000Y-117783043D01*
X87585000Y-118302093D01*
X87686261Y-118811169D01*
X87884893Y-119290709D01*
X88173262Y-119722283D01*
X88540285Y-120089306D01*
X88971859Y-120377675D01*
X89451399Y-120576307D01*
X89960475Y-120677568D01*
X90479525Y-120677568D01*
X90988601Y-120576307D01*
X91468141Y-120377675D01*
X91899715Y-120089306D01*
X92266738Y-119722283D01*
X92555107Y-119290709D01*
X92753739Y-118811169D01*
X92855000Y-118302093D01*
X92855000Y-117783043D01*
X92753739Y-117273967D01*
X92555107Y-116794427D01*
X92266738Y-116362853D01*
X91899715Y-115995830D01*
X91468141Y-115707461D01*
X90988601Y-115508829D01*
X90479525Y-115407568D01*
X89960475Y-115407568D01*
X89451399Y-115508829D01*
X88971859Y-115707461D01*
X88540285Y-115995830D01*
X88173262Y-116362853D01*
X87884893Y-116794427D01*
X87686261Y-117273967D01*
X87585000Y-117783043D01*
X75660000Y-117783043D01*
X75660000Y-117009021D01*
X75740285Y-117089306D01*
X76171859Y-117377675D01*
X76651399Y-117576307D01*
X77160475Y-117677568D01*
X77679525Y-117677568D01*
X78188601Y-117576307D01*
X78668141Y-117377675D01*
X79099715Y-117089306D01*
X79466738Y-116722283D01*
X79755107Y-116290709D01*
X79953739Y-115811169D01*
X80055000Y-115302093D01*
X80055000Y-114783043D01*
X79953739Y-114273967D01*
X79755107Y-113794427D01*
X79466738Y-113362853D01*
X79099715Y-112995830D01*
X78841158Y-112823067D01*
X86819106Y-112823067D01*
X87035228Y-113189826D01*
X87495105Y-113430506D01*
X87993098Y-113576843D01*
X88510071Y-113623216D01*
X89026159Y-113567841D01*
X89521526Y-113412847D01*
X89938772Y-113189826D01*
X90154894Y-112823067D01*
X88487000Y-111155173D01*
X86819106Y-112823067D01*
X78841158Y-112823067D01*
X78668141Y-112707461D01*
X78188601Y-112508829D01*
X77679525Y-112407568D01*
X77160475Y-112407568D01*
X76651399Y-112508829D01*
X76171859Y-112707461D01*
X75740285Y-112995830D01*
X75660000Y-113076115D01*
X75660000Y-108983043D01*
X78785000Y-108983043D01*
X78785000Y-109502093D01*
X78886261Y-110011169D01*
X79084893Y-110490709D01*
X79373262Y-110922283D01*
X79740285Y-111289306D01*
X80171859Y-111577675D01*
X80651399Y-111776307D01*
X81160475Y-111877568D01*
X81679525Y-111877568D01*
X82188601Y-111776307D01*
X82668141Y-111577675D01*
X83099715Y-111289306D01*
X83390382Y-110998639D01*
X85839352Y-110998639D01*
X85894727Y-111514727D01*
X86049721Y-112010094D01*
X86272742Y-112427340D01*
X86639501Y-112643462D01*
X88307395Y-110975568D01*
X88666605Y-110975568D01*
X90334499Y-112643462D01*
X90701258Y-112427340D01*
X90941938Y-111967463D01*
X91088275Y-111469470D01*
X91134648Y-110952497D01*
X91079273Y-110436409D01*
X90924279Y-109941042D01*
X90701258Y-109523796D01*
X90334499Y-109307674D01*
X88666605Y-110975568D01*
X88307395Y-110975568D01*
X86639501Y-109307674D01*
X86272742Y-109523796D01*
X86032062Y-109983673D01*
X85885725Y-110481666D01*
X85839352Y-110998639D01*
X83390382Y-110998639D01*
X83466738Y-110922283D01*
X83755107Y-110490709D01*
X83953739Y-110011169D01*
X84055000Y-109502093D01*
X84055000Y-109128069D01*
X86819106Y-109128069D01*
X88487000Y-110795963D01*
X90154894Y-109128069D01*
X89938772Y-108761310D01*
X89478895Y-108520630D01*
X88980902Y-108374293D01*
X88463929Y-108327920D01*
X87947841Y-108383295D01*
X87452474Y-108538289D01*
X87035228Y-108761310D01*
X86819106Y-109128069D01*
X84055000Y-109128069D01*
X84055000Y-108983043D01*
X83953739Y-108473967D01*
X83755107Y-107994427D01*
X83466738Y-107562853D01*
X83099715Y-107195830D01*
X82668141Y-106907461D01*
X82188601Y-106708829D01*
X81679525Y-106607568D01*
X81160475Y-106607568D01*
X80651399Y-106708829D01*
X80171859Y-106907461D01*
X79740285Y-107195830D01*
X79373262Y-107562853D01*
X79084893Y-107994427D01*
X78886261Y-108473967D01*
X78785000Y-108983043D01*
X75660000Y-108983043D01*
X75660000Y-99285901D01*
X81785000Y-99285901D01*
X81785000Y-99804951D01*
X81886261Y-100314027D01*
X82084893Y-100793567D01*
X82373262Y-101225141D01*
X82740285Y-101592164D01*
X83171859Y-101880533D01*
X83651399Y-102079165D01*
X84160475Y-102180426D01*
X84679525Y-102180426D01*
X85188601Y-102079165D01*
X85668141Y-101880533D01*
X86099715Y-101592164D01*
X86466738Y-101225141D01*
X86755107Y-100793567D01*
X86953739Y-100314027D01*
X87055000Y-99804951D01*
X87055000Y-99285901D01*
X86953739Y-98776825D01*
X86755107Y-98297285D01*
X86466738Y-97865711D01*
X86099715Y-97498688D01*
X85668141Y-97210319D01*
X85188601Y-97011687D01*
X84679525Y-96910426D01*
X84160475Y-96910426D01*
X83651399Y-97011687D01*
X83171859Y-97210319D01*
X82740285Y-97498688D01*
X82373262Y-97865711D01*
X82084893Y-98297285D01*
X81886261Y-98776825D01*
X81785000Y-99285901D01*
X75660000Y-99285901D01*
X75660000Y-95285901D01*
X87585000Y-95285901D01*
X87585000Y-95804951D01*
X87686261Y-96314027D01*
X87884893Y-96793567D01*
X88173262Y-97225141D01*
X88540285Y-97592164D01*
X88971859Y-97880533D01*
X89451399Y-98079165D01*
X89960475Y-98180426D01*
X90479525Y-98180426D01*
X90988601Y-98079165D01*
X91468141Y-97880533D01*
X91899715Y-97592164D01*
X92266738Y-97225141D01*
X92555107Y-96793567D01*
X92753739Y-96314027D01*
X92855000Y-95804951D01*
X92855000Y-95285901D01*
X92753739Y-94776825D01*
X92555107Y-94297285D01*
X92266738Y-93865711D01*
X91899715Y-93498688D01*
X91468141Y-93210319D01*
X90988601Y-93011687D01*
X90479525Y-92910426D01*
X89960475Y-92910426D01*
X89451399Y-93011687D01*
X88971859Y-93210319D01*
X88540285Y-93498688D01*
X88173262Y-93865711D01*
X87884893Y-94297285D01*
X87686261Y-94776825D01*
X87585000Y-95285901D01*
X75660000Y-95285901D01*
X75660000Y-94511879D01*
X75740285Y-94592164D01*
X76171859Y-94880533D01*
X76651399Y-95079165D01*
X77160475Y-95180426D01*
X77679525Y-95180426D01*
X78188601Y-95079165D01*
X78668141Y-94880533D01*
X79099715Y-94592164D01*
X79466738Y-94225141D01*
X79755107Y-93793567D01*
X79953739Y-93314027D01*
X80055000Y-92804951D01*
X80055000Y-92285901D01*
X79953739Y-91776825D01*
X79755107Y-91297285D01*
X79466738Y-90865711D01*
X79099715Y-90498688D01*
X78841158Y-90325925D01*
X86819106Y-90325925D01*
X87035228Y-90692684D01*
X87495105Y-90933364D01*
X87993098Y-91079701D01*
X88510071Y-91126074D01*
X89026159Y-91070699D01*
X89521526Y-90915705D01*
X89938772Y-90692684D01*
X90154894Y-90325925D01*
X88487000Y-88658031D01*
X86819106Y-90325925D01*
X78841158Y-90325925D01*
X78668141Y-90210319D01*
X78188601Y-90011687D01*
X77679525Y-89910426D01*
X77160475Y-89910426D01*
X76651399Y-90011687D01*
X76171859Y-90210319D01*
X75740285Y-90498688D01*
X75660000Y-90578973D01*
X75660000Y-86485901D01*
X78785000Y-86485901D01*
X78785000Y-87004951D01*
X78886261Y-87514027D01*
X79084893Y-87993567D01*
X79373262Y-88425141D01*
X79740285Y-88792164D01*
X80171859Y-89080533D01*
X80651399Y-89279165D01*
X81160475Y-89380426D01*
X81679525Y-89380426D01*
X82188601Y-89279165D01*
X82668141Y-89080533D01*
X83099715Y-88792164D01*
X83390382Y-88501497D01*
X85839352Y-88501497D01*
X85894727Y-89017585D01*
X86049721Y-89512952D01*
X86272742Y-89930198D01*
X86639501Y-90146320D01*
X88307395Y-88478426D01*
X88666605Y-88478426D01*
X90334499Y-90146320D01*
X90701258Y-89930198D01*
X90941938Y-89470321D01*
X91088275Y-88972328D01*
X91134648Y-88455355D01*
X91079273Y-87939267D01*
X90924279Y-87443900D01*
X90701258Y-87026654D01*
X90334499Y-86810532D01*
X88666605Y-88478426D01*
X88307395Y-88478426D01*
X86639501Y-86810532D01*
X86272742Y-87026654D01*
X86032062Y-87486531D01*
X85885725Y-87984524D01*
X85839352Y-88501497D01*
X83390382Y-88501497D01*
X83466738Y-88425141D01*
X83755107Y-87993567D01*
X83953739Y-87514027D01*
X84055000Y-87004951D01*
X84055000Y-86630927D01*
X86819106Y-86630927D01*
X88487000Y-88298821D01*
X90154894Y-86630927D01*
X89938772Y-86264168D01*
X89478895Y-86023488D01*
X88980902Y-85877151D01*
X88463929Y-85830778D01*
X87947841Y-85886153D01*
X87452474Y-86041147D01*
X87035228Y-86264168D01*
X86819106Y-86630927D01*
X84055000Y-86630927D01*
X84055000Y-86485901D01*
X83953739Y-85976825D01*
X83755107Y-85497285D01*
X83466738Y-85065711D01*
X83099715Y-84698688D01*
X82668141Y-84410319D01*
X82188601Y-84211687D01*
X81679525Y-84110426D01*
X81160475Y-84110426D01*
X80651399Y-84211687D01*
X80171859Y-84410319D01*
X79740285Y-84698688D01*
X79373262Y-85065711D01*
X79084893Y-85497285D01*
X78886261Y-85976825D01*
X78785000Y-86485901D01*
X75660000Y-86485901D01*
X75660000Y-76788759D01*
X81785000Y-76788759D01*
X81785000Y-77307809D01*
X81886261Y-77816885D01*
X82084893Y-78296425D01*
X82373262Y-78727999D01*
X82740285Y-79095022D01*
X83171859Y-79383391D01*
X83651399Y-79582023D01*
X84160475Y-79683284D01*
X84679525Y-79683284D01*
X85188601Y-79582023D01*
X85668141Y-79383391D01*
X86099715Y-79095022D01*
X86466738Y-78727999D01*
X86755107Y-78296425D01*
X86953739Y-77816885D01*
X87055000Y-77307809D01*
X87055000Y-76788759D01*
X86953739Y-76279683D01*
X86755107Y-75800143D01*
X86466738Y-75368569D01*
X86099715Y-75001546D01*
X85668141Y-74713177D01*
X85188601Y-74514545D01*
X84679525Y-74413284D01*
X84160475Y-74413284D01*
X83651399Y-74514545D01*
X83171859Y-74713177D01*
X82740285Y-75001546D01*
X82373262Y-75368569D01*
X82084893Y-75800143D01*
X81886261Y-76279683D01*
X81785000Y-76788759D01*
X75660000Y-76788759D01*
X75660000Y-72788759D01*
X87585000Y-72788759D01*
X87585000Y-73307809D01*
X87686261Y-73816885D01*
X87884893Y-74296425D01*
X88173262Y-74727999D01*
X88540285Y-75095022D01*
X88971859Y-75383391D01*
X89451399Y-75582023D01*
X89960475Y-75683284D01*
X90479525Y-75683284D01*
X90988601Y-75582023D01*
X91468141Y-75383391D01*
X91899715Y-75095022D01*
X92266738Y-74727999D01*
X92555107Y-74296425D01*
X92753739Y-73816885D01*
X92855000Y-73307809D01*
X92855000Y-72788759D01*
X92753739Y-72279683D01*
X92555107Y-71800143D01*
X92266738Y-71368569D01*
X91899715Y-71001546D01*
X91468141Y-70713177D01*
X90988601Y-70514545D01*
X90479525Y-70413284D01*
X89960475Y-70413284D01*
X89451399Y-70514545D01*
X88971859Y-70713177D01*
X88540285Y-71001546D01*
X88173262Y-71368569D01*
X87884893Y-71800143D01*
X87686261Y-72279683D01*
X87585000Y-72788759D01*
X75660000Y-72788759D01*
X75660000Y-72014737D01*
X75740285Y-72095022D01*
X76171859Y-72383391D01*
X76651399Y-72582023D01*
X77160475Y-72683284D01*
X77679525Y-72683284D01*
X78188601Y-72582023D01*
X78668141Y-72383391D01*
X79099715Y-72095022D01*
X79466738Y-71727999D01*
X79755107Y-71296425D01*
X79953739Y-70816885D01*
X80055000Y-70307809D01*
X80055000Y-69788759D01*
X79953739Y-69279683D01*
X79755107Y-68800143D01*
X79466738Y-68368569D01*
X79099715Y-68001546D01*
X78841158Y-67828783D01*
X86819106Y-67828783D01*
X87035228Y-68195542D01*
X87495105Y-68436222D01*
X87993098Y-68582559D01*
X88510071Y-68628932D01*
X89026159Y-68573557D01*
X89521526Y-68418563D01*
X89938772Y-68195542D01*
X90154894Y-67828783D01*
X88487000Y-66160889D01*
X86819106Y-67828783D01*
X78841158Y-67828783D01*
X78668141Y-67713177D01*
X78188601Y-67514545D01*
X77679525Y-67413284D01*
X77160475Y-67413284D01*
X76651399Y-67514545D01*
X76171859Y-67713177D01*
X75740285Y-68001546D01*
X75660000Y-68081831D01*
X75660000Y-63988759D01*
X78785000Y-63988759D01*
X78785000Y-64507809D01*
X78886261Y-65016885D01*
X79084893Y-65496425D01*
X79373262Y-65927999D01*
X79740285Y-66295022D01*
X80171859Y-66583391D01*
X80651399Y-66782023D01*
X81160475Y-66883284D01*
X81679525Y-66883284D01*
X82188601Y-66782023D01*
X82668141Y-66583391D01*
X83099715Y-66295022D01*
X83390382Y-66004355D01*
X85839352Y-66004355D01*
X85894727Y-66520443D01*
X86049721Y-67015810D01*
X86272742Y-67433056D01*
X86639501Y-67649178D01*
X88307395Y-65981284D01*
X88666605Y-65981284D01*
X90334499Y-67649178D01*
X90701258Y-67433056D01*
X90941938Y-66973179D01*
X91088275Y-66475186D01*
X91134648Y-65958213D01*
X91079273Y-65442125D01*
X90924279Y-64946758D01*
X90701258Y-64529512D01*
X90334499Y-64313390D01*
X88666605Y-65981284D01*
X88307395Y-65981284D01*
X86639501Y-64313390D01*
X86272742Y-64529512D01*
X86032062Y-64989389D01*
X85885725Y-65487382D01*
X85839352Y-66004355D01*
X83390382Y-66004355D01*
X83466738Y-65927999D01*
X83755107Y-65496425D01*
X83953739Y-65016885D01*
X84055000Y-64507809D01*
X84055000Y-64133785D01*
X86819106Y-64133785D01*
X88487000Y-65801679D01*
X90154894Y-64133785D01*
X89938772Y-63767026D01*
X89478895Y-63526346D01*
X88980902Y-63380009D01*
X88463929Y-63333636D01*
X87947841Y-63389011D01*
X87452474Y-63544005D01*
X87035228Y-63767026D01*
X86819106Y-64133785D01*
X84055000Y-64133785D01*
X84055000Y-63988759D01*
X83953739Y-63479683D01*
X83755107Y-63000143D01*
X83466738Y-62568569D01*
X83099715Y-62201546D01*
X82668141Y-61913177D01*
X82188601Y-61714545D01*
X81679525Y-61613284D01*
X81160475Y-61613284D01*
X80651399Y-61714545D01*
X80171859Y-61913177D01*
X79740285Y-62201546D01*
X79373262Y-62568569D01*
X79084893Y-63000143D01*
X78886261Y-63479683D01*
X78785000Y-63988759D01*
X75660000Y-63988759D01*
X75660000Y-57746000D01*
X100873928Y-57746000D01*
X100886188Y-57870482D01*
X100922498Y-57990180D01*
X100981463Y-58100494D01*
X101060815Y-58197185D01*
X101157506Y-58276537D01*
X101267820Y-58335502D01*
X101387518Y-58371812D01*
X101512000Y-58384072D01*
X102076250Y-58381000D01*
X102235000Y-58222250D01*
X102235000Y-57023000D01*
X101035750Y-57023000D01*
X100877000Y-57181750D01*
X100873928Y-57746000D01*
X75660000Y-57746000D01*
X75660000Y-54291617D01*
X81785000Y-54291617D01*
X81785000Y-54810667D01*
X81886261Y-55319743D01*
X82084893Y-55799283D01*
X82373262Y-56230857D01*
X82740285Y-56597880D01*
X83171859Y-56886249D01*
X83651399Y-57084881D01*
X84160475Y-57186142D01*
X84679525Y-57186142D01*
X85188601Y-57084881D01*
X85668141Y-56886249D01*
X86099715Y-56597880D01*
X86466738Y-56230857D01*
X86590255Y-56046000D01*
X100873928Y-56046000D01*
X100877000Y-56610250D01*
X101035750Y-56769000D01*
X102235000Y-56769000D01*
X102235000Y-55569750D01*
X102489000Y-55569750D01*
X102489000Y-56769000D01*
X102509000Y-56769000D01*
X102509000Y-57023000D01*
X102489000Y-57023000D01*
X102489000Y-58222250D01*
X102647750Y-58381000D01*
X103212000Y-58384072D01*
X103336482Y-58371812D01*
X103456180Y-58335502D01*
X103566494Y-58276537D01*
X103663185Y-58197185D01*
X103742537Y-58100494D01*
X103801502Y-57990180D01*
X103823513Y-57917620D01*
X103955368Y-58049475D01*
X104198589Y-58211990D01*
X104468842Y-58323932D01*
X104755740Y-58381000D01*
X105048260Y-58381000D01*
X105335158Y-58323932D01*
X105605411Y-58211990D01*
X105848632Y-58049475D01*
X106055475Y-57842632D01*
X106172000Y-57668240D01*
X106288525Y-57842632D01*
X106495368Y-58049475D01*
X106738589Y-58211990D01*
X107008842Y-58323932D01*
X107295740Y-58381000D01*
X107588260Y-58381000D01*
X107875158Y-58323932D01*
X108145411Y-58211990D01*
X108388632Y-58049475D01*
X108595475Y-57842632D01*
X108712000Y-57668240D01*
X108828525Y-57842632D01*
X109035368Y-58049475D01*
X109278589Y-58211990D01*
X109548842Y-58323932D01*
X109835740Y-58381000D01*
X110128260Y-58381000D01*
X110415158Y-58323932D01*
X110685411Y-58211990D01*
X110928632Y-58049475D01*
X111135475Y-57842632D01*
X111252000Y-57668240D01*
X111368525Y-57842632D01*
X111575368Y-58049475D01*
X111818589Y-58211990D01*
X112088842Y-58323932D01*
X112375740Y-58381000D01*
X112668260Y-58381000D01*
X112955158Y-58323932D01*
X113225411Y-58211990D01*
X113468632Y-58049475D01*
X113675475Y-57842632D01*
X113792000Y-57668240D01*
X113908525Y-57842632D01*
X114115368Y-58049475D01*
X114358589Y-58211990D01*
X114628842Y-58323932D01*
X114915740Y-58381000D01*
X115208260Y-58381000D01*
X115495158Y-58323932D01*
X115765411Y-58211990D01*
X116008632Y-58049475D01*
X116215475Y-57842632D01*
X116377990Y-57599411D01*
X116489932Y-57329158D01*
X116547000Y-57042260D01*
X116547000Y-56749740D01*
X116489932Y-56462842D01*
X116377990Y-56192589D01*
X116215475Y-55949368D01*
X116008632Y-55742525D01*
X115765411Y-55580010D01*
X115495158Y-55468068D01*
X115208260Y-55411000D01*
X114915740Y-55411000D01*
X114628842Y-55468068D01*
X114358589Y-55580010D01*
X114115368Y-55742525D01*
X113908525Y-55949368D01*
X113792000Y-56123760D01*
X113675475Y-55949368D01*
X113468632Y-55742525D01*
X113225411Y-55580010D01*
X112955158Y-55468068D01*
X112668260Y-55411000D01*
X112375740Y-55411000D01*
X112088842Y-55468068D01*
X111818589Y-55580010D01*
X111575368Y-55742525D01*
X111368525Y-55949368D01*
X111252000Y-56123760D01*
X111135475Y-55949368D01*
X110928632Y-55742525D01*
X110685411Y-55580010D01*
X110415158Y-55468068D01*
X110128260Y-55411000D01*
X109835740Y-55411000D01*
X109548842Y-55468068D01*
X109278589Y-55580010D01*
X109035368Y-55742525D01*
X108828525Y-55949368D01*
X108712000Y-56123760D01*
X108595475Y-55949368D01*
X108388632Y-55742525D01*
X108145411Y-55580010D01*
X107875158Y-55468068D01*
X107588260Y-55411000D01*
X107295740Y-55411000D01*
X107008842Y-55468068D01*
X106738589Y-55580010D01*
X106495368Y-55742525D01*
X106288525Y-55949368D01*
X106172000Y-56123760D01*
X106055475Y-55949368D01*
X105848632Y-55742525D01*
X105605411Y-55580010D01*
X105335158Y-55468068D01*
X105048260Y-55411000D01*
X104755740Y-55411000D01*
X104468842Y-55468068D01*
X104198589Y-55580010D01*
X103955368Y-55742525D01*
X103823513Y-55874380D01*
X103801502Y-55801820D01*
X103742537Y-55691506D01*
X103663185Y-55594815D01*
X103566494Y-55515463D01*
X103456180Y-55456498D01*
X103336482Y-55420188D01*
X103212000Y-55407928D01*
X102647750Y-55411000D01*
X102489000Y-55569750D01*
X102235000Y-55569750D01*
X102076250Y-55411000D01*
X101512000Y-55407928D01*
X101387518Y-55420188D01*
X101267820Y-55456498D01*
X101157506Y-55515463D01*
X101060815Y-55594815D01*
X100981463Y-55691506D01*
X100922498Y-55801820D01*
X100886188Y-55921518D01*
X100873928Y-56046000D01*
X86590255Y-56046000D01*
X86755107Y-55799283D01*
X86953739Y-55319743D01*
X87055000Y-54810667D01*
X87055000Y-54291617D01*
X86953739Y-53782541D01*
X86755107Y-53303001D01*
X86466738Y-52871427D01*
X86099715Y-52504404D01*
X85668141Y-52216035D01*
X85188601Y-52017403D01*
X84679525Y-51916142D01*
X84160475Y-51916142D01*
X83651399Y-52017403D01*
X83171859Y-52216035D01*
X82740285Y-52504404D01*
X82373262Y-52871427D01*
X82084893Y-53303001D01*
X81886261Y-53782541D01*
X81785000Y-54291617D01*
X75660000Y-54291617D01*
X75660000Y-50291617D01*
X87585000Y-50291617D01*
X87585000Y-50810667D01*
X87686261Y-51319743D01*
X87884893Y-51799283D01*
X88173262Y-52230857D01*
X88540285Y-52597880D01*
X88971859Y-52886249D01*
X89451399Y-53084881D01*
X89960475Y-53186142D01*
X90479525Y-53186142D01*
X90988601Y-53084881D01*
X91468141Y-52886249D01*
X91899715Y-52597880D01*
X92266738Y-52230857D01*
X92555107Y-51799283D01*
X92753739Y-51319743D01*
X92855000Y-50810667D01*
X92855000Y-50291617D01*
X92753739Y-49782541D01*
X92555107Y-49303001D01*
X92266738Y-48871427D01*
X91899715Y-48504404D01*
X91468141Y-48216035D01*
X90988601Y-48017403D01*
X90479525Y-47916142D01*
X89960475Y-47916142D01*
X89451399Y-48017403D01*
X88971859Y-48216035D01*
X88540285Y-48504404D01*
X88173262Y-48871427D01*
X87884893Y-49303001D01*
X87686261Y-49782541D01*
X87585000Y-50291617D01*
X75660000Y-50291617D01*
X75660000Y-49517595D01*
X75740285Y-49597880D01*
X76171859Y-49886249D01*
X76651399Y-50084881D01*
X77160475Y-50186142D01*
X77679525Y-50186142D01*
X78188601Y-50084881D01*
X78668141Y-49886249D01*
X79099715Y-49597880D01*
X79466738Y-49230857D01*
X79755107Y-48799283D01*
X79953739Y-48319743D01*
X80055000Y-47810667D01*
X80055000Y-47291617D01*
X79953739Y-46782541D01*
X79755107Y-46303001D01*
X79466738Y-45871427D01*
X79099715Y-45504404D01*
X78841158Y-45331641D01*
X86819106Y-45331641D01*
X87035228Y-45698400D01*
X87495105Y-45939080D01*
X87993098Y-46085417D01*
X88510071Y-46131790D01*
X89026159Y-46076415D01*
X89521526Y-45921421D01*
X89938772Y-45698400D01*
X90154894Y-45331641D01*
X88487000Y-43663747D01*
X86819106Y-45331641D01*
X78841158Y-45331641D01*
X78668141Y-45216035D01*
X78188601Y-45017403D01*
X77679525Y-44916142D01*
X77160475Y-44916142D01*
X76651399Y-45017403D01*
X76171859Y-45216035D01*
X75740285Y-45504404D01*
X75660000Y-45584689D01*
X75660000Y-41491617D01*
X78785000Y-41491617D01*
X78785000Y-42010667D01*
X78886261Y-42519743D01*
X79084893Y-42999283D01*
X79373262Y-43430857D01*
X79740285Y-43797880D01*
X80171859Y-44086249D01*
X80651399Y-44284881D01*
X81160475Y-44386142D01*
X81679525Y-44386142D01*
X82188601Y-44284881D01*
X82668141Y-44086249D01*
X83099715Y-43797880D01*
X83390382Y-43507213D01*
X85839352Y-43507213D01*
X85894727Y-44023301D01*
X86049721Y-44518668D01*
X86272742Y-44935914D01*
X86639501Y-45152036D01*
X88307395Y-43484142D01*
X88666605Y-43484142D01*
X90334499Y-45152036D01*
X90701258Y-44935914D01*
X90941938Y-44476037D01*
X91088275Y-43978044D01*
X91134648Y-43461071D01*
X91079273Y-42944983D01*
X90924279Y-42449616D01*
X90701258Y-42032370D01*
X90334499Y-41816248D01*
X88666605Y-43484142D01*
X88307395Y-43484142D01*
X86639501Y-41816248D01*
X86272742Y-42032370D01*
X86032062Y-42492247D01*
X85885725Y-42990240D01*
X85839352Y-43507213D01*
X83390382Y-43507213D01*
X83466738Y-43430857D01*
X83755107Y-42999283D01*
X83953739Y-42519743D01*
X84055000Y-42010667D01*
X84055000Y-41636643D01*
X86819106Y-41636643D01*
X88487000Y-43304537D01*
X90154894Y-41636643D01*
X89938772Y-41269884D01*
X89478895Y-41029204D01*
X88980902Y-40882867D01*
X88463929Y-40836494D01*
X87947841Y-40891869D01*
X87452474Y-41046863D01*
X87035228Y-41269884D01*
X86819106Y-41636643D01*
X84055000Y-41636643D01*
X84055000Y-41491617D01*
X83953739Y-40982541D01*
X83755107Y-40503001D01*
X83466738Y-40071427D01*
X83099715Y-39704404D01*
X82668141Y-39416035D01*
X82188601Y-39217403D01*
X81679525Y-39116142D01*
X81160475Y-39116142D01*
X80651399Y-39217403D01*
X80171859Y-39416035D01*
X79740285Y-39704404D01*
X79373262Y-40071427D01*
X79084893Y-40503001D01*
X78886261Y-40982541D01*
X78785000Y-41491617D01*
X75660000Y-41491617D01*
X75660000Y-31794475D01*
X81785000Y-31794475D01*
X81785000Y-32313525D01*
X81886261Y-32822601D01*
X82084893Y-33302141D01*
X82373262Y-33733715D01*
X82740285Y-34100738D01*
X83171859Y-34389107D01*
X83651399Y-34587739D01*
X84160475Y-34689000D01*
X84679525Y-34689000D01*
X85188601Y-34587739D01*
X85668141Y-34389107D01*
X86099715Y-34100738D01*
X86466738Y-33733715D01*
X86755107Y-33302141D01*
X86953739Y-32822601D01*
X87055000Y-32313525D01*
X87055000Y-31794475D01*
X86953739Y-31285399D01*
X86755107Y-30805859D01*
X86466738Y-30374285D01*
X86099715Y-30007262D01*
X85668141Y-29718893D01*
X85188601Y-29520261D01*
X84679525Y-29419000D01*
X84160475Y-29419000D01*
X83651399Y-29520261D01*
X83171859Y-29718893D01*
X82740285Y-30007262D01*
X82373262Y-30374285D01*
X82084893Y-30805859D01*
X81886261Y-31285399D01*
X81785000Y-31794475D01*
X75660000Y-31794475D01*
X75660000Y-27794475D01*
X87585000Y-27794475D01*
X87585000Y-28313525D01*
X87686261Y-28822601D01*
X87884893Y-29302141D01*
X88173262Y-29733715D01*
X88540285Y-30100738D01*
X88971859Y-30389107D01*
X89451399Y-30587739D01*
X89960475Y-30689000D01*
X90479525Y-30689000D01*
X90988601Y-30587739D01*
X91468141Y-30389107D01*
X91899715Y-30100738D01*
X92266738Y-29733715D01*
X92555107Y-29302141D01*
X92753739Y-28822601D01*
X92855000Y-28313525D01*
X92855000Y-27794475D01*
X92753739Y-27285399D01*
X92555107Y-26805859D01*
X92266738Y-26374285D01*
X91899715Y-26007262D01*
X91468141Y-25718893D01*
X90988601Y-25520261D01*
X90479525Y-25419000D01*
X89960475Y-25419000D01*
X89451399Y-25520261D01*
X88971859Y-25718893D01*
X88540285Y-26007262D01*
X88173262Y-26374285D01*
X87884893Y-26805859D01*
X87686261Y-27285399D01*
X87585000Y-27794475D01*
X75660000Y-27794475D01*
X75660000Y-27020453D01*
X75740285Y-27100738D01*
X76171859Y-27389107D01*
X76651399Y-27587739D01*
X77160475Y-27689000D01*
X77679525Y-27689000D01*
X78188601Y-27587739D01*
X78668141Y-27389107D01*
X79099715Y-27100738D01*
X79466738Y-26733715D01*
X79755107Y-26302141D01*
X79953739Y-25822601D01*
X80055000Y-25313525D01*
X80055000Y-24794475D01*
X79953739Y-24285399D01*
X79755107Y-23805859D01*
X79466738Y-23374285D01*
X79099715Y-23007262D01*
X78841158Y-22834499D01*
X86819106Y-22834499D01*
X87035228Y-23201258D01*
X87495105Y-23441938D01*
X87993098Y-23588275D01*
X88510071Y-23634648D01*
X89026159Y-23579273D01*
X89521526Y-23424279D01*
X89938772Y-23201258D01*
X90154894Y-22834499D01*
X88487000Y-21166605D01*
X86819106Y-22834499D01*
X78841158Y-22834499D01*
X78668141Y-22718893D01*
X78188601Y-22520261D01*
X77679525Y-22419000D01*
X77160475Y-22419000D01*
X76651399Y-22520261D01*
X76171859Y-22718893D01*
X75740285Y-23007262D01*
X75660000Y-23087547D01*
X75660000Y-17678000D01*
X79303962Y-17678000D01*
X79084893Y-18005859D01*
G37*
X79084893Y-18005859D02*
X78886261Y-18485399D01*
X78785000Y-18994475D01*
X78785000Y-19513525D01*
X78886261Y-20022601D01*
X79084893Y-20502141D01*
X79373262Y-20933715D01*
X79740285Y-21300738D01*
X80171859Y-21589107D01*
X80651399Y-21787739D01*
X81160475Y-21889000D01*
X81679525Y-21889000D01*
X82188601Y-21787739D01*
X82668141Y-21589107D01*
X83099715Y-21300738D01*
X83390382Y-21010071D01*
X85839352Y-21010071D01*
X85894727Y-21526159D01*
X86049721Y-22021526D01*
X86272742Y-22438772D01*
X86639501Y-22654894D01*
X88307395Y-20987000D01*
X88666605Y-20987000D01*
X90334499Y-22654894D01*
X90701258Y-22438772D01*
X90932776Y-21996400D01*
X101368328Y-21996400D01*
X101368328Y-23723600D01*
X101380588Y-23848082D01*
X101416898Y-23967780D01*
X101475863Y-24078094D01*
X101555215Y-24174785D01*
X101651906Y-24254137D01*
X101762220Y-24313102D01*
X101820023Y-24330636D01*
X101705961Y-24444698D01*
X101541958Y-24690147D01*
X101428990Y-24962875D01*
X101371400Y-25252401D01*
X101371400Y-25547599D01*
X101428990Y-25837125D01*
X101541958Y-26109853D01*
X101705961Y-26355302D01*
X101914698Y-26564039D01*
X102160147Y-26728042D01*
X102432875Y-26841010D01*
X102722401Y-26898600D01*
X103017599Y-26898600D01*
X103307125Y-26841010D01*
X103579853Y-26728042D01*
X103825302Y-26564039D01*
X104034039Y-26355302D01*
X104144559Y-26189897D01*
X104203183Y-26288488D01*
X104399707Y-26506854D01*
X104635056Y-26682684D01*
X104900186Y-26809222D01*
X105050974Y-26854958D01*
X105283000Y-26733817D01*
X105283000Y-25527000D01*
X105537000Y-25527000D01*
X105537000Y-26733817D01*
X105769026Y-26854958D01*
X105919814Y-26809222D01*
X106184944Y-26682684D01*
X106420293Y-26506854D01*
X106616817Y-26288488D01*
X106680000Y-26182230D01*
X106743183Y-26288488D01*
X106939707Y-26506854D01*
X107175056Y-26682684D01*
X107440186Y-26809222D01*
X107590974Y-26854958D01*
X107823000Y-26733817D01*
X107823000Y-25527000D01*
X108077000Y-25527000D01*
X108077000Y-26733817D01*
X108309026Y-26854958D01*
X108459814Y-26809222D01*
X108724944Y-26682684D01*
X108960293Y-26506854D01*
X109156817Y-26288488D01*
X109220000Y-26182230D01*
X109283183Y-26288488D01*
X109479707Y-26506854D01*
X109715056Y-26682684D01*
X109980186Y-26809222D01*
X110130974Y-26854958D01*
X110363000Y-26733817D01*
X110363000Y-25527000D01*
X108077000Y-25527000D01*
X107823000Y-25527000D01*
X105537000Y-25527000D01*
X105283000Y-25527000D01*
X105263000Y-25527000D01*
X105263000Y-25273000D01*
X105283000Y-25273000D01*
X105283000Y-22987000D01*
X105537000Y-22987000D01*
X105537000Y-25273000D01*
X107823000Y-25273000D01*
X107823000Y-22987000D01*
X108077000Y-22987000D01*
X108077000Y-25273000D01*
X110363000Y-25273000D01*
X110363000Y-22987000D01*
X108077000Y-22987000D01*
X107823000Y-22987000D01*
X105537000Y-22987000D01*
X105283000Y-22987000D01*
X105263000Y-22987000D01*
X105263000Y-22733000D01*
X105283000Y-22733000D01*
X105283000Y-21526183D01*
X105537000Y-21526183D01*
X105537000Y-22733000D01*
X107823000Y-22733000D01*
X107823000Y-21526183D01*
X108077000Y-21526183D01*
X108077000Y-22733000D01*
X110363000Y-22733000D01*
X110363000Y-21526183D01*
X110617000Y-21526183D01*
X110617000Y-22733000D01*
X110637000Y-22733000D01*
X110637000Y-22987000D01*
X110617000Y-22987000D01*
X110617000Y-25273000D01*
X110637000Y-25273000D01*
X110637000Y-25527000D01*
X110617000Y-25527000D01*
X110617000Y-26733817D01*
X110849026Y-26854958D01*
X110999814Y-26809222D01*
X111264944Y-26682684D01*
X111500293Y-26506854D01*
X111696817Y-26288488D01*
X111755441Y-26189897D01*
X111865961Y-26355302D01*
X112074698Y-26564039D01*
X112320147Y-26728042D01*
X112592875Y-26841010D01*
X112882401Y-26898600D01*
X113177599Y-26898600D01*
X113467125Y-26841010D01*
X113739853Y-26728042D01*
X113985302Y-26564039D01*
X114194039Y-26355302D01*
X114358042Y-26109853D01*
X114471010Y-25837125D01*
X114528600Y-25547599D01*
X114528600Y-25252401D01*
X114471010Y-24962875D01*
X114358042Y-24690147D01*
X114194039Y-24444698D01*
X113985302Y-24235961D01*
X113826719Y-24130000D01*
X113985302Y-24024039D01*
X114194039Y-23815302D01*
X114358042Y-23569853D01*
X114471010Y-23297125D01*
X114528600Y-23007599D01*
X114528600Y-22712401D01*
X114471010Y-22422875D01*
X114358042Y-22150147D01*
X114194039Y-21904698D01*
X113985302Y-21695961D01*
X113739853Y-21531958D01*
X113467125Y-21418990D01*
X113177599Y-21361400D01*
X112882401Y-21361400D01*
X112592875Y-21418990D01*
X112320147Y-21531958D01*
X112074698Y-21695961D01*
X111865961Y-21904698D01*
X111755441Y-22070103D01*
X111696817Y-21971512D01*
X111500293Y-21753146D01*
X111264944Y-21577316D01*
X110999814Y-21450778D01*
X110849026Y-21405042D01*
X110617000Y-21526183D01*
X110363000Y-21526183D01*
X110130974Y-21405042D01*
X109980186Y-21450778D01*
X109715056Y-21577316D01*
X109479707Y-21753146D01*
X109283183Y-21971512D01*
X109220000Y-22077770D01*
X109156817Y-21971512D01*
X108960293Y-21753146D01*
X108724944Y-21577316D01*
X108459814Y-21450778D01*
X108309026Y-21405042D01*
X108077000Y-21526183D01*
X107823000Y-21526183D01*
X107590974Y-21405042D01*
X107440186Y-21450778D01*
X107175056Y-21577316D01*
X106939707Y-21753146D01*
X106743183Y-21971512D01*
X106680000Y-22077770D01*
X106616817Y-21971512D01*
X106420293Y-21753146D01*
X106184944Y-21577316D01*
X105919814Y-21450778D01*
X105769026Y-21405042D01*
X105537000Y-21526183D01*
X105283000Y-21526183D01*
X105050974Y-21405042D01*
X104900186Y-21450778D01*
X104635056Y-21577316D01*
X104399707Y-21753146D01*
X104342624Y-21816574D01*
X104323102Y-21752220D01*
X104264137Y-21641906D01*
X104184785Y-21545215D01*
X104088094Y-21465863D01*
X103977780Y-21406898D01*
X103858082Y-21370588D01*
X103733600Y-21358328D01*
X102006400Y-21358328D01*
X101881918Y-21370588D01*
X101762220Y-21406898D01*
X101651906Y-21465863D01*
X101555215Y-21545215D01*
X101475863Y-21641906D01*
X101416898Y-21752220D01*
X101380588Y-21871918D01*
X101368328Y-21996400D01*
X90932776Y-21996400D01*
X90941938Y-21978895D01*
X91088275Y-21480902D01*
X91134648Y-20963929D01*
X91079273Y-20447841D01*
X90924279Y-19952474D01*
X90701258Y-19535228D01*
X90334499Y-19319106D01*
X88666605Y-20987000D01*
X88307395Y-20987000D01*
X86639501Y-19319106D01*
X86272742Y-19535228D01*
X86032062Y-19995105D01*
X85885725Y-20493098D01*
X85839352Y-21010071D01*
X83390382Y-21010071D01*
X83466738Y-20933715D01*
X83755107Y-20502141D01*
X83953739Y-20022601D01*
X84055000Y-19513525D01*
X84055000Y-19139501D01*
X86819106Y-19139501D01*
X88487000Y-20807395D01*
X90154894Y-19139501D01*
X89938772Y-18772742D01*
X89478895Y-18532062D01*
X88980902Y-18385725D01*
X88463929Y-18339352D01*
X87947841Y-18394727D01*
X87452474Y-18549721D01*
X87035228Y-18772742D01*
X86819106Y-19139501D01*
X84055000Y-19139501D01*
X84055000Y-18994475D01*
X83953739Y-18485399D01*
X83755107Y-18005859D01*
X83536038Y-17678000D01*
X123340000Y-17678000D01*
X123340001Y-191110000D01*
X86536038Y-191110000D01*
X86755107Y-190782141D01*
X86953739Y-190302601D01*
X87055000Y-189793525D01*
X87055000Y-189274475D01*
X86953739Y-188765399D01*
X86755107Y-188285859D01*
X86466738Y-187854285D01*
X86099715Y-187487262D01*
X85668141Y-187198893D01*
X85188601Y-187000261D01*
X84679525Y-186899000D01*
X84160475Y-186899000D01*
X83651399Y-187000261D01*
X83171859Y-187198893D01*
X82740285Y-187487262D01*
X82373262Y-187854285D01*
X82084893Y-188285859D01*
X81886261Y-188765399D01*
X81785000Y-189274475D01*
X81785000Y-189793525D01*
X81886261Y-190302601D01*
X82084893Y-190782141D01*
X82303962Y-191110000D01*
X75660000Y-191110000D01*
X75660000Y-185274475D01*
X87585000Y-185274475D01*
X87585000Y-185793525D01*
X87686261Y-186302601D01*
X87884893Y-186782141D01*
X88173262Y-187213715D01*
X88540285Y-187580738D01*
X88971859Y-187869107D01*
X89451399Y-188067739D01*
X89960475Y-188169000D01*
X90479525Y-188169000D01*
X90988601Y-188067739D01*
X91468141Y-187869107D01*
X91899715Y-187580738D01*
X92266738Y-187213715D01*
X92555107Y-186782141D01*
X92753739Y-186302601D01*
X92855000Y-185793525D01*
X92855000Y-185274475D01*
X92753739Y-184765399D01*
X92555107Y-184285859D01*
X92266738Y-183854285D01*
X91899715Y-183487262D01*
X91468141Y-183198893D01*
X90988601Y-183000261D01*
X90479525Y-182899000D01*
X89960475Y-182899000D01*
X89451399Y-183000261D01*
X88971859Y-183198893D01*
X88540285Y-183487262D01*
X88173262Y-183854285D01*
X87884893Y-184285859D01*
X87686261Y-184765399D01*
X87585000Y-185274475D01*
X75660000Y-185274475D01*
X75660000Y-184500453D01*
X75740285Y-184580738D01*
X76171859Y-184869107D01*
X76651399Y-185067739D01*
X77160475Y-185169000D01*
X77679525Y-185169000D01*
X78188601Y-185067739D01*
X78668141Y-184869107D01*
X79099715Y-184580738D01*
X79466738Y-184213715D01*
X79755107Y-183782141D01*
X79953739Y-183302601D01*
X80055000Y-182793525D01*
X80055000Y-182274475D01*
X79953739Y-181765399D01*
X79755107Y-181285859D01*
X79466738Y-180854285D01*
X79099715Y-180487262D01*
X78841158Y-180314499D01*
X86819106Y-180314499D01*
X87035228Y-180681258D01*
X87495105Y-180921938D01*
X87993098Y-181068275D01*
X88510071Y-181114648D01*
X89026159Y-181059273D01*
X89521526Y-180904279D01*
X89938772Y-180681258D01*
X90154894Y-180314499D01*
X88487000Y-178646605D01*
X86819106Y-180314499D01*
X78841158Y-180314499D01*
X78668141Y-180198893D01*
X78188601Y-180000261D01*
X77679525Y-179899000D01*
X77160475Y-179899000D01*
X76651399Y-180000261D01*
X76171859Y-180198893D01*
X75740285Y-180487262D01*
X75660000Y-180567547D01*
X75660000Y-176474475D01*
X78785000Y-176474475D01*
X78785000Y-176993525D01*
X78886261Y-177502601D01*
X79084893Y-177982141D01*
X79373262Y-178413715D01*
X79740285Y-178780738D01*
X80171859Y-179069107D01*
X80651399Y-179267739D01*
X81160475Y-179369000D01*
X81679525Y-179369000D01*
X82188601Y-179267739D01*
X82668141Y-179069107D01*
X83099715Y-178780738D01*
X83390382Y-178490071D01*
X85839352Y-178490071D01*
X85894727Y-179006159D01*
X86049721Y-179501526D01*
X86272742Y-179918772D01*
X86639501Y-180134894D01*
X88307395Y-178467000D01*
X88666605Y-178467000D01*
X90334499Y-180134894D01*
X90701258Y-179918772D01*
X90941938Y-179458895D01*
X91088275Y-178960902D01*
X91134648Y-178443929D01*
X91079273Y-177927841D01*
X90924279Y-177432474D01*
X90701258Y-177015228D01*
X90334499Y-176799106D01*
X88666605Y-178467000D01*
X88307395Y-178467000D01*
X86639501Y-176799106D01*
X86272742Y-177015228D01*
X86032062Y-177475105D01*
X85885725Y-177973098D01*
X85839352Y-178490071D01*
X83390382Y-178490071D01*
X83466738Y-178413715D01*
X83755107Y-177982141D01*
X83953739Y-177502601D01*
X84055000Y-176993525D01*
X84055000Y-176619501D01*
X86819106Y-176619501D01*
X88487000Y-178287395D01*
X90154894Y-176619501D01*
X89938772Y-176252742D01*
X89478895Y-176012062D01*
X88980902Y-175865725D01*
X88463929Y-175819352D01*
X87947841Y-175874727D01*
X87452474Y-176029721D01*
X87035228Y-176252742D01*
X86819106Y-176619501D01*
X84055000Y-176619501D01*
X84055000Y-176474475D01*
X83953739Y-175965399D01*
X83755107Y-175485859D01*
X83466738Y-175054285D01*
X83099715Y-174687262D01*
X82668141Y-174398893D01*
X82188601Y-174200261D01*
X81679525Y-174099000D01*
X81160475Y-174099000D01*
X80651399Y-174200261D01*
X80171859Y-174398893D01*
X79740285Y-174687262D01*
X79373262Y-175054285D01*
X79084893Y-175485859D01*
X78886261Y-175965399D01*
X78785000Y-176474475D01*
X75660000Y-176474475D01*
X75660000Y-166777327D01*
X81785000Y-166777327D01*
X81785000Y-167296377D01*
X81886261Y-167805453D01*
X82084893Y-168284993D01*
X82373262Y-168716567D01*
X82740285Y-169083590D01*
X83171859Y-169371959D01*
X83651399Y-169570591D01*
X84160475Y-169671852D01*
X84679525Y-169671852D01*
X85188601Y-169570591D01*
X85668141Y-169371959D01*
X86099715Y-169083590D01*
X86466738Y-168716567D01*
X86755107Y-168284993D01*
X86953739Y-167805453D01*
X87055000Y-167296377D01*
X87055000Y-166777327D01*
X86953739Y-166268251D01*
X86755107Y-165788711D01*
X86466738Y-165357137D01*
X86099715Y-164990114D01*
X85668141Y-164701745D01*
X85188601Y-164503113D01*
X84679525Y-164401852D01*
X84160475Y-164401852D01*
X83651399Y-164503113D01*
X83171859Y-164701745D01*
X82740285Y-164990114D01*
X82373262Y-165357137D01*
X82084893Y-165788711D01*
X81886261Y-166268251D01*
X81785000Y-166777327D01*
X75660000Y-166777327D01*
X75660000Y-162777327D01*
X87585000Y-162777327D01*
X87585000Y-163296377D01*
X87686261Y-163805453D01*
X87884893Y-164284993D01*
X88173262Y-164716567D01*
X88540285Y-165083590D01*
X88971859Y-165371959D01*
X89451399Y-165570591D01*
X89960475Y-165671852D01*
X90479525Y-165671852D01*
X90988601Y-165570591D01*
X91468141Y-165371959D01*
X91899715Y-165083590D01*
X92266738Y-164716567D01*
X92555107Y-164284993D01*
X92753739Y-163805453D01*
X92855000Y-163296377D01*
X92855000Y-162777327D01*
X92753739Y-162268251D01*
X92555107Y-161788711D01*
X92266738Y-161357137D01*
X91899715Y-160990114D01*
X91468141Y-160701745D01*
X90988601Y-160503113D01*
X90479525Y-160401852D01*
X89960475Y-160401852D01*
X89451399Y-160503113D01*
X88971859Y-160701745D01*
X88540285Y-160990114D01*
X88173262Y-161357137D01*
X87884893Y-161788711D01*
X87686261Y-162268251D01*
X87585000Y-162777327D01*
X75660000Y-162777327D01*
X75660000Y-162003305D01*
X75740285Y-162083590D01*
X76171859Y-162371959D01*
X76651399Y-162570591D01*
X77160475Y-162671852D01*
X77679525Y-162671852D01*
X78188601Y-162570591D01*
X78668141Y-162371959D01*
X79099715Y-162083590D01*
X79466738Y-161716567D01*
X79755107Y-161284993D01*
X79953739Y-160805453D01*
X80055000Y-160296377D01*
X80055000Y-159777327D01*
X79953739Y-159268251D01*
X79755107Y-158788711D01*
X79466738Y-158357137D01*
X79099715Y-157990114D01*
X78841158Y-157817351D01*
X86819106Y-157817351D01*
X87035228Y-158184110D01*
X87495105Y-158424790D01*
X87993098Y-158571127D01*
X88510071Y-158617500D01*
X89026159Y-158562125D01*
X89521526Y-158407131D01*
X89938772Y-158184110D01*
X90154894Y-157817351D01*
X88487000Y-156149457D01*
X86819106Y-157817351D01*
X78841158Y-157817351D01*
X78668141Y-157701745D01*
X78188601Y-157503113D01*
X77679525Y-157401852D01*
X77160475Y-157401852D01*
X76651399Y-157503113D01*
X76171859Y-157701745D01*
X75740285Y-157990114D01*
X75660000Y-158070399D01*
X75660000Y-153977327D01*
X78785000Y-153977327D01*
X78785000Y-154496377D01*
X78886261Y-155005453D01*
X79084893Y-155484993D01*
X79373262Y-155916567D01*
X79740285Y-156283590D01*
X80171859Y-156571959D01*
X80651399Y-156770591D01*
X81160475Y-156871852D01*
X81679525Y-156871852D01*
X82188601Y-156770591D01*
X82668141Y-156571959D01*
X83099715Y-156283590D01*
X83390382Y-155992923D01*
X85839352Y-155992923D01*
X85894727Y-156509011D01*
X86049721Y-157004378D01*
X86272742Y-157421624D01*
X86639501Y-157637746D01*
X88307395Y-155969852D01*
X88666605Y-155969852D01*
X90334499Y-157637746D01*
X90701258Y-157421624D01*
X90941938Y-156961747D01*
X91088275Y-156463754D01*
X91134648Y-155946781D01*
X91079273Y-155430693D01*
X90924279Y-154935326D01*
X90701258Y-154518080D01*
X90334499Y-154301958D01*
X88666605Y-155969852D01*
X88307395Y-155969852D01*
X86639501Y-154301958D01*
X86272742Y-154518080D01*
X86032062Y-154977957D01*
X85885725Y-155475950D01*
X85839352Y-155992923D01*
X83390382Y-155992923D01*
X83466738Y-155916567D01*
X83755107Y-155484993D01*
X83953739Y-155005453D01*
X84055000Y-154496377D01*
X84055000Y-154122353D01*
X86819106Y-154122353D01*
X88487000Y-155790247D01*
X90154894Y-154122353D01*
X89938772Y-153755594D01*
X89478895Y-153514914D01*
X88980902Y-153368577D01*
X88463929Y-153322204D01*
X87947841Y-153377579D01*
X87452474Y-153532573D01*
X87035228Y-153755594D01*
X86819106Y-154122353D01*
X84055000Y-154122353D01*
X84055000Y-153977327D01*
X83953739Y-153468251D01*
X83755107Y-152988711D01*
X83466738Y-152557137D01*
X83099715Y-152190114D01*
X82668141Y-151901745D01*
X82188601Y-151703113D01*
X81679525Y-151601852D01*
X81160475Y-151601852D01*
X80651399Y-151703113D01*
X80171859Y-151901745D01*
X79740285Y-152190114D01*
X79373262Y-152557137D01*
X79084893Y-152988711D01*
X78886261Y-153468251D01*
X78785000Y-153977327D01*
X75660000Y-153977327D01*
X75660000Y-148424000D01*
X100873928Y-148424000D01*
X100886188Y-148548482D01*
X100922498Y-148668180D01*
X100981463Y-148778494D01*
X101060815Y-148875185D01*
X101157506Y-148954537D01*
X101267820Y-149013502D01*
X101387518Y-149049812D01*
X101512000Y-149062072D01*
X102076250Y-149059000D01*
X102235000Y-148900250D01*
X102235000Y-147701000D01*
X101035750Y-147701000D01*
X100877000Y-147859750D01*
X100873928Y-148424000D01*
X75660000Y-148424000D01*
X75660000Y-144280185D01*
X81785000Y-144280185D01*
X81785000Y-144799235D01*
X81886261Y-145308311D01*
X82084893Y-145787851D01*
X82373262Y-146219425D01*
X82740285Y-146586448D01*
X83171859Y-146874817D01*
X83651399Y-147073449D01*
X84160475Y-147174710D01*
X84679525Y-147174710D01*
X85188601Y-147073449D01*
X85668141Y-146874817D01*
X85893854Y-146724000D01*
X100873928Y-146724000D01*
X100877000Y-147288250D01*
X101035750Y-147447000D01*
X102235000Y-147447000D01*
X102235000Y-146247750D01*
X102489000Y-146247750D01*
X102489000Y-147447000D01*
X102509000Y-147447000D01*
X102509000Y-147701000D01*
X102489000Y-147701000D01*
X102489000Y-148900250D01*
X102647750Y-149059000D01*
X103212000Y-149062072D01*
X103336482Y-149049812D01*
X103456180Y-149013502D01*
X103566494Y-148954537D01*
X103663185Y-148875185D01*
X103742537Y-148778494D01*
X103801502Y-148668180D01*
X103823513Y-148595620D01*
X103955368Y-148727475D01*
X104198589Y-148889990D01*
X104468842Y-149001932D01*
X104755740Y-149059000D01*
X105048260Y-149059000D01*
X105335158Y-149001932D01*
X105605411Y-148889990D01*
X105848632Y-148727475D01*
X106055475Y-148520632D01*
X106172000Y-148346240D01*
X106288525Y-148520632D01*
X106495368Y-148727475D01*
X106738589Y-148889990D01*
X107008842Y-149001932D01*
X107295740Y-149059000D01*
X107588260Y-149059000D01*
X107875158Y-149001932D01*
X108145411Y-148889990D01*
X108388632Y-148727475D01*
X108595475Y-148520632D01*
X108712000Y-148346240D01*
X108828525Y-148520632D01*
X109035368Y-148727475D01*
X109278589Y-148889990D01*
X109548842Y-149001932D01*
X109835740Y-149059000D01*
X110128260Y-149059000D01*
X110415158Y-149001932D01*
X110685411Y-148889990D01*
X110928632Y-148727475D01*
X111135475Y-148520632D01*
X111252000Y-148346240D01*
X111368525Y-148520632D01*
X111575368Y-148727475D01*
X111818589Y-148889990D01*
X112088842Y-149001932D01*
X112375740Y-149059000D01*
X112668260Y-149059000D01*
X112955158Y-149001932D01*
X113225411Y-148889990D01*
X113468632Y-148727475D01*
X113675475Y-148520632D01*
X113792000Y-148346240D01*
X113908525Y-148520632D01*
X114115368Y-148727475D01*
X114358589Y-148889990D01*
X114628842Y-149001932D01*
X114915740Y-149059000D01*
X115208260Y-149059000D01*
X115495158Y-149001932D01*
X115765411Y-148889990D01*
X116008632Y-148727475D01*
X116215475Y-148520632D01*
X116377990Y-148277411D01*
X116489932Y-148007158D01*
X116547000Y-147720260D01*
X116547000Y-147427740D01*
X116489932Y-147140842D01*
X116377990Y-146870589D01*
X116215475Y-146627368D01*
X116008632Y-146420525D01*
X115765411Y-146258010D01*
X115495158Y-146146068D01*
X115208260Y-146089000D01*
X114915740Y-146089000D01*
X114628842Y-146146068D01*
X114358589Y-146258010D01*
X114115368Y-146420525D01*
X113908525Y-146627368D01*
X113792000Y-146801760D01*
X113675475Y-146627368D01*
X113468632Y-146420525D01*
X113225411Y-146258010D01*
X112955158Y-146146068D01*
X112668260Y-146089000D01*
X112375740Y-146089000D01*
X112088842Y-146146068D01*
X111818589Y-146258010D01*
X111575368Y-146420525D01*
X111368525Y-146627368D01*
X111252000Y-146801760D01*
X111135475Y-146627368D01*
X110928632Y-146420525D01*
X110685411Y-146258010D01*
X110415158Y-146146068D01*
X110128260Y-146089000D01*
X109835740Y-146089000D01*
X109548842Y-146146068D01*
X109278589Y-146258010D01*
X109035368Y-146420525D01*
X108828525Y-146627368D01*
X108712000Y-146801760D01*
X108595475Y-146627368D01*
X108388632Y-146420525D01*
X108145411Y-146258010D01*
X107875158Y-146146068D01*
X107588260Y-146089000D01*
X107295740Y-146089000D01*
X107008842Y-146146068D01*
X106738589Y-146258010D01*
X106495368Y-146420525D01*
X106288525Y-146627368D01*
X106172000Y-146801760D01*
X106055475Y-146627368D01*
X105848632Y-146420525D01*
X105605411Y-146258010D01*
X105335158Y-146146068D01*
X105048260Y-146089000D01*
X104755740Y-146089000D01*
X104468842Y-146146068D01*
X104198589Y-146258010D01*
X103955368Y-146420525D01*
X103823513Y-146552380D01*
X103801502Y-146479820D01*
X103742537Y-146369506D01*
X103663185Y-146272815D01*
X103566494Y-146193463D01*
X103456180Y-146134498D01*
X103336482Y-146098188D01*
X103212000Y-146085928D01*
X102647750Y-146089000D01*
X102489000Y-146247750D01*
X102235000Y-146247750D01*
X102076250Y-146089000D01*
X101512000Y-146085928D01*
X101387518Y-146098188D01*
X101267820Y-146134498D01*
X101157506Y-146193463D01*
X101060815Y-146272815D01*
X100981463Y-146369506D01*
X100922498Y-146479820D01*
X100886188Y-146599518D01*
X100873928Y-146724000D01*
X85893854Y-146724000D01*
X86099715Y-146586448D01*
X86466738Y-146219425D01*
X86755107Y-145787851D01*
X86953739Y-145308311D01*
X87055000Y-144799235D01*
X87055000Y-144280185D01*
X86953739Y-143771109D01*
X86755107Y-143291569D01*
X86466738Y-142859995D01*
X86099715Y-142492972D01*
X85668141Y-142204603D01*
X85188601Y-142005971D01*
X84679525Y-141904710D01*
X84160475Y-141904710D01*
X83651399Y-142005971D01*
X83171859Y-142204603D01*
X82740285Y-142492972D01*
X82373262Y-142859995D01*
X82084893Y-143291569D01*
X81886261Y-143771109D01*
X81785000Y-144280185D01*
X75660000Y-144280185D01*
X75660000Y-140280185D01*
X87585000Y-140280185D01*
X87585000Y-140799235D01*
X87686261Y-141308311D01*
X87884893Y-141787851D01*
X88173262Y-142219425D01*
X88540285Y-142586448D01*
X88971859Y-142874817D01*
X89451399Y-143073449D01*
X89960475Y-143174710D01*
X90479525Y-143174710D01*
X90988601Y-143073449D01*
X91468141Y-142874817D01*
X91899715Y-142586448D01*
X92266738Y-142219425D01*
X92555107Y-141787851D01*
X92753739Y-141308311D01*
X92855000Y-140799235D01*
X92855000Y-140280185D01*
X92753739Y-139771109D01*
X92555107Y-139291569D01*
X92266738Y-138859995D01*
X91899715Y-138492972D01*
X91468141Y-138204603D01*
X90988601Y-138005971D01*
X90479525Y-137904710D01*
X89960475Y-137904710D01*
X89451399Y-138005971D01*
X88971859Y-138204603D01*
X88540285Y-138492972D01*
X88173262Y-138859995D01*
X87884893Y-139291569D01*
X87686261Y-139771109D01*
X87585000Y-140280185D01*
X75660000Y-140280185D01*
X75660000Y-139506163D01*
X75740285Y-139586448D01*
X76171859Y-139874817D01*
X76651399Y-140073449D01*
X77160475Y-140174710D01*
X77679525Y-140174710D01*
X78188601Y-140073449D01*
X78668141Y-139874817D01*
X79099715Y-139586448D01*
X79466738Y-139219425D01*
X79755107Y-138787851D01*
X79953739Y-138308311D01*
X80055000Y-137799235D01*
X80055000Y-137280185D01*
X79953739Y-136771109D01*
X79755107Y-136291569D01*
X79466738Y-135859995D01*
X79099715Y-135492972D01*
X78841158Y-135320209D01*
X86819106Y-135320209D01*
X87035228Y-135686968D01*
X87495105Y-135927648D01*
X87993098Y-136073985D01*
X88510071Y-136120358D01*
X89026159Y-136064983D01*
X89521526Y-135909989D01*
X89938772Y-135686968D01*
X90154894Y-135320209D01*
X88487000Y-133652315D01*
X86819106Y-135320209D01*
X78841158Y-135320209D01*
X78668141Y-135204603D01*
X78188601Y-135005971D01*
X77679525Y-134904710D01*
X77160475Y-134904710D01*
X76651399Y-135005971D01*
X76171859Y-135204603D01*
X75740285Y-135492972D01*
X75660000Y-135573257D01*
X75660000Y-131480185D01*
X78785000Y-131480185D01*
X78785000Y-131999235D01*
X78886261Y-132508311D01*
X79084893Y-132987851D01*
X79373262Y-133419425D01*
X79740285Y-133786448D01*
X80171859Y-134074817D01*
X80651399Y-134273449D01*
X81160475Y-134374710D01*
X81679525Y-134374710D01*
X82188601Y-134273449D01*
X82668141Y-134074817D01*
X83099715Y-133786448D01*
X83390382Y-133495781D01*
X85839352Y-133495781D01*
X85894727Y-134011869D01*
X86049721Y-134507236D01*
X86272742Y-134924482D01*
X86639501Y-135140604D01*
X88307395Y-133472710D01*
X88666605Y-133472710D01*
X90334499Y-135140604D01*
X90701258Y-134924482D01*
X90941938Y-134464605D01*
X91088275Y-133966612D01*
X91134648Y-133449639D01*
X91079273Y-132933551D01*
X90924279Y-132438184D01*
X90701258Y-132020938D01*
X90334499Y-131804816D01*
X88666605Y-133472710D01*
X88307395Y-133472710D01*
X86639501Y-131804816D01*
X86272742Y-132020938D01*
X86032062Y-132480815D01*
X85885725Y-132978808D01*
X85839352Y-133495781D01*
X83390382Y-133495781D01*
X83466738Y-133419425D01*
X83755107Y-132987851D01*
X83953739Y-132508311D01*
X84055000Y-131999235D01*
X84055000Y-131625211D01*
X86819106Y-131625211D01*
X88487000Y-133293105D01*
X90154894Y-131625211D01*
X89938772Y-131258452D01*
X89478895Y-131017772D01*
X88980902Y-130871435D01*
X88463929Y-130825062D01*
X87947841Y-130880437D01*
X87452474Y-131035431D01*
X87035228Y-131258452D01*
X86819106Y-131625211D01*
X84055000Y-131625211D01*
X84055000Y-131480185D01*
X83953739Y-130971109D01*
X83755107Y-130491569D01*
X83466738Y-130059995D01*
X83099715Y-129692972D01*
X82668141Y-129404603D01*
X82188601Y-129205971D01*
X81679525Y-129104710D01*
X81160475Y-129104710D01*
X80651399Y-129205971D01*
X80171859Y-129404603D01*
X79740285Y-129692972D01*
X79373262Y-130059995D01*
X79084893Y-130491569D01*
X78886261Y-130971109D01*
X78785000Y-131480185D01*
X75660000Y-131480185D01*
X75660000Y-121783043D01*
X81785000Y-121783043D01*
X81785000Y-122302093D01*
X81886261Y-122811169D01*
X82084893Y-123290709D01*
X82373262Y-123722283D01*
X82740285Y-124089306D01*
X83171859Y-124377675D01*
X83651399Y-124576307D01*
X84160475Y-124677568D01*
X84679525Y-124677568D01*
X85188601Y-124576307D01*
X85668141Y-124377675D01*
X86099715Y-124089306D01*
X86466738Y-123722283D01*
X86755107Y-123290709D01*
X86953739Y-122811169D01*
X87055000Y-122302093D01*
X87055000Y-121783043D01*
X86953739Y-121273967D01*
X86755107Y-120794427D01*
X86466738Y-120362853D01*
X86099715Y-119995830D01*
X85668141Y-119707461D01*
X85188601Y-119508829D01*
X84679525Y-119407568D01*
X84160475Y-119407568D01*
X83651399Y-119508829D01*
X83171859Y-119707461D01*
X82740285Y-119995830D01*
X82373262Y-120362853D01*
X82084893Y-120794427D01*
X81886261Y-121273967D01*
X81785000Y-121783043D01*
X75660000Y-121783043D01*
X75660000Y-117783043D01*
X87585000Y-117783043D01*
X87585000Y-118302093D01*
X87686261Y-118811169D01*
X87884893Y-119290709D01*
X88173262Y-119722283D01*
X88540285Y-120089306D01*
X88971859Y-120377675D01*
X89451399Y-120576307D01*
X89960475Y-120677568D01*
X90479525Y-120677568D01*
X90988601Y-120576307D01*
X91468141Y-120377675D01*
X91899715Y-120089306D01*
X92266738Y-119722283D01*
X92555107Y-119290709D01*
X92753739Y-118811169D01*
X92855000Y-118302093D01*
X92855000Y-117783043D01*
X92753739Y-117273967D01*
X92555107Y-116794427D01*
X92266738Y-116362853D01*
X91899715Y-115995830D01*
X91468141Y-115707461D01*
X90988601Y-115508829D01*
X90479525Y-115407568D01*
X89960475Y-115407568D01*
X89451399Y-115508829D01*
X88971859Y-115707461D01*
X88540285Y-115995830D01*
X88173262Y-116362853D01*
X87884893Y-116794427D01*
X87686261Y-117273967D01*
X87585000Y-117783043D01*
X75660000Y-117783043D01*
X75660000Y-117009021D01*
X75740285Y-117089306D01*
X76171859Y-117377675D01*
X76651399Y-117576307D01*
X77160475Y-117677568D01*
X77679525Y-117677568D01*
X78188601Y-117576307D01*
X78668141Y-117377675D01*
X79099715Y-117089306D01*
X79466738Y-116722283D01*
X79755107Y-116290709D01*
X79953739Y-115811169D01*
X80055000Y-115302093D01*
X80055000Y-114783043D01*
X79953739Y-114273967D01*
X79755107Y-113794427D01*
X79466738Y-113362853D01*
X79099715Y-112995830D01*
X78841158Y-112823067D01*
X86819106Y-112823067D01*
X87035228Y-113189826D01*
X87495105Y-113430506D01*
X87993098Y-113576843D01*
X88510071Y-113623216D01*
X89026159Y-113567841D01*
X89521526Y-113412847D01*
X89938772Y-113189826D01*
X90154894Y-112823067D01*
X88487000Y-111155173D01*
X86819106Y-112823067D01*
X78841158Y-112823067D01*
X78668141Y-112707461D01*
X78188601Y-112508829D01*
X77679525Y-112407568D01*
X77160475Y-112407568D01*
X76651399Y-112508829D01*
X76171859Y-112707461D01*
X75740285Y-112995830D01*
X75660000Y-113076115D01*
X75660000Y-108983043D01*
X78785000Y-108983043D01*
X78785000Y-109502093D01*
X78886261Y-110011169D01*
X79084893Y-110490709D01*
X79373262Y-110922283D01*
X79740285Y-111289306D01*
X80171859Y-111577675D01*
X80651399Y-111776307D01*
X81160475Y-111877568D01*
X81679525Y-111877568D01*
X82188601Y-111776307D01*
X82668141Y-111577675D01*
X83099715Y-111289306D01*
X83390382Y-110998639D01*
X85839352Y-110998639D01*
X85894727Y-111514727D01*
X86049721Y-112010094D01*
X86272742Y-112427340D01*
X86639501Y-112643462D01*
X88307395Y-110975568D01*
X88666605Y-110975568D01*
X90334499Y-112643462D01*
X90701258Y-112427340D01*
X90941938Y-111967463D01*
X91088275Y-111469470D01*
X91134648Y-110952497D01*
X91079273Y-110436409D01*
X90924279Y-109941042D01*
X90701258Y-109523796D01*
X90334499Y-109307674D01*
X88666605Y-110975568D01*
X88307395Y-110975568D01*
X86639501Y-109307674D01*
X86272742Y-109523796D01*
X86032062Y-109983673D01*
X85885725Y-110481666D01*
X85839352Y-110998639D01*
X83390382Y-110998639D01*
X83466738Y-110922283D01*
X83755107Y-110490709D01*
X83953739Y-110011169D01*
X84055000Y-109502093D01*
X84055000Y-109128069D01*
X86819106Y-109128069D01*
X88487000Y-110795963D01*
X90154894Y-109128069D01*
X89938772Y-108761310D01*
X89478895Y-108520630D01*
X88980902Y-108374293D01*
X88463929Y-108327920D01*
X87947841Y-108383295D01*
X87452474Y-108538289D01*
X87035228Y-108761310D01*
X86819106Y-109128069D01*
X84055000Y-109128069D01*
X84055000Y-108983043D01*
X83953739Y-108473967D01*
X83755107Y-107994427D01*
X83466738Y-107562853D01*
X83099715Y-107195830D01*
X82668141Y-106907461D01*
X82188601Y-106708829D01*
X81679525Y-106607568D01*
X81160475Y-106607568D01*
X80651399Y-106708829D01*
X80171859Y-106907461D01*
X79740285Y-107195830D01*
X79373262Y-107562853D01*
X79084893Y-107994427D01*
X78886261Y-108473967D01*
X78785000Y-108983043D01*
X75660000Y-108983043D01*
X75660000Y-99285901D01*
X81785000Y-99285901D01*
X81785000Y-99804951D01*
X81886261Y-100314027D01*
X82084893Y-100793567D01*
X82373262Y-101225141D01*
X82740285Y-101592164D01*
X83171859Y-101880533D01*
X83651399Y-102079165D01*
X84160475Y-102180426D01*
X84679525Y-102180426D01*
X85188601Y-102079165D01*
X85668141Y-101880533D01*
X86099715Y-101592164D01*
X86466738Y-101225141D01*
X86755107Y-100793567D01*
X86953739Y-100314027D01*
X87055000Y-99804951D01*
X87055000Y-99285901D01*
X86953739Y-98776825D01*
X86755107Y-98297285D01*
X86466738Y-97865711D01*
X86099715Y-97498688D01*
X85668141Y-97210319D01*
X85188601Y-97011687D01*
X84679525Y-96910426D01*
X84160475Y-96910426D01*
X83651399Y-97011687D01*
X83171859Y-97210319D01*
X82740285Y-97498688D01*
X82373262Y-97865711D01*
X82084893Y-98297285D01*
X81886261Y-98776825D01*
X81785000Y-99285901D01*
X75660000Y-99285901D01*
X75660000Y-95285901D01*
X87585000Y-95285901D01*
X87585000Y-95804951D01*
X87686261Y-96314027D01*
X87884893Y-96793567D01*
X88173262Y-97225141D01*
X88540285Y-97592164D01*
X88971859Y-97880533D01*
X89451399Y-98079165D01*
X89960475Y-98180426D01*
X90479525Y-98180426D01*
X90988601Y-98079165D01*
X91468141Y-97880533D01*
X91899715Y-97592164D01*
X92266738Y-97225141D01*
X92555107Y-96793567D01*
X92753739Y-96314027D01*
X92855000Y-95804951D01*
X92855000Y-95285901D01*
X92753739Y-94776825D01*
X92555107Y-94297285D01*
X92266738Y-93865711D01*
X91899715Y-93498688D01*
X91468141Y-93210319D01*
X90988601Y-93011687D01*
X90479525Y-92910426D01*
X89960475Y-92910426D01*
X89451399Y-93011687D01*
X88971859Y-93210319D01*
X88540285Y-93498688D01*
X88173262Y-93865711D01*
X87884893Y-94297285D01*
X87686261Y-94776825D01*
X87585000Y-95285901D01*
X75660000Y-95285901D01*
X75660000Y-94511879D01*
X75740285Y-94592164D01*
X76171859Y-94880533D01*
X76651399Y-95079165D01*
X77160475Y-95180426D01*
X77679525Y-95180426D01*
X78188601Y-95079165D01*
X78668141Y-94880533D01*
X79099715Y-94592164D01*
X79466738Y-94225141D01*
X79755107Y-93793567D01*
X79953739Y-93314027D01*
X80055000Y-92804951D01*
X80055000Y-92285901D01*
X79953739Y-91776825D01*
X79755107Y-91297285D01*
X79466738Y-90865711D01*
X79099715Y-90498688D01*
X78841158Y-90325925D01*
X86819106Y-90325925D01*
X87035228Y-90692684D01*
X87495105Y-90933364D01*
X87993098Y-91079701D01*
X88510071Y-91126074D01*
X89026159Y-91070699D01*
X89521526Y-90915705D01*
X89938772Y-90692684D01*
X90154894Y-90325925D01*
X88487000Y-88658031D01*
X86819106Y-90325925D01*
X78841158Y-90325925D01*
X78668141Y-90210319D01*
X78188601Y-90011687D01*
X77679525Y-89910426D01*
X77160475Y-89910426D01*
X76651399Y-90011687D01*
X76171859Y-90210319D01*
X75740285Y-90498688D01*
X75660000Y-90578973D01*
X75660000Y-86485901D01*
X78785000Y-86485901D01*
X78785000Y-87004951D01*
X78886261Y-87514027D01*
X79084893Y-87993567D01*
X79373262Y-88425141D01*
X79740285Y-88792164D01*
X80171859Y-89080533D01*
X80651399Y-89279165D01*
X81160475Y-89380426D01*
X81679525Y-89380426D01*
X82188601Y-89279165D01*
X82668141Y-89080533D01*
X83099715Y-88792164D01*
X83390382Y-88501497D01*
X85839352Y-88501497D01*
X85894727Y-89017585D01*
X86049721Y-89512952D01*
X86272742Y-89930198D01*
X86639501Y-90146320D01*
X88307395Y-88478426D01*
X88666605Y-88478426D01*
X90334499Y-90146320D01*
X90701258Y-89930198D01*
X90941938Y-89470321D01*
X91088275Y-88972328D01*
X91134648Y-88455355D01*
X91079273Y-87939267D01*
X90924279Y-87443900D01*
X90701258Y-87026654D01*
X90334499Y-86810532D01*
X88666605Y-88478426D01*
X88307395Y-88478426D01*
X86639501Y-86810532D01*
X86272742Y-87026654D01*
X86032062Y-87486531D01*
X85885725Y-87984524D01*
X85839352Y-88501497D01*
X83390382Y-88501497D01*
X83466738Y-88425141D01*
X83755107Y-87993567D01*
X83953739Y-87514027D01*
X84055000Y-87004951D01*
X84055000Y-86630927D01*
X86819106Y-86630927D01*
X88487000Y-88298821D01*
X90154894Y-86630927D01*
X89938772Y-86264168D01*
X89478895Y-86023488D01*
X88980902Y-85877151D01*
X88463929Y-85830778D01*
X87947841Y-85886153D01*
X87452474Y-86041147D01*
X87035228Y-86264168D01*
X86819106Y-86630927D01*
X84055000Y-86630927D01*
X84055000Y-86485901D01*
X83953739Y-85976825D01*
X83755107Y-85497285D01*
X83466738Y-85065711D01*
X83099715Y-84698688D01*
X82668141Y-84410319D01*
X82188601Y-84211687D01*
X81679525Y-84110426D01*
X81160475Y-84110426D01*
X80651399Y-84211687D01*
X80171859Y-84410319D01*
X79740285Y-84698688D01*
X79373262Y-85065711D01*
X79084893Y-85497285D01*
X78886261Y-85976825D01*
X78785000Y-86485901D01*
X75660000Y-86485901D01*
X75660000Y-76788759D01*
X81785000Y-76788759D01*
X81785000Y-77307809D01*
X81886261Y-77816885D01*
X82084893Y-78296425D01*
X82373262Y-78727999D01*
X82740285Y-79095022D01*
X83171859Y-79383391D01*
X83651399Y-79582023D01*
X84160475Y-79683284D01*
X84679525Y-79683284D01*
X85188601Y-79582023D01*
X85668141Y-79383391D01*
X86099715Y-79095022D01*
X86466738Y-78727999D01*
X86755107Y-78296425D01*
X86953739Y-77816885D01*
X87055000Y-77307809D01*
X87055000Y-76788759D01*
X86953739Y-76279683D01*
X86755107Y-75800143D01*
X86466738Y-75368569D01*
X86099715Y-75001546D01*
X85668141Y-74713177D01*
X85188601Y-74514545D01*
X84679525Y-74413284D01*
X84160475Y-74413284D01*
X83651399Y-74514545D01*
X83171859Y-74713177D01*
X82740285Y-75001546D01*
X82373262Y-75368569D01*
X82084893Y-75800143D01*
X81886261Y-76279683D01*
X81785000Y-76788759D01*
X75660000Y-76788759D01*
X75660000Y-72788759D01*
X87585000Y-72788759D01*
X87585000Y-73307809D01*
X87686261Y-73816885D01*
X87884893Y-74296425D01*
X88173262Y-74727999D01*
X88540285Y-75095022D01*
X88971859Y-75383391D01*
X89451399Y-75582023D01*
X89960475Y-75683284D01*
X90479525Y-75683284D01*
X90988601Y-75582023D01*
X91468141Y-75383391D01*
X91899715Y-75095022D01*
X92266738Y-74727999D01*
X92555107Y-74296425D01*
X92753739Y-73816885D01*
X92855000Y-73307809D01*
X92855000Y-72788759D01*
X92753739Y-72279683D01*
X92555107Y-71800143D01*
X92266738Y-71368569D01*
X91899715Y-71001546D01*
X91468141Y-70713177D01*
X90988601Y-70514545D01*
X90479525Y-70413284D01*
X89960475Y-70413284D01*
X89451399Y-70514545D01*
X88971859Y-70713177D01*
X88540285Y-71001546D01*
X88173262Y-71368569D01*
X87884893Y-71800143D01*
X87686261Y-72279683D01*
X87585000Y-72788759D01*
X75660000Y-72788759D01*
X75660000Y-72014737D01*
X75740285Y-72095022D01*
X76171859Y-72383391D01*
X76651399Y-72582023D01*
X77160475Y-72683284D01*
X77679525Y-72683284D01*
X78188601Y-72582023D01*
X78668141Y-72383391D01*
X79099715Y-72095022D01*
X79466738Y-71727999D01*
X79755107Y-71296425D01*
X79953739Y-70816885D01*
X80055000Y-70307809D01*
X80055000Y-69788759D01*
X79953739Y-69279683D01*
X79755107Y-68800143D01*
X79466738Y-68368569D01*
X79099715Y-68001546D01*
X78841158Y-67828783D01*
X86819106Y-67828783D01*
X87035228Y-68195542D01*
X87495105Y-68436222D01*
X87993098Y-68582559D01*
X88510071Y-68628932D01*
X89026159Y-68573557D01*
X89521526Y-68418563D01*
X89938772Y-68195542D01*
X90154894Y-67828783D01*
X88487000Y-66160889D01*
X86819106Y-67828783D01*
X78841158Y-67828783D01*
X78668141Y-67713177D01*
X78188601Y-67514545D01*
X77679525Y-67413284D01*
X77160475Y-67413284D01*
X76651399Y-67514545D01*
X76171859Y-67713177D01*
X75740285Y-68001546D01*
X75660000Y-68081831D01*
X75660000Y-63988759D01*
X78785000Y-63988759D01*
X78785000Y-64507809D01*
X78886261Y-65016885D01*
X79084893Y-65496425D01*
X79373262Y-65927999D01*
X79740285Y-66295022D01*
X80171859Y-66583391D01*
X80651399Y-66782023D01*
X81160475Y-66883284D01*
X81679525Y-66883284D01*
X82188601Y-66782023D01*
X82668141Y-66583391D01*
X83099715Y-66295022D01*
X83390382Y-66004355D01*
X85839352Y-66004355D01*
X85894727Y-66520443D01*
X86049721Y-67015810D01*
X86272742Y-67433056D01*
X86639501Y-67649178D01*
X88307395Y-65981284D01*
X88666605Y-65981284D01*
X90334499Y-67649178D01*
X90701258Y-67433056D01*
X90941938Y-66973179D01*
X91088275Y-66475186D01*
X91134648Y-65958213D01*
X91079273Y-65442125D01*
X90924279Y-64946758D01*
X90701258Y-64529512D01*
X90334499Y-64313390D01*
X88666605Y-65981284D01*
X88307395Y-65981284D01*
X86639501Y-64313390D01*
X86272742Y-64529512D01*
X86032062Y-64989389D01*
X85885725Y-65487382D01*
X85839352Y-66004355D01*
X83390382Y-66004355D01*
X83466738Y-65927999D01*
X83755107Y-65496425D01*
X83953739Y-65016885D01*
X84055000Y-64507809D01*
X84055000Y-64133785D01*
X86819106Y-64133785D01*
X88487000Y-65801679D01*
X90154894Y-64133785D01*
X89938772Y-63767026D01*
X89478895Y-63526346D01*
X88980902Y-63380009D01*
X88463929Y-63333636D01*
X87947841Y-63389011D01*
X87452474Y-63544005D01*
X87035228Y-63767026D01*
X86819106Y-64133785D01*
X84055000Y-64133785D01*
X84055000Y-63988759D01*
X83953739Y-63479683D01*
X83755107Y-63000143D01*
X83466738Y-62568569D01*
X83099715Y-62201546D01*
X82668141Y-61913177D01*
X82188601Y-61714545D01*
X81679525Y-61613284D01*
X81160475Y-61613284D01*
X80651399Y-61714545D01*
X80171859Y-61913177D01*
X79740285Y-62201546D01*
X79373262Y-62568569D01*
X79084893Y-63000143D01*
X78886261Y-63479683D01*
X78785000Y-63988759D01*
X75660000Y-63988759D01*
X75660000Y-57746000D01*
X100873928Y-57746000D01*
X100886188Y-57870482D01*
X100922498Y-57990180D01*
X100981463Y-58100494D01*
X101060815Y-58197185D01*
X101157506Y-58276537D01*
X101267820Y-58335502D01*
X101387518Y-58371812D01*
X101512000Y-58384072D01*
X102076250Y-58381000D01*
X102235000Y-58222250D01*
X102235000Y-57023000D01*
X101035750Y-57023000D01*
X100877000Y-57181750D01*
X100873928Y-57746000D01*
X75660000Y-57746000D01*
X75660000Y-54291617D01*
X81785000Y-54291617D01*
X81785000Y-54810667D01*
X81886261Y-55319743D01*
X82084893Y-55799283D01*
X82373262Y-56230857D01*
X82740285Y-56597880D01*
X83171859Y-56886249D01*
X83651399Y-57084881D01*
X84160475Y-57186142D01*
X84679525Y-57186142D01*
X85188601Y-57084881D01*
X85668141Y-56886249D01*
X86099715Y-56597880D01*
X86466738Y-56230857D01*
X86590255Y-56046000D01*
X100873928Y-56046000D01*
X100877000Y-56610250D01*
X101035750Y-56769000D01*
X102235000Y-56769000D01*
X102235000Y-55569750D01*
X102489000Y-55569750D01*
X102489000Y-56769000D01*
X102509000Y-56769000D01*
X102509000Y-57023000D01*
X102489000Y-57023000D01*
X102489000Y-58222250D01*
X102647750Y-58381000D01*
X103212000Y-58384072D01*
X103336482Y-58371812D01*
X103456180Y-58335502D01*
X103566494Y-58276537D01*
X103663185Y-58197185D01*
X103742537Y-58100494D01*
X103801502Y-57990180D01*
X103823513Y-57917620D01*
X103955368Y-58049475D01*
X104198589Y-58211990D01*
X104468842Y-58323932D01*
X104755740Y-58381000D01*
X105048260Y-58381000D01*
X105335158Y-58323932D01*
X105605411Y-58211990D01*
X105848632Y-58049475D01*
X106055475Y-57842632D01*
X106172000Y-57668240D01*
X106288525Y-57842632D01*
X106495368Y-58049475D01*
X106738589Y-58211990D01*
X107008842Y-58323932D01*
X107295740Y-58381000D01*
X107588260Y-58381000D01*
X107875158Y-58323932D01*
X108145411Y-58211990D01*
X108388632Y-58049475D01*
X108595475Y-57842632D01*
X108712000Y-57668240D01*
X108828525Y-57842632D01*
X109035368Y-58049475D01*
X109278589Y-58211990D01*
X109548842Y-58323932D01*
X109835740Y-58381000D01*
X110128260Y-58381000D01*
X110415158Y-58323932D01*
X110685411Y-58211990D01*
X110928632Y-58049475D01*
X111135475Y-57842632D01*
X111252000Y-57668240D01*
X111368525Y-57842632D01*
X111575368Y-58049475D01*
X111818589Y-58211990D01*
X112088842Y-58323932D01*
X112375740Y-58381000D01*
X112668260Y-58381000D01*
X112955158Y-58323932D01*
X113225411Y-58211990D01*
X113468632Y-58049475D01*
X113675475Y-57842632D01*
X113792000Y-57668240D01*
X113908525Y-57842632D01*
X114115368Y-58049475D01*
X114358589Y-58211990D01*
X114628842Y-58323932D01*
X114915740Y-58381000D01*
X115208260Y-58381000D01*
X115495158Y-58323932D01*
X115765411Y-58211990D01*
X116008632Y-58049475D01*
X116215475Y-57842632D01*
X116377990Y-57599411D01*
X116489932Y-57329158D01*
X116547000Y-57042260D01*
X116547000Y-56749740D01*
X116489932Y-56462842D01*
X116377990Y-56192589D01*
X116215475Y-55949368D01*
X116008632Y-55742525D01*
X115765411Y-55580010D01*
X115495158Y-55468068D01*
X115208260Y-55411000D01*
X114915740Y-55411000D01*
X114628842Y-55468068D01*
X114358589Y-55580010D01*
X114115368Y-55742525D01*
X113908525Y-55949368D01*
X113792000Y-56123760D01*
X113675475Y-55949368D01*
X113468632Y-55742525D01*
X113225411Y-55580010D01*
X112955158Y-55468068D01*
X112668260Y-55411000D01*
X112375740Y-55411000D01*
X112088842Y-55468068D01*
X111818589Y-55580010D01*
X111575368Y-55742525D01*
X111368525Y-55949368D01*
X111252000Y-56123760D01*
X111135475Y-55949368D01*
X110928632Y-55742525D01*
X110685411Y-55580010D01*
X110415158Y-55468068D01*
X110128260Y-55411000D01*
X109835740Y-55411000D01*
X109548842Y-55468068D01*
X109278589Y-55580010D01*
X109035368Y-55742525D01*
X108828525Y-55949368D01*
X108712000Y-56123760D01*
X108595475Y-55949368D01*
X108388632Y-55742525D01*
X108145411Y-55580010D01*
X107875158Y-55468068D01*
X107588260Y-55411000D01*
X107295740Y-55411000D01*
X107008842Y-55468068D01*
X106738589Y-55580010D01*
X106495368Y-55742525D01*
X106288525Y-55949368D01*
X106172000Y-56123760D01*
X106055475Y-55949368D01*
X105848632Y-55742525D01*
X105605411Y-55580010D01*
X105335158Y-55468068D01*
X105048260Y-55411000D01*
X104755740Y-55411000D01*
X104468842Y-55468068D01*
X104198589Y-55580010D01*
X103955368Y-55742525D01*
X103823513Y-55874380D01*
X103801502Y-55801820D01*
X103742537Y-55691506D01*
X103663185Y-55594815D01*
X103566494Y-55515463D01*
X103456180Y-55456498D01*
X103336482Y-55420188D01*
X103212000Y-55407928D01*
X102647750Y-55411000D01*
X102489000Y-55569750D01*
X102235000Y-55569750D01*
X102076250Y-55411000D01*
X101512000Y-55407928D01*
X101387518Y-55420188D01*
X101267820Y-55456498D01*
X101157506Y-55515463D01*
X101060815Y-55594815D01*
X100981463Y-55691506D01*
X100922498Y-55801820D01*
X100886188Y-55921518D01*
X100873928Y-56046000D01*
X86590255Y-56046000D01*
X86755107Y-55799283D01*
X86953739Y-55319743D01*
X87055000Y-54810667D01*
X87055000Y-54291617D01*
X86953739Y-53782541D01*
X86755107Y-53303001D01*
X86466738Y-52871427D01*
X86099715Y-52504404D01*
X85668141Y-52216035D01*
X85188601Y-52017403D01*
X84679525Y-51916142D01*
X84160475Y-51916142D01*
X83651399Y-52017403D01*
X83171859Y-52216035D01*
X82740285Y-52504404D01*
X82373262Y-52871427D01*
X82084893Y-53303001D01*
X81886261Y-53782541D01*
X81785000Y-54291617D01*
X75660000Y-54291617D01*
X75660000Y-50291617D01*
X87585000Y-50291617D01*
X87585000Y-50810667D01*
X87686261Y-51319743D01*
X87884893Y-51799283D01*
X88173262Y-52230857D01*
X88540285Y-52597880D01*
X88971859Y-52886249D01*
X89451399Y-53084881D01*
X89960475Y-53186142D01*
X90479525Y-53186142D01*
X90988601Y-53084881D01*
X91468141Y-52886249D01*
X91899715Y-52597880D01*
X92266738Y-52230857D01*
X92555107Y-51799283D01*
X92753739Y-51319743D01*
X92855000Y-50810667D01*
X92855000Y-50291617D01*
X92753739Y-49782541D01*
X92555107Y-49303001D01*
X92266738Y-48871427D01*
X91899715Y-48504404D01*
X91468141Y-48216035D01*
X90988601Y-48017403D01*
X90479525Y-47916142D01*
X89960475Y-47916142D01*
X89451399Y-48017403D01*
X88971859Y-48216035D01*
X88540285Y-48504404D01*
X88173262Y-48871427D01*
X87884893Y-49303001D01*
X87686261Y-49782541D01*
X87585000Y-50291617D01*
X75660000Y-50291617D01*
X75660000Y-49517595D01*
X75740285Y-49597880D01*
X76171859Y-49886249D01*
X76651399Y-50084881D01*
X77160475Y-50186142D01*
X77679525Y-50186142D01*
X78188601Y-50084881D01*
X78668141Y-49886249D01*
X79099715Y-49597880D01*
X79466738Y-49230857D01*
X79755107Y-48799283D01*
X79953739Y-48319743D01*
X80055000Y-47810667D01*
X80055000Y-47291617D01*
X79953739Y-46782541D01*
X79755107Y-46303001D01*
X79466738Y-45871427D01*
X79099715Y-45504404D01*
X78841158Y-45331641D01*
X86819106Y-45331641D01*
X87035228Y-45698400D01*
X87495105Y-45939080D01*
X87993098Y-46085417D01*
X88510071Y-46131790D01*
X89026159Y-46076415D01*
X89521526Y-45921421D01*
X89938772Y-45698400D01*
X90154894Y-45331641D01*
X88487000Y-43663747D01*
X86819106Y-45331641D01*
X78841158Y-45331641D01*
X78668141Y-45216035D01*
X78188601Y-45017403D01*
X77679525Y-44916142D01*
X77160475Y-44916142D01*
X76651399Y-45017403D01*
X76171859Y-45216035D01*
X75740285Y-45504404D01*
X75660000Y-45584689D01*
X75660000Y-41491617D01*
X78785000Y-41491617D01*
X78785000Y-42010667D01*
X78886261Y-42519743D01*
X79084893Y-42999283D01*
X79373262Y-43430857D01*
X79740285Y-43797880D01*
X80171859Y-44086249D01*
X80651399Y-44284881D01*
X81160475Y-44386142D01*
X81679525Y-44386142D01*
X82188601Y-44284881D01*
X82668141Y-44086249D01*
X83099715Y-43797880D01*
X83390382Y-43507213D01*
X85839352Y-43507213D01*
X85894727Y-44023301D01*
X86049721Y-44518668D01*
X86272742Y-44935914D01*
X86639501Y-45152036D01*
X88307395Y-43484142D01*
X88666605Y-43484142D01*
X90334499Y-45152036D01*
X90701258Y-44935914D01*
X90941938Y-44476037D01*
X91088275Y-43978044D01*
X91134648Y-43461071D01*
X91079273Y-42944983D01*
X90924279Y-42449616D01*
X90701258Y-42032370D01*
X90334499Y-41816248D01*
X88666605Y-43484142D01*
X88307395Y-43484142D01*
X86639501Y-41816248D01*
X86272742Y-42032370D01*
X86032062Y-42492247D01*
X85885725Y-42990240D01*
X85839352Y-43507213D01*
X83390382Y-43507213D01*
X83466738Y-43430857D01*
X83755107Y-42999283D01*
X83953739Y-42519743D01*
X84055000Y-42010667D01*
X84055000Y-41636643D01*
X86819106Y-41636643D01*
X88487000Y-43304537D01*
X90154894Y-41636643D01*
X89938772Y-41269884D01*
X89478895Y-41029204D01*
X88980902Y-40882867D01*
X88463929Y-40836494D01*
X87947841Y-40891869D01*
X87452474Y-41046863D01*
X87035228Y-41269884D01*
X86819106Y-41636643D01*
X84055000Y-41636643D01*
X84055000Y-41491617D01*
X83953739Y-40982541D01*
X83755107Y-40503001D01*
X83466738Y-40071427D01*
X83099715Y-39704404D01*
X82668141Y-39416035D01*
X82188601Y-39217403D01*
X81679525Y-39116142D01*
X81160475Y-39116142D01*
X80651399Y-39217403D01*
X80171859Y-39416035D01*
X79740285Y-39704404D01*
X79373262Y-40071427D01*
X79084893Y-40503001D01*
X78886261Y-40982541D01*
X78785000Y-41491617D01*
X75660000Y-41491617D01*
X75660000Y-31794475D01*
X81785000Y-31794475D01*
X81785000Y-32313525D01*
X81886261Y-32822601D01*
X82084893Y-33302141D01*
X82373262Y-33733715D01*
X82740285Y-34100738D01*
X83171859Y-34389107D01*
X83651399Y-34587739D01*
X84160475Y-34689000D01*
X84679525Y-34689000D01*
X85188601Y-34587739D01*
X85668141Y-34389107D01*
X86099715Y-34100738D01*
X86466738Y-33733715D01*
X86755107Y-33302141D01*
X86953739Y-32822601D01*
X87055000Y-32313525D01*
X87055000Y-31794475D01*
X86953739Y-31285399D01*
X86755107Y-30805859D01*
X86466738Y-30374285D01*
X86099715Y-30007262D01*
X85668141Y-29718893D01*
X85188601Y-29520261D01*
X84679525Y-29419000D01*
X84160475Y-29419000D01*
X83651399Y-29520261D01*
X83171859Y-29718893D01*
X82740285Y-30007262D01*
X82373262Y-30374285D01*
X82084893Y-30805859D01*
X81886261Y-31285399D01*
X81785000Y-31794475D01*
X75660000Y-31794475D01*
X75660000Y-27794475D01*
X87585000Y-27794475D01*
X87585000Y-28313525D01*
X87686261Y-28822601D01*
X87884893Y-29302141D01*
X88173262Y-29733715D01*
X88540285Y-30100738D01*
X88971859Y-30389107D01*
X89451399Y-30587739D01*
X89960475Y-30689000D01*
X90479525Y-30689000D01*
X90988601Y-30587739D01*
X91468141Y-30389107D01*
X91899715Y-30100738D01*
X92266738Y-29733715D01*
X92555107Y-29302141D01*
X92753739Y-28822601D01*
X92855000Y-28313525D01*
X92855000Y-27794475D01*
X92753739Y-27285399D01*
X92555107Y-26805859D01*
X92266738Y-26374285D01*
X91899715Y-26007262D01*
X91468141Y-25718893D01*
X90988601Y-25520261D01*
X90479525Y-25419000D01*
X89960475Y-25419000D01*
X89451399Y-25520261D01*
X88971859Y-25718893D01*
X88540285Y-26007262D01*
X88173262Y-26374285D01*
X87884893Y-26805859D01*
X87686261Y-27285399D01*
X87585000Y-27794475D01*
X75660000Y-27794475D01*
X75660000Y-27020453D01*
X75740285Y-27100738D01*
X76171859Y-27389107D01*
X76651399Y-27587739D01*
X77160475Y-27689000D01*
X77679525Y-27689000D01*
X78188601Y-27587739D01*
X78668141Y-27389107D01*
X79099715Y-27100738D01*
X79466738Y-26733715D01*
X79755107Y-26302141D01*
X79953739Y-25822601D01*
X80055000Y-25313525D01*
X80055000Y-24794475D01*
X79953739Y-24285399D01*
X79755107Y-23805859D01*
X79466738Y-23374285D01*
X79099715Y-23007262D01*
X78841158Y-22834499D01*
X86819106Y-22834499D01*
X87035228Y-23201258D01*
X87495105Y-23441938D01*
X87993098Y-23588275D01*
X88510071Y-23634648D01*
X89026159Y-23579273D01*
X89521526Y-23424279D01*
X89938772Y-23201258D01*
X90154894Y-22834499D01*
X88487000Y-21166605D01*
X86819106Y-22834499D01*
X78841158Y-22834499D01*
X78668141Y-22718893D01*
X78188601Y-22520261D01*
X77679525Y-22419000D01*
X77160475Y-22419000D01*
X76651399Y-22520261D01*
X76171859Y-22718893D01*
X75740285Y-23007262D01*
X75660000Y-23087547D01*
X75660000Y-17678000D01*
X79303962Y-17678000D01*
X79084893Y-18005859D01*
M02*
