G04 #@! TF.GenerationSoftware,KiCad,Pcbnew,(5.1.5)-3*
G04 #@! TF.CreationDate,2020-05-19T17:07:34-07:00*
G04 #@! TF.ProjectId,SM1REV1,534d3152-4556-4312-9e6b-696361645f70,rev?*
G04 #@! TF.SameCoordinates,Original*
G04 #@! TF.FileFunction,Legend,Top*
G04 #@! TF.FilePolarity,Positive*
%FSLAX46Y46*%
G04 Gerber Fmt 4.6, Leading zero omitted, Abs format (unit mm)*
G04 Created by KiCad (PCBNEW (5.1.5)-3) date 2020-05-19 17:07:34*
%MOMM*%
%LPD*%
G04 APERTURE LIST*
%ADD10C,0.120000*%
%ADD11C,0.150000*%
G04 APERTURE END LIST*
D10*
X101032000Y-148904000D02*
X101032000Y-147574000D01*
X102362000Y-148904000D02*
X101032000Y-148904000D01*
X103632000Y-148904000D02*
X103632000Y-146244000D01*
X103632000Y-146244000D02*
X116392000Y-146244000D01*
X103632000Y-148904000D02*
X116392000Y-148904000D01*
X116392000Y-148904000D02*
X116392000Y-146244000D01*
X101032000Y-58226000D02*
X101032000Y-56896000D01*
X102362000Y-58226000D02*
X101032000Y-58226000D01*
X103632000Y-58226000D02*
X103632000Y-55566000D01*
X103632000Y-55566000D02*
X116392000Y-55566000D01*
X103632000Y-58226000D02*
X116392000Y-58226000D01*
X116392000Y-58226000D02*
X116392000Y-55566000D01*
X85090000Y-183134000D02*
G75*
G03X85090000Y-183134000I-1270000J0D01*
G01*
X74930000Y-192024000D02*
X92710000Y-192024000D01*
X74930000Y-174244000D02*
X74930000Y-192024000D01*
X88900000Y-174244000D02*
X74930000Y-174244000D01*
X92710000Y-178054000D02*
X92710000Y-192024000D01*
X88900000Y-174244000D02*
X92710000Y-178054000D01*
X85090000Y-160636852D02*
G75*
G03X85090000Y-160636852I-1270000J0D01*
G01*
X74930000Y-169526852D02*
X92710000Y-169526852D01*
X74930000Y-151746852D02*
X74930000Y-169526852D01*
X88900000Y-151746852D02*
X74930000Y-151746852D01*
X92710000Y-155556852D02*
X92710000Y-169526852D01*
X88900000Y-151746852D02*
X92710000Y-155556852D01*
X85090000Y-138139710D02*
G75*
G03X85090000Y-138139710I-1270000J0D01*
G01*
X74930000Y-147029710D02*
X92710000Y-147029710D01*
X74930000Y-129249710D02*
X74930000Y-147029710D01*
X88900000Y-129249710D02*
X74930000Y-129249710D01*
X92710000Y-133059710D02*
X92710000Y-147029710D01*
X88900000Y-129249710D02*
X92710000Y-133059710D01*
X85090000Y-115642568D02*
G75*
G03X85090000Y-115642568I-1270000J0D01*
G01*
X74930000Y-124532568D02*
X92710000Y-124532568D01*
X74930000Y-106752568D02*
X74930000Y-124532568D01*
X88900000Y-106752568D02*
X74930000Y-106752568D01*
X92710000Y-110562568D02*
X92710000Y-124532568D01*
X88900000Y-106752568D02*
X92710000Y-110562568D01*
X85090000Y-93145426D02*
G75*
G03X85090000Y-93145426I-1270000J0D01*
G01*
X74930000Y-102035426D02*
X92710000Y-102035426D01*
X74930000Y-84255426D02*
X74930000Y-102035426D01*
X88900000Y-84255426D02*
X74930000Y-84255426D01*
X92710000Y-88065426D02*
X92710000Y-102035426D01*
X88900000Y-84255426D02*
X92710000Y-88065426D01*
X85090000Y-70648284D02*
G75*
G03X85090000Y-70648284I-1270000J0D01*
G01*
X74930000Y-79538284D02*
X92710000Y-79538284D01*
X74930000Y-61758284D02*
X74930000Y-79538284D01*
X88900000Y-61758284D02*
X74930000Y-61758284D01*
X92710000Y-65568284D02*
X92710000Y-79538284D01*
X88900000Y-61758284D02*
X92710000Y-65568284D01*
X85090000Y-48151142D02*
G75*
G03X85090000Y-48151142I-1270000J0D01*
G01*
X74930000Y-57041142D02*
X92710000Y-57041142D01*
X74930000Y-39261142D02*
X74930000Y-57041142D01*
X88900000Y-39261142D02*
X74930000Y-39261142D01*
X92710000Y-43071142D02*
X92710000Y-57041142D01*
X88900000Y-39261142D02*
X92710000Y-43071142D01*
X85090000Y-25654000D02*
G75*
G03X85090000Y-25654000I-1270000J0D01*
G01*
X74930000Y-34544000D02*
X92710000Y-34544000D01*
X74930000Y-16764000D02*
X74930000Y-34544000D01*
X88900000Y-16764000D02*
X74930000Y-16764000D01*
X92710000Y-20574000D02*
X92710000Y-34544000D01*
X88900000Y-16764000D02*
X92710000Y-20574000D01*
D11*
X109378857Y-149820380D02*
X108902666Y-149820380D01*
X108855047Y-150296571D01*
X108902666Y-150248952D01*
X108997904Y-150201333D01*
X109236000Y-150201333D01*
X109331238Y-150248952D01*
X109378857Y-150296571D01*
X109426476Y-150391809D01*
X109426476Y-150629904D01*
X109378857Y-150725142D01*
X109331238Y-150772761D01*
X109236000Y-150820380D01*
X108997904Y-150820380D01*
X108902666Y-150772761D01*
X108855047Y-150725142D01*
X109855047Y-150439428D02*
X110616952Y-150439428D01*
X111236000Y-150248952D02*
X111140761Y-150201333D01*
X111093142Y-150153714D01*
X111045523Y-150058476D01*
X111045523Y-150010857D01*
X111093142Y-149915619D01*
X111140761Y-149868000D01*
X111236000Y-149820380D01*
X111426476Y-149820380D01*
X111521714Y-149868000D01*
X111569333Y-149915619D01*
X111616952Y-150010857D01*
X111616952Y-150058476D01*
X111569333Y-150153714D01*
X111521714Y-150201333D01*
X111426476Y-150248952D01*
X111236000Y-150248952D01*
X111140761Y-150296571D01*
X111093142Y-150344190D01*
X111045523Y-150439428D01*
X111045523Y-150629904D01*
X111093142Y-150725142D01*
X111140761Y-150772761D01*
X111236000Y-150820380D01*
X111426476Y-150820380D01*
X111521714Y-150772761D01*
X111569333Y-150725142D01*
X111616952Y-150629904D01*
X111616952Y-150439428D01*
X111569333Y-150344190D01*
X111521714Y-150296571D01*
X111426476Y-150248952D01*
X110188476Y-60142380D02*
X109617047Y-60142380D01*
X109902761Y-60142380D02*
X109902761Y-59142380D01*
X109807523Y-59285238D01*
X109712285Y-59380476D01*
X109617047Y-59428095D01*
X110617047Y-59761428D02*
X111378952Y-59761428D01*
X112283714Y-59475714D02*
X112283714Y-60142380D01*
X112045619Y-59094761D02*
X111807523Y-59809047D01*
X112426571Y-59809047D01*
X77136666Y-188936380D02*
X77136666Y-189650666D01*
X77089047Y-189793523D01*
X76993809Y-189888761D01*
X76850952Y-189936380D01*
X76755714Y-189936380D01*
X77755714Y-189364952D02*
X77660476Y-189317333D01*
X77612857Y-189269714D01*
X77565238Y-189174476D01*
X77565238Y-189126857D01*
X77612857Y-189031619D01*
X77660476Y-188984000D01*
X77755714Y-188936380D01*
X77946190Y-188936380D01*
X78041428Y-188984000D01*
X78089047Y-189031619D01*
X78136666Y-189126857D01*
X78136666Y-189174476D01*
X78089047Y-189269714D01*
X78041428Y-189317333D01*
X77946190Y-189364952D01*
X77755714Y-189364952D01*
X77660476Y-189412571D01*
X77612857Y-189460190D01*
X77565238Y-189555428D01*
X77565238Y-189745904D01*
X77612857Y-189841142D01*
X77660476Y-189888761D01*
X77755714Y-189936380D01*
X77946190Y-189936380D01*
X78041428Y-189888761D01*
X78089047Y-189841142D01*
X78136666Y-189745904D01*
X78136666Y-189555428D01*
X78089047Y-189460190D01*
X78041428Y-189412571D01*
X77946190Y-189364952D01*
X76882666Y-166076380D02*
X76882666Y-166790666D01*
X76835047Y-166933523D01*
X76739809Y-167028761D01*
X76596952Y-167076380D01*
X76501714Y-167076380D01*
X77263619Y-166076380D02*
X77930285Y-166076380D01*
X77501714Y-167076380D01*
X76882666Y-143724380D02*
X76882666Y-144438666D01*
X76835047Y-144581523D01*
X76739809Y-144676761D01*
X76596952Y-144724380D01*
X76501714Y-144724380D01*
X77787428Y-143724380D02*
X77596952Y-143724380D01*
X77501714Y-143772000D01*
X77454095Y-143819619D01*
X77358857Y-143962476D01*
X77311238Y-144152952D01*
X77311238Y-144533904D01*
X77358857Y-144629142D01*
X77406476Y-144676761D01*
X77501714Y-144724380D01*
X77692190Y-144724380D01*
X77787428Y-144676761D01*
X77835047Y-144629142D01*
X77882666Y-144533904D01*
X77882666Y-144295809D01*
X77835047Y-144200571D01*
X77787428Y-144152952D01*
X77692190Y-144105333D01*
X77501714Y-144105333D01*
X77406476Y-144152952D01*
X77358857Y-144200571D01*
X77311238Y-144295809D01*
X77136666Y-121372380D02*
X77136666Y-122086666D01*
X77089047Y-122229523D01*
X76993809Y-122324761D01*
X76850952Y-122372380D01*
X76755714Y-122372380D01*
X78089047Y-121372380D02*
X77612857Y-121372380D01*
X77565238Y-121848571D01*
X77612857Y-121800952D01*
X77708095Y-121753333D01*
X77946190Y-121753333D01*
X78041428Y-121800952D01*
X78089047Y-121848571D01*
X78136666Y-121943809D01*
X78136666Y-122181904D01*
X78089047Y-122277142D01*
X78041428Y-122324761D01*
X77946190Y-122372380D01*
X77708095Y-122372380D01*
X77612857Y-122324761D01*
X77565238Y-122277142D01*
X77136666Y-99020380D02*
X77136666Y-99734666D01*
X77089047Y-99877523D01*
X76993809Y-99972761D01*
X76850952Y-100020380D01*
X76755714Y-100020380D01*
X78041428Y-99353714D02*
X78041428Y-100020380D01*
X77803333Y-98972761D02*
X77565238Y-99687047D01*
X78184285Y-99687047D01*
X77136666Y-76922380D02*
X77136666Y-77636666D01*
X77089047Y-77779523D01*
X76993809Y-77874761D01*
X76850952Y-77922380D01*
X76755714Y-77922380D01*
X77517619Y-76922380D02*
X78136666Y-76922380D01*
X77803333Y-77303333D01*
X77946190Y-77303333D01*
X78041428Y-77350952D01*
X78089047Y-77398571D01*
X78136666Y-77493809D01*
X78136666Y-77731904D01*
X78089047Y-77827142D01*
X78041428Y-77874761D01*
X77946190Y-77922380D01*
X77660476Y-77922380D01*
X77565238Y-77874761D01*
X77517619Y-77827142D01*
X77136666Y-53808380D02*
X77136666Y-54522666D01*
X77089047Y-54665523D01*
X76993809Y-54760761D01*
X76850952Y-54808380D01*
X76755714Y-54808380D01*
X77565238Y-53903619D02*
X77612857Y-53856000D01*
X77708095Y-53808380D01*
X77946190Y-53808380D01*
X78041428Y-53856000D01*
X78089047Y-53903619D01*
X78136666Y-53998857D01*
X78136666Y-54094095D01*
X78089047Y-54236952D01*
X77517619Y-54808380D01*
X78136666Y-54808380D01*
X77136666Y-31202380D02*
X77136666Y-31916666D01*
X77089047Y-32059523D01*
X76993809Y-32154761D01*
X76850952Y-32202380D01*
X76755714Y-32202380D01*
X78136666Y-32202380D02*
X77565238Y-32202380D01*
X77850952Y-32202380D02*
X77850952Y-31202380D01*
X77755714Y-31345238D01*
X77660476Y-31440476D01*
X77565238Y-31488095D01*
M02*
