M48
; DRILL file {KiCad (5.1.5)-3} date 5/19/2020 5:07:36 PM
; FORMAT={-:-/ absolute / inch / decimal}
; #@! TF.CreationDate,2020-05-19T17:07:36-07:00
; #@! TF.GenerationSoftware,Kicad,Pcbnew,(5.1.5)-3
; #@! TF.FileFunction,Plated,1,2,PTH
FMAT,2
INCH
T1C0.0394
T2C0.0400
T3C0.0984
%
G90
G05
T1
X4.03Y-2.24
X4.13Y-2.24
X4.23Y-2.24
X4.33Y-2.24
X4.43Y-2.24
X4.53Y-2.24
X4.03Y-5.81
X4.13Y-5.81
X4.23Y-5.81
X4.33Y-5.81
X4.43Y-5.81
X4.53Y-5.81
T2
X4.05Y-0.9
X4.05Y-1.0
X4.15Y-0.9
X4.15Y-1.0
X4.25Y-0.9
X4.25Y-1.0
X4.35Y-0.9
X4.35Y-1.0
X4.45Y-0.9
X4.45Y-1.0
T3
X3.048Y-1.8721
X3.2055Y-1.6437
X3.3236Y-2.1477
X3.4837Y-1.712
X3.552Y-1.9902
X3.048Y-2.7578
X3.2055Y-2.5295
X3.3236Y-3.0334
X3.4837Y-2.5977
X3.552Y-2.8759
X3.048Y-3.6435
X3.2055Y-3.4152
X3.3236Y-3.9191
X3.4837Y-3.4834
X3.552Y-3.7616
X3.048Y-7.1864
X3.2055Y-6.958
X3.3236Y-7.462
X3.4837Y-7.0263
X3.552Y-7.3045
X3.048Y-5.4149
X3.2055Y-5.1866
X3.3236Y-5.6905
X3.4837Y-5.2548
X3.552Y-5.5331
X3.048Y-0.9864
X3.2055Y-0.758
X3.3236Y-1.262
X3.4837Y-0.8263
X3.552Y-1.1045
X3.048Y-6.3007
X3.2055Y-6.0723
X3.3236Y-6.5763
X3.4837Y-6.1405
X3.552Y-6.4188
X3.048Y-4.5292
X3.2055Y-4.3009
X3.3236Y-4.8048
X3.4837Y-4.3691
X3.552Y-4.6473
T0
M30
