G04 #@! TF.GenerationSoftware,KiCad,Pcbnew,(5.1.5)-3*
G04 #@! TF.CreationDate,2020-05-19T17:07:34-07:00*
G04 #@! TF.ProjectId,SM1REV1,534d3152-4556-4312-9e6b-696361645f70,rev?*
G04 #@! TF.SameCoordinates,Original*
G04 #@! TF.FileFunction,Soldermask,Top*
G04 #@! TF.FilePolarity,Negative*
%FSLAX46Y46*%
G04 Gerber Fmt 4.6, Leading zero omitted, Abs format (unit mm)*
G04 Created by KiCad (PCBNEW (5.1.5)-3) date 2020-05-19 17:07:34*
%MOMM*%
%LPD*%
G04 APERTURE LIST*
%ADD10C,0.100000*%
G04 APERTURE END LIST*
D10*
G36*
X85018254Y-187561818D02*
G01*
X85391511Y-187716426D01*
X85391513Y-187716427D01*
X85727436Y-187940884D01*
X86013116Y-188226564D01*
X86237574Y-188562489D01*
X86392182Y-188935746D01*
X86471000Y-189331993D01*
X86471000Y-189736007D01*
X86392182Y-190132254D01*
X86237574Y-190505511D01*
X86237573Y-190505513D01*
X86013116Y-190841436D01*
X85727436Y-191127116D01*
X85391513Y-191351573D01*
X85391512Y-191351574D01*
X85391511Y-191351574D01*
X85018254Y-191506182D01*
X84622007Y-191585000D01*
X84217993Y-191585000D01*
X83821746Y-191506182D01*
X83448489Y-191351574D01*
X83448488Y-191351574D01*
X83448487Y-191351573D01*
X83112564Y-191127116D01*
X82826884Y-190841436D01*
X82602427Y-190505513D01*
X82602426Y-190505511D01*
X82447818Y-190132254D01*
X82369000Y-189736007D01*
X82369000Y-189331993D01*
X82447818Y-188935746D01*
X82602426Y-188562489D01*
X82826884Y-188226564D01*
X83112564Y-187940884D01*
X83448487Y-187716427D01*
X83448489Y-187716426D01*
X83821746Y-187561818D01*
X84217993Y-187483000D01*
X84622007Y-187483000D01*
X85018254Y-187561818D01*
G37*
G36*
X90818254Y-183561818D02*
G01*
X91191511Y-183716426D01*
X91191513Y-183716427D01*
X91527436Y-183940884D01*
X91813116Y-184226564D01*
X91896645Y-184351573D01*
X92037574Y-184562489D01*
X92192182Y-184935746D01*
X92271000Y-185331993D01*
X92271000Y-185736007D01*
X92192182Y-186132254D01*
X92037574Y-186505511D01*
X92037573Y-186505513D01*
X91813116Y-186841436D01*
X91527436Y-187127116D01*
X91191513Y-187351573D01*
X91191512Y-187351574D01*
X91191511Y-187351574D01*
X90818254Y-187506182D01*
X90422007Y-187585000D01*
X90017993Y-187585000D01*
X89621746Y-187506182D01*
X89248489Y-187351574D01*
X89248488Y-187351574D01*
X89248487Y-187351573D01*
X88912564Y-187127116D01*
X88626884Y-186841436D01*
X88402427Y-186505513D01*
X88402426Y-186505511D01*
X88247818Y-186132254D01*
X88169000Y-185736007D01*
X88169000Y-185331993D01*
X88247818Y-184935746D01*
X88402426Y-184562489D01*
X88543356Y-184351573D01*
X88626884Y-184226564D01*
X88912564Y-183940884D01*
X89248487Y-183716427D01*
X89248489Y-183716426D01*
X89621746Y-183561818D01*
X90017993Y-183483000D01*
X90422007Y-183483000D01*
X90818254Y-183561818D01*
G37*
G36*
X78018254Y-180561818D02*
G01*
X78391511Y-180716426D01*
X78391513Y-180716427D01*
X78727436Y-180940884D01*
X79013116Y-181226564D01*
X79237574Y-181562489D01*
X79392182Y-181935746D01*
X79471000Y-182331993D01*
X79471000Y-182736007D01*
X79392182Y-183132254D01*
X79246898Y-183483000D01*
X79237573Y-183505513D01*
X79013116Y-183841436D01*
X78727436Y-184127116D01*
X78391513Y-184351573D01*
X78391512Y-184351574D01*
X78391511Y-184351574D01*
X78018254Y-184506182D01*
X77622007Y-184585000D01*
X77217993Y-184585000D01*
X76821746Y-184506182D01*
X76448489Y-184351574D01*
X76448488Y-184351574D01*
X76448487Y-184351573D01*
X76112564Y-184127116D01*
X75826884Y-183841436D01*
X75602427Y-183505513D01*
X75593102Y-183483000D01*
X75447818Y-183132254D01*
X75369000Y-182736007D01*
X75369000Y-182331993D01*
X75447818Y-181935746D01*
X75602426Y-181562489D01*
X75826884Y-181226564D01*
X76112564Y-180940884D01*
X76448487Y-180716427D01*
X76448489Y-180716426D01*
X76821746Y-180561818D01*
X77217993Y-180483000D01*
X77622007Y-180483000D01*
X78018254Y-180561818D01*
G37*
G36*
X89085254Y-176494818D02*
G01*
X89458511Y-176649426D01*
X89458513Y-176649427D01*
X89794436Y-176873884D01*
X90080116Y-177159564D01*
X90195505Y-177332255D01*
X90304574Y-177495489D01*
X90459182Y-177868746D01*
X90538000Y-178264993D01*
X90538000Y-178669007D01*
X90459182Y-179065254D01*
X90304574Y-179438511D01*
X90304573Y-179438513D01*
X90080116Y-179774436D01*
X89794436Y-180060116D01*
X89458513Y-180284573D01*
X89458512Y-180284574D01*
X89458511Y-180284574D01*
X89085254Y-180439182D01*
X88689007Y-180518000D01*
X88284993Y-180518000D01*
X87888746Y-180439182D01*
X87515489Y-180284574D01*
X87515488Y-180284574D01*
X87515487Y-180284573D01*
X87179564Y-180060116D01*
X86893884Y-179774436D01*
X86669427Y-179438513D01*
X86669426Y-179438511D01*
X86514818Y-179065254D01*
X86436000Y-178669007D01*
X86436000Y-178264993D01*
X86514818Y-177868746D01*
X86669426Y-177495489D01*
X86778496Y-177332255D01*
X86893884Y-177159564D01*
X87179564Y-176873884D01*
X87515487Y-176649427D01*
X87515489Y-176649426D01*
X87888746Y-176494818D01*
X88284993Y-176416000D01*
X88689007Y-176416000D01*
X89085254Y-176494818D01*
G37*
G36*
X82018254Y-174761818D02*
G01*
X82391511Y-174916426D01*
X82391513Y-174916427D01*
X82727436Y-175140884D01*
X83013116Y-175426564D01*
X83237574Y-175762489D01*
X83392182Y-176135746D01*
X83471000Y-176531993D01*
X83471000Y-176936007D01*
X83392182Y-177332254D01*
X83237574Y-177705511D01*
X83237573Y-177705513D01*
X83013116Y-178041436D01*
X82727436Y-178327116D01*
X82391513Y-178551573D01*
X82391512Y-178551574D01*
X82391511Y-178551574D01*
X82018254Y-178706182D01*
X81622007Y-178785000D01*
X81217993Y-178785000D01*
X80821746Y-178706182D01*
X80448489Y-178551574D01*
X80448488Y-178551574D01*
X80448487Y-178551573D01*
X80112564Y-178327116D01*
X79826884Y-178041436D01*
X79602427Y-177705513D01*
X79602426Y-177705511D01*
X79447818Y-177332254D01*
X79369000Y-176936007D01*
X79369000Y-176531993D01*
X79447818Y-176135746D01*
X79602426Y-175762489D01*
X79826884Y-175426564D01*
X80112564Y-175140884D01*
X80448487Y-174916427D01*
X80448489Y-174916426D01*
X80821746Y-174761818D01*
X81217993Y-174683000D01*
X81622007Y-174683000D01*
X82018254Y-174761818D01*
G37*
G36*
X85018254Y-165064670D02*
G01*
X85391511Y-165219278D01*
X85391513Y-165219279D01*
X85727436Y-165443736D01*
X86013116Y-165729416D01*
X86237574Y-166065341D01*
X86392182Y-166438598D01*
X86471000Y-166834845D01*
X86471000Y-167238859D01*
X86392182Y-167635106D01*
X86237574Y-168008363D01*
X86237573Y-168008365D01*
X86013116Y-168344288D01*
X85727436Y-168629968D01*
X85391513Y-168854425D01*
X85391512Y-168854426D01*
X85391511Y-168854426D01*
X85018254Y-169009034D01*
X84622007Y-169087852D01*
X84217993Y-169087852D01*
X83821746Y-169009034D01*
X83448489Y-168854426D01*
X83448488Y-168854426D01*
X83448487Y-168854425D01*
X83112564Y-168629968D01*
X82826884Y-168344288D01*
X82602427Y-168008365D01*
X82602426Y-168008363D01*
X82447818Y-167635106D01*
X82369000Y-167238859D01*
X82369000Y-166834845D01*
X82447818Y-166438598D01*
X82602426Y-166065341D01*
X82826884Y-165729416D01*
X83112564Y-165443736D01*
X83448487Y-165219279D01*
X83448489Y-165219278D01*
X83821746Y-165064670D01*
X84217993Y-164985852D01*
X84622007Y-164985852D01*
X85018254Y-165064670D01*
G37*
G36*
X90818254Y-161064670D02*
G01*
X91191511Y-161219278D01*
X91191513Y-161219279D01*
X91527436Y-161443736D01*
X91813116Y-161729416D01*
X91896645Y-161854425D01*
X92037574Y-162065341D01*
X92192182Y-162438598D01*
X92271000Y-162834845D01*
X92271000Y-163238859D01*
X92192182Y-163635106D01*
X92037574Y-164008363D01*
X92037573Y-164008365D01*
X91813116Y-164344288D01*
X91527436Y-164629968D01*
X91191513Y-164854425D01*
X91191512Y-164854426D01*
X91191511Y-164854426D01*
X90818254Y-165009034D01*
X90422007Y-165087852D01*
X90017993Y-165087852D01*
X89621746Y-165009034D01*
X89248489Y-164854426D01*
X89248488Y-164854426D01*
X89248487Y-164854425D01*
X88912564Y-164629968D01*
X88626884Y-164344288D01*
X88402427Y-164008365D01*
X88402426Y-164008363D01*
X88247818Y-163635106D01*
X88169000Y-163238859D01*
X88169000Y-162834845D01*
X88247818Y-162438598D01*
X88402426Y-162065341D01*
X88543356Y-161854425D01*
X88626884Y-161729416D01*
X88912564Y-161443736D01*
X89248487Y-161219279D01*
X89248489Y-161219278D01*
X89621746Y-161064670D01*
X90017993Y-160985852D01*
X90422007Y-160985852D01*
X90818254Y-161064670D01*
G37*
G36*
X78018254Y-158064670D02*
G01*
X78391511Y-158219278D01*
X78391513Y-158219279D01*
X78727436Y-158443736D01*
X79013116Y-158729416D01*
X79237574Y-159065341D01*
X79392182Y-159438598D01*
X79471000Y-159834845D01*
X79471000Y-160238859D01*
X79392182Y-160635106D01*
X79246898Y-160985852D01*
X79237573Y-161008365D01*
X79013116Y-161344288D01*
X78727436Y-161629968D01*
X78391513Y-161854425D01*
X78391512Y-161854426D01*
X78391511Y-161854426D01*
X78018254Y-162009034D01*
X77622007Y-162087852D01*
X77217993Y-162087852D01*
X76821746Y-162009034D01*
X76448489Y-161854426D01*
X76448488Y-161854426D01*
X76448487Y-161854425D01*
X76112564Y-161629968D01*
X75826884Y-161344288D01*
X75602427Y-161008365D01*
X75593102Y-160985852D01*
X75447818Y-160635106D01*
X75369000Y-160238859D01*
X75369000Y-159834845D01*
X75447818Y-159438598D01*
X75602426Y-159065341D01*
X75826884Y-158729416D01*
X76112564Y-158443736D01*
X76448487Y-158219279D01*
X76448489Y-158219278D01*
X76821746Y-158064670D01*
X77217993Y-157985852D01*
X77622007Y-157985852D01*
X78018254Y-158064670D01*
G37*
G36*
X89085254Y-153997670D02*
G01*
X89458511Y-154152278D01*
X89458513Y-154152279D01*
X89794436Y-154376736D01*
X90080116Y-154662416D01*
X90195505Y-154835107D01*
X90304574Y-154998341D01*
X90459182Y-155371598D01*
X90538000Y-155767845D01*
X90538000Y-156171859D01*
X90459182Y-156568106D01*
X90304574Y-156941363D01*
X90304573Y-156941365D01*
X90080116Y-157277288D01*
X89794436Y-157562968D01*
X89458513Y-157787425D01*
X89458512Y-157787426D01*
X89458511Y-157787426D01*
X89085254Y-157942034D01*
X88689007Y-158020852D01*
X88284993Y-158020852D01*
X87888746Y-157942034D01*
X87515489Y-157787426D01*
X87515488Y-157787426D01*
X87515487Y-157787425D01*
X87179564Y-157562968D01*
X86893884Y-157277288D01*
X86669427Y-156941365D01*
X86669426Y-156941363D01*
X86514818Y-156568106D01*
X86436000Y-156171859D01*
X86436000Y-155767845D01*
X86514818Y-155371598D01*
X86669426Y-154998341D01*
X86778496Y-154835107D01*
X86893884Y-154662416D01*
X87179564Y-154376736D01*
X87515487Y-154152279D01*
X87515489Y-154152278D01*
X87888746Y-153997670D01*
X88284993Y-153918852D01*
X88689007Y-153918852D01*
X89085254Y-153997670D01*
G37*
G36*
X82018254Y-152264670D02*
G01*
X82391511Y-152419278D01*
X82391513Y-152419279D01*
X82727436Y-152643736D01*
X83013116Y-152929416D01*
X83237574Y-153265341D01*
X83392182Y-153638598D01*
X83471000Y-154034845D01*
X83471000Y-154438859D01*
X83392182Y-154835106D01*
X83237574Y-155208363D01*
X83237573Y-155208365D01*
X83013116Y-155544288D01*
X82727436Y-155829968D01*
X82391513Y-156054425D01*
X82391512Y-156054426D01*
X82391511Y-156054426D01*
X82018254Y-156209034D01*
X81622007Y-156287852D01*
X81217993Y-156287852D01*
X80821746Y-156209034D01*
X80448489Y-156054426D01*
X80448488Y-156054426D01*
X80448487Y-156054425D01*
X80112564Y-155829968D01*
X79826884Y-155544288D01*
X79602427Y-155208365D01*
X79602426Y-155208363D01*
X79447818Y-154835106D01*
X79369000Y-154438859D01*
X79369000Y-154034845D01*
X79447818Y-153638598D01*
X79602426Y-153265341D01*
X79826884Y-152929416D01*
X80112564Y-152643736D01*
X80448487Y-152419279D01*
X80448489Y-152419278D01*
X80821746Y-152264670D01*
X81217993Y-152185852D01*
X81622007Y-152185852D01*
X82018254Y-152264670D01*
G37*
G36*
X103263000Y-148475000D02*
G01*
X101461000Y-148475000D01*
X101461000Y-146673000D01*
X103263000Y-146673000D01*
X103263000Y-148475000D01*
G37*
G36*
X105015512Y-146677927D02*
G01*
X105164812Y-146707624D01*
X105328784Y-146775544D01*
X105476354Y-146874147D01*
X105601853Y-146999646D01*
X105700456Y-147147216D01*
X105768376Y-147311188D01*
X105803000Y-147485259D01*
X105803000Y-147662741D01*
X105768376Y-147836812D01*
X105700456Y-148000784D01*
X105601853Y-148148354D01*
X105476354Y-148273853D01*
X105328784Y-148372456D01*
X105164812Y-148440376D01*
X105015512Y-148470073D01*
X104990742Y-148475000D01*
X104813258Y-148475000D01*
X104788488Y-148470073D01*
X104639188Y-148440376D01*
X104475216Y-148372456D01*
X104327646Y-148273853D01*
X104202147Y-148148354D01*
X104103544Y-148000784D01*
X104035624Y-147836812D01*
X104001000Y-147662741D01*
X104001000Y-147485259D01*
X104035624Y-147311188D01*
X104103544Y-147147216D01*
X104202147Y-146999646D01*
X104327646Y-146874147D01*
X104475216Y-146775544D01*
X104639188Y-146707624D01*
X104788488Y-146677927D01*
X104813258Y-146673000D01*
X104990742Y-146673000D01*
X105015512Y-146677927D01*
G37*
G36*
X107555512Y-146677927D02*
G01*
X107704812Y-146707624D01*
X107868784Y-146775544D01*
X108016354Y-146874147D01*
X108141853Y-146999646D01*
X108240456Y-147147216D01*
X108308376Y-147311188D01*
X108343000Y-147485259D01*
X108343000Y-147662741D01*
X108308376Y-147836812D01*
X108240456Y-148000784D01*
X108141853Y-148148354D01*
X108016354Y-148273853D01*
X107868784Y-148372456D01*
X107704812Y-148440376D01*
X107555512Y-148470073D01*
X107530742Y-148475000D01*
X107353258Y-148475000D01*
X107328488Y-148470073D01*
X107179188Y-148440376D01*
X107015216Y-148372456D01*
X106867646Y-148273853D01*
X106742147Y-148148354D01*
X106643544Y-148000784D01*
X106575624Y-147836812D01*
X106541000Y-147662741D01*
X106541000Y-147485259D01*
X106575624Y-147311188D01*
X106643544Y-147147216D01*
X106742147Y-146999646D01*
X106867646Y-146874147D01*
X107015216Y-146775544D01*
X107179188Y-146707624D01*
X107328488Y-146677927D01*
X107353258Y-146673000D01*
X107530742Y-146673000D01*
X107555512Y-146677927D01*
G37*
G36*
X110095512Y-146677927D02*
G01*
X110244812Y-146707624D01*
X110408784Y-146775544D01*
X110556354Y-146874147D01*
X110681853Y-146999646D01*
X110780456Y-147147216D01*
X110848376Y-147311188D01*
X110883000Y-147485259D01*
X110883000Y-147662741D01*
X110848376Y-147836812D01*
X110780456Y-148000784D01*
X110681853Y-148148354D01*
X110556354Y-148273853D01*
X110408784Y-148372456D01*
X110244812Y-148440376D01*
X110095512Y-148470073D01*
X110070742Y-148475000D01*
X109893258Y-148475000D01*
X109868488Y-148470073D01*
X109719188Y-148440376D01*
X109555216Y-148372456D01*
X109407646Y-148273853D01*
X109282147Y-148148354D01*
X109183544Y-148000784D01*
X109115624Y-147836812D01*
X109081000Y-147662741D01*
X109081000Y-147485259D01*
X109115624Y-147311188D01*
X109183544Y-147147216D01*
X109282147Y-146999646D01*
X109407646Y-146874147D01*
X109555216Y-146775544D01*
X109719188Y-146707624D01*
X109868488Y-146677927D01*
X109893258Y-146673000D01*
X110070742Y-146673000D01*
X110095512Y-146677927D01*
G37*
G36*
X112635512Y-146677927D02*
G01*
X112784812Y-146707624D01*
X112948784Y-146775544D01*
X113096354Y-146874147D01*
X113221853Y-146999646D01*
X113320456Y-147147216D01*
X113388376Y-147311188D01*
X113423000Y-147485259D01*
X113423000Y-147662741D01*
X113388376Y-147836812D01*
X113320456Y-148000784D01*
X113221853Y-148148354D01*
X113096354Y-148273853D01*
X112948784Y-148372456D01*
X112784812Y-148440376D01*
X112635512Y-148470073D01*
X112610742Y-148475000D01*
X112433258Y-148475000D01*
X112408488Y-148470073D01*
X112259188Y-148440376D01*
X112095216Y-148372456D01*
X111947646Y-148273853D01*
X111822147Y-148148354D01*
X111723544Y-148000784D01*
X111655624Y-147836812D01*
X111621000Y-147662741D01*
X111621000Y-147485259D01*
X111655624Y-147311188D01*
X111723544Y-147147216D01*
X111822147Y-146999646D01*
X111947646Y-146874147D01*
X112095216Y-146775544D01*
X112259188Y-146707624D01*
X112408488Y-146677927D01*
X112433258Y-146673000D01*
X112610742Y-146673000D01*
X112635512Y-146677927D01*
G37*
G36*
X115175512Y-146677927D02*
G01*
X115324812Y-146707624D01*
X115488784Y-146775544D01*
X115636354Y-146874147D01*
X115761853Y-146999646D01*
X115860456Y-147147216D01*
X115928376Y-147311188D01*
X115963000Y-147485259D01*
X115963000Y-147662741D01*
X115928376Y-147836812D01*
X115860456Y-148000784D01*
X115761853Y-148148354D01*
X115636354Y-148273853D01*
X115488784Y-148372456D01*
X115324812Y-148440376D01*
X115175512Y-148470073D01*
X115150742Y-148475000D01*
X114973258Y-148475000D01*
X114948488Y-148470073D01*
X114799188Y-148440376D01*
X114635216Y-148372456D01*
X114487646Y-148273853D01*
X114362147Y-148148354D01*
X114263544Y-148000784D01*
X114195624Y-147836812D01*
X114161000Y-147662741D01*
X114161000Y-147485259D01*
X114195624Y-147311188D01*
X114263544Y-147147216D01*
X114362147Y-146999646D01*
X114487646Y-146874147D01*
X114635216Y-146775544D01*
X114799188Y-146707624D01*
X114948488Y-146677927D01*
X114973258Y-146673000D01*
X115150742Y-146673000D01*
X115175512Y-146677927D01*
G37*
G36*
X85018254Y-142567528D02*
G01*
X85391511Y-142722136D01*
X85391513Y-142722137D01*
X85727436Y-142946594D01*
X86013116Y-143232274D01*
X86237574Y-143568199D01*
X86392182Y-143941456D01*
X86471000Y-144337703D01*
X86471000Y-144741717D01*
X86392182Y-145137964D01*
X86237574Y-145511221D01*
X86237573Y-145511223D01*
X86013116Y-145847146D01*
X85727436Y-146132826D01*
X85391513Y-146357283D01*
X85391512Y-146357284D01*
X85391511Y-146357284D01*
X85018254Y-146511892D01*
X84622007Y-146590710D01*
X84217993Y-146590710D01*
X83821746Y-146511892D01*
X83448489Y-146357284D01*
X83448488Y-146357284D01*
X83448487Y-146357283D01*
X83112564Y-146132826D01*
X82826884Y-145847146D01*
X82602427Y-145511223D01*
X82602426Y-145511221D01*
X82447818Y-145137964D01*
X82369000Y-144741717D01*
X82369000Y-144337703D01*
X82447818Y-143941456D01*
X82602426Y-143568199D01*
X82826884Y-143232274D01*
X83112564Y-142946594D01*
X83448487Y-142722137D01*
X83448489Y-142722136D01*
X83821746Y-142567528D01*
X84217993Y-142488710D01*
X84622007Y-142488710D01*
X85018254Y-142567528D01*
G37*
G36*
X90818254Y-138567528D02*
G01*
X91191511Y-138722136D01*
X91191513Y-138722137D01*
X91527436Y-138946594D01*
X91813116Y-139232274D01*
X91896645Y-139357283D01*
X92037574Y-139568199D01*
X92192182Y-139941456D01*
X92271000Y-140337703D01*
X92271000Y-140741717D01*
X92192182Y-141137964D01*
X92037574Y-141511221D01*
X92037573Y-141511223D01*
X91813116Y-141847146D01*
X91527436Y-142132826D01*
X91191513Y-142357283D01*
X91191512Y-142357284D01*
X91191511Y-142357284D01*
X90818254Y-142511892D01*
X90422007Y-142590710D01*
X90017993Y-142590710D01*
X89621746Y-142511892D01*
X89248489Y-142357284D01*
X89248488Y-142357284D01*
X89248487Y-142357283D01*
X88912564Y-142132826D01*
X88626884Y-141847146D01*
X88402427Y-141511223D01*
X88402426Y-141511221D01*
X88247818Y-141137964D01*
X88169000Y-140741717D01*
X88169000Y-140337703D01*
X88247818Y-139941456D01*
X88402426Y-139568199D01*
X88543356Y-139357283D01*
X88626884Y-139232274D01*
X88912564Y-138946594D01*
X89248487Y-138722137D01*
X89248489Y-138722136D01*
X89621746Y-138567528D01*
X90017993Y-138488710D01*
X90422007Y-138488710D01*
X90818254Y-138567528D01*
G37*
G36*
X78018254Y-135567528D02*
G01*
X78391511Y-135722136D01*
X78391513Y-135722137D01*
X78727436Y-135946594D01*
X79013116Y-136232274D01*
X79237574Y-136568199D01*
X79392182Y-136941456D01*
X79471000Y-137337703D01*
X79471000Y-137741717D01*
X79392182Y-138137964D01*
X79246898Y-138488710D01*
X79237573Y-138511223D01*
X79013116Y-138847146D01*
X78727436Y-139132826D01*
X78391513Y-139357283D01*
X78391512Y-139357284D01*
X78391511Y-139357284D01*
X78018254Y-139511892D01*
X77622007Y-139590710D01*
X77217993Y-139590710D01*
X76821746Y-139511892D01*
X76448489Y-139357284D01*
X76448488Y-139357284D01*
X76448487Y-139357283D01*
X76112564Y-139132826D01*
X75826884Y-138847146D01*
X75602427Y-138511223D01*
X75593102Y-138488710D01*
X75447818Y-138137964D01*
X75369000Y-137741717D01*
X75369000Y-137337703D01*
X75447818Y-136941456D01*
X75602426Y-136568199D01*
X75826884Y-136232274D01*
X76112564Y-135946594D01*
X76448487Y-135722137D01*
X76448489Y-135722136D01*
X76821746Y-135567528D01*
X77217993Y-135488710D01*
X77622007Y-135488710D01*
X78018254Y-135567528D01*
G37*
G36*
X89085254Y-131500528D02*
G01*
X89458511Y-131655136D01*
X89458513Y-131655137D01*
X89794436Y-131879594D01*
X90080116Y-132165274D01*
X90195505Y-132337965D01*
X90304574Y-132501199D01*
X90459182Y-132874456D01*
X90538000Y-133270703D01*
X90538000Y-133674717D01*
X90459182Y-134070964D01*
X90304574Y-134444221D01*
X90304573Y-134444223D01*
X90080116Y-134780146D01*
X89794436Y-135065826D01*
X89458513Y-135290283D01*
X89458512Y-135290284D01*
X89458511Y-135290284D01*
X89085254Y-135444892D01*
X88689007Y-135523710D01*
X88284993Y-135523710D01*
X87888746Y-135444892D01*
X87515489Y-135290284D01*
X87515488Y-135290284D01*
X87515487Y-135290283D01*
X87179564Y-135065826D01*
X86893884Y-134780146D01*
X86669427Y-134444223D01*
X86669426Y-134444221D01*
X86514818Y-134070964D01*
X86436000Y-133674717D01*
X86436000Y-133270703D01*
X86514818Y-132874456D01*
X86669426Y-132501199D01*
X86778496Y-132337965D01*
X86893884Y-132165274D01*
X87179564Y-131879594D01*
X87515487Y-131655137D01*
X87515489Y-131655136D01*
X87888746Y-131500528D01*
X88284993Y-131421710D01*
X88689007Y-131421710D01*
X89085254Y-131500528D01*
G37*
G36*
X82018254Y-129767528D02*
G01*
X82391511Y-129922136D01*
X82391513Y-129922137D01*
X82727436Y-130146594D01*
X83013116Y-130432274D01*
X83237574Y-130768199D01*
X83392182Y-131141456D01*
X83471000Y-131537703D01*
X83471000Y-131941717D01*
X83392182Y-132337964D01*
X83237574Y-132711221D01*
X83237573Y-132711223D01*
X83013116Y-133047146D01*
X82727436Y-133332826D01*
X82391513Y-133557283D01*
X82391512Y-133557284D01*
X82391511Y-133557284D01*
X82018254Y-133711892D01*
X81622007Y-133790710D01*
X81217993Y-133790710D01*
X80821746Y-133711892D01*
X80448489Y-133557284D01*
X80448488Y-133557284D01*
X80448487Y-133557283D01*
X80112564Y-133332826D01*
X79826884Y-133047146D01*
X79602427Y-132711223D01*
X79602426Y-132711221D01*
X79447818Y-132337964D01*
X79369000Y-131941717D01*
X79369000Y-131537703D01*
X79447818Y-131141456D01*
X79602426Y-130768199D01*
X79826884Y-130432274D01*
X80112564Y-130146594D01*
X80448487Y-129922137D01*
X80448489Y-129922136D01*
X80821746Y-129767528D01*
X81217993Y-129688710D01*
X81622007Y-129688710D01*
X82018254Y-129767528D01*
G37*
G36*
X85018254Y-120070386D02*
G01*
X85391511Y-120224994D01*
X85391513Y-120224995D01*
X85727436Y-120449452D01*
X86013116Y-120735132D01*
X86237574Y-121071057D01*
X86392182Y-121444314D01*
X86471000Y-121840561D01*
X86471000Y-122244575D01*
X86392182Y-122640822D01*
X86237574Y-123014079D01*
X86237573Y-123014081D01*
X86013116Y-123350004D01*
X85727436Y-123635684D01*
X85391513Y-123860141D01*
X85391512Y-123860142D01*
X85391511Y-123860142D01*
X85018254Y-124014750D01*
X84622007Y-124093568D01*
X84217993Y-124093568D01*
X83821746Y-124014750D01*
X83448489Y-123860142D01*
X83448488Y-123860142D01*
X83448487Y-123860141D01*
X83112564Y-123635684D01*
X82826884Y-123350004D01*
X82602427Y-123014081D01*
X82602426Y-123014079D01*
X82447818Y-122640822D01*
X82369000Y-122244575D01*
X82369000Y-121840561D01*
X82447818Y-121444314D01*
X82602426Y-121071057D01*
X82826884Y-120735132D01*
X83112564Y-120449452D01*
X83448487Y-120224995D01*
X83448489Y-120224994D01*
X83821746Y-120070386D01*
X84217993Y-119991568D01*
X84622007Y-119991568D01*
X85018254Y-120070386D01*
G37*
G36*
X90818254Y-116070386D02*
G01*
X91191511Y-116224994D01*
X91191513Y-116224995D01*
X91527436Y-116449452D01*
X91813116Y-116735132D01*
X91896645Y-116860141D01*
X92037574Y-117071057D01*
X92192182Y-117444314D01*
X92271000Y-117840561D01*
X92271000Y-118244575D01*
X92192182Y-118640822D01*
X92037574Y-119014079D01*
X92037573Y-119014081D01*
X91813116Y-119350004D01*
X91527436Y-119635684D01*
X91191513Y-119860141D01*
X91191512Y-119860142D01*
X91191511Y-119860142D01*
X90818254Y-120014750D01*
X90422007Y-120093568D01*
X90017993Y-120093568D01*
X89621746Y-120014750D01*
X89248489Y-119860142D01*
X89248488Y-119860142D01*
X89248487Y-119860141D01*
X88912564Y-119635684D01*
X88626884Y-119350004D01*
X88402427Y-119014081D01*
X88402426Y-119014079D01*
X88247818Y-118640822D01*
X88169000Y-118244575D01*
X88169000Y-117840561D01*
X88247818Y-117444314D01*
X88402426Y-117071057D01*
X88543356Y-116860141D01*
X88626884Y-116735132D01*
X88912564Y-116449452D01*
X89248487Y-116224995D01*
X89248489Y-116224994D01*
X89621746Y-116070386D01*
X90017993Y-115991568D01*
X90422007Y-115991568D01*
X90818254Y-116070386D01*
G37*
G36*
X78018254Y-113070386D02*
G01*
X78391511Y-113224994D01*
X78391513Y-113224995D01*
X78727436Y-113449452D01*
X79013116Y-113735132D01*
X79237574Y-114071057D01*
X79392182Y-114444314D01*
X79471000Y-114840561D01*
X79471000Y-115244575D01*
X79392182Y-115640822D01*
X79246898Y-115991568D01*
X79237573Y-116014081D01*
X79013116Y-116350004D01*
X78727436Y-116635684D01*
X78391513Y-116860141D01*
X78391512Y-116860142D01*
X78391511Y-116860142D01*
X78018254Y-117014750D01*
X77622007Y-117093568D01*
X77217993Y-117093568D01*
X76821746Y-117014750D01*
X76448489Y-116860142D01*
X76448488Y-116860142D01*
X76448487Y-116860141D01*
X76112564Y-116635684D01*
X75826884Y-116350004D01*
X75602427Y-116014081D01*
X75593102Y-115991568D01*
X75447818Y-115640822D01*
X75369000Y-115244575D01*
X75369000Y-114840561D01*
X75447818Y-114444314D01*
X75602426Y-114071057D01*
X75826884Y-113735132D01*
X76112564Y-113449452D01*
X76448487Y-113224995D01*
X76448489Y-113224994D01*
X76821746Y-113070386D01*
X77217993Y-112991568D01*
X77622007Y-112991568D01*
X78018254Y-113070386D01*
G37*
G36*
X89085254Y-109003386D02*
G01*
X89458511Y-109157994D01*
X89458513Y-109157995D01*
X89794436Y-109382452D01*
X90080116Y-109668132D01*
X90195505Y-109840823D01*
X90304574Y-110004057D01*
X90459182Y-110377314D01*
X90538000Y-110773561D01*
X90538000Y-111177575D01*
X90459182Y-111573822D01*
X90304574Y-111947079D01*
X90304573Y-111947081D01*
X90080116Y-112283004D01*
X89794436Y-112568684D01*
X89458513Y-112793141D01*
X89458512Y-112793142D01*
X89458511Y-112793142D01*
X89085254Y-112947750D01*
X88689007Y-113026568D01*
X88284993Y-113026568D01*
X87888746Y-112947750D01*
X87515489Y-112793142D01*
X87515488Y-112793142D01*
X87515487Y-112793141D01*
X87179564Y-112568684D01*
X86893884Y-112283004D01*
X86669427Y-111947081D01*
X86669426Y-111947079D01*
X86514818Y-111573822D01*
X86436000Y-111177575D01*
X86436000Y-110773561D01*
X86514818Y-110377314D01*
X86669426Y-110004057D01*
X86778496Y-109840823D01*
X86893884Y-109668132D01*
X87179564Y-109382452D01*
X87515487Y-109157995D01*
X87515489Y-109157994D01*
X87888746Y-109003386D01*
X88284993Y-108924568D01*
X88689007Y-108924568D01*
X89085254Y-109003386D01*
G37*
G36*
X82018254Y-107270386D02*
G01*
X82391511Y-107424994D01*
X82391513Y-107424995D01*
X82727436Y-107649452D01*
X83013116Y-107935132D01*
X83237574Y-108271057D01*
X83392182Y-108644314D01*
X83471000Y-109040561D01*
X83471000Y-109444575D01*
X83392182Y-109840822D01*
X83237574Y-110214079D01*
X83237573Y-110214081D01*
X83013116Y-110550004D01*
X82727436Y-110835684D01*
X82391513Y-111060141D01*
X82391512Y-111060142D01*
X82391511Y-111060142D01*
X82018254Y-111214750D01*
X81622007Y-111293568D01*
X81217993Y-111293568D01*
X80821746Y-111214750D01*
X80448489Y-111060142D01*
X80448488Y-111060142D01*
X80448487Y-111060141D01*
X80112564Y-110835684D01*
X79826884Y-110550004D01*
X79602427Y-110214081D01*
X79602426Y-110214079D01*
X79447818Y-109840822D01*
X79369000Y-109444575D01*
X79369000Y-109040561D01*
X79447818Y-108644314D01*
X79602426Y-108271057D01*
X79826884Y-107935132D01*
X80112564Y-107649452D01*
X80448487Y-107424995D01*
X80448489Y-107424994D01*
X80821746Y-107270386D01*
X81217993Y-107191568D01*
X81622007Y-107191568D01*
X82018254Y-107270386D01*
G37*
G36*
X85018254Y-97573244D02*
G01*
X85391511Y-97727852D01*
X85391513Y-97727853D01*
X85727436Y-97952310D01*
X86013116Y-98237990D01*
X86237574Y-98573915D01*
X86392182Y-98947172D01*
X86471000Y-99343419D01*
X86471000Y-99747433D01*
X86392182Y-100143680D01*
X86237574Y-100516937D01*
X86237573Y-100516939D01*
X86013116Y-100852862D01*
X85727436Y-101138542D01*
X85391513Y-101362999D01*
X85391512Y-101363000D01*
X85391511Y-101363000D01*
X85018254Y-101517608D01*
X84622007Y-101596426D01*
X84217993Y-101596426D01*
X83821746Y-101517608D01*
X83448489Y-101363000D01*
X83448488Y-101363000D01*
X83448487Y-101362999D01*
X83112564Y-101138542D01*
X82826884Y-100852862D01*
X82602427Y-100516939D01*
X82602426Y-100516937D01*
X82447818Y-100143680D01*
X82369000Y-99747433D01*
X82369000Y-99343419D01*
X82447818Y-98947172D01*
X82602426Y-98573915D01*
X82826884Y-98237990D01*
X83112564Y-97952310D01*
X83448487Y-97727853D01*
X83448489Y-97727852D01*
X83821746Y-97573244D01*
X84217993Y-97494426D01*
X84622007Y-97494426D01*
X85018254Y-97573244D01*
G37*
G36*
X90818254Y-93573244D02*
G01*
X91191511Y-93727852D01*
X91191513Y-93727853D01*
X91527436Y-93952310D01*
X91813116Y-94237990D01*
X91896645Y-94362999D01*
X92037574Y-94573915D01*
X92192182Y-94947172D01*
X92271000Y-95343419D01*
X92271000Y-95747433D01*
X92192182Y-96143680D01*
X92037574Y-96516937D01*
X92037573Y-96516939D01*
X91813116Y-96852862D01*
X91527436Y-97138542D01*
X91191513Y-97362999D01*
X91191512Y-97363000D01*
X91191511Y-97363000D01*
X90818254Y-97517608D01*
X90422007Y-97596426D01*
X90017993Y-97596426D01*
X89621746Y-97517608D01*
X89248489Y-97363000D01*
X89248488Y-97363000D01*
X89248487Y-97362999D01*
X88912564Y-97138542D01*
X88626884Y-96852862D01*
X88402427Y-96516939D01*
X88402426Y-96516937D01*
X88247818Y-96143680D01*
X88169000Y-95747433D01*
X88169000Y-95343419D01*
X88247818Y-94947172D01*
X88402426Y-94573915D01*
X88543356Y-94362999D01*
X88626884Y-94237990D01*
X88912564Y-93952310D01*
X89248487Y-93727853D01*
X89248489Y-93727852D01*
X89621746Y-93573244D01*
X90017993Y-93494426D01*
X90422007Y-93494426D01*
X90818254Y-93573244D01*
G37*
G36*
X78018254Y-90573244D02*
G01*
X78391511Y-90727852D01*
X78391513Y-90727853D01*
X78727436Y-90952310D01*
X79013116Y-91237990D01*
X79237574Y-91573915D01*
X79392182Y-91947172D01*
X79471000Y-92343419D01*
X79471000Y-92747433D01*
X79392182Y-93143680D01*
X79246898Y-93494426D01*
X79237573Y-93516939D01*
X79013116Y-93852862D01*
X78727436Y-94138542D01*
X78391513Y-94362999D01*
X78391512Y-94363000D01*
X78391511Y-94363000D01*
X78018254Y-94517608D01*
X77622007Y-94596426D01*
X77217993Y-94596426D01*
X76821746Y-94517608D01*
X76448489Y-94363000D01*
X76448488Y-94363000D01*
X76448487Y-94362999D01*
X76112564Y-94138542D01*
X75826884Y-93852862D01*
X75602427Y-93516939D01*
X75593102Y-93494426D01*
X75447818Y-93143680D01*
X75369000Y-92747433D01*
X75369000Y-92343419D01*
X75447818Y-91947172D01*
X75602426Y-91573915D01*
X75826884Y-91237990D01*
X76112564Y-90952310D01*
X76448487Y-90727853D01*
X76448489Y-90727852D01*
X76821746Y-90573244D01*
X77217993Y-90494426D01*
X77622007Y-90494426D01*
X78018254Y-90573244D01*
G37*
G36*
X89085254Y-86506244D02*
G01*
X89458511Y-86660852D01*
X89458513Y-86660853D01*
X89794436Y-86885310D01*
X90080116Y-87170990D01*
X90195505Y-87343681D01*
X90304574Y-87506915D01*
X90459182Y-87880172D01*
X90538000Y-88276419D01*
X90538000Y-88680433D01*
X90459182Y-89076680D01*
X90304574Y-89449937D01*
X90304573Y-89449939D01*
X90080116Y-89785862D01*
X89794436Y-90071542D01*
X89458513Y-90295999D01*
X89458512Y-90296000D01*
X89458511Y-90296000D01*
X89085254Y-90450608D01*
X88689007Y-90529426D01*
X88284993Y-90529426D01*
X87888746Y-90450608D01*
X87515489Y-90296000D01*
X87515488Y-90296000D01*
X87515487Y-90295999D01*
X87179564Y-90071542D01*
X86893884Y-89785862D01*
X86669427Y-89449939D01*
X86669426Y-89449937D01*
X86514818Y-89076680D01*
X86436000Y-88680433D01*
X86436000Y-88276419D01*
X86514818Y-87880172D01*
X86669426Y-87506915D01*
X86778496Y-87343681D01*
X86893884Y-87170990D01*
X87179564Y-86885310D01*
X87515487Y-86660853D01*
X87515489Y-86660852D01*
X87888746Y-86506244D01*
X88284993Y-86427426D01*
X88689007Y-86427426D01*
X89085254Y-86506244D01*
G37*
G36*
X82018254Y-84773244D02*
G01*
X82391511Y-84927852D01*
X82391513Y-84927853D01*
X82727436Y-85152310D01*
X83013116Y-85437990D01*
X83237574Y-85773915D01*
X83392182Y-86147172D01*
X83471000Y-86543419D01*
X83471000Y-86947433D01*
X83392182Y-87343680D01*
X83237574Y-87716937D01*
X83237573Y-87716939D01*
X83013116Y-88052862D01*
X82727436Y-88338542D01*
X82391513Y-88562999D01*
X82391512Y-88563000D01*
X82391511Y-88563000D01*
X82018254Y-88717608D01*
X81622007Y-88796426D01*
X81217993Y-88796426D01*
X80821746Y-88717608D01*
X80448489Y-88563000D01*
X80448488Y-88563000D01*
X80448487Y-88562999D01*
X80112564Y-88338542D01*
X79826884Y-88052862D01*
X79602427Y-87716939D01*
X79602426Y-87716937D01*
X79447818Y-87343680D01*
X79369000Y-86947433D01*
X79369000Y-86543419D01*
X79447818Y-86147172D01*
X79602426Y-85773915D01*
X79826884Y-85437990D01*
X80112564Y-85152310D01*
X80448487Y-84927853D01*
X80448489Y-84927852D01*
X80821746Y-84773244D01*
X81217993Y-84694426D01*
X81622007Y-84694426D01*
X82018254Y-84773244D01*
G37*
G36*
X85018254Y-75076102D02*
G01*
X85391511Y-75230710D01*
X85391513Y-75230711D01*
X85727436Y-75455168D01*
X86013116Y-75740848D01*
X86237574Y-76076773D01*
X86392182Y-76450030D01*
X86471000Y-76846277D01*
X86471000Y-77250291D01*
X86392182Y-77646538D01*
X86237574Y-78019795D01*
X86237573Y-78019797D01*
X86013116Y-78355720D01*
X85727436Y-78641400D01*
X85391513Y-78865857D01*
X85391512Y-78865858D01*
X85391511Y-78865858D01*
X85018254Y-79020466D01*
X84622007Y-79099284D01*
X84217993Y-79099284D01*
X83821746Y-79020466D01*
X83448489Y-78865858D01*
X83448488Y-78865858D01*
X83448487Y-78865857D01*
X83112564Y-78641400D01*
X82826884Y-78355720D01*
X82602427Y-78019797D01*
X82602426Y-78019795D01*
X82447818Y-77646538D01*
X82369000Y-77250291D01*
X82369000Y-76846277D01*
X82447818Y-76450030D01*
X82602426Y-76076773D01*
X82826884Y-75740848D01*
X83112564Y-75455168D01*
X83448487Y-75230711D01*
X83448489Y-75230710D01*
X83821746Y-75076102D01*
X84217993Y-74997284D01*
X84622007Y-74997284D01*
X85018254Y-75076102D01*
G37*
G36*
X90818254Y-71076102D02*
G01*
X91191511Y-71230710D01*
X91191513Y-71230711D01*
X91527436Y-71455168D01*
X91813116Y-71740848D01*
X91896645Y-71865857D01*
X92037574Y-72076773D01*
X92192182Y-72450030D01*
X92271000Y-72846277D01*
X92271000Y-73250291D01*
X92192182Y-73646538D01*
X92037574Y-74019795D01*
X92037573Y-74019797D01*
X91813116Y-74355720D01*
X91527436Y-74641400D01*
X91191513Y-74865857D01*
X91191512Y-74865858D01*
X91191511Y-74865858D01*
X90818254Y-75020466D01*
X90422007Y-75099284D01*
X90017993Y-75099284D01*
X89621746Y-75020466D01*
X89248489Y-74865858D01*
X89248488Y-74865858D01*
X89248487Y-74865857D01*
X88912564Y-74641400D01*
X88626884Y-74355720D01*
X88402427Y-74019797D01*
X88402426Y-74019795D01*
X88247818Y-73646538D01*
X88169000Y-73250291D01*
X88169000Y-72846277D01*
X88247818Y-72450030D01*
X88402426Y-72076773D01*
X88543356Y-71865857D01*
X88626884Y-71740848D01*
X88912564Y-71455168D01*
X89248487Y-71230711D01*
X89248489Y-71230710D01*
X89621746Y-71076102D01*
X90017993Y-70997284D01*
X90422007Y-70997284D01*
X90818254Y-71076102D01*
G37*
G36*
X78018254Y-68076102D02*
G01*
X78391511Y-68230710D01*
X78391513Y-68230711D01*
X78727436Y-68455168D01*
X79013116Y-68740848D01*
X79237574Y-69076773D01*
X79392182Y-69450030D01*
X79471000Y-69846277D01*
X79471000Y-70250291D01*
X79392182Y-70646538D01*
X79246898Y-70997284D01*
X79237573Y-71019797D01*
X79013116Y-71355720D01*
X78727436Y-71641400D01*
X78391513Y-71865857D01*
X78391512Y-71865858D01*
X78391511Y-71865858D01*
X78018254Y-72020466D01*
X77622007Y-72099284D01*
X77217993Y-72099284D01*
X76821746Y-72020466D01*
X76448489Y-71865858D01*
X76448488Y-71865858D01*
X76448487Y-71865857D01*
X76112564Y-71641400D01*
X75826884Y-71355720D01*
X75602427Y-71019797D01*
X75593102Y-70997284D01*
X75447818Y-70646538D01*
X75369000Y-70250291D01*
X75369000Y-69846277D01*
X75447818Y-69450030D01*
X75602426Y-69076773D01*
X75826884Y-68740848D01*
X76112564Y-68455168D01*
X76448487Y-68230711D01*
X76448489Y-68230710D01*
X76821746Y-68076102D01*
X77217993Y-67997284D01*
X77622007Y-67997284D01*
X78018254Y-68076102D01*
G37*
G36*
X89085254Y-64009102D02*
G01*
X89458511Y-64163710D01*
X89458513Y-64163711D01*
X89794436Y-64388168D01*
X90080116Y-64673848D01*
X90195505Y-64846539D01*
X90304574Y-65009773D01*
X90459182Y-65383030D01*
X90538000Y-65779277D01*
X90538000Y-66183291D01*
X90459182Y-66579538D01*
X90304574Y-66952795D01*
X90304573Y-66952797D01*
X90080116Y-67288720D01*
X89794436Y-67574400D01*
X89458513Y-67798857D01*
X89458512Y-67798858D01*
X89458511Y-67798858D01*
X89085254Y-67953466D01*
X88689007Y-68032284D01*
X88284993Y-68032284D01*
X87888746Y-67953466D01*
X87515489Y-67798858D01*
X87515488Y-67798858D01*
X87515487Y-67798857D01*
X87179564Y-67574400D01*
X86893884Y-67288720D01*
X86669427Y-66952797D01*
X86669426Y-66952795D01*
X86514818Y-66579538D01*
X86436000Y-66183291D01*
X86436000Y-65779277D01*
X86514818Y-65383030D01*
X86669426Y-65009773D01*
X86778496Y-64846539D01*
X86893884Y-64673848D01*
X87179564Y-64388168D01*
X87515487Y-64163711D01*
X87515489Y-64163710D01*
X87888746Y-64009102D01*
X88284993Y-63930284D01*
X88689007Y-63930284D01*
X89085254Y-64009102D01*
G37*
G36*
X82018254Y-62276102D02*
G01*
X82391511Y-62430710D01*
X82391513Y-62430711D01*
X82727436Y-62655168D01*
X83013116Y-62940848D01*
X83237574Y-63276773D01*
X83392182Y-63650030D01*
X83471000Y-64046277D01*
X83471000Y-64450291D01*
X83392182Y-64846538D01*
X83237574Y-65219795D01*
X83237573Y-65219797D01*
X83013116Y-65555720D01*
X82727436Y-65841400D01*
X82391513Y-66065857D01*
X82391512Y-66065858D01*
X82391511Y-66065858D01*
X82018254Y-66220466D01*
X81622007Y-66299284D01*
X81217993Y-66299284D01*
X80821746Y-66220466D01*
X80448489Y-66065858D01*
X80448488Y-66065858D01*
X80448487Y-66065857D01*
X80112564Y-65841400D01*
X79826884Y-65555720D01*
X79602427Y-65219797D01*
X79602426Y-65219795D01*
X79447818Y-64846538D01*
X79369000Y-64450291D01*
X79369000Y-64046277D01*
X79447818Y-63650030D01*
X79602426Y-63276773D01*
X79826884Y-62940848D01*
X80112564Y-62655168D01*
X80448487Y-62430711D01*
X80448489Y-62430710D01*
X80821746Y-62276102D01*
X81217993Y-62197284D01*
X81622007Y-62197284D01*
X82018254Y-62276102D01*
G37*
G36*
X105015512Y-55999927D02*
G01*
X105164812Y-56029624D01*
X105328784Y-56097544D01*
X105476354Y-56196147D01*
X105601853Y-56321646D01*
X105700456Y-56469216D01*
X105768376Y-56633188D01*
X105803000Y-56807259D01*
X105803000Y-56984741D01*
X105768376Y-57158812D01*
X105700456Y-57322784D01*
X105601853Y-57470354D01*
X105476354Y-57595853D01*
X105328784Y-57694456D01*
X105164812Y-57762376D01*
X105015512Y-57792073D01*
X104990742Y-57797000D01*
X104813258Y-57797000D01*
X104788488Y-57792073D01*
X104639188Y-57762376D01*
X104475216Y-57694456D01*
X104327646Y-57595853D01*
X104202147Y-57470354D01*
X104103544Y-57322784D01*
X104035624Y-57158812D01*
X104001000Y-56984741D01*
X104001000Y-56807259D01*
X104035624Y-56633188D01*
X104103544Y-56469216D01*
X104202147Y-56321646D01*
X104327646Y-56196147D01*
X104475216Y-56097544D01*
X104639188Y-56029624D01*
X104788488Y-55999927D01*
X104813258Y-55995000D01*
X104990742Y-55995000D01*
X105015512Y-55999927D01*
G37*
G36*
X103263000Y-57797000D02*
G01*
X101461000Y-57797000D01*
X101461000Y-55995000D01*
X103263000Y-55995000D01*
X103263000Y-57797000D01*
G37*
G36*
X110095512Y-55999927D02*
G01*
X110244812Y-56029624D01*
X110408784Y-56097544D01*
X110556354Y-56196147D01*
X110681853Y-56321646D01*
X110780456Y-56469216D01*
X110848376Y-56633188D01*
X110883000Y-56807259D01*
X110883000Y-56984741D01*
X110848376Y-57158812D01*
X110780456Y-57322784D01*
X110681853Y-57470354D01*
X110556354Y-57595853D01*
X110408784Y-57694456D01*
X110244812Y-57762376D01*
X110095512Y-57792073D01*
X110070742Y-57797000D01*
X109893258Y-57797000D01*
X109868488Y-57792073D01*
X109719188Y-57762376D01*
X109555216Y-57694456D01*
X109407646Y-57595853D01*
X109282147Y-57470354D01*
X109183544Y-57322784D01*
X109115624Y-57158812D01*
X109081000Y-56984741D01*
X109081000Y-56807259D01*
X109115624Y-56633188D01*
X109183544Y-56469216D01*
X109282147Y-56321646D01*
X109407646Y-56196147D01*
X109555216Y-56097544D01*
X109719188Y-56029624D01*
X109868488Y-55999927D01*
X109893258Y-55995000D01*
X110070742Y-55995000D01*
X110095512Y-55999927D01*
G37*
G36*
X112635512Y-55999927D02*
G01*
X112784812Y-56029624D01*
X112948784Y-56097544D01*
X113096354Y-56196147D01*
X113221853Y-56321646D01*
X113320456Y-56469216D01*
X113388376Y-56633188D01*
X113423000Y-56807259D01*
X113423000Y-56984741D01*
X113388376Y-57158812D01*
X113320456Y-57322784D01*
X113221853Y-57470354D01*
X113096354Y-57595853D01*
X112948784Y-57694456D01*
X112784812Y-57762376D01*
X112635512Y-57792073D01*
X112610742Y-57797000D01*
X112433258Y-57797000D01*
X112408488Y-57792073D01*
X112259188Y-57762376D01*
X112095216Y-57694456D01*
X111947646Y-57595853D01*
X111822147Y-57470354D01*
X111723544Y-57322784D01*
X111655624Y-57158812D01*
X111621000Y-56984741D01*
X111621000Y-56807259D01*
X111655624Y-56633188D01*
X111723544Y-56469216D01*
X111822147Y-56321646D01*
X111947646Y-56196147D01*
X112095216Y-56097544D01*
X112259188Y-56029624D01*
X112408488Y-55999927D01*
X112433258Y-55995000D01*
X112610742Y-55995000D01*
X112635512Y-55999927D01*
G37*
G36*
X115175512Y-55999927D02*
G01*
X115324812Y-56029624D01*
X115488784Y-56097544D01*
X115636354Y-56196147D01*
X115761853Y-56321646D01*
X115860456Y-56469216D01*
X115928376Y-56633188D01*
X115963000Y-56807259D01*
X115963000Y-56984741D01*
X115928376Y-57158812D01*
X115860456Y-57322784D01*
X115761853Y-57470354D01*
X115636354Y-57595853D01*
X115488784Y-57694456D01*
X115324812Y-57762376D01*
X115175512Y-57792073D01*
X115150742Y-57797000D01*
X114973258Y-57797000D01*
X114948488Y-57792073D01*
X114799188Y-57762376D01*
X114635216Y-57694456D01*
X114487646Y-57595853D01*
X114362147Y-57470354D01*
X114263544Y-57322784D01*
X114195624Y-57158812D01*
X114161000Y-56984741D01*
X114161000Y-56807259D01*
X114195624Y-56633188D01*
X114263544Y-56469216D01*
X114362147Y-56321646D01*
X114487646Y-56196147D01*
X114635216Y-56097544D01*
X114799188Y-56029624D01*
X114948488Y-55999927D01*
X114973258Y-55995000D01*
X115150742Y-55995000D01*
X115175512Y-55999927D01*
G37*
G36*
X107555512Y-55999927D02*
G01*
X107704812Y-56029624D01*
X107868784Y-56097544D01*
X108016354Y-56196147D01*
X108141853Y-56321646D01*
X108240456Y-56469216D01*
X108308376Y-56633188D01*
X108343000Y-56807259D01*
X108343000Y-56984741D01*
X108308376Y-57158812D01*
X108240456Y-57322784D01*
X108141853Y-57470354D01*
X108016354Y-57595853D01*
X107868784Y-57694456D01*
X107704812Y-57762376D01*
X107555512Y-57792073D01*
X107530742Y-57797000D01*
X107353258Y-57797000D01*
X107328488Y-57792073D01*
X107179188Y-57762376D01*
X107015216Y-57694456D01*
X106867646Y-57595853D01*
X106742147Y-57470354D01*
X106643544Y-57322784D01*
X106575624Y-57158812D01*
X106541000Y-56984741D01*
X106541000Y-56807259D01*
X106575624Y-56633188D01*
X106643544Y-56469216D01*
X106742147Y-56321646D01*
X106867646Y-56196147D01*
X107015216Y-56097544D01*
X107179188Y-56029624D01*
X107328488Y-55999927D01*
X107353258Y-55995000D01*
X107530742Y-55995000D01*
X107555512Y-55999927D01*
G37*
G36*
X85018254Y-52578960D02*
G01*
X85391511Y-52733568D01*
X85391513Y-52733569D01*
X85727436Y-52958026D01*
X86013116Y-53243706D01*
X86237574Y-53579631D01*
X86392182Y-53952888D01*
X86471000Y-54349135D01*
X86471000Y-54753149D01*
X86392182Y-55149396D01*
X86237574Y-55522653D01*
X86237573Y-55522655D01*
X86013116Y-55858578D01*
X85727436Y-56144258D01*
X85391513Y-56368715D01*
X85391512Y-56368716D01*
X85391511Y-56368716D01*
X85018254Y-56523324D01*
X84622007Y-56602142D01*
X84217993Y-56602142D01*
X83821746Y-56523324D01*
X83448489Y-56368716D01*
X83448488Y-56368716D01*
X83448487Y-56368715D01*
X83112564Y-56144258D01*
X82826884Y-55858578D01*
X82602427Y-55522655D01*
X82602426Y-55522653D01*
X82447818Y-55149396D01*
X82369000Y-54753149D01*
X82369000Y-54349135D01*
X82447818Y-53952888D01*
X82602426Y-53579631D01*
X82826884Y-53243706D01*
X83112564Y-52958026D01*
X83448487Y-52733569D01*
X83448489Y-52733568D01*
X83821746Y-52578960D01*
X84217993Y-52500142D01*
X84622007Y-52500142D01*
X85018254Y-52578960D01*
G37*
G36*
X90818254Y-48578960D02*
G01*
X91191511Y-48733568D01*
X91191513Y-48733569D01*
X91527436Y-48958026D01*
X91813116Y-49243706D01*
X91896645Y-49368715D01*
X92037574Y-49579631D01*
X92192182Y-49952888D01*
X92271000Y-50349135D01*
X92271000Y-50753149D01*
X92192182Y-51149396D01*
X92037574Y-51522653D01*
X92037573Y-51522655D01*
X91813116Y-51858578D01*
X91527436Y-52144258D01*
X91191513Y-52368715D01*
X91191512Y-52368716D01*
X91191511Y-52368716D01*
X90818254Y-52523324D01*
X90422007Y-52602142D01*
X90017993Y-52602142D01*
X89621746Y-52523324D01*
X89248489Y-52368716D01*
X89248488Y-52368716D01*
X89248487Y-52368715D01*
X88912564Y-52144258D01*
X88626884Y-51858578D01*
X88402427Y-51522655D01*
X88402426Y-51522653D01*
X88247818Y-51149396D01*
X88169000Y-50753149D01*
X88169000Y-50349135D01*
X88247818Y-49952888D01*
X88402426Y-49579631D01*
X88543356Y-49368715D01*
X88626884Y-49243706D01*
X88912564Y-48958026D01*
X89248487Y-48733569D01*
X89248489Y-48733568D01*
X89621746Y-48578960D01*
X90017993Y-48500142D01*
X90422007Y-48500142D01*
X90818254Y-48578960D01*
G37*
G36*
X78018254Y-45578960D02*
G01*
X78391511Y-45733568D01*
X78391513Y-45733569D01*
X78727436Y-45958026D01*
X79013116Y-46243706D01*
X79237574Y-46579631D01*
X79392182Y-46952888D01*
X79471000Y-47349135D01*
X79471000Y-47753149D01*
X79392182Y-48149396D01*
X79246898Y-48500142D01*
X79237573Y-48522655D01*
X79013116Y-48858578D01*
X78727436Y-49144258D01*
X78391513Y-49368715D01*
X78391512Y-49368716D01*
X78391511Y-49368716D01*
X78018254Y-49523324D01*
X77622007Y-49602142D01*
X77217993Y-49602142D01*
X76821746Y-49523324D01*
X76448489Y-49368716D01*
X76448488Y-49368716D01*
X76448487Y-49368715D01*
X76112564Y-49144258D01*
X75826884Y-48858578D01*
X75602427Y-48522655D01*
X75593102Y-48500142D01*
X75447818Y-48149396D01*
X75369000Y-47753149D01*
X75369000Y-47349135D01*
X75447818Y-46952888D01*
X75602426Y-46579631D01*
X75826884Y-46243706D01*
X76112564Y-45958026D01*
X76448487Y-45733569D01*
X76448489Y-45733568D01*
X76821746Y-45578960D01*
X77217993Y-45500142D01*
X77622007Y-45500142D01*
X78018254Y-45578960D01*
G37*
G36*
X89085254Y-41511960D02*
G01*
X89458511Y-41666568D01*
X89458513Y-41666569D01*
X89794436Y-41891026D01*
X90080116Y-42176706D01*
X90195505Y-42349397D01*
X90304574Y-42512631D01*
X90459182Y-42885888D01*
X90538000Y-43282135D01*
X90538000Y-43686149D01*
X90459182Y-44082396D01*
X90304574Y-44455653D01*
X90304573Y-44455655D01*
X90080116Y-44791578D01*
X89794436Y-45077258D01*
X89458513Y-45301715D01*
X89458512Y-45301716D01*
X89458511Y-45301716D01*
X89085254Y-45456324D01*
X88689007Y-45535142D01*
X88284993Y-45535142D01*
X87888746Y-45456324D01*
X87515489Y-45301716D01*
X87515488Y-45301716D01*
X87515487Y-45301715D01*
X87179564Y-45077258D01*
X86893884Y-44791578D01*
X86669427Y-44455655D01*
X86669426Y-44455653D01*
X86514818Y-44082396D01*
X86436000Y-43686149D01*
X86436000Y-43282135D01*
X86514818Y-42885888D01*
X86669426Y-42512631D01*
X86778496Y-42349397D01*
X86893884Y-42176706D01*
X87179564Y-41891026D01*
X87515487Y-41666569D01*
X87515489Y-41666568D01*
X87888746Y-41511960D01*
X88284993Y-41433142D01*
X88689007Y-41433142D01*
X89085254Y-41511960D01*
G37*
G36*
X82018254Y-39778960D02*
G01*
X82391511Y-39933568D01*
X82391513Y-39933569D01*
X82727436Y-40158026D01*
X83013116Y-40443706D01*
X83237574Y-40779631D01*
X83392182Y-41152888D01*
X83471000Y-41549135D01*
X83471000Y-41953149D01*
X83392182Y-42349396D01*
X83237574Y-42722653D01*
X83237573Y-42722655D01*
X83013116Y-43058578D01*
X82727436Y-43344258D01*
X82391513Y-43568715D01*
X82391512Y-43568716D01*
X82391511Y-43568716D01*
X82018254Y-43723324D01*
X81622007Y-43802142D01*
X81217993Y-43802142D01*
X80821746Y-43723324D01*
X80448489Y-43568716D01*
X80448488Y-43568716D01*
X80448487Y-43568715D01*
X80112564Y-43344258D01*
X79826884Y-43058578D01*
X79602427Y-42722655D01*
X79602426Y-42722653D01*
X79447818Y-42349396D01*
X79369000Y-41953149D01*
X79369000Y-41549135D01*
X79447818Y-41152888D01*
X79602426Y-40779631D01*
X79826884Y-40443706D01*
X80112564Y-40158026D01*
X80448487Y-39933569D01*
X80448489Y-39933568D01*
X80821746Y-39778960D01*
X81217993Y-39700142D01*
X81622007Y-39700142D01*
X82018254Y-39778960D01*
G37*
G36*
X85018254Y-30081818D02*
G01*
X85391511Y-30236426D01*
X85391513Y-30236427D01*
X85727436Y-30460884D01*
X86013116Y-30746564D01*
X86237574Y-31082489D01*
X86392182Y-31455746D01*
X86471000Y-31851993D01*
X86471000Y-32256007D01*
X86392182Y-32652254D01*
X86237574Y-33025511D01*
X86237573Y-33025513D01*
X86013116Y-33361436D01*
X85727436Y-33647116D01*
X85391513Y-33871573D01*
X85391512Y-33871574D01*
X85391511Y-33871574D01*
X85018254Y-34026182D01*
X84622007Y-34105000D01*
X84217993Y-34105000D01*
X83821746Y-34026182D01*
X83448489Y-33871574D01*
X83448488Y-33871574D01*
X83448487Y-33871573D01*
X83112564Y-33647116D01*
X82826884Y-33361436D01*
X82602427Y-33025513D01*
X82602426Y-33025511D01*
X82447818Y-32652254D01*
X82369000Y-32256007D01*
X82369000Y-31851993D01*
X82447818Y-31455746D01*
X82602426Y-31082489D01*
X82826884Y-30746564D01*
X83112564Y-30460884D01*
X83448487Y-30236427D01*
X83448489Y-30236426D01*
X83821746Y-30081818D01*
X84217993Y-30003000D01*
X84622007Y-30003000D01*
X85018254Y-30081818D01*
G37*
G36*
X90818254Y-26081818D02*
G01*
X91191511Y-26236426D01*
X91191513Y-26236427D01*
X91527436Y-26460884D01*
X91813116Y-26746564D01*
X91896645Y-26871573D01*
X92037574Y-27082489D01*
X92192182Y-27455746D01*
X92271000Y-27851993D01*
X92271000Y-28256007D01*
X92192182Y-28652254D01*
X92037574Y-29025511D01*
X92037573Y-29025513D01*
X91813116Y-29361436D01*
X91527436Y-29647116D01*
X91191513Y-29871573D01*
X91191512Y-29871574D01*
X91191511Y-29871574D01*
X90818254Y-30026182D01*
X90422007Y-30105000D01*
X90017993Y-30105000D01*
X89621746Y-30026182D01*
X89248489Y-29871574D01*
X89248488Y-29871574D01*
X89248487Y-29871573D01*
X88912564Y-29647116D01*
X88626884Y-29361436D01*
X88402427Y-29025513D01*
X88402426Y-29025511D01*
X88247818Y-28652254D01*
X88169000Y-28256007D01*
X88169000Y-27851993D01*
X88247818Y-27455746D01*
X88402426Y-27082489D01*
X88543356Y-26871573D01*
X88626884Y-26746564D01*
X88912564Y-26460884D01*
X89248487Y-26236427D01*
X89248489Y-26236426D01*
X89621746Y-26081818D01*
X90017993Y-26003000D01*
X90422007Y-26003000D01*
X90818254Y-26081818D01*
G37*
G36*
X78018254Y-23081818D02*
G01*
X78391511Y-23236426D01*
X78391513Y-23236427D01*
X78476517Y-23293225D01*
X78727436Y-23460884D01*
X79013116Y-23746564D01*
X79237574Y-24082489D01*
X79392182Y-24455746D01*
X79471000Y-24851993D01*
X79471000Y-25256007D01*
X79392182Y-25652254D01*
X79255173Y-25983023D01*
X79237573Y-26025513D01*
X79013116Y-26361436D01*
X78727436Y-26647116D01*
X78391513Y-26871573D01*
X78391512Y-26871574D01*
X78391511Y-26871574D01*
X78018254Y-27026182D01*
X77622007Y-27105000D01*
X77217993Y-27105000D01*
X76821746Y-27026182D01*
X76448489Y-26871574D01*
X76448488Y-26871574D01*
X76448487Y-26871573D01*
X76112564Y-26647116D01*
X75826884Y-26361436D01*
X75602427Y-26025513D01*
X75584827Y-25983023D01*
X75447818Y-25652254D01*
X75369000Y-25256007D01*
X75369000Y-24851993D01*
X75447818Y-24455746D01*
X75602426Y-24082489D01*
X75826884Y-23746564D01*
X76112564Y-23460884D01*
X76363483Y-23293225D01*
X76448487Y-23236427D01*
X76448489Y-23236426D01*
X76821746Y-23081818D01*
X77217993Y-23003000D01*
X77622007Y-23003000D01*
X78018254Y-23081818D01*
G37*
G36*
X113296778Y-24520547D02*
G01*
X113463224Y-24589491D01*
X113613022Y-24689583D01*
X113740417Y-24816978D01*
X113840509Y-24966776D01*
X113909453Y-25133222D01*
X113944600Y-25309918D01*
X113944600Y-25490082D01*
X113909453Y-25666778D01*
X113840509Y-25833224D01*
X113740417Y-25983022D01*
X113613022Y-26110417D01*
X113463224Y-26210509D01*
X113296778Y-26279453D01*
X113120082Y-26314600D01*
X112939918Y-26314600D01*
X112763222Y-26279453D01*
X112596776Y-26210509D01*
X112446978Y-26110417D01*
X112319583Y-25983022D01*
X112219491Y-25833224D01*
X112150547Y-25666778D01*
X112115400Y-25490082D01*
X112115400Y-25309918D01*
X112150547Y-25133222D01*
X112219491Y-24966776D01*
X112319583Y-24816978D01*
X112446978Y-24689583D01*
X112596776Y-24589491D01*
X112763222Y-24520547D01*
X112939918Y-24485400D01*
X113120082Y-24485400D01*
X113296778Y-24520547D01*
G37*
G36*
X110756778Y-24520547D02*
G01*
X110923224Y-24589491D01*
X111073022Y-24689583D01*
X111200417Y-24816978D01*
X111300509Y-24966776D01*
X111369453Y-25133222D01*
X111404600Y-25309918D01*
X111404600Y-25490082D01*
X111369453Y-25666778D01*
X111300509Y-25833224D01*
X111200417Y-25983022D01*
X111073022Y-26110417D01*
X110923224Y-26210509D01*
X110756778Y-26279453D01*
X110580082Y-26314600D01*
X110399918Y-26314600D01*
X110223222Y-26279453D01*
X110056776Y-26210509D01*
X109906978Y-26110417D01*
X109779583Y-25983022D01*
X109679491Y-25833224D01*
X109610547Y-25666778D01*
X109575400Y-25490082D01*
X109575400Y-25309918D01*
X109610547Y-25133222D01*
X109679491Y-24966776D01*
X109779583Y-24816978D01*
X109906978Y-24689583D01*
X110056776Y-24589491D01*
X110223222Y-24520547D01*
X110399918Y-24485400D01*
X110580082Y-24485400D01*
X110756778Y-24520547D01*
G37*
G36*
X108216778Y-24520547D02*
G01*
X108383224Y-24589491D01*
X108533022Y-24689583D01*
X108660417Y-24816978D01*
X108760509Y-24966776D01*
X108829453Y-25133222D01*
X108864600Y-25309918D01*
X108864600Y-25490082D01*
X108829453Y-25666778D01*
X108760509Y-25833224D01*
X108660417Y-25983022D01*
X108533022Y-26110417D01*
X108383224Y-26210509D01*
X108216778Y-26279453D01*
X108040082Y-26314600D01*
X107859918Y-26314600D01*
X107683222Y-26279453D01*
X107516776Y-26210509D01*
X107366978Y-26110417D01*
X107239583Y-25983022D01*
X107139491Y-25833224D01*
X107070547Y-25666778D01*
X107035400Y-25490082D01*
X107035400Y-25309918D01*
X107070547Y-25133222D01*
X107139491Y-24966776D01*
X107239583Y-24816978D01*
X107366978Y-24689583D01*
X107516776Y-24589491D01*
X107683222Y-24520547D01*
X107859918Y-24485400D01*
X108040082Y-24485400D01*
X108216778Y-24520547D01*
G37*
G36*
X105676778Y-24520547D02*
G01*
X105843224Y-24589491D01*
X105993022Y-24689583D01*
X106120417Y-24816978D01*
X106220509Y-24966776D01*
X106289453Y-25133222D01*
X106324600Y-25309918D01*
X106324600Y-25490082D01*
X106289453Y-25666778D01*
X106220509Y-25833224D01*
X106120417Y-25983022D01*
X105993022Y-26110417D01*
X105843224Y-26210509D01*
X105676778Y-26279453D01*
X105500082Y-26314600D01*
X105319918Y-26314600D01*
X105143222Y-26279453D01*
X104976776Y-26210509D01*
X104826978Y-26110417D01*
X104699583Y-25983022D01*
X104599491Y-25833224D01*
X104530547Y-25666778D01*
X104495400Y-25490082D01*
X104495400Y-25309918D01*
X104530547Y-25133222D01*
X104599491Y-24966776D01*
X104699583Y-24816978D01*
X104826978Y-24689583D01*
X104976776Y-24589491D01*
X105143222Y-24520547D01*
X105319918Y-24485400D01*
X105500082Y-24485400D01*
X105676778Y-24520547D01*
G37*
G36*
X103136778Y-24520547D02*
G01*
X103303224Y-24589491D01*
X103453022Y-24689583D01*
X103580417Y-24816978D01*
X103680509Y-24966776D01*
X103749453Y-25133222D01*
X103784600Y-25309918D01*
X103784600Y-25490082D01*
X103749453Y-25666778D01*
X103680509Y-25833224D01*
X103580417Y-25983022D01*
X103453022Y-26110417D01*
X103303224Y-26210509D01*
X103136778Y-26279453D01*
X102960082Y-26314600D01*
X102779918Y-26314600D01*
X102603222Y-26279453D01*
X102436776Y-26210509D01*
X102286978Y-26110417D01*
X102159583Y-25983022D01*
X102059491Y-25833224D01*
X101990547Y-25666778D01*
X101955400Y-25490082D01*
X101955400Y-25309918D01*
X101990547Y-25133222D01*
X102059491Y-24966776D01*
X102159583Y-24816978D01*
X102286978Y-24689583D01*
X102436776Y-24589491D01*
X102603222Y-24520547D01*
X102779918Y-24485400D01*
X102960082Y-24485400D01*
X103136778Y-24520547D01*
G37*
G36*
X108216778Y-21980547D02*
G01*
X108383224Y-22049491D01*
X108533022Y-22149583D01*
X108660417Y-22276978D01*
X108760509Y-22426776D01*
X108829453Y-22593222D01*
X108864600Y-22769918D01*
X108864600Y-22950082D01*
X108829453Y-23126778D01*
X108760509Y-23293224D01*
X108660417Y-23443022D01*
X108533022Y-23570417D01*
X108383224Y-23670509D01*
X108216778Y-23739453D01*
X108040082Y-23774600D01*
X107859918Y-23774600D01*
X107683222Y-23739453D01*
X107516776Y-23670509D01*
X107366978Y-23570417D01*
X107239583Y-23443022D01*
X107139491Y-23293224D01*
X107070547Y-23126778D01*
X107035400Y-22950082D01*
X107035400Y-22769918D01*
X107070547Y-22593222D01*
X107139491Y-22426776D01*
X107239583Y-22276978D01*
X107366978Y-22149583D01*
X107516776Y-22049491D01*
X107683222Y-21980547D01*
X107859918Y-21945400D01*
X108040082Y-21945400D01*
X108216778Y-21980547D01*
G37*
G36*
X110756778Y-21980547D02*
G01*
X110923224Y-22049491D01*
X111073022Y-22149583D01*
X111200417Y-22276978D01*
X111300509Y-22426776D01*
X111369453Y-22593222D01*
X111404600Y-22769918D01*
X111404600Y-22950082D01*
X111369453Y-23126778D01*
X111300509Y-23293224D01*
X111200417Y-23443022D01*
X111073022Y-23570417D01*
X110923224Y-23670509D01*
X110756778Y-23739453D01*
X110580082Y-23774600D01*
X110399918Y-23774600D01*
X110223222Y-23739453D01*
X110056776Y-23670509D01*
X109906978Y-23570417D01*
X109779583Y-23443022D01*
X109679491Y-23293224D01*
X109610547Y-23126778D01*
X109575400Y-22950082D01*
X109575400Y-22769918D01*
X109610547Y-22593222D01*
X109679491Y-22426776D01*
X109779583Y-22276978D01*
X109906978Y-22149583D01*
X110056776Y-22049491D01*
X110223222Y-21980547D01*
X110399918Y-21945400D01*
X110580082Y-21945400D01*
X110756778Y-21980547D01*
G37*
G36*
X105676778Y-21980547D02*
G01*
X105843224Y-22049491D01*
X105993022Y-22149583D01*
X106120417Y-22276978D01*
X106220509Y-22426776D01*
X106289453Y-22593222D01*
X106324600Y-22769918D01*
X106324600Y-22950082D01*
X106289453Y-23126778D01*
X106220509Y-23293224D01*
X106120417Y-23443022D01*
X105993022Y-23570417D01*
X105843224Y-23670509D01*
X105676778Y-23739453D01*
X105500082Y-23774600D01*
X105319918Y-23774600D01*
X105143222Y-23739453D01*
X104976776Y-23670509D01*
X104826978Y-23570417D01*
X104699583Y-23443022D01*
X104599491Y-23293224D01*
X104530547Y-23126778D01*
X104495400Y-22950082D01*
X104495400Y-22769918D01*
X104530547Y-22593222D01*
X104599491Y-22426776D01*
X104699583Y-22276978D01*
X104826978Y-22149583D01*
X104976776Y-22049491D01*
X105143222Y-21980547D01*
X105319918Y-21945400D01*
X105500082Y-21945400D01*
X105676778Y-21980547D01*
G37*
G36*
X103784600Y-23774600D02*
G01*
X101955400Y-23774600D01*
X101955400Y-21945400D01*
X103784600Y-21945400D01*
X103784600Y-23774600D01*
G37*
G36*
X113296778Y-21980547D02*
G01*
X113463224Y-22049491D01*
X113613022Y-22149583D01*
X113740417Y-22276978D01*
X113840509Y-22426776D01*
X113909453Y-22593222D01*
X113944600Y-22769918D01*
X113944600Y-22950082D01*
X113909453Y-23126778D01*
X113840509Y-23293224D01*
X113740417Y-23443022D01*
X113613022Y-23570417D01*
X113463224Y-23670509D01*
X113296778Y-23739453D01*
X113120082Y-23774600D01*
X112939918Y-23774600D01*
X112763222Y-23739453D01*
X112596776Y-23670509D01*
X112446978Y-23570417D01*
X112319583Y-23443022D01*
X112219491Y-23293224D01*
X112150547Y-23126778D01*
X112115400Y-22950082D01*
X112115400Y-22769918D01*
X112150547Y-22593222D01*
X112219491Y-22426776D01*
X112319583Y-22276978D01*
X112446978Y-22149583D01*
X112596776Y-22049491D01*
X112763222Y-21980547D01*
X112939918Y-21945400D01*
X113120082Y-21945400D01*
X113296778Y-21980547D01*
G37*
G36*
X89085254Y-19014818D02*
G01*
X89458511Y-19169426D01*
X89458513Y-19169427D01*
X89794436Y-19393884D01*
X90080116Y-19679564D01*
X90195505Y-19852255D01*
X90304574Y-20015489D01*
X90459182Y-20388746D01*
X90538000Y-20784993D01*
X90538000Y-21189007D01*
X90459182Y-21585254D01*
X90310005Y-21945400D01*
X90304573Y-21958513D01*
X90080116Y-22294436D01*
X89794436Y-22580116D01*
X89458513Y-22804573D01*
X89458512Y-22804574D01*
X89458511Y-22804574D01*
X89085254Y-22959182D01*
X88689007Y-23038000D01*
X88284993Y-23038000D01*
X87888746Y-22959182D01*
X87515489Y-22804574D01*
X87515488Y-22804574D01*
X87515487Y-22804573D01*
X87179564Y-22580116D01*
X86893884Y-22294436D01*
X86669427Y-21958513D01*
X86663995Y-21945400D01*
X86514818Y-21585254D01*
X86436000Y-21189007D01*
X86436000Y-20784993D01*
X86514818Y-20388746D01*
X86669426Y-20015489D01*
X86778496Y-19852255D01*
X86893884Y-19679564D01*
X87179564Y-19393884D01*
X87515487Y-19169427D01*
X87515489Y-19169426D01*
X87888746Y-19014818D01*
X88284993Y-18936000D01*
X88689007Y-18936000D01*
X89085254Y-19014818D01*
G37*
G36*
X82018254Y-17281818D02*
G01*
X82391511Y-17436426D01*
X82391513Y-17436427D01*
X82727436Y-17660884D01*
X83013116Y-17946564D01*
X83237574Y-18282489D01*
X83392182Y-18655746D01*
X83471000Y-19051993D01*
X83471000Y-19456007D01*
X83392182Y-19852254D01*
X83237574Y-20225511D01*
X83237573Y-20225513D01*
X83013116Y-20561436D01*
X82727436Y-20847116D01*
X82391513Y-21071573D01*
X82391512Y-21071574D01*
X82391511Y-21071574D01*
X82018254Y-21226182D01*
X81622007Y-21305000D01*
X81217993Y-21305000D01*
X80821746Y-21226182D01*
X80448489Y-21071574D01*
X80448488Y-21071574D01*
X80448487Y-21071573D01*
X80112564Y-20847116D01*
X79826884Y-20561436D01*
X79602427Y-20225513D01*
X79602426Y-20225511D01*
X79447818Y-19852254D01*
X79369000Y-19456007D01*
X79369000Y-19051993D01*
X79447818Y-18655746D01*
X79602426Y-18282489D01*
X79826884Y-17946564D01*
X80112564Y-17660884D01*
X80448487Y-17436427D01*
X80448489Y-17436426D01*
X80821746Y-17281818D01*
X81217993Y-17203000D01*
X81622007Y-17203000D01*
X82018254Y-17281818D01*
G37*
M02*
