G04 #@! TF.GenerationSoftware,KiCad,Pcbnew,(5.1.5)-3*
G04 #@! TF.CreationDate,2020-05-19T17:07:34-07:00*
G04 #@! TF.ProjectId,SM1REV1,534d3152-4556-4312-9e6b-696361645f70,rev?*
G04 #@! TF.SameCoordinates,Original*
G04 #@! TF.FileFunction,Legend,Bot*
G04 #@! TF.FilePolarity,Positive*
%FSLAX46Y46*%
G04 Gerber Fmt 4.6, Leading zero omitted, Abs format (unit mm)*
G04 Created by KiCad (PCBNEW (5.1.5)-3) date 2020-05-19 17:07:34*
%MOMM*%
%LPD*%
G04 APERTURE LIST*
%ADD10C,0.150000*%
%ADD11C,0.200000*%
%ADD12C,0.120000*%
G04 APERTURE END LIST*
D10*
X96583333Y-29281428D02*
X95821428Y-29281428D01*
X94821428Y-29662380D02*
X95392857Y-29662380D01*
X95107142Y-29662380D02*
X95107142Y-28662380D01*
X95202380Y-28805238D01*
X95297619Y-28900476D01*
X95392857Y-28948095D01*
X94440476Y-28757619D02*
X94392857Y-28710000D01*
X94297619Y-28662380D01*
X94059523Y-28662380D01*
X93964285Y-28710000D01*
X93916666Y-28757619D01*
X93869047Y-28852857D01*
X93869047Y-28948095D01*
X93916666Y-29090952D01*
X94488095Y-29662380D01*
X93869047Y-29662380D01*
D11*
X121175428Y-101784857D02*
X121289714Y-102013428D01*
X120032571Y-102984857D02*
X120718285Y-102984857D01*
X120375428Y-102984857D02*
X120375428Y-101784857D01*
X120489714Y-101956285D01*
X120604000Y-102070571D01*
X120718285Y-102127714D01*
X119346857Y-102299142D02*
X119461142Y-102242000D01*
X119518285Y-102184857D01*
X119575428Y-102070571D01*
X119575428Y-102013428D01*
X119518285Y-101899142D01*
X119461142Y-101842000D01*
X119346857Y-101784857D01*
X119118285Y-101784857D01*
X119004000Y-101842000D01*
X118946857Y-101899142D01*
X118889714Y-102013428D01*
X118889714Y-102070571D01*
X118946857Y-102184857D01*
X119004000Y-102242000D01*
X119118285Y-102299142D01*
X119346857Y-102299142D01*
X119461142Y-102356285D01*
X119518285Y-102413428D01*
X119575428Y-102527714D01*
X119575428Y-102756285D01*
X119518285Y-102870571D01*
X119461142Y-102927714D01*
X119346857Y-102984857D01*
X119118285Y-102984857D01*
X119004000Y-102927714D01*
X118946857Y-102870571D01*
X118889714Y-102756285D01*
X118889714Y-102527714D01*
X118946857Y-102413428D01*
X119004000Y-102356285D01*
X119118285Y-102299142D01*
X118432571Y-101899142D02*
X118375428Y-101842000D01*
X118261142Y-101784857D01*
X117975428Y-101784857D01*
X117861142Y-101842000D01*
X117804000Y-101899142D01*
X117746857Y-102013428D01*
X117746857Y-102127714D01*
X117804000Y-102299142D01*
X118489714Y-102984857D01*
X117746857Y-102984857D01*
X117175428Y-101784857D02*
X117289714Y-102013428D01*
X115804000Y-102927714D02*
X115632571Y-102984857D01*
X115346857Y-102984857D01*
X115232571Y-102927714D01*
X115175428Y-102870571D01*
X115118285Y-102756285D01*
X115118285Y-102642000D01*
X115175428Y-102527714D01*
X115232571Y-102470571D01*
X115346857Y-102413428D01*
X115575428Y-102356285D01*
X115689714Y-102299142D01*
X115746857Y-102242000D01*
X115804000Y-102127714D01*
X115804000Y-102013428D01*
X115746857Y-101899142D01*
X115689714Y-101842000D01*
X115575428Y-101784857D01*
X115289714Y-101784857D01*
X115118285Y-101842000D01*
X114775428Y-101784857D02*
X114089714Y-101784857D01*
X114432571Y-102984857D02*
X114432571Y-101784857D01*
X113461142Y-102413428D02*
X113461142Y-102984857D01*
X113861142Y-101784857D02*
X113461142Y-102413428D01*
X113061142Y-101784857D01*
X112089714Y-102984857D02*
X112661142Y-102984857D01*
X112661142Y-101784857D01*
X111689714Y-102356285D02*
X111289714Y-102356285D01*
X111118285Y-102984857D02*
X111689714Y-102984857D01*
X111689714Y-101784857D01*
X111118285Y-101784857D01*
X109746857Y-102927714D02*
X109575428Y-102984857D01*
X109289714Y-102984857D01*
X109175428Y-102927714D01*
X109118285Y-102870571D01*
X109061142Y-102756285D01*
X109061142Y-102642000D01*
X109118285Y-102527714D01*
X109175428Y-102470571D01*
X109289714Y-102413428D01*
X109518285Y-102356285D01*
X109632571Y-102299142D01*
X109689714Y-102242000D01*
X109746857Y-102127714D01*
X109746857Y-102013428D01*
X109689714Y-101899142D01*
X109632571Y-101842000D01*
X109518285Y-101784857D01*
X109232571Y-101784857D01*
X109061142Y-101842000D01*
X108661142Y-101784857D02*
X108375428Y-102984857D01*
X108146857Y-102127714D01*
X107918285Y-102984857D01*
X107632571Y-101784857D01*
X107175428Y-102984857D02*
X107175428Y-101784857D01*
X106775428Y-101784857D02*
X106089714Y-101784857D01*
X106432571Y-102984857D02*
X106432571Y-101784857D01*
X105004000Y-102870571D02*
X105061142Y-102927714D01*
X105232571Y-102984857D01*
X105346857Y-102984857D01*
X105518285Y-102927714D01*
X105632571Y-102813428D01*
X105689714Y-102699142D01*
X105746857Y-102470571D01*
X105746857Y-102299142D01*
X105689714Y-102070571D01*
X105632571Y-101956285D01*
X105518285Y-101842000D01*
X105346857Y-101784857D01*
X105232571Y-101784857D01*
X105061142Y-101842000D01*
X105004000Y-101899142D01*
X104489714Y-102984857D02*
X104489714Y-101784857D01*
X104489714Y-102356285D02*
X103804000Y-102356285D01*
X103804000Y-102984857D02*
X103804000Y-101784857D01*
X103232571Y-102356285D02*
X102832571Y-102356285D01*
X102661142Y-102984857D02*
X103232571Y-102984857D01*
X103232571Y-101784857D01*
X102661142Y-101784857D01*
X102146857Y-102984857D02*
X102146857Y-101784857D01*
X101861142Y-101784857D01*
X101689714Y-101842000D01*
X101575428Y-101956285D01*
X101518285Y-102070571D01*
X101461142Y-102299142D01*
X101461142Y-102470571D01*
X101518285Y-102699142D01*
X101575428Y-102813428D01*
X101689714Y-102927714D01*
X101861142Y-102984857D01*
X102146857Y-102984857D01*
X100032571Y-102984857D02*
X100032571Y-101784857D01*
X99632571Y-102642000D01*
X99232571Y-101784857D01*
X99232571Y-102984857D01*
X98661142Y-101784857D02*
X98661142Y-102756285D01*
X98604000Y-102870571D01*
X98546857Y-102927714D01*
X98432571Y-102984857D01*
X98204000Y-102984857D01*
X98089714Y-102927714D01*
X98032571Y-102870571D01*
X97975428Y-102756285D01*
X97975428Y-101784857D01*
X96832571Y-102984857D02*
X97404000Y-102984857D01*
X97404000Y-101784857D01*
X96604000Y-101784857D02*
X95918285Y-101784857D01*
X96261142Y-102984857D02*
X96261142Y-101784857D01*
X114918285Y-104184857D02*
X114689714Y-104984857D01*
X114461142Y-104413428D01*
X114232571Y-104984857D01*
X114004000Y-104184857D01*
X112689714Y-103727714D02*
X113718285Y-105270571D01*
X111375428Y-104984857D02*
X111375428Y-103784857D01*
X110804000Y-104984857D02*
X110804000Y-103784857D01*
X110118285Y-104984857D01*
X110118285Y-103784857D01*
X109546857Y-104984857D02*
X109546857Y-103784857D01*
X109261142Y-103784857D01*
X109089714Y-103842000D01*
X108975428Y-103956285D01*
X108918285Y-104070571D01*
X108861142Y-104299142D01*
X108861142Y-104470571D01*
X108918285Y-104699142D01*
X108975428Y-104813428D01*
X109089714Y-104927714D01*
X109261142Y-104984857D01*
X109546857Y-104984857D01*
X108346857Y-104984857D02*
X108346857Y-103784857D01*
X107089714Y-104870571D02*
X107146857Y-104927714D01*
X107318285Y-104984857D01*
X107432571Y-104984857D01*
X107604000Y-104927714D01*
X107718285Y-104813428D01*
X107775428Y-104699142D01*
X107832571Y-104470571D01*
X107832571Y-104299142D01*
X107775428Y-104070571D01*
X107718285Y-103956285D01*
X107604000Y-103842000D01*
X107432571Y-103784857D01*
X107318285Y-103784857D01*
X107146857Y-103842000D01*
X107089714Y-103899142D01*
X106632571Y-104642000D02*
X106061142Y-104642000D01*
X106746857Y-104984857D02*
X106346857Y-103784857D01*
X105946857Y-104984857D01*
X105718285Y-103784857D02*
X105032571Y-103784857D01*
X105375428Y-104984857D02*
X105375428Y-103784857D01*
X104404000Y-103784857D02*
X104175428Y-103784857D01*
X104061142Y-103842000D01*
X103946857Y-103956285D01*
X103889714Y-104184857D01*
X103889714Y-104584857D01*
X103946857Y-104813428D01*
X104061142Y-104927714D01*
X104175428Y-104984857D01*
X104404000Y-104984857D01*
X104518285Y-104927714D01*
X104632571Y-104813428D01*
X104689714Y-104584857D01*
X104689714Y-104184857D01*
X104632571Y-103956285D01*
X104518285Y-103842000D01*
X104404000Y-103784857D01*
X102689714Y-104984857D02*
X103089714Y-104413428D01*
X103375428Y-104984857D02*
X103375428Y-103784857D01*
X102918285Y-103784857D01*
X102804000Y-103842000D01*
X102746857Y-103899142D01*
X102689714Y-104013428D01*
X102689714Y-104184857D01*
X102746857Y-104299142D01*
X102804000Y-104356285D01*
X102918285Y-104413428D01*
X103375428Y-104413428D01*
X102232571Y-104927714D02*
X102061142Y-104984857D01*
X101775428Y-104984857D01*
X101661142Y-104927714D01*
X101604000Y-104870571D01*
X101546857Y-104756285D01*
X101546857Y-104642000D01*
X101604000Y-104527714D01*
X101661142Y-104470571D01*
X101775428Y-104413428D01*
X102004000Y-104356285D01*
X102118285Y-104299142D01*
X102175428Y-104242000D01*
X102232571Y-104127714D01*
X102232571Y-104013428D01*
X102175428Y-103899142D01*
X102118285Y-103842000D01*
X102004000Y-103784857D01*
X101718285Y-103784857D01*
X101546857Y-103842000D01*
X118261142Y-105784857D02*
X118032571Y-105784857D01*
X117918285Y-105842000D01*
X117804000Y-105956285D01*
X117746857Y-106184857D01*
X117746857Y-106584857D01*
X117804000Y-106813428D01*
X117918285Y-106927714D01*
X118032571Y-106984857D01*
X118261142Y-106984857D01*
X118375428Y-106927714D01*
X118489714Y-106813428D01*
X118546857Y-106584857D01*
X118546857Y-106184857D01*
X118489714Y-105956285D01*
X118375428Y-105842000D01*
X118261142Y-105784857D01*
X116546857Y-106984857D02*
X116946857Y-106413428D01*
X117232571Y-106984857D02*
X117232571Y-105784857D01*
X116775428Y-105784857D01*
X116661142Y-105842000D01*
X116604000Y-105899142D01*
X116546857Y-106013428D01*
X116546857Y-106184857D01*
X116604000Y-106299142D01*
X116661142Y-106356285D01*
X116775428Y-106413428D01*
X117232571Y-106413428D01*
X116032571Y-106984857D02*
X116032571Y-105784857D01*
X114832571Y-105842000D02*
X114946857Y-105784857D01*
X115118285Y-105784857D01*
X115289714Y-105842000D01*
X115404000Y-105956285D01*
X115461142Y-106070571D01*
X115518285Y-106299142D01*
X115518285Y-106470571D01*
X115461142Y-106699142D01*
X115404000Y-106813428D01*
X115289714Y-106927714D01*
X115118285Y-106984857D01*
X115004000Y-106984857D01*
X114832571Y-106927714D01*
X114775428Y-106870571D01*
X114775428Y-106470571D01*
X115004000Y-106470571D01*
X114261142Y-106870571D02*
X114204000Y-106927714D01*
X114261142Y-106984857D01*
X114318285Y-106927714D01*
X114261142Y-106870571D01*
X114261142Y-106984857D01*
X112775428Y-106984857D02*
X112775428Y-105784857D01*
X112489714Y-105784857D01*
X112318285Y-105842000D01*
X112204000Y-105956285D01*
X112146857Y-106070571D01*
X112089714Y-106299142D01*
X112089714Y-106470571D01*
X112146857Y-106699142D01*
X112204000Y-106813428D01*
X112318285Y-106927714D01*
X112489714Y-106984857D01*
X112775428Y-106984857D01*
X111575428Y-106356285D02*
X111175428Y-106356285D01*
X111004000Y-106984857D02*
X111575428Y-106984857D01*
X111575428Y-105784857D01*
X111004000Y-105784857D01*
X110546857Y-106927714D02*
X110375428Y-106984857D01*
X110089714Y-106984857D01*
X109975428Y-106927714D01*
X109918285Y-106870571D01*
X109861142Y-106756285D01*
X109861142Y-106642000D01*
X109918285Y-106527714D01*
X109975428Y-106470571D01*
X110089714Y-106413428D01*
X110318285Y-106356285D01*
X110432571Y-106299142D01*
X110489714Y-106242000D01*
X110546857Y-106127714D01*
X110546857Y-106013428D01*
X110489714Y-105899142D01*
X110432571Y-105842000D01*
X110318285Y-105784857D01*
X110032571Y-105784857D01*
X109861142Y-105842000D01*
X109346857Y-106984857D02*
X109346857Y-105784857D01*
X108146857Y-105842000D02*
X108261142Y-105784857D01*
X108432571Y-105784857D01*
X108604000Y-105842000D01*
X108718285Y-105956285D01*
X108775428Y-106070571D01*
X108832571Y-106299142D01*
X108832571Y-106470571D01*
X108775428Y-106699142D01*
X108718285Y-106813428D01*
X108604000Y-106927714D01*
X108432571Y-106984857D01*
X108318285Y-106984857D01*
X108146857Y-106927714D01*
X108089714Y-106870571D01*
X108089714Y-106470571D01*
X108318285Y-106470571D01*
X107575428Y-106984857D02*
X107575428Y-105784857D01*
X106889714Y-106984857D01*
X106889714Y-105784857D01*
X105404000Y-106984857D02*
X105404000Y-105784857D01*
X105118285Y-105784857D01*
X104946857Y-105842000D01*
X104832571Y-105956285D01*
X104775428Y-106070571D01*
X104718285Y-106299142D01*
X104718285Y-106470571D01*
X104775428Y-106699142D01*
X104832571Y-106813428D01*
X104946857Y-106927714D01*
X105118285Y-106984857D01*
X105404000Y-106984857D01*
X103975428Y-105784857D02*
X103746857Y-105784857D01*
X103632571Y-105842000D01*
X103518285Y-105956285D01*
X103461142Y-106184857D01*
X103461142Y-106584857D01*
X103518285Y-106813428D01*
X103632571Y-106927714D01*
X103746857Y-106984857D01*
X103975428Y-106984857D01*
X104089714Y-106927714D01*
X104204000Y-106813428D01*
X104261142Y-106584857D01*
X104261142Y-106184857D01*
X104204000Y-105956285D01*
X104089714Y-105842000D01*
X103975428Y-105784857D01*
X102946857Y-106356285D02*
X102546857Y-106356285D01*
X102375428Y-106984857D02*
X102946857Y-106984857D01*
X102946857Y-105784857D01*
X102375428Y-105784857D01*
X101861142Y-106984857D02*
X101861142Y-105784857D01*
X101404000Y-105784857D01*
X101289714Y-105842000D01*
X101232571Y-105899142D01*
X101175428Y-106013428D01*
X101175428Y-106184857D01*
X101232571Y-106299142D01*
X101289714Y-106356285D01*
X101404000Y-106413428D01*
X101861142Y-106413428D01*
X100261142Y-106356285D02*
X100661142Y-106356285D01*
X100661142Y-106984857D02*
X100661142Y-105784857D01*
X100089714Y-105784857D01*
X99632571Y-106356285D02*
X99232571Y-106356285D01*
X99061142Y-106984857D02*
X99632571Y-106984857D01*
X99632571Y-105784857D01*
X99061142Y-105784857D01*
X97861142Y-106984857D02*
X98261142Y-106413428D01*
X98546857Y-106984857D02*
X98546857Y-105784857D01*
X98089714Y-105784857D01*
X97975428Y-105842000D01*
X97918285Y-105899142D01*
X97861142Y-106013428D01*
X97861142Y-106184857D01*
X97918285Y-106299142D01*
X97975428Y-106356285D01*
X98089714Y-106413428D01*
X98546857Y-106413428D01*
X114889714Y-108984857D02*
X114889714Y-107784857D01*
X114204000Y-108984857D02*
X114718285Y-108299142D01*
X114204000Y-107784857D02*
X114889714Y-108470571D01*
X113461142Y-107784857D02*
X113232571Y-107784857D01*
X113118285Y-107842000D01*
X113004000Y-107956285D01*
X112946857Y-108184857D01*
X112946857Y-108584857D01*
X113004000Y-108813428D01*
X113118285Y-108927714D01*
X113232571Y-108984857D01*
X113461142Y-108984857D01*
X113575428Y-108927714D01*
X113689714Y-108813428D01*
X113746857Y-108584857D01*
X113746857Y-108184857D01*
X113689714Y-107956285D01*
X113575428Y-107842000D01*
X113461142Y-107784857D01*
X112489714Y-108927714D02*
X112318285Y-108984857D01*
X112032571Y-108984857D01*
X111918285Y-108927714D01*
X111861142Y-108870571D01*
X111804000Y-108756285D01*
X111804000Y-108642000D01*
X111861142Y-108527714D01*
X111918285Y-108470571D01*
X112032571Y-108413428D01*
X112261142Y-108356285D01*
X112375428Y-108299142D01*
X112432571Y-108242000D01*
X112489714Y-108127714D01*
X112489714Y-108013428D01*
X112432571Y-107899142D01*
X112375428Y-107842000D01*
X112261142Y-107784857D01*
X111975428Y-107784857D01*
X111804000Y-107842000D01*
X111289714Y-108984857D02*
X111289714Y-107784857D01*
X110889714Y-108642000D01*
X110489714Y-107784857D01*
X110489714Y-108984857D01*
X109689714Y-107784857D02*
X109461142Y-107784857D01*
X109346857Y-107842000D01*
X109232571Y-107956285D01*
X109175428Y-108184857D01*
X109175428Y-108584857D01*
X109232571Y-108813428D01*
X109346857Y-108927714D01*
X109461142Y-108984857D01*
X109689714Y-108984857D01*
X109804000Y-108927714D01*
X109918285Y-108813428D01*
X109975428Y-108584857D01*
X109975428Y-108184857D01*
X109918285Y-107956285D01*
X109804000Y-107842000D01*
X109689714Y-107784857D01*
X107346857Y-108356285D02*
X107746857Y-108356285D01*
X107746857Y-108984857D02*
X107746857Y-107784857D01*
X107175428Y-107784857D01*
X106489714Y-107784857D02*
X106261142Y-107784857D01*
X106146857Y-107842000D01*
X106032571Y-107956285D01*
X105975428Y-108184857D01*
X105975428Y-108584857D01*
X106032571Y-108813428D01*
X106146857Y-108927714D01*
X106261142Y-108984857D01*
X106489714Y-108984857D01*
X106604000Y-108927714D01*
X106718285Y-108813428D01*
X106775428Y-108584857D01*
X106775428Y-108184857D01*
X106718285Y-107956285D01*
X106604000Y-107842000D01*
X106489714Y-107784857D01*
X104775428Y-108984857D02*
X105175428Y-108413428D01*
X105461142Y-108984857D02*
X105461142Y-107784857D01*
X105004000Y-107784857D01*
X104889714Y-107842000D01*
X104832571Y-107899142D01*
X104775428Y-108013428D01*
X104775428Y-108184857D01*
X104832571Y-108299142D01*
X104889714Y-108356285D01*
X105004000Y-108413428D01*
X105461142Y-108413428D01*
X104261142Y-108984857D02*
X104261142Y-107784857D01*
X103861142Y-108642000D01*
X103461142Y-107784857D01*
X103461142Y-108984857D01*
X102946857Y-108642000D02*
X102375428Y-108642000D01*
X103061142Y-108984857D02*
X102661142Y-107784857D01*
X102261142Y-108984857D01*
X102032571Y-107784857D02*
X101346857Y-107784857D01*
X101689714Y-108984857D02*
X101689714Y-107784857D01*
X116718285Y-109899142D02*
X116661142Y-109842000D01*
X116546857Y-109784857D01*
X116261142Y-109784857D01*
X116146857Y-109842000D01*
X116089714Y-109899142D01*
X116032571Y-110013428D01*
X116032571Y-110127714D01*
X116089714Y-110299142D01*
X116775428Y-110984857D01*
X116032571Y-110984857D01*
X115289714Y-109784857D02*
X115175428Y-109784857D01*
X115061142Y-109842000D01*
X115004000Y-109899142D01*
X114946857Y-110013428D01*
X114889714Y-110242000D01*
X114889714Y-110527714D01*
X114946857Y-110756285D01*
X115004000Y-110870571D01*
X115061142Y-110927714D01*
X115175428Y-110984857D01*
X115289714Y-110984857D01*
X115404000Y-110927714D01*
X115461142Y-110870571D01*
X115518285Y-110756285D01*
X115575428Y-110527714D01*
X115575428Y-110242000D01*
X115518285Y-110013428D01*
X115461142Y-109899142D01*
X115404000Y-109842000D01*
X115289714Y-109784857D01*
X114432571Y-109899142D02*
X114375428Y-109842000D01*
X114261142Y-109784857D01*
X113975428Y-109784857D01*
X113861142Y-109842000D01*
X113804000Y-109899142D01*
X113746857Y-110013428D01*
X113746857Y-110127714D01*
X113804000Y-110299142D01*
X114489714Y-110984857D01*
X113746857Y-110984857D01*
X113004000Y-109784857D02*
X112889714Y-109784857D01*
X112775428Y-109842000D01*
X112718285Y-109899142D01*
X112661142Y-110013428D01*
X112604000Y-110242000D01*
X112604000Y-110527714D01*
X112661142Y-110756285D01*
X112718285Y-110870571D01*
X112775428Y-110927714D01*
X112889714Y-110984857D01*
X113004000Y-110984857D01*
X113118285Y-110927714D01*
X113175428Y-110870571D01*
X113232571Y-110756285D01*
X113289714Y-110527714D01*
X113289714Y-110242000D01*
X113232571Y-110013428D01*
X113175428Y-109899142D01*
X113118285Y-109842000D01*
X113004000Y-109784857D01*
X110489714Y-110870571D02*
X110546857Y-110927714D01*
X110718285Y-110984857D01*
X110832571Y-110984857D01*
X111004000Y-110927714D01*
X111118285Y-110813428D01*
X111175428Y-110699142D01*
X111232571Y-110470571D01*
X111232571Y-110299142D01*
X111175428Y-110070571D01*
X111118285Y-109956285D01*
X111004000Y-109842000D01*
X110832571Y-109784857D01*
X110718285Y-109784857D01*
X110546857Y-109842000D01*
X110489714Y-109899142D01*
X109746857Y-109784857D02*
X109518285Y-109784857D01*
X109404000Y-109842000D01*
X109289714Y-109956285D01*
X109232571Y-110184857D01*
X109232571Y-110584857D01*
X109289714Y-110813428D01*
X109404000Y-110927714D01*
X109518285Y-110984857D01*
X109746857Y-110984857D01*
X109861142Y-110927714D01*
X109975428Y-110813428D01*
X110032571Y-110584857D01*
X110032571Y-110184857D01*
X109975428Y-109956285D01*
X109861142Y-109842000D01*
X109746857Y-109784857D01*
X108032571Y-110984857D02*
X108432571Y-110413428D01*
X108718285Y-110984857D02*
X108718285Y-109784857D01*
X108261142Y-109784857D01*
X108146857Y-109842000D01*
X108089714Y-109899142D01*
X108032571Y-110013428D01*
X108032571Y-110184857D01*
X108089714Y-110299142D01*
X108146857Y-110356285D01*
X108261142Y-110413428D01*
X108718285Y-110413428D01*
X107289714Y-110413428D02*
X107289714Y-110984857D01*
X107689714Y-109784857D02*
X107289714Y-110413428D01*
X106889714Y-109784857D01*
X105746857Y-109784857D02*
X105061142Y-109784857D01*
X105404000Y-110984857D02*
X105404000Y-109784857D01*
X104432571Y-109784857D02*
X104204000Y-109784857D01*
X104089714Y-109842000D01*
X103975428Y-109956285D01*
X103918285Y-110184857D01*
X103918285Y-110584857D01*
X103975428Y-110813428D01*
X104089714Y-110927714D01*
X104204000Y-110984857D01*
X104432571Y-110984857D01*
X104546857Y-110927714D01*
X104661142Y-110813428D01*
X104718285Y-110584857D01*
X104718285Y-110184857D01*
X104661142Y-109956285D01*
X104546857Y-109842000D01*
X104432571Y-109784857D01*
X102718285Y-110984857D02*
X103118285Y-110413428D01*
X103404000Y-110984857D02*
X103404000Y-109784857D01*
X102946857Y-109784857D01*
X102832571Y-109842000D01*
X102775428Y-109899142D01*
X102718285Y-110013428D01*
X102718285Y-110184857D01*
X102775428Y-110299142D01*
X102832571Y-110356285D01*
X102946857Y-110413428D01*
X103404000Y-110413428D01*
X102204000Y-110984857D02*
X102204000Y-109784857D01*
X101746857Y-109784857D01*
X101632571Y-109842000D01*
X101575428Y-109899142D01*
X101518285Y-110013428D01*
X101518285Y-110184857D01*
X101575428Y-110299142D01*
X101632571Y-110356285D01*
X101746857Y-110413428D01*
X102204000Y-110413428D01*
X101004000Y-110984857D02*
X101004000Y-109784857D01*
X100432571Y-110984857D02*
X100432571Y-109784857D01*
X99746857Y-110984857D01*
X99746857Y-109784857D01*
D10*
X123253333Y-29281428D02*
X122491428Y-29281428D01*
X122872380Y-29662380D02*
X122872380Y-28900476D01*
X121491428Y-29662380D02*
X122062857Y-29662380D01*
X121777142Y-29662380D02*
X121777142Y-28662380D01*
X121872380Y-28805238D01*
X121967619Y-28900476D01*
X122062857Y-28948095D01*
X121110476Y-28757619D02*
X121062857Y-28710000D01*
X120967619Y-28662380D01*
X120729523Y-28662380D01*
X120634285Y-28710000D01*
X120586666Y-28757619D01*
X120539047Y-28852857D01*
X120539047Y-28948095D01*
X120586666Y-29090952D01*
X121158095Y-29662380D01*
X120539047Y-29662380D01*
D12*
X97270000Y-19205000D02*
X97270000Y-21745000D01*
X97270000Y-19205000D02*
X99810000Y-19205000D01*
X97520000Y-19455000D02*
X97520000Y-28805000D01*
X118380000Y-19455000D02*
X97520000Y-19455000D01*
X118380000Y-28805000D02*
X118380000Y-19455000D01*
X97520000Y-28805000D02*
X118380000Y-28805000D01*
D10*
X113680095Y-29646571D02*
X113346761Y-29646571D01*
X113203904Y-30170380D02*
X113680095Y-30170380D01*
X113680095Y-29170380D01*
X113203904Y-29170380D01*
X112775333Y-29170380D02*
X112775333Y-29979904D01*
X112727714Y-30075142D01*
X112680095Y-30122761D01*
X112584857Y-30170380D01*
X112394380Y-30170380D01*
X112299142Y-30122761D01*
X112251523Y-30075142D01*
X112203904Y-29979904D01*
X112203904Y-29170380D01*
X111156285Y-30170380D02*
X111489619Y-29694190D01*
X111727714Y-30170380D02*
X111727714Y-29170380D01*
X111346761Y-29170380D01*
X111251523Y-29218000D01*
X111203904Y-29265619D01*
X111156285Y-29360857D01*
X111156285Y-29503714D01*
X111203904Y-29598952D01*
X111251523Y-29646571D01*
X111346761Y-29694190D01*
X111727714Y-29694190D01*
X110537238Y-29170380D02*
X110346761Y-29170380D01*
X110251523Y-29218000D01*
X110156285Y-29313238D01*
X110108666Y-29503714D01*
X110108666Y-29837047D01*
X110156285Y-30027523D01*
X110251523Y-30122761D01*
X110346761Y-30170380D01*
X110537238Y-30170380D01*
X110632476Y-30122761D01*
X110727714Y-30027523D01*
X110775333Y-29837047D01*
X110775333Y-29503714D01*
X110727714Y-29313238D01*
X110632476Y-29218000D01*
X110537238Y-29170380D01*
X108965809Y-30122761D02*
X108822952Y-30170380D01*
X108584857Y-30170380D01*
X108489619Y-30122761D01*
X108442000Y-30075142D01*
X108394380Y-29979904D01*
X108394380Y-29884666D01*
X108442000Y-29789428D01*
X108489619Y-29741809D01*
X108584857Y-29694190D01*
X108775333Y-29646571D01*
X108870571Y-29598952D01*
X108918190Y-29551333D01*
X108965809Y-29456095D01*
X108965809Y-29360857D01*
X108918190Y-29265619D01*
X108870571Y-29218000D01*
X108775333Y-29170380D01*
X108537238Y-29170380D01*
X108394380Y-29218000D01*
X108108666Y-29170380D02*
X107537238Y-29170380D01*
X107822952Y-30170380D02*
X107822952Y-29170380D01*
X107013428Y-29694190D02*
X107013428Y-30170380D01*
X107346761Y-29170380D02*
X107013428Y-29694190D01*
X106680095Y-29170380D01*
X105870571Y-30170380D02*
X106346761Y-30170380D01*
X106346761Y-29170380D01*
X105537238Y-29646571D02*
X105203904Y-29646571D01*
X105061047Y-30170380D02*
X105537238Y-30170380D01*
X105537238Y-29170380D01*
X105061047Y-29170380D01*
X103870571Y-30170380D02*
X103870571Y-29170380D01*
X103489619Y-29170380D01*
X103394380Y-29218000D01*
X103346761Y-29265619D01*
X103299142Y-29360857D01*
X103299142Y-29503714D01*
X103346761Y-29598952D01*
X103394380Y-29646571D01*
X103489619Y-29694190D01*
X103870571Y-29694190D01*
X102965809Y-29170380D02*
X102727714Y-30170380D01*
X102537238Y-29456095D01*
X102346761Y-30170380D01*
X102108666Y-29170380D01*
X101156285Y-30170380D02*
X101489619Y-29694190D01*
X101727714Y-30170380D02*
X101727714Y-29170380D01*
X101346761Y-29170380D01*
X101251523Y-29218000D01*
X101203904Y-29265619D01*
X101156285Y-29360857D01*
X101156285Y-29503714D01*
X101203904Y-29598952D01*
X101251523Y-29646571D01*
X101346761Y-29694190D01*
X101727714Y-29694190D01*
M02*
