%FSLAX45Y45*%
G04 Gerber Fmt 4.5, Leading zero omitted, Abs format (unit mm)*
G04 Created by KiCad (PCBNEW (5.1.5)-3) date 2020-05-19 17:07:37*
%MOMM*%
%LPD*%
G04 APERTURE LIST*
%TA.AperFunction,Profile*%
%ADD10C,0.050000*%
%TD*%
%ADD11C,0.200000*%
%ADD12C,0.300000*%
G04 APERTURE END LIST*
D10*
X7500000Y-19177000D02*
X7500000Y-1701800D01*
X12400000Y-19177000D02*
X7500000Y-19177000D01*
X12400000Y-1701800D02*
X12400000Y-19177000D01*
X7500000Y-1701800D02*
X12400000Y-1701800D01*
D11*
X10186200Y-5639600D02*
X10286200Y-5739600D01*
X10286200Y-5639600D02*
X10186200Y-5739600D01*
X10440200Y-5639600D02*
X10540200Y-5739600D01*
X10540200Y-5639600D02*
X10440200Y-5739600D01*
X10694200Y-5639600D02*
X10794200Y-5739600D01*
X10794200Y-5639600D02*
X10694200Y-5739600D01*
X10948200Y-5639600D02*
X11048200Y-5739600D01*
X11048200Y-5639600D02*
X10948200Y-5739600D01*
X11202200Y-5639600D02*
X11302200Y-5739600D01*
X11302200Y-5639600D02*
X11202200Y-5739600D01*
X11456200Y-5639600D02*
X11556200Y-5739600D01*
X11556200Y-5639600D02*
X11456200Y-5739600D01*
X10186200Y-14707400D02*
X10286200Y-14807400D01*
X10286200Y-14707400D02*
X10186200Y-14807400D01*
X10440200Y-14707400D02*
X10540200Y-14807400D01*
X10540200Y-14707400D02*
X10440200Y-14807400D01*
X10694200Y-14707400D02*
X10794200Y-14807400D01*
X10794200Y-14707400D02*
X10694200Y-14807400D01*
X10948200Y-14707400D02*
X11048200Y-14807400D01*
X11048200Y-14707400D02*
X10948200Y-14807400D01*
X11202200Y-14707400D02*
X11302200Y-14807400D01*
X11302200Y-14707400D02*
X11202200Y-14807400D01*
X11456200Y-14707400D02*
X11556200Y-14807400D01*
X11556200Y-14707400D02*
X11456200Y-14807400D01*
X10337800Y-2286000D02*
G75*
G03X10337800Y-2286000I-50800J0D01*
G01*
X10337800Y-2540000D02*
G75*
G03X10337800Y-2540000I-50800J0D01*
G01*
X10591800Y-2286000D02*
G75*
G03X10591800Y-2286000I-50800J0D01*
G01*
X10591800Y-2540000D02*
G75*
G03X10591800Y-2540000I-50800J0D01*
G01*
X10845800Y-2286000D02*
G75*
G03X10845800Y-2286000I-50800J0D01*
G01*
X10845800Y-2540000D02*
G75*
G03X10845800Y-2540000I-50800J0D01*
G01*
X11099800Y-2286000D02*
G75*
G03X11099800Y-2286000I-50800J0D01*
G01*
X11099800Y-2540000D02*
G75*
G03X11099800Y-2540000I-50800J0D01*
G01*
X11353800Y-2286000D02*
G75*
G03X11353800Y-2286000I-50800J0D01*
G01*
X11353800Y-2540000D02*
G75*
G03X11353800Y-2540000I-50800J0D01*
G01*
X7742000Y-4630114D02*
X7742000Y-4880114D01*
X7617000Y-4755114D02*
X7867000Y-4755114D01*
X8142000Y-4050114D02*
X8142000Y-4300114D01*
X8017000Y-4175114D02*
X8267000Y-4175114D01*
X8442000Y-5330114D02*
X8442000Y-5580114D01*
X8317000Y-5455114D02*
X8567000Y-5455114D01*
X8848700Y-4223414D02*
X8848700Y-4473414D01*
X8723700Y-4348414D02*
X8973700Y-4348414D01*
X9022000Y-4930114D02*
X9022000Y-5180114D01*
X8897000Y-5055114D02*
X9147000Y-5055114D01*
X7742000Y-6879828D02*
X7742000Y-7129828D01*
X7617000Y-7004828D02*
X7867000Y-7004828D01*
X8142000Y-6299828D02*
X8142000Y-6549828D01*
X8017000Y-6424828D02*
X8267000Y-6424828D01*
X8442000Y-7579828D02*
X8442000Y-7829828D01*
X8317000Y-7704828D02*
X8567000Y-7704828D01*
X8848700Y-6473128D02*
X8848700Y-6723128D01*
X8723700Y-6598128D02*
X8973700Y-6598128D01*
X9022000Y-7179828D02*
X9022000Y-7429828D01*
X8897000Y-7304828D02*
X9147000Y-7304828D01*
X7742000Y-9129543D02*
X7742000Y-9379543D01*
X7617000Y-9254543D02*
X7867000Y-9254543D01*
X8142000Y-8549543D02*
X8142000Y-8799543D01*
X8017000Y-8674543D02*
X8267000Y-8674543D01*
X8442000Y-9829543D02*
X8442000Y-10079543D01*
X8317000Y-9954543D02*
X8567000Y-9954543D01*
X8848700Y-8722843D02*
X8848700Y-8972843D01*
X8723700Y-8847843D02*
X8973700Y-8847843D01*
X9022000Y-9429543D02*
X9022000Y-9679543D01*
X8897000Y-9554543D02*
X9147000Y-9554543D01*
X7742000Y-18128400D02*
X7742000Y-18378400D01*
X7617000Y-18253400D02*
X7867000Y-18253400D01*
X8142000Y-17548400D02*
X8142000Y-17798400D01*
X8017000Y-17673400D02*
X8267000Y-17673400D01*
X8442000Y-18828400D02*
X8442000Y-19078400D01*
X8317000Y-18953400D02*
X8567000Y-18953400D01*
X8848700Y-17721700D02*
X8848700Y-17971700D01*
X8723700Y-17846700D02*
X8973700Y-17846700D01*
X9022000Y-18428400D02*
X9022000Y-18678400D01*
X8897000Y-18553400D02*
X9147000Y-18553400D01*
X7742000Y-13628971D02*
X7742000Y-13878971D01*
X7617000Y-13753971D02*
X7867000Y-13753971D01*
X8142000Y-13048971D02*
X8142000Y-13298971D01*
X8017000Y-13173971D02*
X8267000Y-13173971D01*
X8442000Y-14328971D02*
X8442000Y-14578971D01*
X8317000Y-14453971D02*
X8567000Y-14453971D01*
X8848700Y-13222271D02*
X8848700Y-13472271D01*
X8723700Y-13347271D02*
X8973700Y-13347271D01*
X9022000Y-13928971D02*
X9022000Y-14178971D01*
X8897000Y-14053971D02*
X9147000Y-14053971D01*
X7742000Y-2380400D02*
X7742000Y-2630400D01*
X7617000Y-2505400D02*
X7867000Y-2505400D01*
X8142000Y-1800400D02*
X8142000Y-2050400D01*
X8017000Y-1925400D02*
X8267000Y-1925400D01*
X8442000Y-3080400D02*
X8442000Y-3330400D01*
X8317000Y-3205400D02*
X8567000Y-3205400D01*
X8848700Y-1973700D02*
X8848700Y-2223700D01*
X8723700Y-2098700D02*
X8973700Y-2098700D01*
X9022000Y-2680400D02*
X9022000Y-2930400D01*
X8897000Y-2805400D02*
X9147000Y-2805400D01*
X7742000Y-15878685D02*
X7742000Y-16128685D01*
X7617000Y-16003685D02*
X7867000Y-16003685D01*
X8142000Y-15298685D02*
X8142000Y-15548685D01*
X8017000Y-15423685D02*
X8267000Y-15423685D01*
X8442000Y-16578685D02*
X8442000Y-16828685D01*
X8317000Y-16703685D02*
X8567000Y-16703685D01*
X8848700Y-15471985D02*
X8848700Y-15721985D01*
X8723700Y-15596985D02*
X8973700Y-15596985D01*
X9022000Y-16178685D02*
X9022000Y-16428685D01*
X8897000Y-16303685D02*
X9147000Y-16303685D01*
X7742000Y-11379257D02*
X7742000Y-11629257D01*
X7617000Y-11504257D02*
X7867000Y-11504257D01*
X8142000Y-10799257D02*
X8142000Y-11049257D01*
X8017000Y-10924257D02*
X8267000Y-10924257D01*
X8442000Y-12079257D02*
X8442000Y-12329257D01*
X8317000Y-12204257D02*
X8567000Y-12204257D01*
X8848700Y-10972557D02*
X8848700Y-11222557D01*
X8723700Y-11097557D02*
X8973700Y-11097557D01*
X9022000Y-11679257D02*
X9022000Y-11929257D01*
X8897000Y-11804257D02*
X9147000Y-11804257D01*
D12*
X7783928Y-19645214D02*
X7783928Y-19345214D01*
X7855357Y-19345214D01*
X7898214Y-19359500D01*
X7926786Y-19388072D01*
X7941071Y-19416643D01*
X7955357Y-19473786D01*
X7955357Y-19516643D01*
X7941071Y-19573786D01*
X7926786Y-19602357D01*
X7898214Y-19630929D01*
X7855357Y-19645214D01*
X7783928Y-19645214D01*
X8083928Y-19645214D02*
X8083928Y-19445214D01*
X8083928Y-19502357D02*
X8098214Y-19473786D01*
X8112500Y-19459500D01*
X8141071Y-19445214D01*
X8169643Y-19445214D01*
X8269643Y-19645214D02*
X8269643Y-19445214D01*
X8269643Y-19345214D02*
X8255357Y-19359500D01*
X8269643Y-19373786D01*
X8283928Y-19359500D01*
X8269643Y-19345214D01*
X8269643Y-19373786D01*
X8455357Y-19645214D02*
X8426786Y-19630929D01*
X8412500Y-19602357D01*
X8412500Y-19345214D01*
X8612500Y-19645214D02*
X8583928Y-19630929D01*
X8569643Y-19602357D01*
X8569643Y-19345214D01*
X8955357Y-19645214D02*
X8955357Y-19345214D01*
X9055357Y-19559500D01*
X9155357Y-19345214D01*
X9155357Y-19645214D01*
X9426786Y-19645214D02*
X9426786Y-19488072D01*
X9412500Y-19459500D01*
X9383928Y-19445214D01*
X9326786Y-19445214D01*
X9298214Y-19459500D01*
X9426786Y-19630929D02*
X9398214Y-19645214D01*
X9326786Y-19645214D01*
X9298214Y-19630929D01*
X9283928Y-19602357D01*
X9283928Y-19573786D01*
X9298214Y-19545214D01*
X9326786Y-19530929D01*
X9398214Y-19530929D01*
X9426786Y-19516643D01*
X9569643Y-19445214D02*
X9569643Y-19745214D01*
X9569643Y-19459500D02*
X9598214Y-19445214D01*
X9655357Y-19445214D01*
X9683928Y-19459500D01*
X9698214Y-19473786D01*
X9712500Y-19502357D01*
X9712500Y-19588072D01*
X9698214Y-19616643D01*
X9683928Y-19630929D01*
X9655357Y-19645214D01*
X9598214Y-19645214D01*
X9569643Y-19630929D01*
X9841071Y-19616643D02*
X9855357Y-19630929D01*
X9841071Y-19645214D01*
X9826786Y-19630929D01*
X9841071Y-19616643D01*
X9841071Y-19645214D01*
X9841071Y-19459500D02*
X9855357Y-19473786D01*
X9841071Y-19488072D01*
X9826786Y-19473786D01*
X9841071Y-19459500D01*
X9841071Y-19488072D01*
X7397500Y-20089500D02*
X7497500Y-20189500D01*
X7497500Y-20089500D02*
X7397500Y-20189500D01*
X7941071Y-20275214D02*
X7769643Y-20275214D01*
X7855357Y-20275214D02*
X7855357Y-19975214D01*
X7826786Y-20018072D01*
X7798214Y-20046643D01*
X7769643Y-20060929D01*
X8069643Y-20246643D02*
X8083928Y-20260929D01*
X8069643Y-20275214D01*
X8055357Y-20260929D01*
X8069643Y-20246643D01*
X8069643Y-20275214D01*
X8269643Y-19975214D02*
X8298214Y-19975214D01*
X8326786Y-19989500D01*
X8341071Y-20003786D01*
X8355357Y-20032357D01*
X8369643Y-20089500D01*
X8369643Y-20160929D01*
X8355357Y-20218072D01*
X8341071Y-20246643D01*
X8326786Y-20260929D01*
X8298214Y-20275214D01*
X8269643Y-20275214D01*
X8241071Y-20260929D01*
X8226786Y-20246643D01*
X8212500Y-20218072D01*
X8198214Y-20160929D01*
X8198214Y-20089500D01*
X8212500Y-20032357D01*
X8226786Y-20003786D01*
X8241071Y-19989500D01*
X8269643Y-19975214D01*
X8555357Y-19975214D02*
X8583928Y-19975214D01*
X8612500Y-19989500D01*
X8626786Y-20003786D01*
X8641071Y-20032357D01*
X8655357Y-20089500D01*
X8655357Y-20160929D01*
X8641071Y-20218072D01*
X8626786Y-20246643D01*
X8612500Y-20260929D01*
X8583928Y-20275214D01*
X8555357Y-20275214D01*
X8526786Y-20260929D01*
X8512500Y-20246643D01*
X8498214Y-20218072D01*
X8483928Y-20160929D01*
X8483928Y-20089500D01*
X8498214Y-20032357D01*
X8512500Y-20003786D01*
X8526786Y-19989500D01*
X8555357Y-19975214D01*
X8783928Y-20275214D02*
X8783928Y-20075214D01*
X8783928Y-20103786D02*
X8798214Y-20089500D01*
X8826786Y-20075214D01*
X8869643Y-20075214D01*
X8898214Y-20089500D01*
X8912500Y-20118072D01*
X8912500Y-20275214D01*
X8912500Y-20118072D02*
X8926786Y-20089500D01*
X8955357Y-20075214D01*
X8998214Y-20075214D01*
X9026786Y-20089500D01*
X9041071Y-20118072D01*
X9041071Y-20275214D01*
X9183928Y-20275214D02*
X9183928Y-20075214D01*
X9183928Y-20103786D02*
X9198214Y-20089500D01*
X9226786Y-20075214D01*
X9269643Y-20075214D01*
X9298214Y-20089500D01*
X9312500Y-20118072D01*
X9312500Y-20275214D01*
X9312500Y-20118072D02*
X9326786Y-20089500D01*
X9355357Y-20075214D01*
X9398214Y-20075214D01*
X9426786Y-20089500D01*
X9441071Y-20118072D01*
X9441071Y-20275214D01*
X10026786Y-19960929D02*
X9769643Y-20346643D01*
X10412500Y-19975214D02*
X10441071Y-19975214D01*
X10469643Y-19989500D01*
X10483928Y-20003786D01*
X10498214Y-20032357D01*
X10512500Y-20089500D01*
X10512500Y-20160929D01*
X10498214Y-20218072D01*
X10483928Y-20246643D01*
X10469643Y-20260929D01*
X10441071Y-20275214D01*
X10412500Y-20275214D01*
X10383928Y-20260929D01*
X10369643Y-20246643D01*
X10355357Y-20218072D01*
X10341071Y-20160929D01*
X10341071Y-20089500D01*
X10355357Y-20032357D01*
X10369643Y-20003786D01*
X10383928Y-19989500D01*
X10412500Y-19975214D01*
X10641071Y-20246643D02*
X10655357Y-20260929D01*
X10641071Y-20275214D01*
X10626786Y-20260929D01*
X10641071Y-20246643D01*
X10641071Y-20275214D01*
X10841071Y-19975214D02*
X10869643Y-19975214D01*
X10898214Y-19989500D01*
X10912500Y-20003786D01*
X10926786Y-20032357D01*
X10941071Y-20089500D01*
X10941071Y-20160929D01*
X10926786Y-20218072D01*
X10912500Y-20246643D01*
X10898214Y-20260929D01*
X10869643Y-20275214D01*
X10841071Y-20275214D01*
X10812500Y-20260929D01*
X10798214Y-20246643D01*
X10783928Y-20218072D01*
X10769643Y-20160929D01*
X10769643Y-20089500D01*
X10783928Y-20032357D01*
X10798214Y-20003786D01*
X10812500Y-19989500D01*
X10841071Y-19975214D01*
X11041071Y-19975214D02*
X11226786Y-19975214D01*
X11126786Y-20089500D01*
X11169643Y-20089500D01*
X11198214Y-20103786D01*
X11212500Y-20118072D01*
X11226786Y-20146643D01*
X11226786Y-20218072D01*
X11212500Y-20246643D01*
X11198214Y-20260929D01*
X11169643Y-20275214D01*
X11083928Y-20275214D01*
X11055357Y-20260929D01*
X11041071Y-20246643D01*
X11369643Y-20275214D02*
X11426786Y-20275214D01*
X11455357Y-20260929D01*
X11469643Y-20246643D01*
X11498214Y-20203786D01*
X11512500Y-20146643D01*
X11512500Y-20032357D01*
X11498214Y-20003786D01*
X11483928Y-19989500D01*
X11455357Y-19975214D01*
X11398214Y-19975214D01*
X11369643Y-19989500D01*
X11355357Y-20003786D01*
X11341071Y-20032357D01*
X11341071Y-20103786D01*
X11355357Y-20132357D01*
X11369643Y-20146643D01*
X11398214Y-20160929D01*
X11455357Y-20160929D01*
X11483928Y-20146643D01*
X11498214Y-20132357D01*
X11512500Y-20103786D01*
X11626786Y-19975214D02*
X11626786Y-20032357D01*
X11741071Y-19975214D02*
X11741071Y-20032357D01*
X12183928Y-20389500D02*
X12169643Y-20375214D01*
X12141071Y-20332357D01*
X12126786Y-20303786D01*
X12112500Y-20260929D01*
X12098214Y-20189500D01*
X12098214Y-20132357D01*
X12112500Y-20060929D01*
X12126786Y-20018072D01*
X12141071Y-19989500D01*
X12169643Y-19946643D01*
X12183928Y-19932357D01*
X12455357Y-20275214D02*
X12283928Y-20275214D01*
X12369643Y-20275214D02*
X12369643Y-19975214D01*
X12341071Y-20018072D01*
X12312500Y-20046643D01*
X12283928Y-20060929D01*
X12569643Y-20003786D02*
X12583928Y-19989500D01*
X12612500Y-19975214D01*
X12683928Y-19975214D01*
X12712500Y-19989500D01*
X12726786Y-20003786D01*
X12741071Y-20032357D01*
X12741071Y-20060929D01*
X12726786Y-20103786D01*
X12555357Y-20275214D01*
X12741071Y-20275214D01*
X13098214Y-20275214D02*
X13098214Y-19975214D01*
X13226786Y-20275214D02*
X13226786Y-20118072D01*
X13212500Y-20089500D01*
X13183928Y-20075214D01*
X13141071Y-20075214D01*
X13112500Y-20089500D01*
X13098214Y-20103786D01*
X13412500Y-20275214D02*
X13383928Y-20260929D01*
X13369643Y-20246643D01*
X13355357Y-20218072D01*
X13355357Y-20132357D01*
X13369643Y-20103786D01*
X13383928Y-20089500D01*
X13412500Y-20075214D01*
X13455357Y-20075214D01*
X13483928Y-20089500D01*
X13498214Y-20103786D01*
X13512500Y-20132357D01*
X13512500Y-20218072D01*
X13498214Y-20246643D01*
X13483928Y-20260929D01*
X13455357Y-20275214D01*
X13412500Y-20275214D01*
X13683928Y-20275214D02*
X13655357Y-20260929D01*
X13641071Y-20232357D01*
X13641071Y-19975214D01*
X13912500Y-20260929D02*
X13883928Y-20275214D01*
X13826786Y-20275214D01*
X13798214Y-20260929D01*
X13783928Y-20232357D01*
X13783928Y-20118072D01*
X13798214Y-20089500D01*
X13826786Y-20075214D01*
X13883928Y-20075214D01*
X13912500Y-20089500D01*
X13926786Y-20118072D01*
X13926786Y-20146643D01*
X13783928Y-20175214D01*
X14041071Y-20260929D02*
X14069643Y-20275214D01*
X14126786Y-20275214D01*
X14155357Y-20260929D01*
X14169643Y-20232357D01*
X14169643Y-20218072D01*
X14155357Y-20189500D01*
X14126786Y-20175214D01*
X14083928Y-20175214D01*
X14055357Y-20160929D01*
X14041071Y-20132357D01*
X14041071Y-20118072D01*
X14055357Y-20089500D01*
X14083928Y-20075214D01*
X14126786Y-20075214D01*
X14155357Y-20089500D01*
X14269643Y-20389500D02*
X14283928Y-20375214D01*
X14312500Y-20332357D01*
X14326786Y-20303786D01*
X14341071Y-20260929D01*
X14355357Y-20189500D01*
X14355357Y-20132357D01*
X14341071Y-20060929D01*
X14326786Y-20018072D01*
X14312500Y-19989500D01*
X14283928Y-19946643D01*
X14269643Y-19932357D01*
X7497500Y-20535500D02*
G75*
G03X7497500Y-20535500I-50800J0D01*
G01*
X7941071Y-20671214D02*
X7769643Y-20671214D01*
X7855357Y-20671214D02*
X7855357Y-20371214D01*
X7826786Y-20414072D01*
X7798214Y-20442643D01*
X7769643Y-20456929D01*
X8069643Y-20642643D02*
X8083928Y-20656929D01*
X8069643Y-20671214D01*
X8055357Y-20656929D01*
X8069643Y-20642643D01*
X8069643Y-20671214D01*
X8269643Y-20371214D02*
X8298214Y-20371214D01*
X8326786Y-20385500D01*
X8341071Y-20399786D01*
X8355357Y-20428357D01*
X8369643Y-20485500D01*
X8369643Y-20556929D01*
X8355357Y-20614072D01*
X8341071Y-20642643D01*
X8326786Y-20656929D01*
X8298214Y-20671214D01*
X8269643Y-20671214D01*
X8241071Y-20656929D01*
X8226786Y-20642643D01*
X8212500Y-20614072D01*
X8198214Y-20556929D01*
X8198214Y-20485500D01*
X8212500Y-20428357D01*
X8226786Y-20399786D01*
X8241071Y-20385500D01*
X8269643Y-20371214D01*
X8483928Y-20399786D02*
X8498214Y-20385500D01*
X8526786Y-20371214D01*
X8598214Y-20371214D01*
X8626786Y-20385500D01*
X8641071Y-20399786D01*
X8655357Y-20428357D01*
X8655357Y-20456929D01*
X8641071Y-20499786D01*
X8469643Y-20671214D01*
X8655357Y-20671214D01*
X8783928Y-20671214D02*
X8783928Y-20471214D01*
X8783928Y-20499786D02*
X8798214Y-20485500D01*
X8826786Y-20471214D01*
X8869643Y-20471214D01*
X8898214Y-20485500D01*
X8912500Y-20514072D01*
X8912500Y-20671214D01*
X8912500Y-20514072D02*
X8926786Y-20485500D01*
X8955357Y-20471214D01*
X8998214Y-20471214D01*
X9026786Y-20485500D01*
X9041071Y-20514072D01*
X9041071Y-20671214D01*
X9183928Y-20671214D02*
X9183928Y-20471214D01*
X9183928Y-20499786D02*
X9198214Y-20485500D01*
X9226786Y-20471214D01*
X9269643Y-20471214D01*
X9298214Y-20485500D01*
X9312500Y-20514072D01*
X9312500Y-20671214D01*
X9312500Y-20514072D02*
X9326786Y-20485500D01*
X9355357Y-20471214D01*
X9398214Y-20471214D01*
X9426786Y-20485500D01*
X9441071Y-20514072D01*
X9441071Y-20671214D01*
X10026786Y-20356929D02*
X9769643Y-20742643D01*
X10412500Y-20371214D02*
X10441071Y-20371214D01*
X10469643Y-20385500D01*
X10483928Y-20399786D01*
X10498214Y-20428357D01*
X10512500Y-20485500D01*
X10512500Y-20556929D01*
X10498214Y-20614072D01*
X10483928Y-20642643D01*
X10469643Y-20656929D01*
X10441071Y-20671214D01*
X10412500Y-20671214D01*
X10383928Y-20656929D01*
X10369643Y-20642643D01*
X10355357Y-20614072D01*
X10341071Y-20556929D01*
X10341071Y-20485500D01*
X10355357Y-20428357D01*
X10369643Y-20399786D01*
X10383928Y-20385500D01*
X10412500Y-20371214D01*
X10641071Y-20642643D02*
X10655357Y-20656929D01*
X10641071Y-20671214D01*
X10626786Y-20656929D01*
X10641071Y-20642643D01*
X10641071Y-20671214D01*
X10841071Y-20371214D02*
X10869643Y-20371214D01*
X10898214Y-20385500D01*
X10912500Y-20399786D01*
X10926786Y-20428357D01*
X10941071Y-20485500D01*
X10941071Y-20556929D01*
X10926786Y-20614072D01*
X10912500Y-20642643D01*
X10898214Y-20656929D01*
X10869643Y-20671214D01*
X10841071Y-20671214D01*
X10812500Y-20656929D01*
X10798214Y-20642643D01*
X10783928Y-20614072D01*
X10769643Y-20556929D01*
X10769643Y-20485500D01*
X10783928Y-20428357D01*
X10798214Y-20399786D01*
X10812500Y-20385500D01*
X10841071Y-20371214D01*
X11198214Y-20471214D02*
X11198214Y-20671214D01*
X11126786Y-20356929D02*
X11055357Y-20571214D01*
X11241071Y-20571214D01*
X11412500Y-20371214D02*
X11441071Y-20371214D01*
X11469643Y-20385500D01*
X11483928Y-20399786D01*
X11498214Y-20428357D01*
X11512500Y-20485500D01*
X11512500Y-20556929D01*
X11498214Y-20614072D01*
X11483928Y-20642643D01*
X11469643Y-20656929D01*
X11441071Y-20671214D01*
X11412500Y-20671214D01*
X11383928Y-20656929D01*
X11369643Y-20642643D01*
X11355357Y-20614072D01*
X11341071Y-20556929D01*
X11341071Y-20485500D01*
X11355357Y-20428357D01*
X11369643Y-20399786D01*
X11383928Y-20385500D01*
X11412500Y-20371214D01*
X11626786Y-20371214D02*
X11626786Y-20428357D01*
X11741071Y-20371214D02*
X11741071Y-20428357D01*
X12183928Y-20785500D02*
X12169643Y-20771214D01*
X12141071Y-20728357D01*
X12126786Y-20699786D01*
X12112500Y-20656929D01*
X12098214Y-20585500D01*
X12098214Y-20528357D01*
X12112500Y-20456929D01*
X12126786Y-20414072D01*
X12141071Y-20385500D01*
X12169643Y-20342643D01*
X12183928Y-20328357D01*
X12455357Y-20671214D02*
X12283928Y-20671214D01*
X12369643Y-20671214D02*
X12369643Y-20371214D01*
X12341071Y-20414072D01*
X12312500Y-20442643D01*
X12283928Y-20456929D01*
X12641071Y-20371214D02*
X12669643Y-20371214D01*
X12698214Y-20385500D01*
X12712500Y-20399786D01*
X12726786Y-20428357D01*
X12741071Y-20485500D01*
X12741071Y-20556929D01*
X12726786Y-20614072D01*
X12712500Y-20642643D01*
X12698214Y-20656929D01*
X12669643Y-20671214D01*
X12641071Y-20671214D01*
X12612500Y-20656929D01*
X12598214Y-20642643D01*
X12583928Y-20614072D01*
X12569643Y-20556929D01*
X12569643Y-20485500D01*
X12583928Y-20428357D01*
X12598214Y-20399786D01*
X12612500Y-20385500D01*
X12641071Y-20371214D01*
X13098214Y-20671214D02*
X13098214Y-20371214D01*
X13226786Y-20671214D02*
X13226786Y-20514072D01*
X13212500Y-20485500D01*
X13183928Y-20471214D01*
X13141071Y-20471214D01*
X13112500Y-20485500D01*
X13098214Y-20499786D01*
X13412500Y-20671214D02*
X13383928Y-20656929D01*
X13369643Y-20642643D01*
X13355357Y-20614072D01*
X13355357Y-20528357D01*
X13369643Y-20499786D01*
X13383928Y-20485500D01*
X13412500Y-20471214D01*
X13455357Y-20471214D01*
X13483928Y-20485500D01*
X13498214Y-20499786D01*
X13512500Y-20528357D01*
X13512500Y-20614072D01*
X13498214Y-20642643D01*
X13483928Y-20656929D01*
X13455357Y-20671214D01*
X13412500Y-20671214D01*
X13683928Y-20671214D02*
X13655357Y-20656929D01*
X13641071Y-20628357D01*
X13641071Y-20371214D01*
X13912500Y-20656929D02*
X13883928Y-20671214D01*
X13826786Y-20671214D01*
X13798214Y-20656929D01*
X13783928Y-20628357D01*
X13783928Y-20514072D01*
X13798214Y-20485500D01*
X13826786Y-20471214D01*
X13883928Y-20471214D01*
X13912500Y-20485500D01*
X13926786Y-20514072D01*
X13926786Y-20542643D01*
X13783928Y-20571214D01*
X14041071Y-20656929D02*
X14069643Y-20671214D01*
X14126786Y-20671214D01*
X14155357Y-20656929D01*
X14169643Y-20628357D01*
X14169643Y-20614072D01*
X14155357Y-20585500D01*
X14126786Y-20571214D01*
X14083928Y-20571214D01*
X14055357Y-20556929D01*
X14041071Y-20528357D01*
X14041071Y-20514072D01*
X14055357Y-20485500D01*
X14083928Y-20471214D01*
X14126786Y-20471214D01*
X14155357Y-20485500D01*
X14269643Y-20785500D02*
X14283928Y-20771214D01*
X14312500Y-20728357D01*
X14326786Y-20699786D01*
X14341071Y-20656929D01*
X14355357Y-20585500D01*
X14355357Y-20528357D01*
X14341071Y-20456929D01*
X14326786Y-20414072D01*
X14312500Y-20385500D01*
X14283928Y-20342643D01*
X14269643Y-20328357D01*
X7372500Y-20806500D02*
X7372500Y-21056500D01*
X7247500Y-20931500D02*
X7497500Y-20931500D01*
X7769643Y-20795786D02*
X7783928Y-20781500D01*
X7812500Y-20767214D01*
X7883928Y-20767214D01*
X7912500Y-20781500D01*
X7926786Y-20795786D01*
X7941071Y-20824357D01*
X7941071Y-20852929D01*
X7926786Y-20895786D01*
X7755357Y-21067214D01*
X7941071Y-21067214D01*
X8069643Y-21038643D02*
X8083928Y-21052929D01*
X8069643Y-21067214D01*
X8055357Y-21052929D01*
X8069643Y-21038643D01*
X8069643Y-21067214D01*
X8355357Y-20767214D02*
X8212500Y-20767214D01*
X8198214Y-20910072D01*
X8212500Y-20895786D01*
X8241071Y-20881500D01*
X8312500Y-20881500D01*
X8341071Y-20895786D01*
X8355357Y-20910072D01*
X8369643Y-20938643D01*
X8369643Y-21010072D01*
X8355357Y-21038643D01*
X8341071Y-21052929D01*
X8312500Y-21067214D01*
X8241071Y-21067214D01*
X8212500Y-21052929D01*
X8198214Y-21038643D01*
X8555357Y-20767214D02*
X8583928Y-20767214D01*
X8612500Y-20781500D01*
X8626786Y-20795786D01*
X8641071Y-20824357D01*
X8655357Y-20881500D01*
X8655357Y-20952929D01*
X8641071Y-21010072D01*
X8626786Y-21038643D01*
X8612500Y-21052929D01*
X8583928Y-21067214D01*
X8555357Y-21067214D01*
X8526786Y-21052929D01*
X8512500Y-21038643D01*
X8498214Y-21010072D01*
X8483928Y-20952929D01*
X8483928Y-20881500D01*
X8498214Y-20824357D01*
X8512500Y-20795786D01*
X8526786Y-20781500D01*
X8555357Y-20767214D01*
X8783928Y-21067214D02*
X8783928Y-20867214D01*
X8783928Y-20895786D02*
X8798214Y-20881500D01*
X8826786Y-20867214D01*
X8869643Y-20867214D01*
X8898214Y-20881500D01*
X8912500Y-20910072D01*
X8912500Y-21067214D01*
X8912500Y-20910072D02*
X8926786Y-20881500D01*
X8955357Y-20867214D01*
X8998214Y-20867214D01*
X9026786Y-20881500D01*
X9041071Y-20910072D01*
X9041071Y-21067214D01*
X9183928Y-21067214D02*
X9183928Y-20867214D01*
X9183928Y-20895786D02*
X9198214Y-20881500D01*
X9226786Y-20867214D01*
X9269643Y-20867214D01*
X9298214Y-20881500D01*
X9312500Y-20910072D01*
X9312500Y-21067214D01*
X9312500Y-20910072D02*
X9326786Y-20881500D01*
X9355357Y-20867214D01*
X9398214Y-20867214D01*
X9426786Y-20881500D01*
X9441071Y-20910072D01*
X9441071Y-21067214D01*
X10026786Y-20752929D02*
X9769643Y-21138643D01*
X10412500Y-20767214D02*
X10441071Y-20767214D01*
X10469643Y-20781500D01*
X10483928Y-20795786D01*
X10498214Y-20824357D01*
X10512500Y-20881500D01*
X10512500Y-20952929D01*
X10498214Y-21010072D01*
X10483928Y-21038643D01*
X10469643Y-21052929D01*
X10441071Y-21067214D01*
X10412500Y-21067214D01*
X10383928Y-21052929D01*
X10369643Y-21038643D01*
X10355357Y-21010072D01*
X10341071Y-20952929D01*
X10341071Y-20881500D01*
X10355357Y-20824357D01*
X10369643Y-20795786D01*
X10383928Y-20781500D01*
X10412500Y-20767214D01*
X10641071Y-21038643D02*
X10655357Y-21052929D01*
X10641071Y-21067214D01*
X10626786Y-21052929D01*
X10641071Y-21038643D01*
X10641071Y-21067214D01*
X10841071Y-20767214D02*
X10869643Y-20767214D01*
X10898214Y-20781500D01*
X10912500Y-20795786D01*
X10926786Y-20824357D01*
X10941071Y-20881500D01*
X10941071Y-20952929D01*
X10926786Y-21010072D01*
X10912500Y-21038643D01*
X10898214Y-21052929D01*
X10869643Y-21067214D01*
X10841071Y-21067214D01*
X10812500Y-21052929D01*
X10798214Y-21038643D01*
X10783928Y-21010072D01*
X10769643Y-20952929D01*
X10769643Y-20881500D01*
X10783928Y-20824357D01*
X10798214Y-20795786D01*
X10812500Y-20781500D01*
X10841071Y-20767214D01*
X11083928Y-21067214D02*
X11141071Y-21067214D01*
X11169643Y-21052929D01*
X11183928Y-21038643D01*
X11212500Y-20995786D01*
X11226786Y-20938643D01*
X11226786Y-20824357D01*
X11212500Y-20795786D01*
X11198214Y-20781500D01*
X11169643Y-20767214D01*
X11112500Y-20767214D01*
X11083928Y-20781500D01*
X11069643Y-20795786D01*
X11055357Y-20824357D01*
X11055357Y-20895786D01*
X11069643Y-20924357D01*
X11083928Y-20938643D01*
X11112500Y-20952929D01*
X11169643Y-20952929D01*
X11198214Y-20938643D01*
X11212500Y-20924357D01*
X11226786Y-20895786D01*
X11398214Y-20895786D02*
X11369643Y-20881500D01*
X11355357Y-20867214D01*
X11341071Y-20838643D01*
X11341071Y-20824357D01*
X11355357Y-20795786D01*
X11369643Y-20781500D01*
X11398214Y-20767214D01*
X11455357Y-20767214D01*
X11483928Y-20781500D01*
X11498214Y-20795786D01*
X11512500Y-20824357D01*
X11512500Y-20838643D01*
X11498214Y-20867214D01*
X11483928Y-20881500D01*
X11455357Y-20895786D01*
X11398214Y-20895786D01*
X11369643Y-20910072D01*
X11355357Y-20924357D01*
X11341071Y-20952929D01*
X11341071Y-21010072D01*
X11355357Y-21038643D01*
X11369643Y-21052929D01*
X11398214Y-21067214D01*
X11455357Y-21067214D01*
X11483928Y-21052929D01*
X11498214Y-21038643D01*
X11512500Y-21010072D01*
X11512500Y-20952929D01*
X11498214Y-20924357D01*
X11483928Y-20910072D01*
X11455357Y-20895786D01*
X11626786Y-20767214D02*
X11626786Y-20824357D01*
X11741071Y-20767214D02*
X11741071Y-20824357D01*
X12183928Y-21181500D02*
X12169643Y-21167214D01*
X12141071Y-21124357D01*
X12126786Y-21095786D01*
X12112500Y-21052929D01*
X12098214Y-20981500D01*
X12098214Y-20924357D01*
X12112500Y-20852929D01*
X12126786Y-20810072D01*
X12141071Y-20781500D01*
X12169643Y-20738643D01*
X12183928Y-20724357D01*
X12426786Y-20867214D02*
X12426786Y-21067214D01*
X12355357Y-20752929D02*
X12283928Y-20967214D01*
X12469643Y-20967214D01*
X12641071Y-20767214D02*
X12669643Y-20767214D01*
X12698214Y-20781500D01*
X12712500Y-20795786D01*
X12726786Y-20824357D01*
X12741071Y-20881500D01*
X12741071Y-20952929D01*
X12726786Y-21010072D01*
X12712500Y-21038643D01*
X12698214Y-21052929D01*
X12669643Y-21067214D01*
X12641071Y-21067214D01*
X12612500Y-21052929D01*
X12598214Y-21038643D01*
X12583928Y-21010072D01*
X12569643Y-20952929D01*
X12569643Y-20881500D01*
X12583928Y-20824357D01*
X12598214Y-20795786D01*
X12612500Y-20781500D01*
X12641071Y-20767214D01*
X13098214Y-21067214D02*
X13098214Y-20767214D01*
X13226786Y-21067214D02*
X13226786Y-20910072D01*
X13212500Y-20881500D01*
X13183928Y-20867214D01*
X13141071Y-20867214D01*
X13112500Y-20881500D01*
X13098214Y-20895786D01*
X13412500Y-21067214D02*
X13383928Y-21052929D01*
X13369643Y-21038643D01*
X13355357Y-21010072D01*
X13355357Y-20924357D01*
X13369643Y-20895786D01*
X13383928Y-20881500D01*
X13412500Y-20867214D01*
X13455357Y-20867214D01*
X13483928Y-20881500D01*
X13498214Y-20895786D01*
X13512500Y-20924357D01*
X13512500Y-21010072D01*
X13498214Y-21038643D01*
X13483928Y-21052929D01*
X13455357Y-21067214D01*
X13412500Y-21067214D01*
X13683928Y-21067214D02*
X13655357Y-21052929D01*
X13641071Y-21024357D01*
X13641071Y-20767214D01*
X13912500Y-21052929D02*
X13883928Y-21067214D01*
X13826786Y-21067214D01*
X13798214Y-21052929D01*
X13783928Y-21024357D01*
X13783928Y-20910072D01*
X13798214Y-20881500D01*
X13826786Y-20867214D01*
X13883928Y-20867214D01*
X13912500Y-20881500D01*
X13926786Y-20910072D01*
X13926786Y-20938643D01*
X13783928Y-20967214D01*
X14041071Y-21052929D02*
X14069643Y-21067214D01*
X14126786Y-21067214D01*
X14155357Y-21052929D01*
X14169643Y-21024357D01*
X14169643Y-21010072D01*
X14155357Y-20981500D01*
X14126786Y-20967214D01*
X14083928Y-20967214D01*
X14055357Y-20952929D01*
X14041071Y-20924357D01*
X14041071Y-20910072D01*
X14055357Y-20881500D01*
X14083928Y-20867214D01*
X14126786Y-20867214D01*
X14155357Y-20881500D01*
X14269643Y-21181500D02*
X14283928Y-21167214D01*
X14312500Y-21124357D01*
X14326786Y-21095786D01*
X14341071Y-21052929D01*
X14355357Y-20981500D01*
X14355357Y-20924357D01*
X14341071Y-20852929D01*
X14326786Y-20810072D01*
X14312500Y-20781500D01*
X14283928Y-20738643D01*
X14269643Y-20724357D01*
M02*
