G04 #@! TF.GenerationSoftware,KiCad,Pcbnew,(5.1.5)-3*
G04 #@! TF.CreationDate,2020-05-19T17:08:50-07:00*
G04 #@! TF.ProjectId,SM2REV1,534d3252-4556-4312-9e6b-696361645f70,rev?*
G04 #@! TF.SameCoordinates,Original*
G04 #@! TF.FileFunction,Copper,L2,Bot*
G04 #@! TF.FilePolarity,Positive*
%FSLAX46Y46*%
G04 Gerber Fmt 4.6, Leading zero omitted, Abs format (unit mm)*
G04 Created by KiCad (PCBNEW (5.1.5)-3) date 2020-05-19 17:08:50*
%MOMM*%
%LPD*%
G04 APERTURE LIST*
%ADD10O,1.700000X1.700000*%
%ADD11R,1.700000X1.700000*%
%ADD12C,1.800000*%
%ADD13R,1.800000X1.800000*%
%ADD14C,1.600000*%
%ADD15O,1.600000X1.600000*%
%ADD16C,3.524001*%
%ADD17C,0.800000*%
%ADD18C,0.500000*%
%ADD19C,0.254000*%
G04 APERTURE END LIST*
D10*
X139954000Y-148590000D03*
X137414000Y-148590000D03*
X134874000Y-148590000D03*
X132334000Y-148590000D03*
X129794000Y-148590000D03*
D11*
X127254000Y-148590000D03*
D10*
X139954000Y-57912000D03*
X137414000Y-57912000D03*
X134874000Y-57912000D03*
X132334000Y-57912000D03*
X129794000Y-57912000D03*
D11*
X127254000Y-57912000D03*
D12*
X122555000Y-26416000D03*
D13*
X120015000Y-26416000D03*
X147320000Y-26416000D03*
D12*
X144780000Y-26416000D03*
D13*
X120015000Y-49022000D03*
D12*
X122555000Y-49022000D03*
X144780000Y-48768000D03*
D13*
X147320000Y-48768000D03*
D12*
X122555000Y-71628000D03*
D13*
X120015000Y-71628000D03*
X147320000Y-71374000D03*
D12*
X144780000Y-71374000D03*
D13*
X120015000Y-94234000D03*
D12*
X122555000Y-94234000D03*
X144780000Y-93980000D03*
D13*
X147320000Y-93980000D03*
D12*
X122555000Y-116586000D03*
D13*
X120015000Y-116586000D03*
X147320000Y-116840000D03*
D12*
X144780000Y-116840000D03*
D13*
X120015000Y-139446000D03*
D12*
X122555000Y-139446000D03*
X144780000Y-139446000D03*
D13*
X147320000Y-139446000D03*
D12*
X122555000Y-161798000D03*
D13*
X120015000Y-161798000D03*
X147320000Y-162052000D03*
D12*
X144780000Y-162052000D03*
D13*
X120015000Y-184404000D03*
D12*
X122555000Y-184404000D03*
X144780000Y-184404000D03*
D13*
X147320000Y-184404000D03*
D14*
X137287000Y-19558000D03*
D15*
X144907000Y-19558000D03*
X144907000Y-40894000D03*
D14*
X137287000Y-40894000D03*
X137287000Y-62611000D03*
D15*
X144907000Y-62611000D03*
X144907000Y-84836000D03*
D14*
X137287000Y-84836000D03*
X137287000Y-108966000D03*
D15*
X144907000Y-108966000D03*
X144907000Y-129921000D03*
D14*
X137287000Y-129921000D03*
X137287000Y-153670000D03*
D15*
X144907000Y-153670000D03*
X144907000Y-174371000D03*
D14*
X137287000Y-174371000D03*
D16*
X128778000Y-28829000D03*
X128778000Y-24003000D03*
X133477000Y-28829000D03*
X133477000Y-24003000D03*
X138176000Y-24003000D03*
X138176000Y-28829000D03*
X138176000Y-51416857D03*
X138176000Y-46590857D03*
X133477000Y-46590857D03*
X133477000Y-51416857D03*
X128778000Y-46590857D03*
X128778000Y-51416857D03*
X128778000Y-74004714D03*
X128778000Y-69178714D03*
X133477000Y-74004714D03*
X133477000Y-69178714D03*
X138176000Y-69178714D03*
X138176000Y-74004714D03*
X138176000Y-96592571D03*
X138176000Y-91766571D03*
X133477000Y-91766571D03*
X133477000Y-96592571D03*
X128778000Y-91766571D03*
X128778000Y-96592571D03*
X128778000Y-119180428D03*
X128778000Y-114354428D03*
X133477000Y-119180428D03*
X133477000Y-114354428D03*
X138176000Y-114354428D03*
X138176000Y-119180428D03*
X138176000Y-141768285D03*
X138176000Y-136942285D03*
X133477000Y-136942285D03*
X133477000Y-141768285D03*
X128778000Y-136942285D03*
X128778000Y-141768285D03*
X128778000Y-164356142D03*
X128778000Y-159530142D03*
X133477000Y-164356142D03*
X133477000Y-159530142D03*
X138176000Y-159530142D03*
X138176000Y-164356142D03*
X138176000Y-186944000D03*
X138176000Y-182118000D03*
X133477000Y-182118000D03*
X133477000Y-186944000D03*
X128778000Y-182118000D03*
X128778000Y-186944000D03*
D17*
X141224000Y-61976000D03*
X140970000Y-54356000D03*
X125222000Y-75692000D03*
X123444000Y-60706000D03*
X125222000Y-99314000D03*
X125222000Y-83312000D03*
X141820000Y-80010000D03*
X142240000Y-65278000D03*
X129794000Y-65024000D03*
X124714000Y-126746000D03*
X122936000Y-145796000D03*
X126492000Y-167386000D03*
X124968000Y-154432000D03*
X142748000Y-153670000D03*
X133604000Y-151130000D03*
D18*
X133477000Y-20955000D02*
X133477000Y-24003000D01*
X134874000Y-19558000D02*
X133477000Y-20955000D01*
X134874000Y-19558000D02*
X137668000Y-19558000D01*
X133477000Y-42545000D02*
X135128000Y-40894000D01*
X133477000Y-46590857D02*
X133477000Y-42545000D01*
X135128000Y-40894000D02*
X137287000Y-40894000D01*
X133477000Y-66421000D02*
X137287000Y-62611000D01*
X133477000Y-69178714D02*
X133477000Y-66421000D01*
X133477000Y-88646000D02*
X137287000Y-84836000D01*
X133477000Y-91766571D02*
X133477000Y-88646000D01*
X137287000Y-110544428D02*
X137287000Y-108966000D01*
X133477000Y-114354428D02*
X137287000Y-110544428D01*
X133477000Y-133731000D02*
X137287000Y-129921000D01*
X133477000Y-136942285D02*
X133477000Y-133731000D01*
X137287000Y-155720142D02*
X137287000Y-153670000D01*
X133477000Y-159530142D02*
X137287000Y-155720142D01*
X133477000Y-182118000D02*
X133477000Y-178181000D01*
X133477000Y-178181000D02*
X137287000Y-174371000D01*
X128778000Y-31320844D02*
X126238000Y-33860844D01*
X128778000Y-28829000D02*
X128778000Y-31320844D01*
X126238000Y-48876857D02*
X128778000Y-51416857D01*
X126238000Y-33860844D02*
X126238000Y-48876857D01*
X126286156Y-51416857D02*
X124968000Y-52735013D01*
X128778000Y-51416857D02*
X126286156Y-51416857D01*
X124968000Y-52735013D02*
X124968000Y-62484000D01*
X124968000Y-62484000D02*
X125984000Y-63500000D01*
X125984000Y-71210714D02*
X128778000Y-74004714D01*
X125984000Y-63500000D02*
X125984000Y-71210714D01*
X128778000Y-76496558D02*
X126238000Y-79036558D01*
X128778000Y-74004714D02*
X128778000Y-76496558D01*
X126238000Y-94052571D02*
X128778000Y-96592571D01*
X126238000Y-79036558D02*
X126238000Y-94052571D01*
X126286156Y-96592571D02*
X126238000Y-96640727D01*
X128778000Y-96592571D02*
X126286156Y-96592571D01*
X126238000Y-116640428D02*
X128778000Y-119180428D01*
X126238000Y-96640727D02*
X126238000Y-116640428D01*
X128778000Y-119180428D02*
X126238000Y-121720428D01*
X126238000Y-139228285D02*
X128778000Y-141768285D01*
X126238000Y-121720428D02*
X126238000Y-139228285D01*
X128778000Y-141768285D02*
X125222000Y-145324285D01*
X125222000Y-145324285D02*
X125222000Y-150622000D01*
X125222000Y-150622000D02*
X125984000Y-151384000D01*
X125984000Y-161562142D02*
X128778000Y-164356142D01*
X125984000Y-151384000D02*
X125984000Y-161562142D01*
X128778000Y-166847986D02*
X125984000Y-169641986D01*
X128778000Y-164356142D02*
X128778000Y-166847986D01*
X125984000Y-184150000D02*
X128778000Y-186944000D01*
X125984000Y-169641986D02*
X125984000Y-184150000D01*
X138176000Y-186944000D02*
X140716000Y-184404000D01*
X140716000Y-166896142D02*
X138176000Y-164356142D01*
X140716000Y-184404000D02*
X140716000Y-166896142D01*
X141986000Y-145578285D02*
X138176000Y-141768285D01*
X141986000Y-150368000D02*
X141986000Y-145578285D01*
X141254001Y-151099999D02*
X141986000Y-150368000D01*
X138176000Y-164356142D02*
X141254001Y-161278141D01*
X141254001Y-161278141D02*
X141254001Y-151099999D01*
X140716000Y-121720428D02*
X138176000Y-119180428D01*
X138176000Y-141768285D02*
X140716000Y-139228285D01*
X140716000Y-139228285D02*
X140716000Y-121720428D01*
X138176000Y-119180428D02*
X140970000Y-116386428D01*
X140970000Y-99386571D02*
X138176000Y-96592571D01*
X140970000Y-116386428D02*
X140970000Y-99386571D01*
X140970000Y-76798714D02*
X138176000Y-74004714D01*
X138176000Y-96592571D02*
X140970000Y-93798571D01*
X140970000Y-93798571D02*
X140970000Y-76798714D01*
X140667844Y-74004714D02*
X140970000Y-73702558D01*
X138176000Y-74004714D02*
X140667844Y-74004714D01*
X140970000Y-73702558D02*
X140970000Y-62230000D01*
X140970000Y-62230000D02*
X141224000Y-61976000D01*
X140970000Y-31623000D02*
X138176000Y-28829000D01*
X141732000Y-32385000D02*
X140970000Y-31623000D01*
X140970000Y-54356000D02*
X141732000Y-53594000D01*
X141732000Y-53594000D02*
X141732000Y-32385000D01*
X144907000Y-174371000D02*
X144907000Y-173239630D01*
X144907000Y-112649000D02*
X144907000Y-108966000D01*
X142494000Y-115062000D02*
X144907000Y-112649000D01*
X144907000Y-128789630D02*
X145034000Y-128662630D01*
X144907000Y-129921000D02*
X144907000Y-128789630D01*
X145034000Y-120904000D02*
X142494000Y-118364000D01*
X145034000Y-128662630D02*
X145034000Y-120904000D01*
X142494000Y-118364000D02*
X142494000Y-115062000D01*
X144907000Y-108966000D02*
X144907000Y-98171000D01*
X144907000Y-98171000D02*
X142494000Y-95758000D01*
X142494000Y-95758000D02*
X142494000Y-91948000D01*
X144907000Y-89535000D02*
X144907000Y-84836000D01*
X142494000Y-91948000D02*
X144907000Y-89535000D01*
X144907000Y-67183000D02*
X144907000Y-62611000D01*
X142494000Y-72390000D02*
X142494000Y-69596000D01*
X144907000Y-84836000D02*
X144907000Y-74803000D01*
X142494000Y-69596000D02*
X144907000Y-67183000D01*
X144907000Y-74803000D02*
X142494000Y-72390000D01*
X140208000Y-57912000D02*
X139954000Y-57912000D01*
X144907000Y-62611000D02*
X140208000Y-57912000D01*
X141156081Y-57912000D02*
X142494000Y-56574081D01*
X139954000Y-57912000D02*
X141156081Y-57912000D01*
X142748000Y-28194000D02*
X142367000Y-27813000D01*
X142367000Y-27813000D02*
X142367000Y-23495000D01*
X142494000Y-56574081D02*
X142561919Y-56574081D01*
X142748000Y-56388000D02*
X142748000Y-45212000D01*
X142561919Y-56574081D02*
X142748000Y-56388000D01*
X142748000Y-46228000D02*
X142748000Y-45212000D01*
X142367000Y-22479000D02*
X145288000Y-19558000D01*
X142367000Y-23495000D02*
X142367000Y-22479000D01*
X146341999Y-31787999D02*
X142367000Y-27813000D01*
X144907000Y-43053000D02*
X144907000Y-40894000D01*
X142748000Y-45212000D02*
X144907000Y-43053000D01*
X146341999Y-38327631D02*
X146341999Y-31787999D01*
X144907000Y-39762630D02*
X146341999Y-38327631D01*
X144907000Y-40894000D02*
X144907000Y-39762630D01*
X144907000Y-158369000D02*
X144907000Y-153670000D01*
X143256000Y-160020000D02*
X144907000Y-158369000D01*
X143256000Y-163322000D02*
X143256000Y-160020000D01*
X144907000Y-174371000D02*
X144907000Y-164973000D01*
X144907000Y-164973000D02*
X143256000Y-163322000D01*
X144907000Y-153670000D02*
X145706999Y-152870001D01*
X144907000Y-135001000D02*
X144907000Y-129921000D01*
X145706999Y-144182999D02*
X142494000Y-140970000D01*
X145706999Y-152870001D02*
X145706999Y-144182999D01*
X142494000Y-140970000D02*
X142494000Y-137414000D01*
X142494000Y-137414000D02*
X144907000Y-135001000D01*
X133477000Y-36449000D02*
X133477000Y-28829000D01*
X134620000Y-37592000D02*
X133477000Y-36449000D01*
X137414000Y-55880000D02*
X140716000Y-52578000D01*
X137414000Y-57912000D02*
X137414000Y-55880000D01*
X140716000Y-52578000D02*
X140716000Y-39370000D01*
X140716000Y-39370000D02*
X138938000Y-37592000D01*
X138938000Y-37592000D02*
X134620000Y-37592000D01*
X133477000Y-56515000D02*
X134874000Y-57912000D01*
X133477000Y-51416857D02*
X133477000Y-56515000D01*
X125222000Y-75692000D02*
X125222000Y-71120000D01*
X125222000Y-71120000D02*
X124968000Y-70866000D01*
X124968000Y-70866000D02*
X123444000Y-69342000D01*
X123444000Y-69342000D02*
X123444000Y-60706000D01*
X125222000Y-99314000D02*
X125222000Y-83312000D01*
X141793990Y-65724010D02*
X142240000Y-65278000D01*
X141793990Y-79418305D02*
X141793990Y-65724010D01*
X141820000Y-80010000D02*
X141820000Y-79444315D01*
X141820000Y-79444315D02*
X141793990Y-79418305D01*
X129794000Y-65024000D02*
X129794000Y-57912000D01*
X124714000Y-126746000D02*
X124714000Y-144018000D01*
X124714000Y-144018000D02*
X122936000Y-145796000D01*
X133477000Y-147193000D02*
X134874000Y-148590000D01*
X133477000Y-141768285D02*
X133477000Y-147193000D01*
X126492000Y-167386000D02*
X124968000Y-165862000D01*
X124968000Y-165862000D02*
X124968000Y-154432000D01*
X133477000Y-189435844D02*
X135303156Y-191262000D01*
X133477000Y-186944000D02*
X133477000Y-189435844D01*
X135303156Y-191262000D02*
X140716000Y-191262000D01*
X140716000Y-191262000D02*
X140970000Y-191262000D01*
X140970000Y-191262000D02*
X142240000Y-189992000D01*
X142240000Y-189992000D02*
X142240000Y-161290000D01*
X142240000Y-161290000D02*
X142240000Y-154178000D01*
X142240000Y-154178000D02*
X142748000Y-153670000D01*
X133604000Y-151130000D02*
X130302000Y-151130000D01*
X129794000Y-150622000D02*
X129794000Y-148590000D01*
X130302000Y-151130000D02*
X129794000Y-150622000D01*
D19*
G36*
X148162000Y-24878218D02*
G01*
X147605750Y-24881000D01*
X147447000Y-25039750D01*
X147447000Y-26289000D01*
X147467000Y-26289000D01*
X147467000Y-26543000D01*
X147447000Y-26543000D01*
X147447000Y-27792250D01*
X147605750Y-27951000D01*
X148162000Y-27953782D01*
X148162000Y-47230218D01*
X147605750Y-47233000D01*
X147447000Y-47391750D01*
X147447000Y-48641000D01*
X147467000Y-48641000D01*
X147467000Y-48895000D01*
X147447000Y-48895000D01*
X147447000Y-50144250D01*
X147605750Y-50303000D01*
X148162000Y-50305782D01*
X148162000Y-69836218D01*
X147605750Y-69839000D01*
X147447000Y-69997750D01*
X147447000Y-71247000D01*
X147467000Y-71247000D01*
X147467000Y-71501000D01*
X147447000Y-71501000D01*
X147447000Y-72750250D01*
X147605750Y-72909000D01*
X148162000Y-72911782D01*
X148162000Y-92442218D01*
X147605750Y-92445000D01*
X147447000Y-92603750D01*
X147447000Y-93853000D01*
X147467000Y-93853000D01*
X147467000Y-94107000D01*
X147447000Y-94107000D01*
X147447000Y-95356250D01*
X147605750Y-95515000D01*
X148162000Y-95517782D01*
X148162001Y-115302218D01*
X147605750Y-115305000D01*
X147447000Y-115463750D01*
X147447000Y-116713000D01*
X147467000Y-116713000D01*
X147467000Y-116967000D01*
X147447000Y-116967000D01*
X147447000Y-118216250D01*
X147605750Y-118375000D01*
X148162001Y-118377782D01*
X148162001Y-137908218D01*
X147605750Y-137911000D01*
X147447000Y-138069750D01*
X147447000Y-139319000D01*
X147467000Y-139319000D01*
X147467000Y-139573000D01*
X147447000Y-139573000D01*
X147447000Y-140822250D01*
X147605750Y-140981000D01*
X148162001Y-140983782D01*
X148162001Y-160514218D01*
X147605750Y-160517000D01*
X147447000Y-160675750D01*
X147447000Y-161925000D01*
X147467000Y-161925000D01*
X147467000Y-162179000D01*
X147447000Y-162179000D01*
X147447000Y-163428250D01*
X147605750Y-163587000D01*
X148162001Y-163589782D01*
X148162001Y-182866218D01*
X147605750Y-182869000D01*
X147447000Y-183027750D01*
X147447000Y-184277000D01*
X147467000Y-184277000D01*
X147467000Y-184531000D01*
X147447000Y-184531000D01*
X147447000Y-185780250D01*
X147605750Y-185939000D01*
X148162001Y-185941782D01*
X148162001Y-192126000D01*
X141170505Y-192126000D01*
X141310313Y-192083589D01*
X141464059Y-192001411D01*
X141598817Y-191890817D01*
X141626534Y-191857044D01*
X142835050Y-190648529D01*
X142868817Y-190620817D01*
X142979411Y-190486059D01*
X143061589Y-190332313D01*
X143112195Y-190165490D01*
X143125000Y-190035477D01*
X143125000Y-190035467D01*
X143129281Y-189992001D01*
X143125000Y-189948535D01*
X143125000Y-184252816D01*
X143245000Y-184252816D01*
X143245000Y-184555184D01*
X143303989Y-184851743D01*
X143419701Y-185131095D01*
X143587688Y-185382505D01*
X143801495Y-185596312D01*
X144052905Y-185764299D01*
X144332257Y-185880011D01*
X144628816Y-185939000D01*
X144931184Y-185939000D01*
X145227743Y-185880011D01*
X145507095Y-185764299D01*
X145758505Y-185596312D01*
X145824944Y-185529873D01*
X145830498Y-185548180D01*
X145889463Y-185658494D01*
X145968815Y-185755185D01*
X146065506Y-185834537D01*
X146175820Y-185893502D01*
X146295518Y-185929812D01*
X146420000Y-185942072D01*
X147034250Y-185939000D01*
X147193000Y-185780250D01*
X147193000Y-184531000D01*
X147173000Y-184531000D01*
X147173000Y-184277000D01*
X147193000Y-184277000D01*
X147193000Y-183027750D01*
X147034250Y-182869000D01*
X146420000Y-182865928D01*
X146295518Y-182878188D01*
X146175820Y-182914498D01*
X146065506Y-182973463D01*
X145968815Y-183052815D01*
X145889463Y-183149506D01*
X145830498Y-183259820D01*
X145824944Y-183278127D01*
X145758505Y-183211688D01*
X145507095Y-183043701D01*
X145227743Y-182927989D01*
X144931184Y-182869000D01*
X144628816Y-182869000D01*
X144332257Y-182927989D01*
X144052905Y-183043701D01*
X143801495Y-183211688D01*
X143587688Y-183425495D01*
X143419701Y-183676905D01*
X143303989Y-183956257D01*
X143245000Y-184252816D01*
X143125000Y-184252816D01*
X143125000Y-164442578D01*
X144022001Y-165339580D01*
X144022000Y-173236479D01*
X143992241Y-173256363D01*
X143792363Y-173456241D01*
X143635320Y-173691273D01*
X143527147Y-173952426D01*
X143472000Y-174229665D01*
X143472000Y-174512335D01*
X143527147Y-174789574D01*
X143635320Y-175050727D01*
X143792363Y-175285759D01*
X143992241Y-175485637D01*
X144227273Y-175642680D01*
X144488426Y-175750853D01*
X144765665Y-175806000D01*
X145048335Y-175806000D01*
X145325574Y-175750853D01*
X145586727Y-175642680D01*
X145821759Y-175485637D01*
X146021637Y-175285759D01*
X146178680Y-175050727D01*
X146286853Y-174789574D01*
X146342000Y-174512335D01*
X146342000Y-174229665D01*
X146286853Y-173952426D01*
X146178680Y-173691273D01*
X146021637Y-173456241D01*
X145821759Y-173256363D01*
X145792000Y-173236479D01*
X145792000Y-165016469D01*
X145796281Y-164973000D01*
X145792000Y-164929531D01*
X145792000Y-164929523D01*
X145779195Y-164799510D01*
X145728589Y-164632687D01*
X145728589Y-164632686D01*
X145646411Y-164478941D01*
X145563532Y-164377953D01*
X145563530Y-164377951D01*
X145535817Y-164344183D01*
X145502049Y-164316470D01*
X144772579Y-163587000D01*
X144931184Y-163587000D01*
X145227743Y-163528011D01*
X145507095Y-163412299D01*
X145758505Y-163244312D01*
X145824944Y-163177873D01*
X145830498Y-163196180D01*
X145889463Y-163306494D01*
X145968815Y-163403185D01*
X146065506Y-163482537D01*
X146175820Y-163541502D01*
X146295518Y-163577812D01*
X146420000Y-163590072D01*
X147034250Y-163587000D01*
X147193000Y-163428250D01*
X147193000Y-162179000D01*
X147173000Y-162179000D01*
X147173000Y-161925000D01*
X147193000Y-161925000D01*
X147193000Y-160675750D01*
X147034250Y-160517000D01*
X146420000Y-160513928D01*
X146295518Y-160526188D01*
X146175820Y-160562498D01*
X146065506Y-160621463D01*
X145968815Y-160700815D01*
X145889463Y-160797506D01*
X145830498Y-160907820D01*
X145824944Y-160926127D01*
X145758505Y-160859688D01*
X145507095Y-160691701D01*
X145227743Y-160575989D01*
X144931184Y-160517000D01*
X144628816Y-160517000D01*
X144332257Y-160575989D01*
X144141000Y-160655211D01*
X144141000Y-160386578D01*
X145502050Y-159025529D01*
X145535817Y-158997817D01*
X145587292Y-158935096D01*
X145646411Y-158863059D01*
X145728589Y-158709314D01*
X145779195Y-158542490D01*
X145779195Y-158542489D01*
X145792000Y-158412477D01*
X145792000Y-158412469D01*
X145796281Y-158369000D01*
X145792000Y-158325531D01*
X145792000Y-154804521D01*
X145821759Y-154784637D01*
X146021637Y-154584759D01*
X146178680Y-154349727D01*
X146286853Y-154088574D01*
X146342000Y-153811335D01*
X146342000Y-153528665D01*
X146336015Y-153498576D01*
X146446410Y-153364060D01*
X146528588Y-153210314D01*
X146579194Y-153043491D01*
X146591999Y-152913478D01*
X146591999Y-152913468D01*
X146596280Y-152870002D01*
X146591999Y-152826536D01*
X146591999Y-144226468D01*
X146596280Y-144182999D01*
X146591999Y-144139530D01*
X146591999Y-144139522D01*
X146579194Y-144009509D01*
X146528588Y-143842686D01*
X146446410Y-143688940D01*
X146335816Y-143554182D01*
X146302048Y-143526469D01*
X143379000Y-140603422D01*
X143379000Y-140074835D01*
X143419701Y-140173095D01*
X143587688Y-140424505D01*
X143801495Y-140638312D01*
X144052905Y-140806299D01*
X144332257Y-140922011D01*
X144628816Y-140981000D01*
X144931184Y-140981000D01*
X145227743Y-140922011D01*
X145507095Y-140806299D01*
X145758505Y-140638312D01*
X145824944Y-140571873D01*
X145830498Y-140590180D01*
X145889463Y-140700494D01*
X145968815Y-140797185D01*
X146065506Y-140876537D01*
X146175820Y-140935502D01*
X146295518Y-140971812D01*
X146420000Y-140984072D01*
X147034250Y-140981000D01*
X147193000Y-140822250D01*
X147193000Y-139573000D01*
X147173000Y-139573000D01*
X147173000Y-139319000D01*
X147193000Y-139319000D01*
X147193000Y-138069750D01*
X147034250Y-137911000D01*
X146420000Y-137907928D01*
X146295518Y-137920188D01*
X146175820Y-137956498D01*
X146065506Y-138015463D01*
X145968815Y-138094815D01*
X145889463Y-138191506D01*
X145830498Y-138301820D01*
X145824944Y-138320127D01*
X145758505Y-138253688D01*
X145507095Y-138085701D01*
X145227743Y-137969989D01*
X144931184Y-137911000D01*
X144628816Y-137911000D01*
X144332257Y-137969989D01*
X144052905Y-138085701D01*
X143801495Y-138253688D01*
X143587688Y-138467495D01*
X143419701Y-138718905D01*
X143379000Y-138817165D01*
X143379000Y-137780578D01*
X145502050Y-135657529D01*
X145535817Y-135629817D01*
X145646411Y-135495059D01*
X145728589Y-135341313D01*
X145779195Y-135174490D01*
X145792000Y-135044477D01*
X145792000Y-135044467D01*
X145796281Y-135001001D01*
X145792000Y-134957535D01*
X145792000Y-131055521D01*
X145821759Y-131035637D01*
X146021637Y-130835759D01*
X146178680Y-130600727D01*
X146286853Y-130339574D01*
X146342000Y-130062335D01*
X146342000Y-129779665D01*
X146286853Y-129502426D01*
X146178680Y-129241273D01*
X146021637Y-129006241D01*
X145893469Y-128878073D01*
X145906195Y-128836120D01*
X145919000Y-128706107D01*
X145919000Y-128706097D01*
X145923281Y-128662631D01*
X145919000Y-128619165D01*
X145919000Y-120947465D01*
X145923281Y-120903999D01*
X145919000Y-120860533D01*
X145919000Y-120860523D01*
X145906195Y-120730510D01*
X145855589Y-120563687D01*
X145773411Y-120409941D01*
X145662817Y-120275183D01*
X145629049Y-120247470D01*
X143379000Y-117997422D01*
X143379000Y-117468835D01*
X143419701Y-117567095D01*
X143587688Y-117818505D01*
X143801495Y-118032312D01*
X144052905Y-118200299D01*
X144332257Y-118316011D01*
X144628816Y-118375000D01*
X144931184Y-118375000D01*
X145227743Y-118316011D01*
X145507095Y-118200299D01*
X145758505Y-118032312D01*
X145824944Y-117965873D01*
X145830498Y-117984180D01*
X145889463Y-118094494D01*
X145968815Y-118191185D01*
X146065506Y-118270537D01*
X146175820Y-118329502D01*
X146295518Y-118365812D01*
X146420000Y-118378072D01*
X147034250Y-118375000D01*
X147193000Y-118216250D01*
X147193000Y-116967000D01*
X147173000Y-116967000D01*
X147173000Y-116713000D01*
X147193000Y-116713000D01*
X147193000Y-115463750D01*
X147034250Y-115305000D01*
X146420000Y-115301928D01*
X146295518Y-115314188D01*
X146175820Y-115350498D01*
X146065506Y-115409463D01*
X145968815Y-115488815D01*
X145889463Y-115585506D01*
X145830498Y-115695820D01*
X145824944Y-115714127D01*
X145758505Y-115647688D01*
X145507095Y-115479701D01*
X145227743Y-115363989D01*
X144931184Y-115305000D01*
X144628816Y-115305000D01*
X144332257Y-115363989D01*
X144052905Y-115479701D01*
X143801495Y-115647688D01*
X143587688Y-115861495D01*
X143419701Y-116112905D01*
X143379000Y-116211165D01*
X143379000Y-115428578D01*
X145502050Y-113305529D01*
X145535817Y-113277817D01*
X145584069Y-113219023D01*
X145646410Y-113143060D01*
X145646411Y-113143059D01*
X145728589Y-112989313D01*
X145779195Y-112822490D01*
X145792000Y-112692477D01*
X145792000Y-112692467D01*
X145796281Y-112649001D01*
X145792000Y-112605535D01*
X145792000Y-110100521D01*
X145821759Y-110080637D01*
X146021637Y-109880759D01*
X146178680Y-109645727D01*
X146286853Y-109384574D01*
X146342000Y-109107335D01*
X146342000Y-108824665D01*
X146286853Y-108547426D01*
X146178680Y-108286273D01*
X146021637Y-108051241D01*
X145821759Y-107851363D01*
X145792000Y-107831479D01*
X145792000Y-98214465D01*
X145796281Y-98170999D01*
X145792000Y-98127533D01*
X145792000Y-98127523D01*
X145779195Y-97997510D01*
X145728589Y-97830687D01*
X145646411Y-97676941D01*
X145535817Y-97542183D01*
X145502049Y-97514470D01*
X143379000Y-95391422D01*
X143379000Y-94608835D01*
X143419701Y-94707095D01*
X143587688Y-94958505D01*
X143801495Y-95172312D01*
X144052905Y-95340299D01*
X144332257Y-95456011D01*
X144628816Y-95515000D01*
X144931184Y-95515000D01*
X145227743Y-95456011D01*
X145507095Y-95340299D01*
X145758505Y-95172312D01*
X145824944Y-95105873D01*
X145830498Y-95124180D01*
X145889463Y-95234494D01*
X145968815Y-95331185D01*
X146065506Y-95410537D01*
X146175820Y-95469502D01*
X146295518Y-95505812D01*
X146420000Y-95518072D01*
X147034250Y-95515000D01*
X147193000Y-95356250D01*
X147193000Y-94107000D01*
X147173000Y-94107000D01*
X147173000Y-93853000D01*
X147193000Y-93853000D01*
X147193000Y-92603750D01*
X147034250Y-92445000D01*
X146420000Y-92441928D01*
X146295518Y-92454188D01*
X146175820Y-92490498D01*
X146065506Y-92549463D01*
X145968815Y-92628815D01*
X145889463Y-92725506D01*
X145830498Y-92835820D01*
X145824944Y-92854127D01*
X145758505Y-92787688D01*
X145507095Y-92619701D01*
X145227743Y-92503989D01*
X144931184Y-92445000D01*
X144628816Y-92445000D01*
X144332257Y-92503989D01*
X144052905Y-92619701D01*
X143801495Y-92787688D01*
X143587688Y-93001495D01*
X143419701Y-93252905D01*
X143379000Y-93351165D01*
X143379000Y-92314578D01*
X145502050Y-90191529D01*
X145535817Y-90163817D01*
X145646411Y-90029059D01*
X145728589Y-89875313D01*
X145779195Y-89708490D01*
X145792000Y-89578477D01*
X145792000Y-89578467D01*
X145796281Y-89535001D01*
X145792000Y-89491535D01*
X145792000Y-85970521D01*
X145821759Y-85950637D01*
X146021637Y-85750759D01*
X146178680Y-85515727D01*
X146286853Y-85254574D01*
X146342000Y-84977335D01*
X146342000Y-84694665D01*
X146286853Y-84417426D01*
X146178680Y-84156273D01*
X146021637Y-83921241D01*
X145821759Y-83721363D01*
X145792000Y-83701479D01*
X145792000Y-74846465D01*
X145796281Y-74802999D01*
X145792000Y-74759533D01*
X145792000Y-74759523D01*
X145779195Y-74629510D01*
X145728589Y-74462687D01*
X145646411Y-74308941D01*
X145535817Y-74174183D01*
X145502049Y-74146470D01*
X144116021Y-72760443D01*
X144332257Y-72850011D01*
X144628816Y-72909000D01*
X144931184Y-72909000D01*
X145227743Y-72850011D01*
X145507095Y-72734299D01*
X145758505Y-72566312D01*
X145824944Y-72499873D01*
X145830498Y-72518180D01*
X145889463Y-72628494D01*
X145968815Y-72725185D01*
X146065506Y-72804537D01*
X146175820Y-72863502D01*
X146295518Y-72899812D01*
X146420000Y-72912072D01*
X147034250Y-72909000D01*
X147193000Y-72750250D01*
X147193000Y-71501000D01*
X147173000Y-71501000D01*
X147173000Y-71247000D01*
X147193000Y-71247000D01*
X147193000Y-69997750D01*
X147034250Y-69839000D01*
X146420000Y-69835928D01*
X146295518Y-69848188D01*
X146175820Y-69884498D01*
X146065506Y-69943463D01*
X145968815Y-70022815D01*
X145889463Y-70119506D01*
X145830498Y-70229820D01*
X145824944Y-70248127D01*
X145758505Y-70181688D01*
X145507095Y-70013701D01*
X145227743Y-69897989D01*
X144931184Y-69839000D01*
X144628816Y-69839000D01*
X144332257Y-69897989D01*
X144052905Y-70013701D01*
X143801495Y-70181688D01*
X143587688Y-70395495D01*
X143419701Y-70646905D01*
X143379000Y-70745165D01*
X143379000Y-69962578D01*
X145502050Y-67839529D01*
X145535817Y-67811817D01*
X145646411Y-67677059D01*
X145728589Y-67523313D01*
X145779195Y-67356490D01*
X145792000Y-67226477D01*
X145792000Y-67226467D01*
X145796281Y-67183001D01*
X145792000Y-67139535D01*
X145792000Y-63745521D01*
X145821759Y-63725637D01*
X146021637Y-63525759D01*
X146178680Y-63290727D01*
X146286853Y-63029574D01*
X146342000Y-62752335D01*
X146342000Y-62469665D01*
X146286853Y-62192426D01*
X146178680Y-61931273D01*
X146021637Y-61696241D01*
X145821759Y-61496363D01*
X145586727Y-61339320D01*
X145325574Y-61231147D01*
X145048335Y-61176000D01*
X144765665Y-61176000D01*
X144730561Y-61182983D01*
X141933619Y-58386040D01*
X142948973Y-57370687D01*
X143055978Y-57313492D01*
X143190736Y-57202898D01*
X143218453Y-57169125D01*
X143343045Y-57044533D01*
X143376817Y-57016817D01*
X143487411Y-56882059D01*
X143569589Y-56728313D01*
X143620195Y-56561490D01*
X143633000Y-56431477D01*
X143633000Y-56431467D01*
X143637281Y-56388001D01*
X143633000Y-56344535D01*
X143633000Y-49791817D01*
X143801495Y-49960312D01*
X144052905Y-50128299D01*
X144332257Y-50244011D01*
X144628816Y-50303000D01*
X144931184Y-50303000D01*
X145227743Y-50244011D01*
X145507095Y-50128299D01*
X145758505Y-49960312D01*
X145824944Y-49893873D01*
X145830498Y-49912180D01*
X145889463Y-50022494D01*
X145968815Y-50119185D01*
X146065506Y-50198537D01*
X146175820Y-50257502D01*
X146295518Y-50293812D01*
X146420000Y-50306072D01*
X147034250Y-50303000D01*
X147193000Y-50144250D01*
X147193000Y-48895000D01*
X147173000Y-48895000D01*
X147173000Y-48641000D01*
X147193000Y-48641000D01*
X147193000Y-47391750D01*
X147034250Y-47233000D01*
X146420000Y-47229928D01*
X146295518Y-47242188D01*
X146175820Y-47278498D01*
X146065506Y-47337463D01*
X145968815Y-47416815D01*
X145889463Y-47513506D01*
X145830498Y-47623820D01*
X145824944Y-47642127D01*
X145758505Y-47575688D01*
X145507095Y-47407701D01*
X145227743Y-47291989D01*
X144931184Y-47233000D01*
X144628816Y-47233000D01*
X144332257Y-47291989D01*
X144052905Y-47407701D01*
X143801495Y-47575688D01*
X143633000Y-47744183D01*
X143633000Y-45578578D01*
X145502050Y-43709529D01*
X145535817Y-43681817D01*
X145646411Y-43547059D01*
X145728589Y-43393313D01*
X145779195Y-43226490D01*
X145792000Y-43096477D01*
X145792000Y-43096467D01*
X145796281Y-43053001D01*
X145792000Y-43009534D01*
X145792000Y-42028521D01*
X145821759Y-42008637D01*
X146021637Y-41808759D01*
X146178680Y-41573727D01*
X146286853Y-41312574D01*
X146342000Y-41035335D01*
X146342000Y-40752665D01*
X146286853Y-40475426D01*
X146178680Y-40214273D01*
X146021637Y-39979241D01*
X145981802Y-39939406D01*
X146937049Y-38984160D01*
X146970816Y-38956448D01*
X147081410Y-38821690D01*
X147163588Y-38667944D01*
X147214194Y-38501121D01*
X147226999Y-38371108D01*
X147226999Y-38371098D01*
X147231280Y-38327632D01*
X147226999Y-38284165D01*
X147226999Y-31831464D01*
X147231280Y-31787998D01*
X147226999Y-31744532D01*
X147226999Y-31744522D01*
X147214194Y-31614509D01*
X147163588Y-31447686D01*
X147081410Y-31293940D01*
X146970816Y-31159182D01*
X146937048Y-31131469D01*
X143252000Y-27446422D01*
X143252000Y-26602376D01*
X143303989Y-26863743D01*
X143419701Y-27143095D01*
X143587688Y-27394505D01*
X143801495Y-27608312D01*
X144052905Y-27776299D01*
X144332257Y-27892011D01*
X144628816Y-27951000D01*
X144931184Y-27951000D01*
X145227743Y-27892011D01*
X145507095Y-27776299D01*
X145758505Y-27608312D01*
X145824944Y-27541873D01*
X145830498Y-27560180D01*
X145889463Y-27670494D01*
X145968815Y-27767185D01*
X146065506Y-27846537D01*
X146175820Y-27905502D01*
X146295518Y-27941812D01*
X146420000Y-27954072D01*
X147034250Y-27951000D01*
X147193000Y-27792250D01*
X147193000Y-26543000D01*
X147173000Y-26543000D01*
X147173000Y-26289000D01*
X147193000Y-26289000D01*
X147193000Y-25039750D01*
X147034250Y-24881000D01*
X146420000Y-24877928D01*
X146295518Y-24890188D01*
X146175820Y-24926498D01*
X146065506Y-24985463D01*
X145968815Y-25064815D01*
X145889463Y-25161506D01*
X145830498Y-25271820D01*
X145824944Y-25290127D01*
X145758505Y-25223688D01*
X145507095Y-25055701D01*
X145227743Y-24939989D01*
X144931184Y-24881000D01*
X144628816Y-24881000D01*
X144332257Y-24939989D01*
X144052905Y-25055701D01*
X143801495Y-25223688D01*
X143587688Y-25437495D01*
X143419701Y-25688905D01*
X143303989Y-25968257D01*
X143252000Y-26229624D01*
X143252000Y-22845578D01*
X145118544Y-20979034D01*
X145325574Y-20937853D01*
X145586727Y-20829680D01*
X145821759Y-20672637D01*
X146021637Y-20472759D01*
X146178680Y-20237727D01*
X146286853Y-19976574D01*
X146342000Y-19699335D01*
X146342000Y-19416665D01*
X146286853Y-19139426D01*
X146178680Y-18878273D01*
X146055553Y-18694000D01*
X148162000Y-18694000D01*
X148162000Y-24878218D01*
G37*
X148162000Y-24878218D02*
X147605750Y-24881000D01*
X147447000Y-25039750D01*
X147447000Y-26289000D01*
X147467000Y-26289000D01*
X147467000Y-26543000D01*
X147447000Y-26543000D01*
X147447000Y-27792250D01*
X147605750Y-27951000D01*
X148162000Y-27953782D01*
X148162000Y-47230218D01*
X147605750Y-47233000D01*
X147447000Y-47391750D01*
X147447000Y-48641000D01*
X147467000Y-48641000D01*
X147467000Y-48895000D01*
X147447000Y-48895000D01*
X147447000Y-50144250D01*
X147605750Y-50303000D01*
X148162000Y-50305782D01*
X148162000Y-69836218D01*
X147605750Y-69839000D01*
X147447000Y-69997750D01*
X147447000Y-71247000D01*
X147467000Y-71247000D01*
X147467000Y-71501000D01*
X147447000Y-71501000D01*
X147447000Y-72750250D01*
X147605750Y-72909000D01*
X148162000Y-72911782D01*
X148162000Y-92442218D01*
X147605750Y-92445000D01*
X147447000Y-92603750D01*
X147447000Y-93853000D01*
X147467000Y-93853000D01*
X147467000Y-94107000D01*
X147447000Y-94107000D01*
X147447000Y-95356250D01*
X147605750Y-95515000D01*
X148162000Y-95517782D01*
X148162001Y-115302218D01*
X147605750Y-115305000D01*
X147447000Y-115463750D01*
X147447000Y-116713000D01*
X147467000Y-116713000D01*
X147467000Y-116967000D01*
X147447000Y-116967000D01*
X147447000Y-118216250D01*
X147605750Y-118375000D01*
X148162001Y-118377782D01*
X148162001Y-137908218D01*
X147605750Y-137911000D01*
X147447000Y-138069750D01*
X147447000Y-139319000D01*
X147467000Y-139319000D01*
X147467000Y-139573000D01*
X147447000Y-139573000D01*
X147447000Y-140822250D01*
X147605750Y-140981000D01*
X148162001Y-140983782D01*
X148162001Y-160514218D01*
X147605750Y-160517000D01*
X147447000Y-160675750D01*
X147447000Y-161925000D01*
X147467000Y-161925000D01*
X147467000Y-162179000D01*
X147447000Y-162179000D01*
X147447000Y-163428250D01*
X147605750Y-163587000D01*
X148162001Y-163589782D01*
X148162001Y-182866218D01*
X147605750Y-182869000D01*
X147447000Y-183027750D01*
X147447000Y-184277000D01*
X147467000Y-184277000D01*
X147467000Y-184531000D01*
X147447000Y-184531000D01*
X147447000Y-185780250D01*
X147605750Y-185939000D01*
X148162001Y-185941782D01*
X148162001Y-192126000D01*
X141170505Y-192126000D01*
X141310313Y-192083589D01*
X141464059Y-192001411D01*
X141598817Y-191890817D01*
X141626534Y-191857044D01*
X142835050Y-190648529D01*
X142868817Y-190620817D01*
X142979411Y-190486059D01*
X143061589Y-190332313D01*
X143112195Y-190165490D01*
X143125000Y-190035477D01*
X143125000Y-190035467D01*
X143129281Y-189992001D01*
X143125000Y-189948535D01*
X143125000Y-184252816D01*
X143245000Y-184252816D01*
X143245000Y-184555184D01*
X143303989Y-184851743D01*
X143419701Y-185131095D01*
X143587688Y-185382505D01*
X143801495Y-185596312D01*
X144052905Y-185764299D01*
X144332257Y-185880011D01*
X144628816Y-185939000D01*
X144931184Y-185939000D01*
X145227743Y-185880011D01*
X145507095Y-185764299D01*
X145758505Y-185596312D01*
X145824944Y-185529873D01*
X145830498Y-185548180D01*
X145889463Y-185658494D01*
X145968815Y-185755185D01*
X146065506Y-185834537D01*
X146175820Y-185893502D01*
X146295518Y-185929812D01*
X146420000Y-185942072D01*
X147034250Y-185939000D01*
X147193000Y-185780250D01*
X147193000Y-184531000D01*
X147173000Y-184531000D01*
X147173000Y-184277000D01*
X147193000Y-184277000D01*
X147193000Y-183027750D01*
X147034250Y-182869000D01*
X146420000Y-182865928D01*
X146295518Y-182878188D01*
X146175820Y-182914498D01*
X146065506Y-182973463D01*
X145968815Y-183052815D01*
X145889463Y-183149506D01*
X145830498Y-183259820D01*
X145824944Y-183278127D01*
X145758505Y-183211688D01*
X145507095Y-183043701D01*
X145227743Y-182927989D01*
X144931184Y-182869000D01*
X144628816Y-182869000D01*
X144332257Y-182927989D01*
X144052905Y-183043701D01*
X143801495Y-183211688D01*
X143587688Y-183425495D01*
X143419701Y-183676905D01*
X143303989Y-183956257D01*
X143245000Y-184252816D01*
X143125000Y-184252816D01*
X143125000Y-164442578D01*
X144022001Y-165339580D01*
X144022000Y-173236479D01*
X143992241Y-173256363D01*
X143792363Y-173456241D01*
X143635320Y-173691273D01*
X143527147Y-173952426D01*
X143472000Y-174229665D01*
X143472000Y-174512335D01*
X143527147Y-174789574D01*
X143635320Y-175050727D01*
X143792363Y-175285759D01*
X143992241Y-175485637D01*
X144227273Y-175642680D01*
X144488426Y-175750853D01*
X144765665Y-175806000D01*
X145048335Y-175806000D01*
X145325574Y-175750853D01*
X145586727Y-175642680D01*
X145821759Y-175485637D01*
X146021637Y-175285759D01*
X146178680Y-175050727D01*
X146286853Y-174789574D01*
X146342000Y-174512335D01*
X146342000Y-174229665D01*
X146286853Y-173952426D01*
X146178680Y-173691273D01*
X146021637Y-173456241D01*
X145821759Y-173256363D01*
X145792000Y-173236479D01*
X145792000Y-165016469D01*
X145796281Y-164973000D01*
X145792000Y-164929531D01*
X145792000Y-164929523D01*
X145779195Y-164799510D01*
X145728589Y-164632687D01*
X145728589Y-164632686D01*
X145646411Y-164478941D01*
X145563532Y-164377953D01*
X145563530Y-164377951D01*
X145535817Y-164344183D01*
X145502049Y-164316470D01*
X144772579Y-163587000D01*
X144931184Y-163587000D01*
X145227743Y-163528011D01*
X145507095Y-163412299D01*
X145758505Y-163244312D01*
X145824944Y-163177873D01*
X145830498Y-163196180D01*
X145889463Y-163306494D01*
X145968815Y-163403185D01*
X146065506Y-163482537D01*
X146175820Y-163541502D01*
X146295518Y-163577812D01*
X146420000Y-163590072D01*
X147034250Y-163587000D01*
X147193000Y-163428250D01*
X147193000Y-162179000D01*
X147173000Y-162179000D01*
X147173000Y-161925000D01*
X147193000Y-161925000D01*
X147193000Y-160675750D01*
X147034250Y-160517000D01*
X146420000Y-160513928D01*
X146295518Y-160526188D01*
X146175820Y-160562498D01*
X146065506Y-160621463D01*
X145968815Y-160700815D01*
X145889463Y-160797506D01*
X145830498Y-160907820D01*
X145824944Y-160926127D01*
X145758505Y-160859688D01*
X145507095Y-160691701D01*
X145227743Y-160575989D01*
X144931184Y-160517000D01*
X144628816Y-160517000D01*
X144332257Y-160575989D01*
X144141000Y-160655211D01*
X144141000Y-160386578D01*
X145502050Y-159025529D01*
X145535817Y-158997817D01*
X145587292Y-158935096D01*
X145646411Y-158863059D01*
X145728589Y-158709314D01*
X145779195Y-158542490D01*
X145779195Y-158542489D01*
X145792000Y-158412477D01*
X145792000Y-158412469D01*
X145796281Y-158369000D01*
X145792000Y-158325531D01*
X145792000Y-154804521D01*
X145821759Y-154784637D01*
X146021637Y-154584759D01*
X146178680Y-154349727D01*
X146286853Y-154088574D01*
X146342000Y-153811335D01*
X146342000Y-153528665D01*
X146336015Y-153498576D01*
X146446410Y-153364060D01*
X146528588Y-153210314D01*
X146579194Y-153043491D01*
X146591999Y-152913478D01*
X146591999Y-152913468D01*
X146596280Y-152870002D01*
X146591999Y-152826536D01*
X146591999Y-144226468D01*
X146596280Y-144182999D01*
X146591999Y-144139530D01*
X146591999Y-144139522D01*
X146579194Y-144009509D01*
X146528588Y-143842686D01*
X146446410Y-143688940D01*
X146335816Y-143554182D01*
X146302048Y-143526469D01*
X143379000Y-140603422D01*
X143379000Y-140074835D01*
X143419701Y-140173095D01*
X143587688Y-140424505D01*
X143801495Y-140638312D01*
X144052905Y-140806299D01*
X144332257Y-140922011D01*
X144628816Y-140981000D01*
X144931184Y-140981000D01*
X145227743Y-140922011D01*
X145507095Y-140806299D01*
X145758505Y-140638312D01*
X145824944Y-140571873D01*
X145830498Y-140590180D01*
X145889463Y-140700494D01*
X145968815Y-140797185D01*
X146065506Y-140876537D01*
X146175820Y-140935502D01*
X146295518Y-140971812D01*
X146420000Y-140984072D01*
X147034250Y-140981000D01*
X147193000Y-140822250D01*
X147193000Y-139573000D01*
X147173000Y-139573000D01*
X147173000Y-139319000D01*
X147193000Y-139319000D01*
X147193000Y-138069750D01*
X147034250Y-137911000D01*
X146420000Y-137907928D01*
X146295518Y-137920188D01*
X146175820Y-137956498D01*
X146065506Y-138015463D01*
X145968815Y-138094815D01*
X145889463Y-138191506D01*
X145830498Y-138301820D01*
X145824944Y-138320127D01*
X145758505Y-138253688D01*
X145507095Y-138085701D01*
X145227743Y-137969989D01*
X144931184Y-137911000D01*
X144628816Y-137911000D01*
X144332257Y-137969989D01*
X144052905Y-138085701D01*
X143801495Y-138253688D01*
X143587688Y-138467495D01*
X143419701Y-138718905D01*
X143379000Y-138817165D01*
X143379000Y-137780578D01*
X145502050Y-135657529D01*
X145535817Y-135629817D01*
X145646411Y-135495059D01*
X145728589Y-135341313D01*
X145779195Y-135174490D01*
X145792000Y-135044477D01*
X145792000Y-135044467D01*
X145796281Y-135001001D01*
X145792000Y-134957535D01*
X145792000Y-131055521D01*
X145821759Y-131035637D01*
X146021637Y-130835759D01*
X146178680Y-130600727D01*
X146286853Y-130339574D01*
X146342000Y-130062335D01*
X146342000Y-129779665D01*
X146286853Y-129502426D01*
X146178680Y-129241273D01*
X146021637Y-129006241D01*
X145893469Y-128878073D01*
X145906195Y-128836120D01*
X145919000Y-128706107D01*
X145919000Y-128706097D01*
X145923281Y-128662631D01*
X145919000Y-128619165D01*
X145919000Y-120947465D01*
X145923281Y-120903999D01*
X145919000Y-120860533D01*
X145919000Y-120860523D01*
X145906195Y-120730510D01*
X145855589Y-120563687D01*
X145773411Y-120409941D01*
X145662817Y-120275183D01*
X145629049Y-120247470D01*
X143379000Y-117997422D01*
X143379000Y-117468835D01*
X143419701Y-117567095D01*
X143587688Y-117818505D01*
X143801495Y-118032312D01*
X144052905Y-118200299D01*
X144332257Y-118316011D01*
X144628816Y-118375000D01*
X144931184Y-118375000D01*
X145227743Y-118316011D01*
X145507095Y-118200299D01*
X145758505Y-118032312D01*
X145824944Y-117965873D01*
X145830498Y-117984180D01*
X145889463Y-118094494D01*
X145968815Y-118191185D01*
X146065506Y-118270537D01*
X146175820Y-118329502D01*
X146295518Y-118365812D01*
X146420000Y-118378072D01*
X147034250Y-118375000D01*
X147193000Y-118216250D01*
X147193000Y-116967000D01*
X147173000Y-116967000D01*
X147173000Y-116713000D01*
X147193000Y-116713000D01*
X147193000Y-115463750D01*
X147034250Y-115305000D01*
X146420000Y-115301928D01*
X146295518Y-115314188D01*
X146175820Y-115350498D01*
X146065506Y-115409463D01*
X145968815Y-115488815D01*
X145889463Y-115585506D01*
X145830498Y-115695820D01*
X145824944Y-115714127D01*
X145758505Y-115647688D01*
X145507095Y-115479701D01*
X145227743Y-115363989D01*
X144931184Y-115305000D01*
X144628816Y-115305000D01*
X144332257Y-115363989D01*
X144052905Y-115479701D01*
X143801495Y-115647688D01*
X143587688Y-115861495D01*
X143419701Y-116112905D01*
X143379000Y-116211165D01*
X143379000Y-115428578D01*
X145502050Y-113305529D01*
X145535817Y-113277817D01*
X145584069Y-113219023D01*
X145646410Y-113143060D01*
X145646411Y-113143059D01*
X145728589Y-112989313D01*
X145779195Y-112822490D01*
X145792000Y-112692477D01*
X145792000Y-112692467D01*
X145796281Y-112649001D01*
X145792000Y-112605535D01*
X145792000Y-110100521D01*
X145821759Y-110080637D01*
X146021637Y-109880759D01*
X146178680Y-109645727D01*
X146286853Y-109384574D01*
X146342000Y-109107335D01*
X146342000Y-108824665D01*
X146286853Y-108547426D01*
X146178680Y-108286273D01*
X146021637Y-108051241D01*
X145821759Y-107851363D01*
X145792000Y-107831479D01*
X145792000Y-98214465D01*
X145796281Y-98170999D01*
X145792000Y-98127533D01*
X145792000Y-98127523D01*
X145779195Y-97997510D01*
X145728589Y-97830687D01*
X145646411Y-97676941D01*
X145535817Y-97542183D01*
X145502049Y-97514470D01*
X143379000Y-95391422D01*
X143379000Y-94608835D01*
X143419701Y-94707095D01*
X143587688Y-94958505D01*
X143801495Y-95172312D01*
X144052905Y-95340299D01*
X144332257Y-95456011D01*
X144628816Y-95515000D01*
X144931184Y-95515000D01*
X145227743Y-95456011D01*
X145507095Y-95340299D01*
X145758505Y-95172312D01*
X145824944Y-95105873D01*
X145830498Y-95124180D01*
X145889463Y-95234494D01*
X145968815Y-95331185D01*
X146065506Y-95410537D01*
X146175820Y-95469502D01*
X146295518Y-95505812D01*
X146420000Y-95518072D01*
X147034250Y-95515000D01*
X147193000Y-95356250D01*
X147193000Y-94107000D01*
X147173000Y-94107000D01*
X147173000Y-93853000D01*
X147193000Y-93853000D01*
X147193000Y-92603750D01*
X147034250Y-92445000D01*
X146420000Y-92441928D01*
X146295518Y-92454188D01*
X146175820Y-92490498D01*
X146065506Y-92549463D01*
X145968815Y-92628815D01*
X145889463Y-92725506D01*
X145830498Y-92835820D01*
X145824944Y-92854127D01*
X145758505Y-92787688D01*
X145507095Y-92619701D01*
X145227743Y-92503989D01*
X144931184Y-92445000D01*
X144628816Y-92445000D01*
X144332257Y-92503989D01*
X144052905Y-92619701D01*
X143801495Y-92787688D01*
X143587688Y-93001495D01*
X143419701Y-93252905D01*
X143379000Y-93351165D01*
X143379000Y-92314578D01*
X145502050Y-90191529D01*
X145535817Y-90163817D01*
X145646411Y-90029059D01*
X145728589Y-89875313D01*
X145779195Y-89708490D01*
X145792000Y-89578477D01*
X145792000Y-89578467D01*
X145796281Y-89535001D01*
X145792000Y-89491535D01*
X145792000Y-85970521D01*
X145821759Y-85950637D01*
X146021637Y-85750759D01*
X146178680Y-85515727D01*
X146286853Y-85254574D01*
X146342000Y-84977335D01*
X146342000Y-84694665D01*
X146286853Y-84417426D01*
X146178680Y-84156273D01*
X146021637Y-83921241D01*
X145821759Y-83721363D01*
X145792000Y-83701479D01*
X145792000Y-74846465D01*
X145796281Y-74802999D01*
X145792000Y-74759533D01*
X145792000Y-74759523D01*
X145779195Y-74629510D01*
X145728589Y-74462687D01*
X145646411Y-74308941D01*
X145535817Y-74174183D01*
X145502049Y-74146470D01*
X144116021Y-72760443D01*
X144332257Y-72850011D01*
X144628816Y-72909000D01*
X144931184Y-72909000D01*
X145227743Y-72850011D01*
X145507095Y-72734299D01*
X145758505Y-72566312D01*
X145824944Y-72499873D01*
X145830498Y-72518180D01*
X145889463Y-72628494D01*
X145968815Y-72725185D01*
X146065506Y-72804537D01*
X146175820Y-72863502D01*
X146295518Y-72899812D01*
X146420000Y-72912072D01*
X147034250Y-72909000D01*
X147193000Y-72750250D01*
X147193000Y-71501000D01*
X147173000Y-71501000D01*
X147173000Y-71247000D01*
X147193000Y-71247000D01*
X147193000Y-69997750D01*
X147034250Y-69839000D01*
X146420000Y-69835928D01*
X146295518Y-69848188D01*
X146175820Y-69884498D01*
X146065506Y-69943463D01*
X145968815Y-70022815D01*
X145889463Y-70119506D01*
X145830498Y-70229820D01*
X145824944Y-70248127D01*
X145758505Y-70181688D01*
X145507095Y-70013701D01*
X145227743Y-69897989D01*
X144931184Y-69839000D01*
X144628816Y-69839000D01*
X144332257Y-69897989D01*
X144052905Y-70013701D01*
X143801495Y-70181688D01*
X143587688Y-70395495D01*
X143419701Y-70646905D01*
X143379000Y-70745165D01*
X143379000Y-69962578D01*
X145502050Y-67839529D01*
X145535817Y-67811817D01*
X145646411Y-67677059D01*
X145728589Y-67523313D01*
X145779195Y-67356490D01*
X145792000Y-67226477D01*
X145792000Y-67226467D01*
X145796281Y-67183001D01*
X145792000Y-67139535D01*
X145792000Y-63745521D01*
X145821759Y-63725637D01*
X146021637Y-63525759D01*
X146178680Y-63290727D01*
X146286853Y-63029574D01*
X146342000Y-62752335D01*
X146342000Y-62469665D01*
X146286853Y-62192426D01*
X146178680Y-61931273D01*
X146021637Y-61696241D01*
X145821759Y-61496363D01*
X145586727Y-61339320D01*
X145325574Y-61231147D01*
X145048335Y-61176000D01*
X144765665Y-61176000D01*
X144730561Y-61182983D01*
X141933619Y-58386040D01*
X142948973Y-57370687D01*
X143055978Y-57313492D01*
X143190736Y-57202898D01*
X143218453Y-57169125D01*
X143343045Y-57044533D01*
X143376817Y-57016817D01*
X143487411Y-56882059D01*
X143569589Y-56728313D01*
X143620195Y-56561490D01*
X143633000Y-56431477D01*
X143633000Y-56431467D01*
X143637281Y-56388001D01*
X143633000Y-56344535D01*
X143633000Y-49791817D01*
X143801495Y-49960312D01*
X144052905Y-50128299D01*
X144332257Y-50244011D01*
X144628816Y-50303000D01*
X144931184Y-50303000D01*
X145227743Y-50244011D01*
X145507095Y-50128299D01*
X145758505Y-49960312D01*
X145824944Y-49893873D01*
X145830498Y-49912180D01*
X145889463Y-50022494D01*
X145968815Y-50119185D01*
X146065506Y-50198537D01*
X146175820Y-50257502D01*
X146295518Y-50293812D01*
X146420000Y-50306072D01*
X147034250Y-50303000D01*
X147193000Y-50144250D01*
X147193000Y-48895000D01*
X147173000Y-48895000D01*
X147173000Y-48641000D01*
X147193000Y-48641000D01*
X147193000Y-47391750D01*
X147034250Y-47233000D01*
X146420000Y-47229928D01*
X146295518Y-47242188D01*
X146175820Y-47278498D01*
X146065506Y-47337463D01*
X145968815Y-47416815D01*
X145889463Y-47513506D01*
X145830498Y-47623820D01*
X145824944Y-47642127D01*
X145758505Y-47575688D01*
X145507095Y-47407701D01*
X145227743Y-47291989D01*
X144931184Y-47233000D01*
X144628816Y-47233000D01*
X144332257Y-47291989D01*
X144052905Y-47407701D01*
X143801495Y-47575688D01*
X143633000Y-47744183D01*
X143633000Y-45578578D01*
X145502050Y-43709529D01*
X145535817Y-43681817D01*
X145646411Y-43547059D01*
X145728589Y-43393313D01*
X145779195Y-43226490D01*
X145792000Y-43096477D01*
X145792000Y-43096467D01*
X145796281Y-43053001D01*
X145792000Y-43009534D01*
X145792000Y-42028521D01*
X145821759Y-42008637D01*
X146021637Y-41808759D01*
X146178680Y-41573727D01*
X146286853Y-41312574D01*
X146342000Y-41035335D01*
X146342000Y-40752665D01*
X146286853Y-40475426D01*
X146178680Y-40214273D01*
X146021637Y-39979241D01*
X145981802Y-39939406D01*
X146937049Y-38984160D01*
X146970816Y-38956448D01*
X147081410Y-38821690D01*
X147163588Y-38667944D01*
X147214194Y-38501121D01*
X147226999Y-38371108D01*
X147226999Y-38371098D01*
X147231280Y-38327632D01*
X147226999Y-38284165D01*
X147226999Y-31831464D01*
X147231280Y-31787998D01*
X147226999Y-31744532D01*
X147226999Y-31744522D01*
X147214194Y-31614509D01*
X147163588Y-31447686D01*
X147081410Y-31293940D01*
X146970816Y-31159182D01*
X146937048Y-31131469D01*
X143252000Y-27446422D01*
X143252000Y-26602376D01*
X143303989Y-26863743D01*
X143419701Y-27143095D01*
X143587688Y-27394505D01*
X143801495Y-27608312D01*
X144052905Y-27776299D01*
X144332257Y-27892011D01*
X144628816Y-27951000D01*
X144931184Y-27951000D01*
X145227743Y-27892011D01*
X145507095Y-27776299D01*
X145758505Y-27608312D01*
X145824944Y-27541873D01*
X145830498Y-27560180D01*
X145889463Y-27670494D01*
X145968815Y-27767185D01*
X146065506Y-27846537D01*
X146175820Y-27905502D01*
X146295518Y-27941812D01*
X146420000Y-27954072D01*
X147034250Y-27951000D01*
X147193000Y-27792250D01*
X147193000Y-26543000D01*
X147173000Y-26543000D01*
X147173000Y-26289000D01*
X147193000Y-26289000D01*
X147193000Y-25039750D01*
X147034250Y-24881000D01*
X146420000Y-24877928D01*
X146295518Y-24890188D01*
X146175820Y-24926498D01*
X146065506Y-24985463D01*
X145968815Y-25064815D01*
X145889463Y-25161506D01*
X145830498Y-25271820D01*
X145824944Y-25290127D01*
X145758505Y-25223688D01*
X145507095Y-25055701D01*
X145227743Y-24939989D01*
X144931184Y-24881000D01*
X144628816Y-24881000D01*
X144332257Y-24939989D01*
X144052905Y-25055701D01*
X143801495Y-25223688D01*
X143587688Y-25437495D01*
X143419701Y-25688905D01*
X143303989Y-25968257D01*
X143252000Y-26229624D01*
X143252000Y-22845578D01*
X145118544Y-20979034D01*
X145325574Y-20937853D01*
X145586727Y-20829680D01*
X145821759Y-20672637D01*
X146021637Y-20472759D01*
X146178680Y-20237727D01*
X146286853Y-19976574D01*
X146342000Y-19699335D01*
X146342000Y-19416665D01*
X146286853Y-19139426D01*
X146178680Y-18878273D01*
X146055553Y-18694000D01*
X148162000Y-18694000D01*
X148162000Y-24878218D01*
G36*
X134533687Y-18736411D02*
G01*
X134379941Y-18818589D01*
X134379939Y-18818590D01*
X134379940Y-18818590D01*
X134278953Y-18901468D01*
X134278951Y-18901470D01*
X134245183Y-18929183D01*
X134217470Y-18962951D01*
X132881956Y-20298466D01*
X132848183Y-20326183D01*
X132737589Y-20460942D01*
X132655411Y-20614688D01*
X132604805Y-20781511D01*
X132592000Y-20911524D01*
X132592000Y-20911531D01*
X132587719Y-20955000D01*
X132592000Y-20998469D01*
X132592000Y-21775085D01*
X132341595Y-21878806D01*
X131949002Y-22141129D01*
X131615129Y-22475002D01*
X131352806Y-22867595D01*
X131172115Y-23303821D01*
X131127500Y-23528117D01*
X131082885Y-23303821D01*
X130902194Y-22867595D01*
X130639871Y-22475002D01*
X130305998Y-22141129D01*
X129913405Y-21878806D01*
X129477179Y-21698115D01*
X129014084Y-21606000D01*
X128541916Y-21606000D01*
X128078821Y-21698115D01*
X127642595Y-21878806D01*
X127250002Y-22141129D01*
X126916129Y-22475002D01*
X126653806Y-22867595D01*
X126473115Y-23303821D01*
X126381000Y-23766916D01*
X126381000Y-24239084D01*
X126473115Y-24702179D01*
X126653806Y-25138405D01*
X126916129Y-25530998D01*
X127250002Y-25864871D01*
X127642595Y-26127194D01*
X128078821Y-26307885D01*
X128541916Y-26400000D01*
X129014084Y-26400000D01*
X129477179Y-26307885D01*
X129913405Y-26127194D01*
X130305998Y-25864871D01*
X130639871Y-25530998D01*
X130902194Y-25138405D01*
X131082885Y-24702179D01*
X131127500Y-24477883D01*
X131172115Y-24702179D01*
X131352806Y-25138405D01*
X131615129Y-25530998D01*
X131949002Y-25864871D01*
X132341595Y-26127194D01*
X132777821Y-26307885D01*
X133240916Y-26400000D01*
X133713084Y-26400000D01*
X134176179Y-26307885D01*
X134612405Y-26127194D01*
X135004998Y-25864871D01*
X135338871Y-25530998D01*
X135601194Y-25138405D01*
X135781885Y-24702179D01*
X135826500Y-24477883D01*
X135871115Y-24702179D01*
X136051806Y-25138405D01*
X136314129Y-25530998D01*
X136648002Y-25864871D01*
X137040595Y-26127194D01*
X137476821Y-26307885D01*
X137939916Y-26400000D01*
X138412084Y-26400000D01*
X138875179Y-26307885D01*
X139311405Y-26127194D01*
X139703998Y-25864871D01*
X140037871Y-25530998D01*
X140300194Y-25138405D01*
X140480885Y-24702179D01*
X140573000Y-24239084D01*
X140573000Y-23766916D01*
X140480885Y-23303821D01*
X140300194Y-22867595D01*
X140037871Y-22475002D01*
X139703998Y-22141129D01*
X139311405Y-21878806D01*
X138875179Y-21698115D01*
X138412084Y-21606000D01*
X137939916Y-21606000D01*
X137476821Y-21698115D01*
X137040595Y-21878806D01*
X136648002Y-22141129D01*
X136314129Y-22475002D01*
X136051806Y-22867595D01*
X135871115Y-23303821D01*
X135826500Y-23528117D01*
X135781885Y-23303821D01*
X135601194Y-22867595D01*
X135338871Y-22475002D01*
X135004998Y-22141129D01*
X134612405Y-21878806D01*
X134362000Y-21775085D01*
X134362000Y-21321578D01*
X135240579Y-20443000D01*
X136152479Y-20443000D01*
X136172363Y-20472759D01*
X136372241Y-20672637D01*
X136607273Y-20829680D01*
X136868426Y-20937853D01*
X137145665Y-20993000D01*
X137428335Y-20993000D01*
X137705574Y-20937853D01*
X137966727Y-20829680D01*
X138201759Y-20672637D01*
X138401637Y-20472759D01*
X138558680Y-20237727D01*
X138666853Y-19976574D01*
X138722000Y-19699335D01*
X138722000Y-19416665D01*
X138666853Y-19139426D01*
X138558680Y-18878273D01*
X138435553Y-18694000D01*
X143758447Y-18694000D01*
X143635320Y-18878273D01*
X143527147Y-19139426D01*
X143472000Y-19416665D01*
X143472000Y-19699335D01*
X143527147Y-19976574D01*
X143553713Y-20040709D01*
X141771951Y-21822471D01*
X141738184Y-21850183D01*
X141710471Y-21883951D01*
X141710468Y-21883954D01*
X141627590Y-21984941D01*
X141545412Y-22138687D01*
X141494805Y-22305510D01*
X141477719Y-22479000D01*
X141482001Y-22522478D01*
X141482000Y-23538476D01*
X141482001Y-23538486D01*
X141482000Y-27769531D01*
X141477719Y-27813000D01*
X141482000Y-27856469D01*
X141482000Y-27856476D01*
X141494805Y-27986489D01*
X141545411Y-28153312D01*
X141627589Y-28307058D01*
X141738183Y-28441817D01*
X141771956Y-28469534D01*
X145457000Y-32154579D01*
X145456999Y-37961052D01*
X144311951Y-39106101D01*
X144278184Y-39133813D01*
X144250471Y-39167581D01*
X144250468Y-39167584D01*
X144167590Y-39268571D01*
X144085412Y-39422317D01*
X144034805Y-39589140D01*
X144017750Y-39762319D01*
X143992241Y-39779363D01*
X143792363Y-39979241D01*
X143635320Y-40214273D01*
X143527147Y-40475426D01*
X143472000Y-40752665D01*
X143472000Y-41035335D01*
X143527147Y-41312574D01*
X143635320Y-41573727D01*
X143792363Y-41808759D01*
X143992241Y-42008637D01*
X144022000Y-42028522D01*
X144022000Y-42686421D01*
X142617000Y-44091422D01*
X142617000Y-32428469D01*
X142621281Y-32385000D01*
X142617000Y-32341531D01*
X142617000Y-32341523D01*
X142604195Y-32211510D01*
X142553589Y-32044687D01*
X142471411Y-31890941D01*
X142409008Y-31814903D01*
X142388532Y-31789953D01*
X142388530Y-31789951D01*
X142360817Y-31756183D01*
X142327049Y-31728470D01*
X141626536Y-31027958D01*
X141626532Y-31027953D01*
X140377163Y-29778585D01*
X140480885Y-29528179D01*
X140573000Y-29065084D01*
X140573000Y-28592916D01*
X140480885Y-28129821D01*
X140300194Y-27693595D01*
X140037871Y-27301002D01*
X139703998Y-26967129D01*
X139311405Y-26704806D01*
X138875179Y-26524115D01*
X138412084Y-26432000D01*
X137939916Y-26432000D01*
X137476821Y-26524115D01*
X137040595Y-26704806D01*
X136648002Y-26967129D01*
X136314129Y-27301002D01*
X136051806Y-27693595D01*
X135871115Y-28129821D01*
X135826500Y-28354117D01*
X135781885Y-28129821D01*
X135601194Y-27693595D01*
X135338871Y-27301002D01*
X135004998Y-26967129D01*
X134612405Y-26704806D01*
X134176179Y-26524115D01*
X133713084Y-26432000D01*
X133240916Y-26432000D01*
X132777821Y-26524115D01*
X132341595Y-26704806D01*
X131949002Y-26967129D01*
X131615129Y-27301002D01*
X131352806Y-27693595D01*
X131172115Y-28129821D01*
X131127500Y-28354117D01*
X131082885Y-28129821D01*
X130902194Y-27693595D01*
X130639871Y-27301002D01*
X130305998Y-26967129D01*
X129913405Y-26704806D01*
X129477179Y-26524115D01*
X129014084Y-26432000D01*
X128541916Y-26432000D01*
X128078821Y-26524115D01*
X127642595Y-26704806D01*
X127250002Y-26967129D01*
X126916129Y-27301002D01*
X126653806Y-27693595D01*
X126473115Y-28129821D01*
X126381000Y-28592916D01*
X126381000Y-29065084D01*
X126473115Y-29528179D01*
X126653806Y-29964405D01*
X126916129Y-30356998D01*
X127250002Y-30690871D01*
X127642595Y-30953194D01*
X127820415Y-31026850D01*
X125642956Y-33204310D01*
X125609183Y-33232027D01*
X125498589Y-33366786D01*
X125416411Y-33520532D01*
X125365805Y-33687355D01*
X125353000Y-33817368D01*
X125353000Y-33817375D01*
X125348719Y-33860844D01*
X125353000Y-33904313D01*
X125353001Y-48833378D01*
X125348719Y-48876857D01*
X125365805Y-49050347D01*
X125416412Y-49217170D01*
X125498590Y-49370916D01*
X125581468Y-49471903D01*
X125581471Y-49471906D01*
X125609184Y-49505674D01*
X125642951Y-49533386D01*
X126576837Y-50467272D01*
X126550085Y-50531857D01*
X126329621Y-50531857D01*
X126286155Y-50527576D01*
X126242689Y-50531857D01*
X126242679Y-50531857D01*
X126112666Y-50544662D01*
X125945843Y-50595268D01*
X125792097Y-50677446D01*
X125792095Y-50677447D01*
X125792096Y-50677447D01*
X125691109Y-50760325D01*
X125691107Y-50760327D01*
X125657339Y-50788040D01*
X125629626Y-50821808D01*
X124372956Y-52078479D01*
X124339183Y-52106196D01*
X124228589Y-52240955D01*
X124146411Y-52394701D01*
X124111157Y-52510917D01*
X124098615Y-52552262D01*
X124095805Y-52561524D01*
X124083000Y-52691537D01*
X124083000Y-52691544D01*
X124078719Y-52735013D01*
X124083000Y-52778482D01*
X124083001Y-59888183D01*
X123934256Y-59788795D01*
X123745898Y-59710774D01*
X123545939Y-59671000D01*
X123342061Y-59671000D01*
X123142102Y-59710774D01*
X122953744Y-59788795D01*
X122784226Y-59902063D01*
X122640063Y-60046226D01*
X122526795Y-60215744D01*
X122448774Y-60404102D01*
X122409000Y-60604061D01*
X122409000Y-60807939D01*
X122448774Y-61007898D01*
X122526795Y-61196256D01*
X122559001Y-61244456D01*
X122559000Y-69298531D01*
X122554719Y-69342000D01*
X122559000Y-69385469D01*
X122559000Y-69385476D01*
X122571805Y-69515489D01*
X122622411Y-69682312D01*
X122704589Y-69836058D01*
X122815183Y-69970817D01*
X122848956Y-69998534D01*
X123002328Y-70151907D01*
X122706184Y-70093000D01*
X122403816Y-70093000D01*
X122107257Y-70151989D01*
X121827905Y-70267701D01*
X121576495Y-70435688D01*
X121510056Y-70502127D01*
X121504502Y-70483820D01*
X121445537Y-70373506D01*
X121366185Y-70276815D01*
X121269494Y-70197463D01*
X121159180Y-70138498D01*
X121039482Y-70102188D01*
X120915000Y-70089928D01*
X120300750Y-70093000D01*
X120142000Y-70251750D01*
X120142000Y-71501000D01*
X120162000Y-71501000D01*
X120162000Y-71755000D01*
X120142000Y-71755000D01*
X120142000Y-73004250D01*
X120300750Y-73163000D01*
X120915000Y-73166072D01*
X121039482Y-73153812D01*
X121159180Y-73117502D01*
X121269494Y-73058537D01*
X121366185Y-72979185D01*
X121445537Y-72882494D01*
X121504502Y-72772180D01*
X121510056Y-72753873D01*
X121576495Y-72820312D01*
X121827905Y-72988299D01*
X122107257Y-73104011D01*
X122403816Y-73163000D01*
X122706184Y-73163000D01*
X123002743Y-73104011D01*
X123282095Y-72988299D01*
X123533505Y-72820312D01*
X123747312Y-72606505D01*
X123915299Y-72355095D01*
X124031011Y-72075743D01*
X124090000Y-71779184D01*
X124090000Y-71476816D01*
X124031094Y-71180672D01*
X124337001Y-71486580D01*
X124337000Y-75153545D01*
X124304795Y-75201744D01*
X124226774Y-75390102D01*
X124187000Y-75590061D01*
X124187000Y-75793939D01*
X124226774Y-75993898D01*
X124304795Y-76182256D01*
X124418063Y-76351774D01*
X124562226Y-76495937D01*
X124731744Y-76609205D01*
X124920102Y-76687226D01*
X125120061Y-76727000D01*
X125323939Y-76727000D01*
X125523898Y-76687226D01*
X125712256Y-76609205D01*
X125881774Y-76495937D01*
X126025937Y-76351774D01*
X126139205Y-76182256D01*
X126217226Y-75993898D01*
X126257000Y-75793939D01*
X126257000Y-75590061D01*
X126217226Y-75390102D01*
X126139205Y-75201744D01*
X126107000Y-75153546D01*
X126107000Y-72585292D01*
X126576837Y-73055129D01*
X126473115Y-73305535D01*
X126381000Y-73768630D01*
X126381000Y-74240798D01*
X126473115Y-74703893D01*
X126653806Y-75140119D01*
X126916129Y-75532712D01*
X127250002Y-75866585D01*
X127642595Y-76128908D01*
X127820415Y-76202564D01*
X125642956Y-78380024D01*
X125609183Y-78407741D01*
X125498589Y-78542500D01*
X125416411Y-78696246D01*
X125365805Y-78863069D01*
X125353000Y-78993082D01*
X125353000Y-78993089D01*
X125348719Y-79036558D01*
X125353000Y-79080027D01*
X125353000Y-82282781D01*
X125323939Y-82277000D01*
X125120061Y-82277000D01*
X124920102Y-82316774D01*
X124731744Y-82394795D01*
X124562226Y-82508063D01*
X124418063Y-82652226D01*
X124304795Y-82821744D01*
X124226774Y-83010102D01*
X124187000Y-83210061D01*
X124187000Y-83413939D01*
X124226774Y-83613898D01*
X124304795Y-83802256D01*
X124337001Y-83850456D01*
X124337000Y-98775546D01*
X124304795Y-98823744D01*
X124226774Y-99012102D01*
X124187000Y-99212061D01*
X124187000Y-99415939D01*
X124226774Y-99615898D01*
X124304795Y-99804256D01*
X124418063Y-99973774D01*
X124562226Y-100117937D01*
X124731744Y-100231205D01*
X124920102Y-100309226D01*
X125120061Y-100349000D01*
X125323939Y-100349000D01*
X125353000Y-100343219D01*
X125353001Y-116596949D01*
X125348719Y-116640428D01*
X125365805Y-116813918D01*
X125416412Y-116980741D01*
X125498590Y-117134487D01*
X125581468Y-117235474D01*
X125581471Y-117235477D01*
X125609184Y-117269245D01*
X125642951Y-117296957D01*
X126576837Y-118230843D01*
X126473115Y-118481249D01*
X126381000Y-118944344D01*
X126381000Y-119416512D01*
X126473115Y-119879607D01*
X126576837Y-120130013D01*
X125642956Y-121063894D01*
X125609183Y-121091611D01*
X125498589Y-121226370D01*
X125416411Y-121380116D01*
X125384499Y-121485313D01*
X125365806Y-121546937D01*
X125365805Y-121546939D01*
X125353000Y-121676952D01*
X125353000Y-121676959D01*
X125348719Y-121720428D01*
X125353000Y-121763897D01*
X125353000Y-125928182D01*
X125204256Y-125828795D01*
X125015898Y-125750774D01*
X124815939Y-125711000D01*
X124612061Y-125711000D01*
X124412102Y-125750774D01*
X124223744Y-125828795D01*
X124054226Y-125942063D01*
X123910063Y-126086226D01*
X123796795Y-126255744D01*
X123718774Y-126444102D01*
X123679000Y-126644061D01*
X123679000Y-126847939D01*
X123718774Y-127047898D01*
X123796795Y-127236256D01*
X123829000Y-127284454D01*
X123829001Y-138589751D01*
X123747312Y-138467495D01*
X123533505Y-138253688D01*
X123282095Y-138085701D01*
X123002743Y-137969989D01*
X122706184Y-137911000D01*
X122403816Y-137911000D01*
X122107257Y-137969989D01*
X121827905Y-138085701D01*
X121576495Y-138253688D01*
X121510056Y-138320127D01*
X121504502Y-138301820D01*
X121445537Y-138191506D01*
X121366185Y-138094815D01*
X121269494Y-138015463D01*
X121159180Y-137956498D01*
X121039482Y-137920188D01*
X120915000Y-137907928D01*
X120300750Y-137911000D01*
X120142000Y-138069750D01*
X120142000Y-139319000D01*
X120162000Y-139319000D01*
X120162000Y-139573000D01*
X120142000Y-139573000D01*
X120142000Y-140822250D01*
X120300750Y-140981000D01*
X120915000Y-140984072D01*
X121039482Y-140971812D01*
X121159180Y-140935502D01*
X121269494Y-140876537D01*
X121366185Y-140797185D01*
X121445537Y-140700494D01*
X121504502Y-140590180D01*
X121510056Y-140571873D01*
X121576495Y-140638312D01*
X121827905Y-140806299D01*
X122107257Y-140922011D01*
X122403816Y-140981000D01*
X122706184Y-140981000D01*
X123002743Y-140922011D01*
X123282095Y-140806299D01*
X123533505Y-140638312D01*
X123747312Y-140424505D01*
X123829001Y-140302249D01*
X123829001Y-143651420D01*
X122690957Y-144789465D01*
X122634102Y-144800774D01*
X122445744Y-144878795D01*
X122276226Y-144992063D01*
X122132063Y-145136226D01*
X122018795Y-145305744D01*
X121940774Y-145494102D01*
X121901000Y-145694061D01*
X121901000Y-145897939D01*
X121940774Y-146097898D01*
X122018795Y-146286256D01*
X122132063Y-146455774D01*
X122276226Y-146599937D01*
X122445744Y-146713205D01*
X122634102Y-146791226D01*
X122834061Y-146831000D01*
X123037939Y-146831000D01*
X123237898Y-146791226D01*
X123426256Y-146713205D01*
X123595774Y-146599937D01*
X123739937Y-146455774D01*
X123853205Y-146286256D01*
X123931226Y-146097898D01*
X123942535Y-146041043D01*
X124337000Y-145646578D01*
X124337001Y-150578521D01*
X124332719Y-150622000D01*
X124349805Y-150795490D01*
X124400412Y-150962313D01*
X124482590Y-151116059D01*
X124565468Y-151217046D01*
X124565471Y-151217049D01*
X124593184Y-151250817D01*
X124626951Y-151278529D01*
X125099000Y-151750579D01*
X125099000Y-153402781D01*
X125069939Y-153397000D01*
X124866061Y-153397000D01*
X124666102Y-153436774D01*
X124477744Y-153514795D01*
X124308226Y-153628063D01*
X124164063Y-153772226D01*
X124050795Y-153941744D01*
X123972774Y-154130102D01*
X123933000Y-154330061D01*
X123933000Y-154533939D01*
X123972774Y-154733898D01*
X124050795Y-154922256D01*
X124083001Y-154970456D01*
X124083000Y-161611626D01*
X124031011Y-161350257D01*
X123915299Y-161070905D01*
X123747312Y-160819495D01*
X123533505Y-160605688D01*
X123282095Y-160437701D01*
X123002743Y-160321989D01*
X122706184Y-160263000D01*
X122403816Y-160263000D01*
X122107257Y-160321989D01*
X121827905Y-160437701D01*
X121576495Y-160605688D01*
X121510056Y-160672127D01*
X121504502Y-160653820D01*
X121445537Y-160543506D01*
X121366185Y-160446815D01*
X121269494Y-160367463D01*
X121159180Y-160308498D01*
X121039482Y-160272188D01*
X120915000Y-160259928D01*
X120300750Y-160263000D01*
X120142000Y-160421750D01*
X120142000Y-161671000D01*
X120162000Y-161671000D01*
X120162000Y-161925000D01*
X120142000Y-161925000D01*
X120142000Y-163174250D01*
X120300750Y-163333000D01*
X120915000Y-163336072D01*
X121039482Y-163323812D01*
X121159180Y-163287502D01*
X121269494Y-163228537D01*
X121366185Y-163149185D01*
X121445537Y-163052494D01*
X121504502Y-162942180D01*
X121510056Y-162923873D01*
X121576495Y-162990312D01*
X121827905Y-163158299D01*
X122107257Y-163274011D01*
X122403816Y-163333000D01*
X122706184Y-163333000D01*
X123002743Y-163274011D01*
X123282095Y-163158299D01*
X123533505Y-162990312D01*
X123747312Y-162776505D01*
X123915299Y-162525095D01*
X124031011Y-162245743D01*
X124083000Y-161984374D01*
X124083000Y-165818531D01*
X124078719Y-165862000D01*
X124083000Y-165905469D01*
X124083000Y-165905476D01*
X124092985Y-166006860D01*
X124094910Y-166026397D01*
X124095805Y-166035489D01*
X124146411Y-166202312D01*
X124228589Y-166356058D01*
X124339183Y-166490817D01*
X124372956Y-166518534D01*
X125485465Y-167631044D01*
X125496774Y-167687898D01*
X125574795Y-167876256D01*
X125688063Y-168045774D01*
X125832226Y-168189937D01*
X126001744Y-168303205D01*
X126050859Y-168323549D01*
X125388956Y-168985452D01*
X125355183Y-169013169D01*
X125244589Y-169147928D01*
X125162411Y-169301674D01*
X125111805Y-169468497D01*
X125099000Y-169598510D01*
X125099000Y-169598517D01*
X125094719Y-169641986D01*
X125099000Y-169685455D01*
X125099001Y-184106521D01*
X125094719Y-184150000D01*
X125111805Y-184323490D01*
X125162412Y-184490313D01*
X125244590Y-184644059D01*
X125327468Y-184745046D01*
X125327471Y-184745049D01*
X125355184Y-184778817D01*
X125388951Y-184806529D01*
X126576837Y-185994415D01*
X126473115Y-186244821D01*
X126381000Y-186707916D01*
X126381000Y-187180084D01*
X126473115Y-187643179D01*
X126653806Y-188079405D01*
X126916129Y-188471998D01*
X127250002Y-188805871D01*
X127642595Y-189068194D01*
X128078821Y-189248885D01*
X128541916Y-189341000D01*
X129014084Y-189341000D01*
X129477179Y-189248885D01*
X129913405Y-189068194D01*
X130305998Y-188805871D01*
X130639871Y-188471998D01*
X130902194Y-188079405D01*
X131082885Y-187643179D01*
X131127500Y-187418883D01*
X131172115Y-187643179D01*
X131352806Y-188079405D01*
X131615129Y-188471998D01*
X131949002Y-188805871D01*
X132341595Y-189068194D01*
X132592001Y-189171916D01*
X132592001Y-189392365D01*
X132587719Y-189435844D01*
X132604805Y-189609334D01*
X132655412Y-189776157D01*
X132737590Y-189929903D01*
X132820468Y-190030890D01*
X132820471Y-190030893D01*
X132848184Y-190064661D01*
X132881951Y-190092373D01*
X134646626Y-191857049D01*
X134674339Y-191890817D01*
X134708107Y-191918530D01*
X134708109Y-191918532D01*
X134809097Y-192001411D01*
X134962842Y-192083589D01*
X135102651Y-192126000D01*
X119532000Y-192126000D01*
X119532000Y-185939986D01*
X119729250Y-185939000D01*
X119888000Y-185780250D01*
X119888000Y-184531000D01*
X119868000Y-184531000D01*
X119868000Y-184277000D01*
X119888000Y-184277000D01*
X119888000Y-183027750D01*
X120142000Y-183027750D01*
X120142000Y-184277000D01*
X120162000Y-184277000D01*
X120162000Y-184531000D01*
X120142000Y-184531000D01*
X120142000Y-185780250D01*
X120300750Y-185939000D01*
X120915000Y-185942072D01*
X121039482Y-185929812D01*
X121159180Y-185893502D01*
X121269494Y-185834537D01*
X121366185Y-185755185D01*
X121445537Y-185658494D01*
X121504502Y-185548180D01*
X121510056Y-185529873D01*
X121576495Y-185596312D01*
X121827905Y-185764299D01*
X122107257Y-185880011D01*
X122403816Y-185939000D01*
X122706184Y-185939000D01*
X123002743Y-185880011D01*
X123282095Y-185764299D01*
X123533505Y-185596312D01*
X123747312Y-185382505D01*
X123915299Y-185131095D01*
X124031011Y-184851743D01*
X124090000Y-184555184D01*
X124090000Y-184252816D01*
X124031011Y-183956257D01*
X123915299Y-183676905D01*
X123747312Y-183425495D01*
X123533505Y-183211688D01*
X123282095Y-183043701D01*
X123002743Y-182927989D01*
X122706184Y-182869000D01*
X122403816Y-182869000D01*
X122107257Y-182927989D01*
X121827905Y-183043701D01*
X121576495Y-183211688D01*
X121510056Y-183278127D01*
X121504502Y-183259820D01*
X121445537Y-183149506D01*
X121366185Y-183052815D01*
X121269494Y-182973463D01*
X121159180Y-182914498D01*
X121039482Y-182878188D01*
X120915000Y-182865928D01*
X120300750Y-182869000D01*
X120142000Y-183027750D01*
X119888000Y-183027750D01*
X119729250Y-182869000D01*
X119532000Y-182868014D01*
X119532000Y-163333986D01*
X119729250Y-163333000D01*
X119888000Y-163174250D01*
X119888000Y-161925000D01*
X119868000Y-161925000D01*
X119868000Y-161671000D01*
X119888000Y-161671000D01*
X119888000Y-160421750D01*
X119729250Y-160263000D01*
X119532000Y-160262014D01*
X119532000Y-140981986D01*
X119729250Y-140981000D01*
X119888000Y-140822250D01*
X119888000Y-139573000D01*
X119868000Y-139573000D01*
X119868000Y-139319000D01*
X119888000Y-139319000D01*
X119888000Y-138069750D01*
X119729250Y-137911000D01*
X119532000Y-137910014D01*
X119532000Y-118121986D01*
X119729250Y-118121000D01*
X119888000Y-117962250D01*
X119888000Y-116713000D01*
X119868000Y-116713000D01*
X119868000Y-116459000D01*
X119888000Y-116459000D01*
X119888000Y-115209750D01*
X120142000Y-115209750D01*
X120142000Y-116459000D01*
X120162000Y-116459000D01*
X120162000Y-116713000D01*
X120142000Y-116713000D01*
X120142000Y-117962250D01*
X120300750Y-118121000D01*
X120915000Y-118124072D01*
X121039482Y-118111812D01*
X121159180Y-118075502D01*
X121269494Y-118016537D01*
X121366185Y-117937185D01*
X121445537Y-117840494D01*
X121504502Y-117730180D01*
X121510056Y-117711873D01*
X121576495Y-117778312D01*
X121827905Y-117946299D01*
X122107257Y-118062011D01*
X122403816Y-118121000D01*
X122706184Y-118121000D01*
X123002743Y-118062011D01*
X123282095Y-117946299D01*
X123533505Y-117778312D01*
X123747312Y-117564505D01*
X123915299Y-117313095D01*
X124031011Y-117033743D01*
X124090000Y-116737184D01*
X124090000Y-116434816D01*
X124031011Y-116138257D01*
X123915299Y-115858905D01*
X123747312Y-115607495D01*
X123533505Y-115393688D01*
X123282095Y-115225701D01*
X123002743Y-115109989D01*
X122706184Y-115051000D01*
X122403816Y-115051000D01*
X122107257Y-115109989D01*
X121827905Y-115225701D01*
X121576495Y-115393688D01*
X121510056Y-115460127D01*
X121504502Y-115441820D01*
X121445537Y-115331506D01*
X121366185Y-115234815D01*
X121269494Y-115155463D01*
X121159180Y-115096498D01*
X121039482Y-115060188D01*
X120915000Y-115047928D01*
X120300750Y-115051000D01*
X120142000Y-115209750D01*
X119888000Y-115209750D01*
X119729250Y-115051000D01*
X119532000Y-115050014D01*
X119532000Y-95769986D01*
X119729250Y-95769000D01*
X119888000Y-95610250D01*
X119888000Y-94361000D01*
X119868000Y-94361000D01*
X119868000Y-94107000D01*
X119888000Y-94107000D01*
X119888000Y-92857750D01*
X120142000Y-92857750D01*
X120142000Y-94107000D01*
X120162000Y-94107000D01*
X120162000Y-94361000D01*
X120142000Y-94361000D01*
X120142000Y-95610250D01*
X120300750Y-95769000D01*
X120915000Y-95772072D01*
X121039482Y-95759812D01*
X121159180Y-95723502D01*
X121269494Y-95664537D01*
X121366185Y-95585185D01*
X121445537Y-95488494D01*
X121504502Y-95378180D01*
X121510056Y-95359873D01*
X121576495Y-95426312D01*
X121827905Y-95594299D01*
X122107257Y-95710011D01*
X122403816Y-95769000D01*
X122706184Y-95769000D01*
X123002743Y-95710011D01*
X123282095Y-95594299D01*
X123533505Y-95426312D01*
X123747312Y-95212505D01*
X123915299Y-94961095D01*
X124031011Y-94681743D01*
X124090000Y-94385184D01*
X124090000Y-94082816D01*
X124031011Y-93786257D01*
X123915299Y-93506905D01*
X123747312Y-93255495D01*
X123533505Y-93041688D01*
X123282095Y-92873701D01*
X123002743Y-92757989D01*
X122706184Y-92699000D01*
X122403816Y-92699000D01*
X122107257Y-92757989D01*
X121827905Y-92873701D01*
X121576495Y-93041688D01*
X121510056Y-93108127D01*
X121504502Y-93089820D01*
X121445537Y-92979506D01*
X121366185Y-92882815D01*
X121269494Y-92803463D01*
X121159180Y-92744498D01*
X121039482Y-92708188D01*
X120915000Y-92695928D01*
X120300750Y-92699000D01*
X120142000Y-92857750D01*
X119888000Y-92857750D01*
X119729250Y-92699000D01*
X119532000Y-92698014D01*
X119532000Y-73163986D01*
X119729250Y-73163000D01*
X119888000Y-73004250D01*
X119888000Y-71755000D01*
X119868000Y-71755000D01*
X119868000Y-71501000D01*
X119888000Y-71501000D01*
X119888000Y-70251750D01*
X119729250Y-70093000D01*
X119532000Y-70092014D01*
X119532000Y-50557986D01*
X119729250Y-50557000D01*
X119888000Y-50398250D01*
X119888000Y-49149000D01*
X119868000Y-49149000D01*
X119868000Y-48895000D01*
X119888000Y-48895000D01*
X119888000Y-47645750D01*
X120142000Y-47645750D01*
X120142000Y-48895000D01*
X120162000Y-48895000D01*
X120162000Y-49149000D01*
X120142000Y-49149000D01*
X120142000Y-50398250D01*
X120300750Y-50557000D01*
X120915000Y-50560072D01*
X121039482Y-50547812D01*
X121159180Y-50511502D01*
X121269494Y-50452537D01*
X121366185Y-50373185D01*
X121445537Y-50276494D01*
X121504502Y-50166180D01*
X121510056Y-50147873D01*
X121576495Y-50214312D01*
X121827905Y-50382299D01*
X122107257Y-50498011D01*
X122403816Y-50557000D01*
X122706184Y-50557000D01*
X123002743Y-50498011D01*
X123282095Y-50382299D01*
X123533505Y-50214312D01*
X123747312Y-50000505D01*
X123915299Y-49749095D01*
X124031011Y-49469743D01*
X124090000Y-49173184D01*
X124090000Y-48870816D01*
X124031011Y-48574257D01*
X123915299Y-48294905D01*
X123747312Y-48043495D01*
X123533505Y-47829688D01*
X123282095Y-47661701D01*
X123002743Y-47545989D01*
X122706184Y-47487000D01*
X122403816Y-47487000D01*
X122107257Y-47545989D01*
X121827905Y-47661701D01*
X121576495Y-47829688D01*
X121510056Y-47896127D01*
X121504502Y-47877820D01*
X121445537Y-47767506D01*
X121366185Y-47670815D01*
X121269494Y-47591463D01*
X121159180Y-47532498D01*
X121039482Y-47496188D01*
X120915000Y-47483928D01*
X120300750Y-47487000D01*
X120142000Y-47645750D01*
X119888000Y-47645750D01*
X119729250Y-47487000D01*
X119532000Y-47486014D01*
X119532000Y-27951986D01*
X119729250Y-27951000D01*
X119888000Y-27792250D01*
X119888000Y-26543000D01*
X119868000Y-26543000D01*
X119868000Y-26289000D01*
X119888000Y-26289000D01*
X119888000Y-25039750D01*
X120142000Y-25039750D01*
X120142000Y-26289000D01*
X120162000Y-26289000D01*
X120162000Y-26543000D01*
X120142000Y-26543000D01*
X120142000Y-27792250D01*
X120300750Y-27951000D01*
X120915000Y-27954072D01*
X121039482Y-27941812D01*
X121159180Y-27905502D01*
X121269494Y-27846537D01*
X121366185Y-27767185D01*
X121445537Y-27670494D01*
X121504502Y-27560180D01*
X121510056Y-27541873D01*
X121576495Y-27608312D01*
X121827905Y-27776299D01*
X122107257Y-27892011D01*
X122403816Y-27951000D01*
X122706184Y-27951000D01*
X123002743Y-27892011D01*
X123282095Y-27776299D01*
X123533505Y-27608312D01*
X123747312Y-27394505D01*
X123915299Y-27143095D01*
X124031011Y-26863743D01*
X124090000Y-26567184D01*
X124090000Y-26264816D01*
X124031011Y-25968257D01*
X123915299Y-25688905D01*
X123747312Y-25437495D01*
X123533505Y-25223688D01*
X123282095Y-25055701D01*
X123002743Y-24939989D01*
X122706184Y-24881000D01*
X122403816Y-24881000D01*
X122107257Y-24939989D01*
X121827905Y-25055701D01*
X121576495Y-25223688D01*
X121510056Y-25290127D01*
X121504502Y-25271820D01*
X121445537Y-25161506D01*
X121366185Y-25064815D01*
X121269494Y-24985463D01*
X121159180Y-24926498D01*
X121039482Y-24890188D01*
X120915000Y-24877928D01*
X120300750Y-24881000D01*
X120142000Y-25039750D01*
X119888000Y-25039750D01*
X119729250Y-24881000D01*
X119532000Y-24880014D01*
X119532000Y-18694000D01*
X134673495Y-18694000D01*
X134533687Y-18736411D01*
G37*
X134533687Y-18736411D02*
X134379941Y-18818589D01*
X134379939Y-18818590D01*
X134379940Y-18818590D01*
X134278953Y-18901468D01*
X134278951Y-18901470D01*
X134245183Y-18929183D01*
X134217470Y-18962951D01*
X132881956Y-20298466D01*
X132848183Y-20326183D01*
X132737589Y-20460942D01*
X132655411Y-20614688D01*
X132604805Y-20781511D01*
X132592000Y-20911524D01*
X132592000Y-20911531D01*
X132587719Y-20955000D01*
X132592000Y-20998469D01*
X132592000Y-21775085D01*
X132341595Y-21878806D01*
X131949002Y-22141129D01*
X131615129Y-22475002D01*
X131352806Y-22867595D01*
X131172115Y-23303821D01*
X131127500Y-23528117D01*
X131082885Y-23303821D01*
X130902194Y-22867595D01*
X130639871Y-22475002D01*
X130305998Y-22141129D01*
X129913405Y-21878806D01*
X129477179Y-21698115D01*
X129014084Y-21606000D01*
X128541916Y-21606000D01*
X128078821Y-21698115D01*
X127642595Y-21878806D01*
X127250002Y-22141129D01*
X126916129Y-22475002D01*
X126653806Y-22867595D01*
X126473115Y-23303821D01*
X126381000Y-23766916D01*
X126381000Y-24239084D01*
X126473115Y-24702179D01*
X126653806Y-25138405D01*
X126916129Y-25530998D01*
X127250002Y-25864871D01*
X127642595Y-26127194D01*
X128078821Y-26307885D01*
X128541916Y-26400000D01*
X129014084Y-26400000D01*
X129477179Y-26307885D01*
X129913405Y-26127194D01*
X130305998Y-25864871D01*
X130639871Y-25530998D01*
X130902194Y-25138405D01*
X131082885Y-24702179D01*
X131127500Y-24477883D01*
X131172115Y-24702179D01*
X131352806Y-25138405D01*
X131615129Y-25530998D01*
X131949002Y-25864871D01*
X132341595Y-26127194D01*
X132777821Y-26307885D01*
X133240916Y-26400000D01*
X133713084Y-26400000D01*
X134176179Y-26307885D01*
X134612405Y-26127194D01*
X135004998Y-25864871D01*
X135338871Y-25530998D01*
X135601194Y-25138405D01*
X135781885Y-24702179D01*
X135826500Y-24477883D01*
X135871115Y-24702179D01*
X136051806Y-25138405D01*
X136314129Y-25530998D01*
X136648002Y-25864871D01*
X137040595Y-26127194D01*
X137476821Y-26307885D01*
X137939916Y-26400000D01*
X138412084Y-26400000D01*
X138875179Y-26307885D01*
X139311405Y-26127194D01*
X139703998Y-25864871D01*
X140037871Y-25530998D01*
X140300194Y-25138405D01*
X140480885Y-24702179D01*
X140573000Y-24239084D01*
X140573000Y-23766916D01*
X140480885Y-23303821D01*
X140300194Y-22867595D01*
X140037871Y-22475002D01*
X139703998Y-22141129D01*
X139311405Y-21878806D01*
X138875179Y-21698115D01*
X138412084Y-21606000D01*
X137939916Y-21606000D01*
X137476821Y-21698115D01*
X137040595Y-21878806D01*
X136648002Y-22141129D01*
X136314129Y-22475002D01*
X136051806Y-22867595D01*
X135871115Y-23303821D01*
X135826500Y-23528117D01*
X135781885Y-23303821D01*
X135601194Y-22867595D01*
X135338871Y-22475002D01*
X135004998Y-22141129D01*
X134612405Y-21878806D01*
X134362000Y-21775085D01*
X134362000Y-21321578D01*
X135240579Y-20443000D01*
X136152479Y-20443000D01*
X136172363Y-20472759D01*
X136372241Y-20672637D01*
X136607273Y-20829680D01*
X136868426Y-20937853D01*
X137145665Y-20993000D01*
X137428335Y-20993000D01*
X137705574Y-20937853D01*
X137966727Y-20829680D01*
X138201759Y-20672637D01*
X138401637Y-20472759D01*
X138558680Y-20237727D01*
X138666853Y-19976574D01*
X138722000Y-19699335D01*
X138722000Y-19416665D01*
X138666853Y-19139426D01*
X138558680Y-18878273D01*
X138435553Y-18694000D01*
X143758447Y-18694000D01*
X143635320Y-18878273D01*
X143527147Y-19139426D01*
X143472000Y-19416665D01*
X143472000Y-19699335D01*
X143527147Y-19976574D01*
X143553713Y-20040709D01*
X141771951Y-21822471D01*
X141738184Y-21850183D01*
X141710471Y-21883951D01*
X141710468Y-21883954D01*
X141627590Y-21984941D01*
X141545412Y-22138687D01*
X141494805Y-22305510D01*
X141477719Y-22479000D01*
X141482001Y-22522478D01*
X141482000Y-23538476D01*
X141482001Y-23538486D01*
X141482000Y-27769531D01*
X141477719Y-27813000D01*
X141482000Y-27856469D01*
X141482000Y-27856476D01*
X141494805Y-27986489D01*
X141545411Y-28153312D01*
X141627589Y-28307058D01*
X141738183Y-28441817D01*
X141771956Y-28469534D01*
X145457000Y-32154579D01*
X145456999Y-37961052D01*
X144311951Y-39106101D01*
X144278184Y-39133813D01*
X144250471Y-39167581D01*
X144250468Y-39167584D01*
X144167590Y-39268571D01*
X144085412Y-39422317D01*
X144034805Y-39589140D01*
X144017750Y-39762319D01*
X143992241Y-39779363D01*
X143792363Y-39979241D01*
X143635320Y-40214273D01*
X143527147Y-40475426D01*
X143472000Y-40752665D01*
X143472000Y-41035335D01*
X143527147Y-41312574D01*
X143635320Y-41573727D01*
X143792363Y-41808759D01*
X143992241Y-42008637D01*
X144022000Y-42028522D01*
X144022000Y-42686421D01*
X142617000Y-44091422D01*
X142617000Y-32428469D01*
X142621281Y-32385000D01*
X142617000Y-32341531D01*
X142617000Y-32341523D01*
X142604195Y-32211510D01*
X142553589Y-32044687D01*
X142471411Y-31890941D01*
X142409008Y-31814903D01*
X142388532Y-31789953D01*
X142388530Y-31789951D01*
X142360817Y-31756183D01*
X142327049Y-31728470D01*
X141626536Y-31027958D01*
X141626532Y-31027953D01*
X140377163Y-29778585D01*
X140480885Y-29528179D01*
X140573000Y-29065084D01*
X140573000Y-28592916D01*
X140480885Y-28129821D01*
X140300194Y-27693595D01*
X140037871Y-27301002D01*
X139703998Y-26967129D01*
X139311405Y-26704806D01*
X138875179Y-26524115D01*
X138412084Y-26432000D01*
X137939916Y-26432000D01*
X137476821Y-26524115D01*
X137040595Y-26704806D01*
X136648002Y-26967129D01*
X136314129Y-27301002D01*
X136051806Y-27693595D01*
X135871115Y-28129821D01*
X135826500Y-28354117D01*
X135781885Y-28129821D01*
X135601194Y-27693595D01*
X135338871Y-27301002D01*
X135004998Y-26967129D01*
X134612405Y-26704806D01*
X134176179Y-26524115D01*
X133713084Y-26432000D01*
X133240916Y-26432000D01*
X132777821Y-26524115D01*
X132341595Y-26704806D01*
X131949002Y-26967129D01*
X131615129Y-27301002D01*
X131352806Y-27693595D01*
X131172115Y-28129821D01*
X131127500Y-28354117D01*
X131082885Y-28129821D01*
X130902194Y-27693595D01*
X130639871Y-27301002D01*
X130305998Y-26967129D01*
X129913405Y-26704806D01*
X129477179Y-26524115D01*
X129014084Y-26432000D01*
X128541916Y-26432000D01*
X128078821Y-26524115D01*
X127642595Y-26704806D01*
X127250002Y-26967129D01*
X126916129Y-27301002D01*
X126653806Y-27693595D01*
X126473115Y-28129821D01*
X126381000Y-28592916D01*
X126381000Y-29065084D01*
X126473115Y-29528179D01*
X126653806Y-29964405D01*
X126916129Y-30356998D01*
X127250002Y-30690871D01*
X127642595Y-30953194D01*
X127820415Y-31026850D01*
X125642956Y-33204310D01*
X125609183Y-33232027D01*
X125498589Y-33366786D01*
X125416411Y-33520532D01*
X125365805Y-33687355D01*
X125353000Y-33817368D01*
X125353000Y-33817375D01*
X125348719Y-33860844D01*
X125353000Y-33904313D01*
X125353001Y-48833378D01*
X125348719Y-48876857D01*
X125365805Y-49050347D01*
X125416412Y-49217170D01*
X125498590Y-49370916D01*
X125581468Y-49471903D01*
X125581471Y-49471906D01*
X125609184Y-49505674D01*
X125642951Y-49533386D01*
X126576837Y-50467272D01*
X126550085Y-50531857D01*
X126329621Y-50531857D01*
X126286155Y-50527576D01*
X126242689Y-50531857D01*
X126242679Y-50531857D01*
X126112666Y-50544662D01*
X125945843Y-50595268D01*
X125792097Y-50677446D01*
X125792095Y-50677447D01*
X125792096Y-50677447D01*
X125691109Y-50760325D01*
X125691107Y-50760327D01*
X125657339Y-50788040D01*
X125629626Y-50821808D01*
X124372956Y-52078479D01*
X124339183Y-52106196D01*
X124228589Y-52240955D01*
X124146411Y-52394701D01*
X124111157Y-52510917D01*
X124098615Y-52552262D01*
X124095805Y-52561524D01*
X124083000Y-52691537D01*
X124083000Y-52691544D01*
X124078719Y-52735013D01*
X124083000Y-52778482D01*
X124083001Y-59888183D01*
X123934256Y-59788795D01*
X123745898Y-59710774D01*
X123545939Y-59671000D01*
X123342061Y-59671000D01*
X123142102Y-59710774D01*
X122953744Y-59788795D01*
X122784226Y-59902063D01*
X122640063Y-60046226D01*
X122526795Y-60215744D01*
X122448774Y-60404102D01*
X122409000Y-60604061D01*
X122409000Y-60807939D01*
X122448774Y-61007898D01*
X122526795Y-61196256D01*
X122559001Y-61244456D01*
X122559000Y-69298531D01*
X122554719Y-69342000D01*
X122559000Y-69385469D01*
X122559000Y-69385476D01*
X122571805Y-69515489D01*
X122622411Y-69682312D01*
X122704589Y-69836058D01*
X122815183Y-69970817D01*
X122848956Y-69998534D01*
X123002328Y-70151907D01*
X122706184Y-70093000D01*
X122403816Y-70093000D01*
X122107257Y-70151989D01*
X121827905Y-70267701D01*
X121576495Y-70435688D01*
X121510056Y-70502127D01*
X121504502Y-70483820D01*
X121445537Y-70373506D01*
X121366185Y-70276815D01*
X121269494Y-70197463D01*
X121159180Y-70138498D01*
X121039482Y-70102188D01*
X120915000Y-70089928D01*
X120300750Y-70093000D01*
X120142000Y-70251750D01*
X120142000Y-71501000D01*
X120162000Y-71501000D01*
X120162000Y-71755000D01*
X120142000Y-71755000D01*
X120142000Y-73004250D01*
X120300750Y-73163000D01*
X120915000Y-73166072D01*
X121039482Y-73153812D01*
X121159180Y-73117502D01*
X121269494Y-73058537D01*
X121366185Y-72979185D01*
X121445537Y-72882494D01*
X121504502Y-72772180D01*
X121510056Y-72753873D01*
X121576495Y-72820312D01*
X121827905Y-72988299D01*
X122107257Y-73104011D01*
X122403816Y-73163000D01*
X122706184Y-73163000D01*
X123002743Y-73104011D01*
X123282095Y-72988299D01*
X123533505Y-72820312D01*
X123747312Y-72606505D01*
X123915299Y-72355095D01*
X124031011Y-72075743D01*
X124090000Y-71779184D01*
X124090000Y-71476816D01*
X124031094Y-71180672D01*
X124337001Y-71486580D01*
X124337000Y-75153545D01*
X124304795Y-75201744D01*
X124226774Y-75390102D01*
X124187000Y-75590061D01*
X124187000Y-75793939D01*
X124226774Y-75993898D01*
X124304795Y-76182256D01*
X124418063Y-76351774D01*
X124562226Y-76495937D01*
X124731744Y-76609205D01*
X124920102Y-76687226D01*
X125120061Y-76727000D01*
X125323939Y-76727000D01*
X125523898Y-76687226D01*
X125712256Y-76609205D01*
X125881774Y-76495937D01*
X126025937Y-76351774D01*
X126139205Y-76182256D01*
X126217226Y-75993898D01*
X126257000Y-75793939D01*
X126257000Y-75590061D01*
X126217226Y-75390102D01*
X126139205Y-75201744D01*
X126107000Y-75153546D01*
X126107000Y-72585292D01*
X126576837Y-73055129D01*
X126473115Y-73305535D01*
X126381000Y-73768630D01*
X126381000Y-74240798D01*
X126473115Y-74703893D01*
X126653806Y-75140119D01*
X126916129Y-75532712D01*
X127250002Y-75866585D01*
X127642595Y-76128908D01*
X127820415Y-76202564D01*
X125642956Y-78380024D01*
X125609183Y-78407741D01*
X125498589Y-78542500D01*
X125416411Y-78696246D01*
X125365805Y-78863069D01*
X125353000Y-78993082D01*
X125353000Y-78993089D01*
X125348719Y-79036558D01*
X125353000Y-79080027D01*
X125353000Y-82282781D01*
X125323939Y-82277000D01*
X125120061Y-82277000D01*
X124920102Y-82316774D01*
X124731744Y-82394795D01*
X124562226Y-82508063D01*
X124418063Y-82652226D01*
X124304795Y-82821744D01*
X124226774Y-83010102D01*
X124187000Y-83210061D01*
X124187000Y-83413939D01*
X124226774Y-83613898D01*
X124304795Y-83802256D01*
X124337001Y-83850456D01*
X124337000Y-98775546D01*
X124304795Y-98823744D01*
X124226774Y-99012102D01*
X124187000Y-99212061D01*
X124187000Y-99415939D01*
X124226774Y-99615898D01*
X124304795Y-99804256D01*
X124418063Y-99973774D01*
X124562226Y-100117937D01*
X124731744Y-100231205D01*
X124920102Y-100309226D01*
X125120061Y-100349000D01*
X125323939Y-100349000D01*
X125353000Y-100343219D01*
X125353001Y-116596949D01*
X125348719Y-116640428D01*
X125365805Y-116813918D01*
X125416412Y-116980741D01*
X125498590Y-117134487D01*
X125581468Y-117235474D01*
X125581471Y-117235477D01*
X125609184Y-117269245D01*
X125642951Y-117296957D01*
X126576837Y-118230843D01*
X126473115Y-118481249D01*
X126381000Y-118944344D01*
X126381000Y-119416512D01*
X126473115Y-119879607D01*
X126576837Y-120130013D01*
X125642956Y-121063894D01*
X125609183Y-121091611D01*
X125498589Y-121226370D01*
X125416411Y-121380116D01*
X125384499Y-121485313D01*
X125365806Y-121546937D01*
X125365805Y-121546939D01*
X125353000Y-121676952D01*
X125353000Y-121676959D01*
X125348719Y-121720428D01*
X125353000Y-121763897D01*
X125353000Y-125928182D01*
X125204256Y-125828795D01*
X125015898Y-125750774D01*
X124815939Y-125711000D01*
X124612061Y-125711000D01*
X124412102Y-125750774D01*
X124223744Y-125828795D01*
X124054226Y-125942063D01*
X123910063Y-126086226D01*
X123796795Y-126255744D01*
X123718774Y-126444102D01*
X123679000Y-126644061D01*
X123679000Y-126847939D01*
X123718774Y-127047898D01*
X123796795Y-127236256D01*
X123829000Y-127284454D01*
X123829001Y-138589751D01*
X123747312Y-138467495D01*
X123533505Y-138253688D01*
X123282095Y-138085701D01*
X123002743Y-137969989D01*
X122706184Y-137911000D01*
X122403816Y-137911000D01*
X122107257Y-137969989D01*
X121827905Y-138085701D01*
X121576495Y-138253688D01*
X121510056Y-138320127D01*
X121504502Y-138301820D01*
X121445537Y-138191506D01*
X121366185Y-138094815D01*
X121269494Y-138015463D01*
X121159180Y-137956498D01*
X121039482Y-137920188D01*
X120915000Y-137907928D01*
X120300750Y-137911000D01*
X120142000Y-138069750D01*
X120142000Y-139319000D01*
X120162000Y-139319000D01*
X120162000Y-139573000D01*
X120142000Y-139573000D01*
X120142000Y-140822250D01*
X120300750Y-140981000D01*
X120915000Y-140984072D01*
X121039482Y-140971812D01*
X121159180Y-140935502D01*
X121269494Y-140876537D01*
X121366185Y-140797185D01*
X121445537Y-140700494D01*
X121504502Y-140590180D01*
X121510056Y-140571873D01*
X121576495Y-140638312D01*
X121827905Y-140806299D01*
X122107257Y-140922011D01*
X122403816Y-140981000D01*
X122706184Y-140981000D01*
X123002743Y-140922011D01*
X123282095Y-140806299D01*
X123533505Y-140638312D01*
X123747312Y-140424505D01*
X123829001Y-140302249D01*
X123829001Y-143651420D01*
X122690957Y-144789465D01*
X122634102Y-144800774D01*
X122445744Y-144878795D01*
X122276226Y-144992063D01*
X122132063Y-145136226D01*
X122018795Y-145305744D01*
X121940774Y-145494102D01*
X121901000Y-145694061D01*
X121901000Y-145897939D01*
X121940774Y-146097898D01*
X122018795Y-146286256D01*
X122132063Y-146455774D01*
X122276226Y-146599937D01*
X122445744Y-146713205D01*
X122634102Y-146791226D01*
X122834061Y-146831000D01*
X123037939Y-146831000D01*
X123237898Y-146791226D01*
X123426256Y-146713205D01*
X123595774Y-146599937D01*
X123739937Y-146455774D01*
X123853205Y-146286256D01*
X123931226Y-146097898D01*
X123942535Y-146041043D01*
X124337000Y-145646578D01*
X124337001Y-150578521D01*
X124332719Y-150622000D01*
X124349805Y-150795490D01*
X124400412Y-150962313D01*
X124482590Y-151116059D01*
X124565468Y-151217046D01*
X124565471Y-151217049D01*
X124593184Y-151250817D01*
X124626951Y-151278529D01*
X125099000Y-151750579D01*
X125099000Y-153402781D01*
X125069939Y-153397000D01*
X124866061Y-153397000D01*
X124666102Y-153436774D01*
X124477744Y-153514795D01*
X124308226Y-153628063D01*
X124164063Y-153772226D01*
X124050795Y-153941744D01*
X123972774Y-154130102D01*
X123933000Y-154330061D01*
X123933000Y-154533939D01*
X123972774Y-154733898D01*
X124050795Y-154922256D01*
X124083001Y-154970456D01*
X124083000Y-161611626D01*
X124031011Y-161350257D01*
X123915299Y-161070905D01*
X123747312Y-160819495D01*
X123533505Y-160605688D01*
X123282095Y-160437701D01*
X123002743Y-160321989D01*
X122706184Y-160263000D01*
X122403816Y-160263000D01*
X122107257Y-160321989D01*
X121827905Y-160437701D01*
X121576495Y-160605688D01*
X121510056Y-160672127D01*
X121504502Y-160653820D01*
X121445537Y-160543506D01*
X121366185Y-160446815D01*
X121269494Y-160367463D01*
X121159180Y-160308498D01*
X121039482Y-160272188D01*
X120915000Y-160259928D01*
X120300750Y-160263000D01*
X120142000Y-160421750D01*
X120142000Y-161671000D01*
X120162000Y-161671000D01*
X120162000Y-161925000D01*
X120142000Y-161925000D01*
X120142000Y-163174250D01*
X120300750Y-163333000D01*
X120915000Y-163336072D01*
X121039482Y-163323812D01*
X121159180Y-163287502D01*
X121269494Y-163228537D01*
X121366185Y-163149185D01*
X121445537Y-163052494D01*
X121504502Y-162942180D01*
X121510056Y-162923873D01*
X121576495Y-162990312D01*
X121827905Y-163158299D01*
X122107257Y-163274011D01*
X122403816Y-163333000D01*
X122706184Y-163333000D01*
X123002743Y-163274011D01*
X123282095Y-163158299D01*
X123533505Y-162990312D01*
X123747312Y-162776505D01*
X123915299Y-162525095D01*
X124031011Y-162245743D01*
X124083000Y-161984374D01*
X124083000Y-165818531D01*
X124078719Y-165862000D01*
X124083000Y-165905469D01*
X124083000Y-165905476D01*
X124092985Y-166006860D01*
X124094910Y-166026397D01*
X124095805Y-166035489D01*
X124146411Y-166202312D01*
X124228589Y-166356058D01*
X124339183Y-166490817D01*
X124372956Y-166518534D01*
X125485465Y-167631044D01*
X125496774Y-167687898D01*
X125574795Y-167876256D01*
X125688063Y-168045774D01*
X125832226Y-168189937D01*
X126001744Y-168303205D01*
X126050859Y-168323549D01*
X125388956Y-168985452D01*
X125355183Y-169013169D01*
X125244589Y-169147928D01*
X125162411Y-169301674D01*
X125111805Y-169468497D01*
X125099000Y-169598510D01*
X125099000Y-169598517D01*
X125094719Y-169641986D01*
X125099000Y-169685455D01*
X125099001Y-184106521D01*
X125094719Y-184150000D01*
X125111805Y-184323490D01*
X125162412Y-184490313D01*
X125244590Y-184644059D01*
X125327468Y-184745046D01*
X125327471Y-184745049D01*
X125355184Y-184778817D01*
X125388951Y-184806529D01*
X126576837Y-185994415D01*
X126473115Y-186244821D01*
X126381000Y-186707916D01*
X126381000Y-187180084D01*
X126473115Y-187643179D01*
X126653806Y-188079405D01*
X126916129Y-188471998D01*
X127250002Y-188805871D01*
X127642595Y-189068194D01*
X128078821Y-189248885D01*
X128541916Y-189341000D01*
X129014084Y-189341000D01*
X129477179Y-189248885D01*
X129913405Y-189068194D01*
X130305998Y-188805871D01*
X130639871Y-188471998D01*
X130902194Y-188079405D01*
X131082885Y-187643179D01*
X131127500Y-187418883D01*
X131172115Y-187643179D01*
X131352806Y-188079405D01*
X131615129Y-188471998D01*
X131949002Y-188805871D01*
X132341595Y-189068194D01*
X132592001Y-189171916D01*
X132592001Y-189392365D01*
X132587719Y-189435844D01*
X132604805Y-189609334D01*
X132655412Y-189776157D01*
X132737590Y-189929903D01*
X132820468Y-190030890D01*
X132820471Y-190030893D01*
X132848184Y-190064661D01*
X132881951Y-190092373D01*
X134646626Y-191857049D01*
X134674339Y-191890817D01*
X134708107Y-191918530D01*
X134708109Y-191918532D01*
X134809097Y-192001411D01*
X134962842Y-192083589D01*
X135102651Y-192126000D01*
X119532000Y-192126000D01*
X119532000Y-185939986D01*
X119729250Y-185939000D01*
X119888000Y-185780250D01*
X119888000Y-184531000D01*
X119868000Y-184531000D01*
X119868000Y-184277000D01*
X119888000Y-184277000D01*
X119888000Y-183027750D01*
X120142000Y-183027750D01*
X120142000Y-184277000D01*
X120162000Y-184277000D01*
X120162000Y-184531000D01*
X120142000Y-184531000D01*
X120142000Y-185780250D01*
X120300750Y-185939000D01*
X120915000Y-185942072D01*
X121039482Y-185929812D01*
X121159180Y-185893502D01*
X121269494Y-185834537D01*
X121366185Y-185755185D01*
X121445537Y-185658494D01*
X121504502Y-185548180D01*
X121510056Y-185529873D01*
X121576495Y-185596312D01*
X121827905Y-185764299D01*
X122107257Y-185880011D01*
X122403816Y-185939000D01*
X122706184Y-185939000D01*
X123002743Y-185880011D01*
X123282095Y-185764299D01*
X123533505Y-185596312D01*
X123747312Y-185382505D01*
X123915299Y-185131095D01*
X124031011Y-184851743D01*
X124090000Y-184555184D01*
X124090000Y-184252816D01*
X124031011Y-183956257D01*
X123915299Y-183676905D01*
X123747312Y-183425495D01*
X123533505Y-183211688D01*
X123282095Y-183043701D01*
X123002743Y-182927989D01*
X122706184Y-182869000D01*
X122403816Y-182869000D01*
X122107257Y-182927989D01*
X121827905Y-183043701D01*
X121576495Y-183211688D01*
X121510056Y-183278127D01*
X121504502Y-183259820D01*
X121445537Y-183149506D01*
X121366185Y-183052815D01*
X121269494Y-182973463D01*
X121159180Y-182914498D01*
X121039482Y-182878188D01*
X120915000Y-182865928D01*
X120300750Y-182869000D01*
X120142000Y-183027750D01*
X119888000Y-183027750D01*
X119729250Y-182869000D01*
X119532000Y-182868014D01*
X119532000Y-163333986D01*
X119729250Y-163333000D01*
X119888000Y-163174250D01*
X119888000Y-161925000D01*
X119868000Y-161925000D01*
X119868000Y-161671000D01*
X119888000Y-161671000D01*
X119888000Y-160421750D01*
X119729250Y-160263000D01*
X119532000Y-160262014D01*
X119532000Y-140981986D01*
X119729250Y-140981000D01*
X119888000Y-140822250D01*
X119888000Y-139573000D01*
X119868000Y-139573000D01*
X119868000Y-139319000D01*
X119888000Y-139319000D01*
X119888000Y-138069750D01*
X119729250Y-137911000D01*
X119532000Y-137910014D01*
X119532000Y-118121986D01*
X119729250Y-118121000D01*
X119888000Y-117962250D01*
X119888000Y-116713000D01*
X119868000Y-116713000D01*
X119868000Y-116459000D01*
X119888000Y-116459000D01*
X119888000Y-115209750D01*
X120142000Y-115209750D01*
X120142000Y-116459000D01*
X120162000Y-116459000D01*
X120162000Y-116713000D01*
X120142000Y-116713000D01*
X120142000Y-117962250D01*
X120300750Y-118121000D01*
X120915000Y-118124072D01*
X121039482Y-118111812D01*
X121159180Y-118075502D01*
X121269494Y-118016537D01*
X121366185Y-117937185D01*
X121445537Y-117840494D01*
X121504502Y-117730180D01*
X121510056Y-117711873D01*
X121576495Y-117778312D01*
X121827905Y-117946299D01*
X122107257Y-118062011D01*
X122403816Y-118121000D01*
X122706184Y-118121000D01*
X123002743Y-118062011D01*
X123282095Y-117946299D01*
X123533505Y-117778312D01*
X123747312Y-117564505D01*
X123915299Y-117313095D01*
X124031011Y-117033743D01*
X124090000Y-116737184D01*
X124090000Y-116434816D01*
X124031011Y-116138257D01*
X123915299Y-115858905D01*
X123747312Y-115607495D01*
X123533505Y-115393688D01*
X123282095Y-115225701D01*
X123002743Y-115109989D01*
X122706184Y-115051000D01*
X122403816Y-115051000D01*
X122107257Y-115109989D01*
X121827905Y-115225701D01*
X121576495Y-115393688D01*
X121510056Y-115460127D01*
X121504502Y-115441820D01*
X121445537Y-115331506D01*
X121366185Y-115234815D01*
X121269494Y-115155463D01*
X121159180Y-115096498D01*
X121039482Y-115060188D01*
X120915000Y-115047928D01*
X120300750Y-115051000D01*
X120142000Y-115209750D01*
X119888000Y-115209750D01*
X119729250Y-115051000D01*
X119532000Y-115050014D01*
X119532000Y-95769986D01*
X119729250Y-95769000D01*
X119888000Y-95610250D01*
X119888000Y-94361000D01*
X119868000Y-94361000D01*
X119868000Y-94107000D01*
X119888000Y-94107000D01*
X119888000Y-92857750D01*
X120142000Y-92857750D01*
X120142000Y-94107000D01*
X120162000Y-94107000D01*
X120162000Y-94361000D01*
X120142000Y-94361000D01*
X120142000Y-95610250D01*
X120300750Y-95769000D01*
X120915000Y-95772072D01*
X121039482Y-95759812D01*
X121159180Y-95723502D01*
X121269494Y-95664537D01*
X121366185Y-95585185D01*
X121445537Y-95488494D01*
X121504502Y-95378180D01*
X121510056Y-95359873D01*
X121576495Y-95426312D01*
X121827905Y-95594299D01*
X122107257Y-95710011D01*
X122403816Y-95769000D01*
X122706184Y-95769000D01*
X123002743Y-95710011D01*
X123282095Y-95594299D01*
X123533505Y-95426312D01*
X123747312Y-95212505D01*
X123915299Y-94961095D01*
X124031011Y-94681743D01*
X124090000Y-94385184D01*
X124090000Y-94082816D01*
X124031011Y-93786257D01*
X123915299Y-93506905D01*
X123747312Y-93255495D01*
X123533505Y-93041688D01*
X123282095Y-92873701D01*
X123002743Y-92757989D01*
X122706184Y-92699000D01*
X122403816Y-92699000D01*
X122107257Y-92757989D01*
X121827905Y-92873701D01*
X121576495Y-93041688D01*
X121510056Y-93108127D01*
X121504502Y-93089820D01*
X121445537Y-92979506D01*
X121366185Y-92882815D01*
X121269494Y-92803463D01*
X121159180Y-92744498D01*
X121039482Y-92708188D01*
X120915000Y-92695928D01*
X120300750Y-92699000D01*
X120142000Y-92857750D01*
X119888000Y-92857750D01*
X119729250Y-92699000D01*
X119532000Y-92698014D01*
X119532000Y-73163986D01*
X119729250Y-73163000D01*
X119888000Y-73004250D01*
X119888000Y-71755000D01*
X119868000Y-71755000D01*
X119868000Y-71501000D01*
X119888000Y-71501000D01*
X119888000Y-70251750D01*
X119729250Y-70093000D01*
X119532000Y-70092014D01*
X119532000Y-50557986D01*
X119729250Y-50557000D01*
X119888000Y-50398250D01*
X119888000Y-49149000D01*
X119868000Y-49149000D01*
X119868000Y-48895000D01*
X119888000Y-48895000D01*
X119888000Y-47645750D01*
X120142000Y-47645750D01*
X120142000Y-48895000D01*
X120162000Y-48895000D01*
X120162000Y-49149000D01*
X120142000Y-49149000D01*
X120142000Y-50398250D01*
X120300750Y-50557000D01*
X120915000Y-50560072D01*
X121039482Y-50547812D01*
X121159180Y-50511502D01*
X121269494Y-50452537D01*
X121366185Y-50373185D01*
X121445537Y-50276494D01*
X121504502Y-50166180D01*
X121510056Y-50147873D01*
X121576495Y-50214312D01*
X121827905Y-50382299D01*
X122107257Y-50498011D01*
X122403816Y-50557000D01*
X122706184Y-50557000D01*
X123002743Y-50498011D01*
X123282095Y-50382299D01*
X123533505Y-50214312D01*
X123747312Y-50000505D01*
X123915299Y-49749095D01*
X124031011Y-49469743D01*
X124090000Y-49173184D01*
X124090000Y-48870816D01*
X124031011Y-48574257D01*
X123915299Y-48294905D01*
X123747312Y-48043495D01*
X123533505Y-47829688D01*
X123282095Y-47661701D01*
X123002743Y-47545989D01*
X122706184Y-47487000D01*
X122403816Y-47487000D01*
X122107257Y-47545989D01*
X121827905Y-47661701D01*
X121576495Y-47829688D01*
X121510056Y-47896127D01*
X121504502Y-47877820D01*
X121445537Y-47767506D01*
X121366185Y-47670815D01*
X121269494Y-47591463D01*
X121159180Y-47532498D01*
X121039482Y-47496188D01*
X120915000Y-47483928D01*
X120300750Y-47487000D01*
X120142000Y-47645750D01*
X119888000Y-47645750D01*
X119729250Y-47487000D01*
X119532000Y-47486014D01*
X119532000Y-27951986D01*
X119729250Y-27951000D01*
X119888000Y-27792250D01*
X119888000Y-26543000D01*
X119868000Y-26543000D01*
X119868000Y-26289000D01*
X119888000Y-26289000D01*
X119888000Y-25039750D01*
X120142000Y-25039750D01*
X120142000Y-26289000D01*
X120162000Y-26289000D01*
X120162000Y-26543000D01*
X120142000Y-26543000D01*
X120142000Y-27792250D01*
X120300750Y-27951000D01*
X120915000Y-27954072D01*
X121039482Y-27941812D01*
X121159180Y-27905502D01*
X121269494Y-27846537D01*
X121366185Y-27767185D01*
X121445537Y-27670494D01*
X121504502Y-27560180D01*
X121510056Y-27541873D01*
X121576495Y-27608312D01*
X121827905Y-27776299D01*
X122107257Y-27892011D01*
X122403816Y-27951000D01*
X122706184Y-27951000D01*
X123002743Y-27892011D01*
X123282095Y-27776299D01*
X123533505Y-27608312D01*
X123747312Y-27394505D01*
X123915299Y-27143095D01*
X124031011Y-26863743D01*
X124090000Y-26567184D01*
X124090000Y-26264816D01*
X124031011Y-25968257D01*
X123915299Y-25688905D01*
X123747312Y-25437495D01*
X123533505Y-25223688D01*
X123282095Y-25055701D01*
X123002743Y-24939989D01*
X122706184Y-24881000D01*
X122403816Y-24881000D01*
X122107257Y-24939989D01*
X121827905Y-25055701D01*
X121576495Y-25223688D01*
X121510056Y-25290127D01*
X121504502Y-25271820D01*
X121445537Y-25161506D01*
X121366185Y-25064815D01*
X121269494Y-24985463D01*
X121159180Y-24926498D01*
X121039482Y-24890188D01*
X120915000Y-24877928D01*
X120300750Y-24881000D01*
X120142000Y-25039750D01*
X119888000Y-25039750D01*
X119729250Y-24881000D01*
X119532000Y-24880014D01*
X119532000Y-18694000D01*
X134673495Y-18694000D01*
X134533687Y-18736411D01*
G36*
X131172115Y-142467464D02*
G01*
X131352806Y-142903690D01*
X131615129Y-143296283D01*
X131949002Y-143630156D01*
X132341595Y-143892479D01*
X132592000Y-143996200D01*
X132592001Y-147127227D01*
X132480260Y-147105000D01*
X132187740Y-147105000D01*
X131900842Y-147162068D01*
X131630589Y-147274010D01*
X131387368Y-147436525D01*
X131180525Y-147643368D01*
X131064000Y-147817760D01*
X130947475Y-147643368D01*
X130740632Y-147436525D01*
X130497411Y-147274010D01*
X130227158Y-147162068D01*
X129940260Y-147105000D01*
X129647740Y-147105000D01*
X129360842Y-147162068D01*
X129090589Y-147274010D01*
X128847368Y-147436525D01*
X128715513Y-147568380D01*
X128693502Y-147495820D01*
X128634537Y-147385506D01*
X128555185Y-147288815D01*
X128458494Y-147209463D01*
X128348180Y-147150498D01*
X128228482Y-147114188D01*
X128104000Y-147101928D01*
X127539750Y-147105000D01*
X127381000Y-147263750D01*
X127381000Y-148463000D01*
X127401000Y-148463000D01*
X127401000Y-148717000D01*
X127381000Y-148717000D01*
X127381000Y-149916250D01*
X127539750Y-150075000D01*
X128104000Y-150078072D01*
X128228482Y-150065812D01*
X128348180Y-150029502D01*
X128458494Y-149970537D01*
X128555185Y-149891185D01*
X128634537Y-149794494D01*
X128693502Y-149684180D01*
X128715513Y-149611620D01*
X128847368Y-149743475D01*
X128909000Y-149784656D01*
X128909000Y-150578531D01*
X128904719Y-150622000D01*
X128909000Y-150665469D01*
X128909000Y-150665476D01*
X128917835Y-150755183D01*
X128921234Y-150789687D01*
X128921805Y-150795489D01*
X128972411Y-150962312D01*
X129054589Y-151116058D01*
X129165183Y-151250817D01*
X129198956Y-151278534D01*
X129645466Y-151725044D01*
X129673183Y-151758817D01*
X129807941Y-151869411D01*
X129961687Y-151951589D01*
X130128510Y-152002195D01*
X130258523Y-152015000D01*
X130258533Y-152015000D01*
X130301999Y-152019281D01*
X130345465Y-152015000D01*
X133065546Y-152015000D01*
X133113744Y-152047205D01*
X133302102Y-152125226D01*
X133502061Y-152165000D01*
X133705939Y-152165000D01*
X133905898Y-152125226D01*
X134094256Y-152047205D01*
X134263774Y-151933937D01*
X134407937Y-151789774D01*
X134521205Y-151620256D01*
X134599226Y-151431898D01*
X134639000Y-151231939D01*
X134639000Y-151028061D01*
X134599226Y-150828102D01*
X134521205Y-150639744D01*
X134407937Y-150470226D01*
X134263774Y-150326063D01*
X134094256Y-150212795D01*
X133905898Y-150134774D01*
X133705939Y-150095000D01*
X133502061Y-150095000D01*
X133302102Y-150134774D01*
X133113744Y-150212795D01*
X133065546Y-150245000D01*
X130679000Y-150245000D01*
X130679000Y-149784656D01*
X130740632Y-149743475D01*
X130947475Y-149536632D01*
X131064000Y-149362240D01*
X131180525Y-149536632D01*
X131387368Y-149743475D01*
X131630589Y-149905990D01*
X131900842Y-150017932D01*
X132187740Y-150075000D01*
X132480260Y-150075000D01*
X132767158Y-150017932D01*
X133037411Y-149905990D01*
X133280632Y-149743475D01*
X133487475Y-149536632D01*
X133604000Y-149362240D01*
X133720525Y-149536632D01*
X133927368Y-149743475D01*
X134170589Y-149905990D01*
X134440842Y-150017932D01*
X134727740Y-150075000D01*
X135020260Y-150075000D01*
X135307158Y-150017932D01*
X135577411Y-149905990D01*
X135820632Y-149743475D01*
X136027475Y-149536632D01*
X136144000Y-149362240D01*
X136260525Y-149536632D01*
X136467368Y-149743475D01*
X136710589Y-149905990D01*
X136980842Y-150017932D01*
X137267740Y-150075000D01*
X137560260Y-150075000D01*
X137847158Y-150017932D01*
X138117411Y-149905990D01*
X138360632Y-149743475D01*
X138567475Y-149536632D01*
X138684000Y-149362240D01*
X138800525Y-149536632D01*
X139007368Y-149743475D01*
X139250589Y-149905990D01*
X139520842Y-150017932D01*
X139807740Y-150075000D01*
X140100260Y-150075000D01*
X140387158Y-150017932D01*
X140657411Y-149905990D01*
X140900632Y-149743475D01*
X141101000Y-149543107D01*
X141101000Y-150001421D01*
X140658952Y-150443470D01*
X140625185Y-150471182D01*
X140597472Y-150504950D01*
X140597469Y-150504953D01*
X140514591Y-150605940D01*
X140432413Y-150759686D01*
X140381806Y-150926509D01*
X140364720Y-151099999D01*
X140369002Y-151143478D01*
X140369001Y-158560852D01*
X140300194Y-158394737D01*
X140037871Y-158002144D01*
X139703998Y-157668271D01*
X139311405Y-157405948D01*
X138875179Y-157225257D01*
X138412084Y-157133142D01*
X137939916Y-157133142D01*
X137476821Y-157225257D01*
X137040595Y-157405948D01*
X136648002Y-157668271D01*
X136314129Y-158002144D01*
X136051806Y-158394737D01*
X135871115Y-158830963D01*
X135826500Y-159055259D01*
X135781885Y-158830963D01*
X135678163Y-158580557D01*
X137882050Y-156376671D01*
X137915817Y-156348959D01*
X138026411Y-156214201D01*
X138026412Y-156214200D01*
X138108589Y-156060456D01*
X138159195Y-155893632D01*
X138159195Y-155893631D01*
X138172000Y-155763619D01*
X138172000Y-155763611D01*
X138176281Y-155720142D01*
X138172000Y-155676673D01*
X138172000Y-154804521D01*
X138201759Y-154784637D01*
X138401637Y-154584759D01*
X138558680Y-154349727D01*
X138666853Y-154088574D01*
X138722000Y-153811335D01*
X138722000Y-153528665D01*
X138666853Y-153251426D01*
X138558680Y-152990273D01*
X138401637Y-152755241D01*
X138201759Y-152555363D01*
X137966727Y-152398320D01*
X137705574Y-152290147D01*
X137428335Y-152235000D01*
X137145665Y-152235000D01*
X136868426Y-152290147D01*
X136607273Y-152398320D01*
X136372241Y-152555363D01*
X136172363Y-152755241D01*
X136015320Y-152990273D01*
X135907147Y-153251426D01*
X135852000Y-153528665D01*
X135852000Y-153811335D01*
X135907147Y-154088574D01*
X136015320Y-154349727D01*
X136172363Y-154584759D01*
X136372241Y-154784637D01*
X136402000Y-154804522D01*
X136402000Y-155353563D01*
X134426585Y-157328979D01*
X134176179Y-157225257D01*
X133713084Y-157133142D01*
X133240916Y-157133142D01*
X132777821Y-157225257D01*
X132341595Y-157405948D01*
X131949002Y-157668271D01*
X131615129Y-158002144D01*
X131352806Y-158394737D01*
X131172115Y-158830963D01*
X131127500Y-159055259D01*
X131082885Y-158830963D01*
X130902194Y-158394737D01*
X130639871Y-158002144D01*
X130305998Y-157668271D01*
X129913405Y-157405948D01*
X129477179Y-157225257D01*
X129014084Y-157133142D01*
X128541916Y-157133142D01*
X128078821Y-157225257D01*
X127642595Y-157405948D01*
X127250002Y-157668271D01*
X126916129Y-158002144D01*
X126869000Y-158072677D01*
X126869000Y-151427469D01*
X126873281Y-151384000D01*
X126869000Y-151340531D01*
X126869000Y-151340523D01*
X126856195Y-151210510D01*
X126805589Y-151043687D01*
X126723411Y-150889941D01*
X126672661Y-150828102D01*
X126640532Y-150788953D01*
X126640530Y-150788951D01*
X126612817Y-150755183D01*
X126579050Y-150727471D01*
X126107000Y-150255422D01*
X126107000Y-150001269D01*
X126159820Y-150029502D01*
X126279518Y-150065812D01*
X126404000Y-150078072D01*
X126968250Y-150075000D01*
X127127000Y-149916250D01*
X127127000Y-148717000D01*
X127107000Y-148717000D01*
X127107000Y-148463000D01*
X127127000Y-148463000D01*
X127127000Y-147263750D01*
X126968250Y-147105000D01*
X126404000Y-147101928D01*
X126279518Y-147114188D01*
X126159820Y-147150498D01*
X126107000Y-147178731D01*
X126107000Y-145690863D01*
X127828415Y-143969448D01*
X128078821Y-144073170D01*
X128541916Y-144165285D01*
X129014084Y-144165285D01*
X129477179Y-144073170D01*
X129913405Y-143892479D01*
X130305998Y-143630156D01*
X130639871Y-143296283D01*
X130902194Y-142903690D01*
X131082885Y-142467464D01*
X131127500Y-142243168D01*
X131172115Y-142467464D01*
G37*
X131172115Y-142467464D02*
X131352806Y-142903690D01*
X131615129Y-143296283D01*
X131949002Y-143630156D01*
X132341595Y-143892479D01*
X132592000Y-143996200D01*
X132592001Y-147127227D01*
X132480260Y-147105000D01*
X132187740Y-147105000D01*
X131900842Y-147162068D01*
X131630589Y-147274010D01*
X131387368Y-147436525D01*
X131180525Y-147643368D01*
X131064000Y-147817760D01*
X130947475Y-147643368D01*
X130740632Y-147436525D01*
X130497411Y-147274010D01*
X130227158Y-147162068D01*
X129940260Y-147105000D01*
X129647740Y-147105000D01*
X129360842Y-147162068D01*
X129090589Y-147274010D01*
X128847368Y-147436525D01*
X128715513Y-147568380D01*
X128693502Y-147495820D01*
X128634537Y-147385506D01*
X128555185Y-147288815D01*
X128458494Y-147209463D01*
X128348180Y-147150498D01*
X128228482Y-147114188D01*
X128104000Y-147101928D01*
X127539750Y-147105000D01*
X127381000Y-147263750D01*
X127381000Y-148463000D01*
X127401000Y-148463000D01*
X127401000Y-148717000D01*
X127381000Y-148717000D01*
X127381000Y-149916250D01*
X127539750Y-150075000D01*
X128104000Y-150078072D01*
X128228482Y-150065812D01*
X128348180Y-150029502D01*
X128458494Y-149970537D01*
X128555185Y-149891185D01*
X128634537Y-149794494D01*
X128693502Y-149684180D01*
X128715513Y-149611620D01*
X128847368Y-149743475D01*
X128909000Y-149784656D01*
X128909000Y-150578531D01*
X128904719Y-150622000D01*
X128909000Y-150665469D01*
X128909000Y-150665476D01*
X128917835Y-150755183D01*
X128921234Y-150789687D01*
X128921805Y-150795489D01*
X128972411Y-150962312D01*
X129054589Y-151116058D01*
X129165183Y-151250817D01*
X129198956Y-151278534D01*
X129645466Y-151725044D01*
X129673183Y-151758817D01*
X129807941Y-151869411D01*
X129961687Y-151951589D01*
X130128510Y-152002195D01*
X130258523Y-152015000D01*
X130258533Y-152015000D01*
X130301999Y-152019281D01*
X130345465Y-152015000D01*
X133065546Y-152015000D01*
X133113744Y-152047205D01*
X133302102Y-152125226D01*
X133502061Y-152165000D01*
X133705939Y-152165000D01*
X133905898Y-152125226D01*
X134094256Y-152047205D01*
X134263774Y-151933937D01*
X134407937Y-151789774D01*
X134521205Y-151620256D01*
X134599226Y-151431898D01*
X134639000Y-151231939D01*
X134639000Y-151028061D01*
X134599226Y-150828102D01*
X134521205Y-150639744D01*
X134407937Y-150470226D01*
X134263774Y-150326063D01*
X134094256Y-150212795D01*
X133905898Y-150134774D01*
X133705939Y-150095000D01*
X133502061Y-150095000D01*
X133302102Y-150134774D01*
X133113744Y-150212795D01*
X133065546Y-150245000D01*
X130679000Y-150245000D01*
X130679000Y-149784656D01*
X130740632Y-149743475D01*
X130947475Y-149536632D01*
X131064000Y-149362240D01*
X131180525Y-149536632D01*
X131387368Y-149743475D01*
X131630589Y-149905990D01*
X131900842Y-150017932D01*
X132187740Y-150075000D01*
X132480260Y-150075000D01*
X132767158Y-150017932D01*
X133037411Y-149905990D01*
X133280632Y-149743475D01*
X133487475Y-149536632D01*
X133604000Y-149362240D01*
X133720525Y-149536632D01*
X133927368Y-149743475D01*
X134170589Y-149905990D01*
X134440842Y-150017932D01*
X134727740Y-150075000D01*
X135020260Y-150075000D01*
X135307158Y-150017932D01*
X135577411Y-149905990D01*
X135820632Y-149743475D01*
X136027475Y-149536632D01*
X136144000Y-149362240D01*
X136260525Y-149536632D01*
X136467368Y-149743475D01*
X136710589Y-149905990D01*
X136980842Y-150017932D01*
X137267740Y-150075000D01*
X137560260Y-150075000D01*
X137847158Y-150017932D01*
X138117411Y-149905990D01*
X138360632Y-149743475D01*
X138567475Y-149536632D01*
X138684000Y-149362240D01*
X138800525Y-149536632D01*
X139007368Y-149743475D01*
X139250589Y-149905990D01*
X139520842Y-150017932D01*
X139807740Y-150075000D01*
X140100260Y-150075000D01*
X140387158Y-150017932D01*
X140657411Y-149905990D01*
X140900632Y-149743475D01*
X141101000Y-149543107D01*
X141101000Y-150001421D01*
X140658952Y-150443470D01*
X140625185Y-150471182D01*
X140597472Y-150504950D01*
X140597469Y-150504953D01*
X140514591Y-150605940D01*
X140432413Y-150759686D01*
X140381806Y-150926509D01*
X140364720Y-151099999D01*
X140369002Y-151143478D01*
X140369001Y-158560852D01*
X140300194Y-158394737D01*
X140037871Y-158002144D01*
X139703998Y-157668271D01*
X139311405Y-157405948D01*
X138875179Y-157225257D01*
X138412084Y-157133142D01*
X137939916Y-157133142D01*
X137476821Y-157225257D01*
X137040595Y-157405948D01*
X136648002Y-157668271D01*
X136314129Y-158002144D01*
X136051806Y-158394737D01*
X135871115Y-158830963D01*
X135826500Y-159055259D01*
X135781885Y-158830963D01*
X135678163Y-158580557D01*
X137882050Y-156376671D01*
X137915817Y-156348959D01*
X138026411Y-156214201D01*
X138026412Y-156214200D01*
X138108589Y-156060456D01*
X138159195Y-155893632D01*
X138159195Y-155893631D01*
X138172000Y-155763619D01*
X138172000Y-155763611D01*
X138176281Y-155720142D01*
X138172000Y-155676673D01*
X138172000Y-154804521D01*
X138201759Y-154784637D01*
X138401637Y-154584759D01*
X138558680Y-154349727D01*
X138666853Y-154088574D01*
X138722000Y-153811335D01*
X138722000Y-153528665D01*
X138666853Y-153251426D01*
X138558680Y-152990273D01*
X138401637Y-152755241D01*
X138201759Y-152555363D01*
X137966727Y-152398320D01*
X137705574Y-152290147D01*
X137428335Y-152235000D01*
X137145665Y-152235000D01*
X136868426Y-152290147D01*
X136607273Y-152398320D01*
X136372241Y-152555363D01*
X136172363Y-152755241D01*
X136015320Y-152990273D01*
X135907147Y-153251426D01*
X135852000Y-153528665D01*
X135852000Y-153811335D01*
X135907147Y-154088574D01*
X136015320Y-154349727D01*
X136172363Y-154584759D01*
X136372241Y-154784637D01*
X136402000Y-154804522D01*
X136402000Y-155353563D01*
X134426585Y-157328979D01*
X134176179Y-157225257D01*
X133713084Y-157133142D01*
X133240916Y-157133142D01*
X132777821Y-157225257D01*
X132341595Y-157405948D01*
X131949002Y-157668271D01*
X131615129Y-158002144D01*
X131352806Y-158394737D01*
X131172115Y-158830963D01*
X131127500Y-159055259D01*
X131082885Y-158830963D01*
X130902194Y-158394737D01*
X130639871Y-158002144D01*
X130305998Y-157668271D01*
X129913405Y-157405948D01*
X129477179Y-157225257D01*
X129014084Y-157133142D01*
X128541916Y-157133142D01*
X128078821Y-157225257D01*
X127642595Y-157405948D01*
X127250002Y-157668271D01*
X126916129Y-158002144D01*
X126869000Y-158072677D01*
X126869000Y-151427469D01*
X126873281Y-151384000D01*
X126869000Y-151340531D01*
X126869000Y-151340523D01*
X126856195Y-151210510D01*
X126805589Y-151043687D01*
X126723411Y-150889941D01*
X126672661Y-150828102D01*
X126640532Y-150788953D01*
X126640530Y-150788951D01*
X126612817Y-150755183D01*
X126579050Y-150727471D01*
X126107000Y-150255422D01*
X126107000Y-150001269D01*
X126159820Y-150029502D01*
X126279518Y-150065812D01*
X126404000Y-150078072D01*
X126968250Y-150075000D01*
X127127000Y-149916250D01*
X127127000Y-148717000D01*
X127107000Y-148717000D01*
X127107000Y-148463000D01*
X127127000Y-148463000D01*
X127127000Y-147263750D01*
X126968250Y-147105000D01*
X126404000Y-147101928D01*
X126279518Y-147114188D01*
X126159820Y-147150498D01*
X126107000Y-147178731D01*
X126107000Y-145690863D01*
X127828415Y-143969448D01*
X128078821Y-144073170D01*
X128541916Y-144165285D01*
X129014084Y-144165285D01*
X129477179Y-144073170D01*
X129913405Y-143892479D01*
X130305998Y-143630156D01*
X130639871Y-143296283D01*
X130902194Y-142903690D01*
X131082885Y-142467464D01*
X131127500Y-142243168D01*
X131172115Y-142467464D01*
G36*
X131172115Y-52116036D02*
G01*
X131352806Y-52552262D01*
X131615129Y-52944855D01*
X131949002Y-53278728D01*
X132341595Y-53541051D01*
X132592000Y-53644772D01*
X132592001Y-56449227D01*
X132480260Y-56427000D01*
X132187740Y-56427000D01*
X131900842Y-56484068D01*
X131630589Y-56596010D01*
X131387368Y-56758525D01*
X131180525Y-56965368D01*
X131064000Y-57139760D01*
X130947475Y-56965368D01*
X130740632Y-56758525D01*
X130497411Y-56596010D01*
X130227158Y-56484068D01*
X129940260Y-56427000D01*
X129647740Y-56427000D01*
X129360842Y-56484068D01*
X129090589Y-56596010D01*
X128847368Y-56758525D01*
X128715513Y-56890380D01*
X128693502Y-56817820D01*
X128634537Y-56707506D01*
X128555185Y-56610815D01*
X128458494Y-56531463D01*
X128348180Y-56472498D01*
X128228482Y-56436188D01*
X128104000Y-56423928D01*
X127539750Y-56427000D01*
X127381000Y-56585750D01*
X127381000Y-57785000D01*
X127401000Y-57785000D01*
X127401000Y-58039000D01*
X127381000Y-58039000D01*
X127381000Y-59238250D01*
X127539750Y-59397000D01*
X128104000Y-59400072D01*
X128228482Y-59387812D01*
X128348180Y-59351502D01*
X128458494Y-59292537D01*
X128555185Y-59213185D01*
X128634537Y-59116494D01*
X128693502Y-59006180D01*
X128715513Y-58933620D01*
X128847368Y-59065475D01*
X128909001Y-59106657D01*
X128909000Y-64485546D01*
X128876795Y-64533744D01*
X128798774Y-64722102D01*
X128759000Y-64922061D01*
X128759000Y-65125939D01*
X128798774Y-65325898D01*
X128876795Y-65514256D01*
X128990063Y-65683774D01*
X129134226Y-65827937D01*
X129303744Y-65941205D01*
X129492102Y-66019226D01*
X129692061Y-66059000D01*
X129895939Y-66059000D01*
X130095898Y-66019226D01*
X130284256Y-65941205D01*
X130453774Y-65827937D01*
X130597937Y-65683774D01*
X130711205Y-65514256D01*
X130789226Y-65325898D01*
X130829000Y-65125939D01*
X130829000Y-64922061D01*
X130789226Y-64722102D01*
X130711205Y-64533744D01*
X130679000Y-64485546D01*
X130679000Y-59106656D01*
X130740632Y-59065475D01*
X130947475Y-58858632D01*
X131064000Y-58684240D01*
X131180525Y-58858632D01*
X131387368Y-59065475D01*
X131630589Y-59227990D01*
X131900842Y-59339932D01*
X132187740Y-59397000D01*
X132480260Y-59397000D01*
X132767158Y-59339932D01*
X133037411Y-59227990D01*
X133280632Y-59065475D01*
X133487475Y-58858632D01*
X133604000Y-58684240D01*
X133720525Y-58858632D01*
X133927368Y-59065475D01*
X134170589Y-59227990D01*
X134440842Y-59339932D01*
X134727740Y-59397000D01*
X135020260Y-59397000D01*
X135307158Y-59339932D01*
X135577411Y-59227990D01*
X135820632Y-59065475D01*
X136027475Y-58858632D01*
X136144000Y-58684240D01*
X136260525Y-58858632D01*
X136467368Y-59065475D01*
X136710589Y-59227990D01*
X136980842Y-59339932D01*
X137267740Y-59397000D01*
X137560260Y-59397000D01*
X137847158Y-59339932D01*
X138117411Y-59227990D01*
X138360632Y-59065475D01*
X138567475Y-58858632D01*
X138684000Y-58684240D01*
X138800525Y-58858632D01*
X139007368Y-59065475D01*
X139250589Y-59227990D01*
X139520842Y-59339932D01*
X139807740Y-59397000D01*
X140100260Y-59397000D01*
X140384819Y-59340397D01*
X143478983Y-62434561D01*
X143472000Y-62469665D01*
X143472000Y-62752335D01*
X143527147Y-63029574D01*
X143635320Y-63290727D01*
X143792363Y-63525759D01*
X143992241Y-63725637D01*
X144022001Y-63745522D01*
X144022000Y-66816421D01*
X142678990Y-68159432D01*
X142678990Y-66216440D01*
X142730256Y-66195205D01*
X142899774Y-66081937D01*
X143043937Y-65937774D01*
X143157205Y-65768256D01*
X143235226Y-65579898D01*
X143275000Y-65379939D01*
X143275000Y-65176061D01*
X143235226Y-64976102D01*
X143157205Y-64787744D01*
X143043937Y-64618226D01*
X142899774Y-64474063D01*
X142730256Y-64360795D01*
X142541898Y-64282774D01*
X142341939Y-64243000D01*
X142138061Y-64243000D01*
X141938102Y-64282774D01*
X141855000Y-64317196D01*
X141855000Y-62799163D01*
X141883774Y-62779937D01*
X142027937Y-62635774D01*
X142141205Y-62466256D01*
X142219226Y-62277898D01*
X142259000Y-62077939D01*
X142259000Y-61874061D01*
X142219226Y-61674102D01*
X142141205Y-61485744D01*
X142027937Y-61316226D01*
X141883774Y-61172063D01*
X141714256Y-61058795D01*
X141525898Y-60980774D01*
X141325939Y-60941000D01*
X141122061Y-60941000D01*
X140922102Y-60980774D01*
X140733744Y-61058795D01*
X140564226Y-61172063D01*
X140420063Y-61316226D01*
X140306795Y-61485744D01*
X140228774Y-61674102D01*
X140208107Y-61778005D01*
X140148412Y-61889687D01*
X140097805Y-62056510D01*
X140080719Y-62230000D01*
X140085001Y-62273479D01*
X140085001Y-67721250D01*
X140037871Y-67650716D01*
X139703998Y-67316843D01*
X139311405Y-67054520D01*
X138875179Y-66873829D01*
X138412084Y-66781714D01*
X137939916Y-66781714D01*
X137476821Y-66873829D01*
X137040595Y-67054520D01*
X136648002Y-67316843D01*
X136314129Y-67650716D01*
X136051806Y-68043309D01*
X135871115Y-68479535D01*
X135826500Y-68703831D01*
X135781885Y-68479535D01*
X135601194Y-68043309D01*
X135338871Y-67650716D01*
X135004998Y-67316843D01*
X134612405Y-67054520D01*
X134362000Y-66950799D01*
X134362000Y-66787578D01*
X137110561Y-64039017D01*
X137145665Y-64046000D01*
X137428335Y-64046000D01*
X137705574Y-63990853D01*
X137966727Y-63882680D01*
X138201759Y-63725637D01*
X138401637Y-63525759D01*
X138558680Y-63290727D01*
X138666853Y-63029574D01*
X138722000Y-62752335D01*
X138722000Y-62469665D01*
X138666853Y-62192426D01*
X138558680Y-61931273D01*
X138401637Y-61696241D01*
X138201759Y-61496363D01*
X137966727Y-61339320D01*
X137705574Y-61231147D01*
X137428335Y-61176000D01*
X137145665Y-61176000D01*
X136868426Y-61231147D01*
X136607273Y-61339320D01*
X136372241Y-61496363D01*
X136172363Y-61696241D01*
X136015320Y-61931273D01*
X135907147Y-62192426D01*
X135852000Y-62469665D01*
X135852000Y-62752335D01*
X135858983Y-62787439D01*
X132881951Y-65764470D01*
X132848184Y-65792183D01*
X132820471Y-65825951D01*
X132820468Y-65825954D01*
X132737590Y-65926941D01*
X132655412Y-66080687D01*
X132604805Y-66247510D01*
X132587719Y-66421000D01*
X132592001Y-66464479D01*
X132592001Y-66950798D01*
X132341595Y-67054520D01*
X131949002Y-67316843D01*
X131615129Y-67650716D01*
X131352806Y-68043309D01*
X131172115Y-68479535D01*
X131127500Y-68703831D01*
X131082885Y-68479535D01*
X130902194Y-68043309D01*
X130639871Y-67650716D01*
X130305998Y-67316843D01*
X129913405Y-67054520D01*
X129477179Y-66873829D01*
X129014084Y-66781714D01*
X128541916Y-66781714D01*
X128078821Y-66873829D01*
X127642595Y-67054520D01*
X127250002Y-67316843D01*
X126916129Y-67650716D01*
X126869000Y-67721249D01*
X126869000Y-63543469D01*
X126873281Y-63500000D01*
X126869000Y-63456531D01*
X126869000Y-63456523D01*
X126856195Y-63326510D01*
X126805589Y-63159687D01*
X126723411Y-63005941D01*
X126693431Y-62969410D01*
X126640532Y-62904953D01*
X126640530Y-62904951D01*
X126612817Y-62871183D01*
X126579050Y-62843471D01*
X125853000Y-62117422D01*
X125853000Y-59078211D01*
X125873463Y-59116494D01*
X125952815Y-59213185D01*
X126049506Y-59292537D01*
X126159820Y-59351502D01*
X126279518Y-59387812D01*
X126404000Y-59400072D01*
X126968250Y-59397000D01*
X127127000Y-59238250D01*
X127127000Y-58039000D01*
X127107000Y-58039000D01*
X127107000Y-57785000D01*
X127127000Y-57785000D01*
X127127000Y-56585750D01*
X126968250Y-56427000D01*
X126404000Y-56423928D01*
X126279518Y-56436188D01*
X126159820Y-56472498D01*
X126049506Y-56531463D01*
X125952815Y-56610815D01*
X125873463Y-56707506D01*
X125853000Y-56745789D01*
X125853000Y-53101591D01*
X126580150Y-52374442D01*
X126653806Y-52552262D01*
X126916129Y-52944855D01*
X127250002Y-53278728D01*
X127642595Y-53541051D01*
X128078821Y-53721742D01*
X128541916Y-53813857D01*
X129014084Y-53813857D01*
X129477179Y-53721742D01*
X129913405Y-53541051D01*
X130305998Y-53278728D01*
X130639871Y-52944855D01*
X130902194Y-52552262D01*
X131082885Y-52116036D01*
X131127500Y-51891740D01*
X131172115Y-52116036D01*
G37*
X131172115Y-52116036D02*
X131352806Y-52552262D01*
X131615129Y-52944855D01*
X131949002Y-53278728D01*
X132341595Y-53541051D01*
X132592000Y-53644772D01*
X132592001Y-56449227D01*
X132480260Y-56427000D01*
X132187740Y-56427000D01*
X131900842Y-56484068D01*
X131630589Y-56596010D01*
X131387368Y-56758525D01*
X131180525Y-56965368D01*
X131064000Y-57139760D01*
X130947475Y-56965368D01*
X130740632Y-56758525D01*
X130497411Y-56596010D01*
X130227158Y-56484068D01*
X129940260Y-56427000D01*
X129647740Y-56427000D01*
X129360842Y-56484068D01*
X129090589Y-56596010D01*
X128847368Y-56758525D01*
X128715513Y-56890380D01*
X128693502Y-56817820D01*
X128634537Y-56707506D01*
X128555185Y-56610815D01*
X128458494Y-56531463D01*
X128348180Y-56472498D01*
X128228482Y-56436188D01*
X128104000Y-56423928D01*
X127539750Y-56427000D01*
X127381000Y-56585750D01*
X127381000Y-57785000D01*
X127401000Y-57785000D01*
X127401000Y-58039000D01*
X127381000Y-58039000D01*
X127381000Y-59238250D01*
X127539750Y-59397000D01*
X128104000Y-59400072D01*
X128228482Y-59387812D01*
X128348180Y-59351502D01*
X128458494Y-59292537D01*
X128555185Y-59213185D01*
X128634537Y-59116494D01*
X128693502Y-59006180D01*
X128715513Y-58933620D01*
X128847368Y-59065475D01*
X128909001Y-59106657D01*
X128909000Y-64485546D01*
X128876795Y-64533744D01*
X128798774Y-64722102D01*
X128759000Y-64922061D01*
X128759000Y-65125939D01*
X128798774Y-65325898D01*
X128876795Y-65514256D01*
X128990063Y-65683774D01*
X129134226Y-65827937D01*
X129303744Y-65941205D01*
X129492102Y-66019226D01*
X129692061Y-66059000D01*
X129895939Y-66059000D01*
X130095898Y-66019226D01*
X130284256Y-65941205D01*
X130453774Y-65827937D01*
X130597937Y-65683774D01*
X130711205Y-65514256D01*
X130789226Y-65325898D01*
X130829000Y-65125939D01*
X130829000Y-64922061D01*
X130789226Y-64722102D01*
X130711205Y-64533744D01*
X130679000Y-64485546D01*
X130679000Y-59106656D01*
X130740632Y-59065475D01*
X130947475Y-58858632D01*
X131064000Y-58684240D01*
X131180525Y-58858632D01*
X131387368Y-59065475D01*
X131630589Y-59227990D01*
X131900842Y-59339932D01*
X132187740Y-59397000D01*
X132480260Y-59397000D01*
X132767158Y-59339932D01*
X133037411Y-59227990D01*
X133280632Y-59065475D01*
X133487475Y-58858632D01*
X133604000Y-58684240D01*
X133720525Y-58858632D01*
X133927368Y-59065475D01*
X134170589Y-59227990D01*
X134440842Y-59339932D01*
X134727740Y-59397000D01*
X135020260Y-59397000D01*
X135307158Y-59339932D01*
X135577411Y-59227990D01*
X135820632Y-59065475D01*
X136027475Y-58858632D01*
X136144000Y-58684240D01*
X136260525Y-58858632D01*
X136467368Y-59065475D01*
X136710589Y-59227990D01*
X136980842Y-59339932D01*
X137267740Y-59397000D01*
X137560260Y-59397000D01*
X137847158Y-59339932D01*
X138117411Y-59227990D01*
X138360632Y-59065475D01*
X138567475Y-58858632D01*
X138684000Y-58684240D01*
X138800525Y-58858632D01*
X139007368Y-59065475D01*
X139250589Y-59227990D01*
X139520842Y-59339932D01*
X139807740Y-59397000D01*
X140100260Y-59397000D01*
X140384819Y-59340397D01*
X143478983Y-62434561D01*
X143472000Y-62469665D01*
X143472000Y-62752335D01*
X143527147Y-63029574D01*
X143635320Y-63290727D01*
X143792363Y-63525759D01*
X143992241Y-63725637D01*
X144022001Y-63745522D01*
X144022000Y-66816421D01*
X142678990Y-68159432D01*
X142678990Y-66216440D01*
X142730256Y-66195205D01*
X142899774Y-66081937D01*
X143043937Y-65937774D01*
X143157205Y-65768256D01*
X143235226Y-65579898D01*
X143275000Y-65379939D01*
X143275000Y-65176061D01*
X143235226Y-64976102D01*
X143157205Y-64787744D01*
X143043937Y-64618226D01*
X142899774Y-64474063D01*
X142730256Y-64360795D01*
X142541898Y-64282774D01*
X142341939Y-64243000D01*
X142138061Y-64243000D01*
X141938102Y-64282774D01*
X141855000Y-64317196D01*
X141855000Y-62799163D01*
X141883774Y-62779937D01*
X142027937Y-62635774D01*
X142141205Y-62466256D01*
X142219226Y-62277898D01*
X142259000Y-62077939D01*
X142259000Y-61874061D01*
X142219226Y-61674102D01*
X142141205Y-61485744D01*
X142027937Y-61316226D01*
X141883774Y-61172063D01*
X141714256Y-61058795D01*
X141525898Y-60980774D01*
X141325939Y-60941000D01*
X141122061Y-60941000D01*
X140922102Y-60980774D01*
X140733744Y-61058795D01*
X140564226Y-61172063D01*
X140420063Y-61316226D01*
X140306795Y-61485744D01*
X140228774Y-61674102D01*
X140208107Y-61778005D01*
X140148412Y-61889687D01*
X140097805Y-62056510D01*
X140080719Y-62230000D01*
X140085001Y-62273479D01*
X140085001Y-67721250D01*
X140037871Y-67650716D01*
X139703998Y-67316843D01*
X139311405Y-67054520D01*
X138875179Y-66873829D01*
X138412084Y-66781714D01*
X137939916Y-66781714D01*
X137476821Y-66873829D01*
X137040595Y-67054520D01*
X136648002Y-67316843D01*
X136314129Y-67650716D01*
X136051806Y-68043309D01*
X135871115Y-68479535D01*
X135826500Y-68703831D01*
X135781885Y-68479535D01*
X135601194Y-68043309D01*
X135338871Y-67650716D01*
X135004998Y-67316843D01*
X134612405Y-67054520D01*
X134362000Y-66950799D01*
X134362000Y-66787578D01*
X137110561Y-64039017D01*
X137145665Y-64046000D01*
X137428335Y-64046000D01*
X137705574Y-63990853D01*
X137966727Y-63882680D01*
X138201759Y-63725637D01*
X138401637Y-63525759D01*
X138558680Y-63290727D01*
X138666853Y-63029574D01*
X138722000Y-62752335D01*
X138722000Y-62469665D01*
X138666853Y-62192426D01*
X138558680Y-61931273D01*
X138401637Y-61696241D01*
X138201759Y-61496363D01*
X137966727Y-61339320D01*
X137705574Y-61231147D01*
X137428335Y-61176000D01*
X137145665Y-61176000D01*
X136868426Y-61231147D01*
X136607273Y-61339320D01*
X136372241Y-61496363D01*
X136172363Y-61696241D01*
X136015320Y-61931273D01*
X135907147Y-62192426D01*
X135852000Y-62469665D01*
X135852000Y-62752335D01*
X135858983Y-62787439D01*
X132881951Y-65764470D01*
X132848184Y-65792183D01*
X132820471Y-65825951D01*
X132820468Y-65825954D01*
X132737590Y-65926941D01*
X132655412Y-66080687D01*
X132604805Y-66247510D01*
X132587719Y-66421000D01*
X132592001Y-66464479D01*
X132592001Y-66950798D01*
X132341595Y-67054520D01*
X131949002Y-67316843D01*
X131615129Y-67650716D01*
X131352806Y-68043309D01*
X131172115Y-68479535D01*
X131127500Y-68703831D01*
X131082885Y-68479535D01*
X130902194Y-68043309D01*
X130639871Y-67650716D01*
X130305998Y-67316843D01*
X129913405Y-67054520D01*
X129477179Y-66873829D01*
X129014084Y-66781714D01*
X128541916Y-66781714D01*
X128078821Y-66873829D01*
X127642595Y-67054520D01*
X127250002Y-67316843D01*
X126916129Y-67650716D01*
X126869000Y-67721249D01*
X126869000Y-63543469D01*
X126873281Y-63500000D01*
X126869000Y-63456531D01*
X126869000Y-63456523D01*
X126856195Y-63326510D01*
X126805589Y-63159687D01*
X126723411Y-63005941D01*
X126693431Y-62969410D01*
X126640532Y-62904953D01*
X126640530Y-62904951D01*
X126612817Y-62871183D01*
X126579050Y-62843471D01*
X125853000Y-62117422D01*
X125853000Y-59078211D01*
X125873463Y-59116494D01*
X125952815Y-59213185D01*
X126049506Y-59292537D01*
X126159820Y-59351502D01*
X126279518Y-59387812D01*
X126404000Y-59400072D01*
X126968250Y-59397000D01*
X127127000Y-59238250D01*
X127127000Y-58039000D01*
X127107000Y-58039000D01*
X127107000Y-57785000D01*
X127127000Y-57785000D01*
X127127000Y-56585750D01*
X126968250Y-56427000D01*
X126404000Y-56423928D01*
X126279518Y-56436188D01*
X126159820Y-56472498D01*
X126049506Y-56531463D01*
X125952815Y-56610815D01*
X125873463Y-56707506D01*
X125853000Y-56745789D01*
X125853000Y-53101591D01*
X126580150Y-52374442D01*
X126653806Y-52552262D01*
X126916129Y-52944855D01*
X127250002Y-53278728D01*
X127642595Y-53541051D01*
X128078821Y-53721742D01*
X128541916Y-53813857D01*
X129014084Y-53813857D01*
X129477179Y-53721742D01*
X129913405Y-53541051D01*
X130305998Y-53278728D01*
X130639871Y-52944855D01*
X130902194Y-52552262D01*
X131082885Y-52116036D01*
X131127500Y-51891740D01*
X131172115Y-52116036D01*
M02*
