G04 #@! TF.GenerationSoftware,KiCad,Pcbnew,(5.1.5)-3*
G04 #@! TF.CreationDate,2020-05-19T17:08:50-07:00*
G04 #@! TF.ProjectId,SM2REV1,534d3252-4556-4312-9e6b-696361645f70,rev?*
G04 #@! TF.SameCoordinates,Original*
G04 #@! TF.FileFunction,Soldermask,Bot*
G04 #@! TF.FilePolarity,Negative*
%FSLAX46Y46*%
G04 Gerber Fmt 4.6, Leading zero omitted, Abs format (unit mm)*
G04 Created by KiCad (PCBNEW (5.1.5)-3) date 2020-05-19 17:08:50*
%MOMM*%
%LPD*%
G04 APERTURE LIST*
%ADD10C,0.100000*%
G04 APERTURE END LIST*
D10*
G36*
X129306831Y-185200672D02*
G01*
X129636776Y-185337340D01*
X129636777Y-185337341D01*
X129933720Y-185535751D01*
X130186249Y-185788280D01*
X130318822Y-185986691D01*
X130384660Y-186085224D01*
X130521328Y-186415169D01*
X130591000Y-186765434D01*
X130591000Y-187122566D01*
X130521328Y-187472831D01*
X130384660Y-187802776D01*
X130384659Y-187802777D01*
X130186249Y-188099720D01*
X129933720Y-188352249D01*
X129735309Y-188484822D01*
X129636776Y-188550660D01*
X129306831Y-188687328D01*
X128956566Y-188757000D01*
X128599434Y-188757000D01*
X128249169Y-188687328D01*
X127919224Y-188550660D01*
X127820691Y-188484822D01*
X127622280Y-188352249D01*
X127369751Y-188099720D01*
X127171341Y-187802777D01*
X127171340Y-187802776D01*
X127034672Y-187472831D01*
X126965000Y-187122566D01*
X126965000Y-186765434D01*
X127034672Y-186415169D01*
X127171340Y-186085224D01*
X127237178Y-185986691D01*
X127369751Y-185788280D01*
X127622280Y-185535751D01*
X127919223Y-185337341D01*
X127919224Y-185337340D01*
X128249169Y-185200672D01*
X128599434Y-185131000D01*
X128956566Y-185131000D01*
X129306831Y-185200672D01*
G37*
G36*
X138704831Y-185200672D02*
G01*
X139034776Y-185337340D01*
X139034777Y-185337341D01*
X139331720Y-185535751D01*
X139584249Y-185788280D01*
X139716822Y-185986691D01*
X139782660Y-186085224D01*
X139919328Y-186415169D01*
X139989000Y-186765434D01*
X139989000Y-187122566D01*
X139919328Y-187472831D01*
X139782660Y-187802776D01*
X139782659Y-187802777D01*
X139584249Y-188099720D01*
X139331720Y-188352249D01*
X139133309Y-188484822D01*
X139034776Y-188550660D01*
X138704831Y-188687328D01*
X138354566Y-188757000D01*
X137997434Y-188757000D01*
X137647169Y-188687328D01*
X137317224Y-188550660D01*
X137218691Y-188484822D01*
X137020280Y-188352249D01*
X136767751Y-188099720D01*
X136569341Y-187802777D01*
X136569340Y-187802776D01*
X136432672Y-187472831D01*
X136363000Y-187122566D01*
X136363000Y-186765434D01*
X136432672Y-186415169D01*
X136569340Y-186085224D01*
X136635178Y-185986691D01*
X136767751Y-185788280D01*
X137020280Y-185535751D01*
X137317223Y-185337341D01*
X137317224Y-185337340D01*
X137647169Y-185200672D01*
X137997434Y-185131000D01*
X138354566Y-185131000D01*
X138704831Y-185200672D01*
G37*
G36*
X134005831Y-185200672D02*
G01*
X134335776Y-185337340D01*
X134335777Y-185337341D01*
X134632720Y-185535751D01*
X134885249Y-185788280D01*
X135017822Y-185986691D01*
X135083660Y-186085224D01*
X135220328Y-186415169D01*
X135290000Y-186765434D01*
X135290000Y-187122566D01*
X135220328Y-187472831D01*
X135083660Y-187802776D01*
X135083659Y-187802777D01*
X134885249Y-188099720D01*
X134632720Y-188352249D01*
X134434309Y-188484822D01*
X134335776Y-188550660D01*
X134005831Y-188687328D01*
X133655566Y-188757000D01*
X133298434Y-188757000D01*
X132948169Y-188687328D01*
X132618224Y-188550660D01*
X132519691Y-188484822D01*
X132321280Y-188352249D01*
X132068751Y-188099720D01*
X131870341Y-187802777D01*
X131870340Y-187802776D01*
X131733672Y-187472831D01*
X131664000Y-187122566D01*
X131664000Y-186765434D01*
X131733672Y-186415169D01*
X131870340Y-186085224D01*
X131936178Y-185986691D01*
X132068751Y-185788280D01*
X132321280Y-185535751D01*
X132618223Y-185337341D01*
X132618224Y-185337340D01*
X132948169Y-185200672D01*
X133298434Y-185131000D01*
X133655566Y-185131000D01*
X134005831Y-185200672D01*
G37*
G36*
X122832395Y-183489546D02*
G01*
X123005466Y-183561234D01*
X123005467Y-183561235D01*
X123161227Y-183665310D01*
X123293690Y-183797773D01*
X123293691Y-183797775D01*
X123397766Y-183953534D01*
X123469454Y-184126605D01*
X123506000Y-184310333D01*
X123506000Y-184497667D01*
X123469454Y-184681395D01*
X123397766Y-184854466D01*
X123397765Y-184854467D01*
X123293690Y-185010227D01*
X123161227Y-185142690D01*
X123082818Y-185195081D01*
X123005466Y-185246766D01*
X122832395Y-185318454D01*
X122648667Y-185355000D01*
X122461333Y-185355000D01*
X122277605Y-185318454D01*
X122104534Y-185246766D01*
X122027182Y-185195081D01*
X121948773Y-185142690D01*
X121816310Y-185010227D01*
X121712235Y-184854467D01*
X121712234Y-184854466D01*
X121640546Y-184681395D01*
X121604000Y-184497667D01*
X121604000Y-184310333D01*
X121640546Y-184126605D01*
X121712234Y-183953534D01*
X121816309Y-183797775D01*
X121816310Y-183797773D01*
X121948773Y-183665310D01*
X122104533Y-183561235D01*
X122104534Y-183561234D01*
X122277605Y-183489546D01*
X122461333Y-183453000D01*
X122648667Y-183453000D01*
X122832395Y-183489546D01*
G37*
G36*
X148271000Y-185355000D02*
G01*
X146369000Y-185355000D01*
X146369000Y-183453000D01*
X148271000Y-183453000D01*
X148271000Y-185355000D01*
G37*
G36*
X145057395Y-183489546D02*
G01*
X145230466Y-183561234D01*
X145230467Y-183561235D01*
X145386227Y-183665310D01*
X145518690Y-183797773D01*
X145518691Y-183797775D01*
X145622766Y-183953534D01*
X145694454Y-184126605D01*
X145731000Y-184310333D01*
X145731000Y-184497667D01*
X145694454Y-184681395D01*
X145622766Y-184854466D01*
X145622765Y-184854467D01*
X145518690Y-185010227D01*
X145386227Y-185142690D01*
X145307818Y-185195081D01*
X145230466Y-185246766D01*
X145057395Y-185318454D01*
X144873667Y-185355000D01*
X144686333Y-185355000D01*
X144502605Y-185318454D01*
X144329534Y-185246766D01*
X144252182Y-185195081D01*
X144173773Y-185142690D01*
X144041310Y-185010227D01*
X143937235Y-184854467D01*
X143937234Y-184854466D01*
X143865546Y-184681395D01*
X143829000Y-184497667D01*
X143829000Y-184310333D01*
X143865546Y-184126605D01*
X143937234Y-183953534D01*
X144041309Y-183797775D01*
X144041310Y-183797773D01*
X144173773Y-183665310D01*
X144329533Y-183561235D01*
X144329534Y-183561234D01*
X144502605Y-183489546D01*
X144686333Y-183453000D01*
X144873667Y-183453000D01*
X145057395Y-183489546D01*
G37*
G36*
X120966000Y-185355000D02*
G01*
X119064000Y-185355000D01*
X119064000Y-183453000D01*
X120966000Y-183453000D01*
X120966000Y-185355000D01*
G37*
G36*
X129306831Y-180374672D02*
G01*
X129636776Y-180511340D01*
X129636777Y-180511341D01*
X129933720Y-180709751D01*
X130186249Y-180962280D01*
X130318822Y-181160691D01*
X130384660Y-181259224D01*
X130521328Y-181589169D01*
X130591000Y-181939434D01*
X130591000Y-182296566D01*
X130521328Y-182646831D01*
X130384660Y-182976776D01*
X130384659Y-182976777D01*
X130186249Y-183273720D01*
X129933720Y-183526249D01*
X129881359Y-183561235D01*
X129636776Y-183724660D01*
X129306831Y-183861328D01*
X128956566Y-183931000D01*
X128599434Y-183931000D01*
X128249169Y-183861328D01*
X127919224Y-183724660D01*
X127674641Y-183561235D01*
X127622280Y-183526249D01*
X127369751Y-183273720D01*
X127171341Y-182976777D01*
X127171340Y-182976776D01*
X127034672Y-182646831D01*
X126965000Y-182296566D01*
X126965000Y-181939434D01*
X127034672Y-181589169D01*
X127171340Y-181259224D01*
X127237178Y-181160691D01*
X127369751Y-180962280D01*
X127622280Y-180709751D01*
X127919223Y-180511341D01*
X127919224Y-180511340D01*
X128249169Y-180374672D01*
X128599434Y-180305000D01*
X128956566Y-180305000D01*
X129306831Y-180374672D01*
G37*
G36*
X134005831Y-180374672D02*
G01*
X134335776Y-180511340D01*
X134335777Y-180511341D01*
X134632720Y-180709751D01*
X134885249Y-180962280D01*
X135017822Y-181160691D01*
X135083660Y-181259224D01*
X135220328Y-181589169D01*
X135290000Y-181939434D01*
X135290000Y-182296566D01*
X135220328Y-182646831D01*
X135083660Y-182976776D01*
X135083659Y-182976777D01*
X134885249Y-183273720D01*
X134632720Y-183526249D01*
X134580359Y-183561235D01*
X134335776Y-183724660D01*
X134005831Y-183861328D01*
X133655566Y-183931000D01*
X133298434Y-183931000D01*
X132948169Y-183861328D01*
X132618224Y-183724660D01*
X132373641Y-183561235D01*
X132321280Y-183526249D01*
X132068751Y-183273720D01*
X131870341Y-182976777D01*
X131870340Y-182976776D01*
X131733672Y-182646831D01*
X131664000Y-182296566D01*
X131664000Y-181939434D01*
X131733672Y-181589169D01*
X131870340Y-181259224D01*
X131936178Y-181160691D01*
X132068751Y-180962280D01*
X132321280Y-180709751D01*
X132618223Y-180511341D01*
X132618224Y-180511340D01*
X132948169Y-180374672D01*
X133298434Y-180305000D01*
X133655566Y-180305000D01*
X134005831Y-180374672D01*
G37*
G36*
X138704831Y-180374672D02*
G01*
X139034776Y-180511340D01*
X139034777Y-180511341D01*
X139331720Y-180709751D01*
X139584249Y-180962280D01*
X139716822Y-181160691D01*
X139782660Y-181259224D01*
X139919328Y-181589169D01*
X139989000Y-181939434D01*
X139989000Y-182296566D01*
X139919328Y-182646831D01*
X139782660Y-182976776D01*
X139782659Y-182976777D01*
X139584249Y-183273720D01*
X139331720Y-183526249D01*
X139279359Y-183561235D01*
X139034776Y-183724660D01*
X138704831Y-183861328D01*
X138354566Y-183931000D01*
X137997434Y-183931000D01*
X137647169Y-183861328D01*
X137317224Y-183724660D01*
X137072641Y-183561235D01*
X137020280Y-183526249D01*
X136767751Y-183273720D01*
X136569341Y-182976777D01*
X136569340Y-182976776D01*
X136432672Y-182646831D01*
X136363000Y-182296566D01*
X136363000Y-181939434D01*
X136432672Y-181589169D01*
X136569340Y-181259224D01*
X136635178Y-181160691D01*
X136767751Y-180962280D01*
X137020280Y-180709751D01*
X137317223Y-180511341D01*
X137317224Y-180511340D01*
X137647169Y-180374672D01*
X137997434Y-180305000D01*
X138354566Y-180305000D01*
X138704831Y-180374672D01*
G37*
G36*
X137535228Y-173552703D02*
G01*
X137690100Y-173616853D01*
X137829481Y-173709985D01*
X137948015Y-173828519D01*
X138041147Y-173967900D01*
X138105297Y-174122772D01*
X138138000Y-174287184D01*
X138138000Y-174454816D01*
X138105297Y-174619228D01*
X138041147Y-174774100D01*
X137948015Y-174913481D01*
X137829481Y-175032015D01*
X137690100Y-175125147D01*
X137535228Y-175189297D01*
X137370816Y-175222000D01*
X137203184Y-175222000D01*
X137038772Y-175189297D01*
X136883900Y-175125147D01*
X136744519Y-175032015D01*
X136625985Y-174913481D01*
X136532853Y-174774100D01*
X136468703Y-174619228D01*
X136436000Y-174454816D01*
X136436000Y-174287184D01*
X136468703Y-174122772D01*
X136532853Y-173967900D01*
X136625985Y-173828519D01*
X136744519Y-173709985D01*
X136883900Y-173616853D01*
X137038772Y-173552703D01*
X137203184Y-173520000D01*
X137370816Y-173520000D01*
X137535228Y-173552703D01*
G37*
G36*
X145155228Y-173552703D02*
G01*
X145310100Y-173616853D01*
X145449481Y-173709985D01*
X145568015Y-173828519D01*
X145661147Y-173967900D01*
X145725297Y-174122772D01*
X145758000Y-174287184D01*
X145758000Y-174454816D01*
X145725297Y-174619228D01*
X145661147Y-174774100D01*
X145568015Y-174913481D01*
X145449481Y-175032015D01*
X145310100Y-175125147D01*
X145155228Y-175189297D01*
X144990816Y-175222000D01*
X144823184Y-175222000D01*
X144658772Y-175189297D01*
X144503900Y-175125147D01*
X144364519Y-175032015D01*
X144245985Y-174913481D01*
X144152853Y-174774100D01*
X144088703Y-174619228D01*
X144056000Y-174454816D01*
X144056000Y-174287184D01*
X144088703Y-174122772D01*
X144152853Y-173967900D01*
X144245985Y-173828519D01*
X144364519Y-173709985D01*
X144503900Y-173616853D01*
X144658772Y-173552703D01*
X144823184Y-173520000D01*
X144990816Y-173520000D01*
X145155228Y-173552703D01*
G37*
G36*
X138704831Y-162612814D02*
G01*
X139034776Y-162749482D01*
X139133309Y-162815320D01*
X139331720Y-162947893D01*
X139584249Y-163200422D01*
X139716822Y-163398833D01*
X139782660Y-163497366D01*
X139919328Y-163827311D01*
X139989000Y-164177576D01*
X139989000Y-164534708D01*
X139919328Y-164884973D01*
X139782660Y-165214918D01*
X139782659Y-165214919D01*
X139584249Y-165511862D01*
X139331720Y-165764391D01*
X139133309Y-165896964D01*
X139034776Y-165962802D01*
X138704831Y-166099470D01*
X138354566Y-166169142D01*
X137997434Y-166169142D01*
X137647169Y-166099470D01*
X137317224Y-165962802D01*
X137218691Y-165896964D01*
X137020280Y-165764391D01*
X136767751Y-165511862D01*
X136569341Y-165214919D01*
X136569340Y-165214918D01*
X136432672Y-164884973D01*
X136363000Y-164534708D01*
X136363000Y-164177576D01*
X136432672Y-163827311D01*
X136569340Y-163497366D01*
X136635178Y-163398833D01*
X136767751Y-163200422D01*
X137020280Y-162947893D01*
X137218691Y-162815320D01*
X137317224Y-162749482D01*
X137647169Y-162612814D01*
X137997434Y-162543142D01*
X138354566Y-162543142D01*
X138704831Y-162612814D01*
G37*
G36*
X129306831Y-162612814D02*
G01*
X129636776Y-162749482D01*
X129735309Y-162815320D01*
X129933720Y-162947893D01*
X130186249Y-163200422D01*
X130318822Y-163398833D01*
X130384660Y-163497366D01*
X130521328Y-163827311D01*
X130591000Y-164177576D01*
X130591000Y-164534708D01*
X130521328Y-164884973D01*
X130384660Y-165214918D01*
X130384659Y-165214919D01*
X130186249Y-165511862D01*
X129933720Y-165764391D01*
X129735309Y-165896964D01*
X129636776Y-165962802D01*
X129306831Y-166099470D01*
X128956566Y-166169142D01*
X128599434Y-166169142D01*
X128249169Y-166099470D01*
X127919224Y-165962802D01*
X127820691Y-165896964D01*
X127622280Y-165764391D01*
X127369751Y-165511862D01*
X127171341Y-165214919D01*
X127171340Y-165214918D01*
X127034672Y-164884973D01*
X126965000Y-164534708D01*
X126965000Y-164177576D01*
X127034672Y-163827311D01*
X127171340Y-163497366D01*
X127237178Y-163398833D01*
X127369751Y-163200422D01*
X127622280Y-162947893D01*
X127820691Y-162815320D01*
X127919224Y-162749482D01*
X128249169Y-162612814D01*
X128599434Y-162543142D01*
X128956566Y-162543142D01*
X129306831Y-162612814D01*
G37*
G36*
X134005831Y-162612814D02*
G01*
X134335776Y-162749482D01*
X134434309Y-162815320D01*
X134632720Y-162947893D01*
X134885249Y-163200422D01*
X135017822Y-163398833D01*
X135083660Y-163497366D01*
X135220328Y-163827311D01*
X135290000Y-164177576D01*
X135290000Y-164534708D01*
X135220328Y-164884973D01*
X135083660Y-165214918D01*
X135083659Y-165214919D01*
X134885249Y-165511862D01*
X134632720Y-165764391D01*
X134434309Y-165896964D01*
X134335776Y-165962802D01*
X134005831Y-166099470D01*
X133655566Y-166169142D01*
X133298434Y-166169142D01*
X132948169Y-166099470D01*
X132618224Y-165962802D01*
X132519691Y-165896964D01*
X132321280Y-165764391D01*
X132068751Y-165511862D01*
X131870341Y-165214919D01*
X131870340Y-165214918D01*
X131733672Y-164884973D01*
X131664000Y-164534708D01*
X131664000Y-164177576D01*
X131733672Y-163827311D01*
X131870340Y-163497366D01*
X131936178Y-163398833D01*
X132068751Y-163200422D01*
X132321280Y-162947893D01*
X132519691Y-162815320D01*
X132618224Y-162749482D01*
X132948169Y-162612814D01*
X133298434Y-162543142D01*
X133655566Y-162543142D01*
X134005831Y-162612814D01*
G37*
G36*
X145057395Y-161137546D02*
G01*
X145230466Y-161209234D01*
X145230467Y-161209235D01*
X145386227Y-161313310D01*
X145518690Y-161445773D01*
X145518691Y-161445775D01*
X145622766Y-161601534D01*
X145694454Y-161774605D01*
X145731000Y-161958333D01*
X145731000Y-162145667D01*
X145694454Y-162329395D01*
X145622766Y-162502466D01*
X145595587Y-162543142D01*
X145518690Y-162658227D01*
X145386227Y-162790690D01*
X145307818Y-162843081D01*
X145230466Y-162894766D01*
X145057395Y-162966454D01*
X144873667Y-163003000D01*
X144686333Y-163003000D01*
X144502605Y-162966454D01*
X144329534Y-162894766D01*
X144252182Y-162843081D01*
X144173773Y-162790690D01*
X144041310Y-162658227D01*
X143964413Y-162543142D01*
X143937234Y-162502466D01*
X143865546Y-162329395D01*
X143829000Y-162145667D01*
X143829000Y-161958333D01*
X143865546Y-161774605D01*
X143937234Y-161601534D01*
X144041309Y-161445775D01*
X144041310Y-161445773D01*
X144173773Y-161313310D01*
X144329533Y-161209235D01*
X144329534Y-161209234D01*
X144502605Y-161137546D01*
X144686333Y-161101000D01*
X144873667Y-161101000D01*
X145057395Y-161137546D01*
G37*
G36*
X148271000Y-163003000D02*
G01*
X146369000Y-163003000D01*
X146369000Y-161101000D01*
X148271000Y-161101000D01*
X148271000Y-163003000D01*
G37*
G36*
X122832395Y-160883546D02*
G01*
X123005466Y-160955234D01*
X123005467Y-160955235D01*
X123161227Y-161059310D01*
X123293690Y-161191773D01*
X123346081Y-161270182D01*
X123397766Y-161347534D01*
X123469454Y-161520605D01*
X123506000Y-161704333D01*
X123506000Y-161891667D01*
X123469454Y-162075395D01*
X123397766Y-162248466D01*
X123397765Y-162248467D01*
X123293690Y-162404227D01*
X123161227Y-162536690D01*
X123082818Y-162589081D01*
X123005466Y-162640766D01*
X122832395Y-162712454D01*
X122648667Y-162749000D01*
X122461333Y-162749000D01*
X122277605Y-162712454D01*
X122104534Y-162640766D01*
X122027182Y-162589081D01*
X121948773Y-162536690D01*
X121816310Y-162404227D01*
X121712235Y-162248467D01*
X121712234Y-162248466D01*
X121640546Y-162075395D01*
X121604000Y-161891667D01*
X121604000Y-161704333D01*
X121640546Y-161520605D01*
X121712234Y-161347534D01*
X121763919Y-161270182D01*
X121816310Y-161191773D01*
X121948773Y-161059310D01*
X122104533Y-160955235D01*
X122104534Y-160955234D01*
X122277605Y-160883546D01*
X122461333Y-160847000D01*
X122648667Y-160847000D01*
X122832395Y-160883546D01*
G37*
G36*
X120966000Y-162749000D02*
G01*
X119064000Y-162749000D01*
X119064000Y-160847000D01*
X120966000Y-160847000D01*
X120966000Y-162749000D01*
G37*
G36*
X138704831Y-157786814D02*
G01*
X139034776Y-157923482D01*
X139034777Y-157923483D01*
X139331720Y-158121893D01*
X139584249Y-158374422D01*
X139716822Y-158572833D01*
X139782660Y-158671366D01*
X139919328Y-159001311D01*
X139989000Y-159351576D01*
X139989000Y-159708708D01*
X139919328Y-160058973D01*
X139782660Y-160388918D01*
X139782659Y-160388919D01*
X139584249Y-160685862D01*
X139331720Y-160938391D01*
X139150751Y-161059310D01*
X139034776Y-161136802D01*
X138704831Y-161273470D01*
X138354566Y-161343142D01*
X137997434Y-161343142D01*
X137647169Y-161273470D01*
X137317224Y-161136802D01*
X137201249Y-161059310D01*
X137020280Y-160938391D01*
X136767751Y-160685862D01*
X136569341Y-160388919D01*
X136569340Y-160388918D01*
X136432672Y-160058973D01*
X136363000Y-159708708D01*
X136363000Y-159351576D01*
X136432672Y-159001311D01*
X136569340Y-158671366D01*
X136635178Y-158572833D01*
X136767751Y-158374422D01*
X137020280Y-158121893D01*
X137317223Y-157923483D01*
X137317224Y-157923482D01*
X137647169Y-157786814D01*
X137997434Y-157717142D01*
X138354566Y-157717142D01*
X138704831Y-157786814D01*
G37*
G36*
X134005831Y-157786814D02*
G01*
X134335776Y-157923482D01*
X134335777Y-157923483D01*
X134632720Y-158121893D01*
X134885249Y-158374422D01*
X135017822Y-158572833D01*
X135083660Y-158671366D01*
X135220328Y-159001311D01*
X135290000Y-159351576D01*
X135290000Y-159708708D01*
X135220328Y-160058973D01*
X135083660Y-160388918D01*
X135083659Y-160388919D01*
X134885249Y-160685862D01*
X134632720Y-160938391D01*
X134451751Y-161059310D01*
X134335776Y-161136802D01*
X134005831Y-161273470D01*
X133655566Y-161343142D01*
X133298434Y-161343142D01*
X132948169Y-161273470D01*
X132618224Y-161136802D01*
X132502249Y-161059310D01*
X132321280Y-160938391D01*
X132068751Y-160685862D01*
X131870341Y-160388919D01*
X131870340Y-160388918D01*
X131733672Y-160058973D01*
X131664000Y-159708708D01*
X131664000Y-159351576D01*
X131733672Y-159001311D01*
X131870340Y-158671366D01*
X131936178Y-158572833D01*
X132068751Y-158374422D01*
X132321280Y-158121893D01*
X132618223Y-157923483D01*
X132618224Y-157923482D01*
X132948169Y-157786814D01*
X133298434Y-157717142D01*
X133655566Y-157717142D01*
X134005831Y-157786814D01*
G37*
G36*
X129306831Y-157786814D02*
G01*
X129636776Y-157923482D01*
X129636777Y-157923483D01*
X129933720Y-158121893D01*
X130186249Y-158374422D01*
X130318822Y-158572833D01*
X130384660Y-158671366D01*
X130521328Y-159001311D01*
X130591000Y-159351576D01*
X130591000Y-159708708D01*
X130521328Y-160058973D01*
X130384660Y-160388918D01*
X130384659Y-160388919D01*
X130186249Y-160685862D01*
X129933720Y-160938391D01*
X129752751Y-161059310D01*
X129636776Y-161136802D01*
X129306831Y-161273470D01*
X128956566Y-161343142D01*
X128599434Y-161343142D01*
X128249169Y-161273470D01*
X127919224Y-161136802D01*
X127803249Y-161059310D01*
X127622280Y-160938391D01*
X127369751Y-160685862D01*
X127171341Y-160388919D01*
X127171340Y-160388918D01*
X127034672Y-160058973D01*
X126965000Y-159708708D01*
X126965000Y-159351576D01*
X127034672Y-159001311D01*
X127171340Y-158671366D01*
X127237178Y-158572833D01*
X127369751Y-158374422D01*
X127622280Y-158121893D01*
X127919223Y-157923483D01*
X127919224Y-157923482D01*
X128249169Y-157786814D01*
X128599434Y-157717142D01*
X128956566Y-157717142D01*
X129306831Y-157786814D01*
G37*
G36*
X145155228Y-152851703D02*
G01*
X145310100Y-152915853D01*
X145449481Y-153008985D01*
X145568015Y-153127519D01*
X145661147Y-153266900D01*
X145725297Y-153421772D01*
X145758000Y-153586184D01*
X145758000Y-153753816D01*
X145725297Y-153918228D01*
X145661147Y-154073100D01*
X145568015Y-154212481D01*
X145449481Y-154331015D01*
X145310100Y-154424147D01*
X145155228Y-154488297D01*
X144990816Y-154521000D01*
X144823184Y-154521000D01*
X144658772Y-154488297D01*
X144503900Y-154424147D01*
X144364519Y-154331015D01*
X144245985Y-154212481D01*
X144152853Y-154073100D01*
X144088703Y-153918228D01*
X144056000Y-153753816D01*
X144056000Y-153586184D01*
X144088703Y-153421772D01*
X144152853Y-153266900D01*
X144245985Y-153127519D01*
X144364519Y-153008985D01*
X144503900Y-152915853D01*
X144658772Y-152851703D01*
X144823184Y-152819000D01*
X144990816Y-152819000D01*
X145155228Y-152851703D01*
G37*
G36*
X137535228Y-152851703D02*
G01*
X137690100Y-152915853D01*
X137829481Y-153008985D01*
X137948015Y-153127519D01*
X138041147Y-153266900D01*
X138105297Y-153421772D01*
X138138000Y-153586184D01*
X138138000Y-153753816D01*
X138105297Y-153918228D01*
X138041147Y-154073100D01*
X137948015Y-154212481D01*
X137829481Y-154331015D01*
X137690100Y-154424147D01*
X137535228Y-154488297D01*
X137370816Y-154521000D01*
X137203184Y-154521000D01*
X137038772Y-154488297D01*
X136883900Y-154424147D01*
X136744519Y-154331015D01*
X136625985Y-154212481D01*
X136532853Y-154073100D01*
X136468703Y-153918228D01*
X136436000Y-153753816D01*
X136436000Y-153586184D01*
X136468703Y-153421772D01*
X136532853Y-153266900D01*
X136625985Y-153127519D01*
X136744519Y-153008985D01*
X136883900Y-152915853D01*
X137038772Y-152851703D01*
X137203184Y-152819000D01*
X137370816Y-152819000D01*
X137535228Y-152851703D01*
G37*
G36*
X128155000Y-149491000D02*
G01*
X126353000Y-149491000D01*
X126353000Y-147689000D01*
X128155000Y-147689000D01*
X128155000Y-149491000D01*
G37*
G36*
X129907512Y-147693927D02*
G01*
X130056812Y-147723624D01*
X130220784Y-147791544D01*
X130368354Y-147890147D01*
X130493853Y-148015646D01*
X130592456Y-148163216D01*
X130660376Y-148327188D01*
X130695000Y-148501259D01*
X130695000Y-148678741D01*
X130660376Y-148852812D01*
X130592456Y-149016784D01*
X130493853Y-149164354D01*
X130368354Y-149289853D01*
X130220784Y-149388456D01*
X130056812Y-149456376D01*
X129907512Y-149486073D01*
X129882742Y-149491000D01*
X129705258Y-149491000D01*
X129680488Y-149486073D01*
X129531188Y-149456376D01*
X129367216Y-149388456D01*
X129219646Y-149289853D01*
X129094147Y-149164354D01*
X128995544Y-149016784D01*
X128927624Y-148852812D01*
X128893000Y-148678741D01*
X128893000Y-148501259D01*
X128927624Y-148327188D01*
X128995544Y-148163216D01*
X129094147Y-148015646D01*
X129219646Y-147890147D01*
X129367216Y-147791544D01*
X129531188Y-147723624D01*
X129680488Y-147693927D01*
X129705258Y-147689000D01*
X129882742Y-147689000D01*
X129907512Y-147693927D01*
G37*
G36*
X132447512Y-147693927D02*
G01*
X132596812Y-147723624D01*
X132760784Y-147791544D01*
X132908354Y-147890147D01*
X133033853Y-148015646D01*
X133132456Y-148163216D01*
X133200376Y-148327188D01*
X133235000Y-148501259D01*
X133235000Y-148678741D01*
X133200376Y-148852812D01*
X133132456Y-149016784D01*
X133033853Y-149164354D01*
X132908354Y-149289853D01*
X132760784Y-149388456D01*
X132596812Y-149456376D01*
X132447512Y-149486073D01*
X132422742Y-149491000D01*
X132245258Y-149491000D01*
X132220488Y-149486073D01*
X132071188Y-149456376D01*
X131907216Y-149388456D01*
X131759646Y-149289853D01*
X131634147Y-149164354D01*
X131535544Y-149016784D01*
X131467624Y-148852812D01*
X131433000Y-148678741D01*
X131433000Y-148501259D01*
X131467624Y-148327188D01*
X131535544Y-148163216D01*
X131634147Y-148015646D01*
X131759646Y-147890147D01*
X131907216Y-147791544D01*
X132071188Y-147723624D01*
X132220488Y-147693927D01*
X132245258Y-147689000D01*
X132422742Y-147689000D01*
X132447512Y-147693927D01*
G37*
G36*
X134987512Y-147693927D02*
G01*
X135136812Y-147723624D01*
X135300784Y-147791544D01*
X135448354Y-147890147D01*
X135573853Y-148015646D01*
X135672456Y-148163216D01*
X135740376Y-148327188D01*
X135775000Y-148501259D01*
X135775000Y-148678741D01*
X135740376Y-148852812D01*
X135672456Y-149016784D01*
X135573853Y-149164354D01*
X135448354Y-149289853D01*
X135300784Y-149388456D01*
X135136812Y-149456376D01*
X134987512Y-149486073D01*
X134962742Y-149491000D01*
X134785258Y-149491000D01*
X134760488Y-149486073D01*
X134611188Y-149456376D01*
X134447216Y-149388456D01*
X134299646Y-149289853D01*
X134174147Y-149164354D01*
X134075544Y-149016784D01*
X134007624Y-148852812D01*
X133973000Y-148678741D01*
X133973000Y-148501259D01*
X134007624Y-148327188D01*
X134075544Y-148163216D01*
X134174147Y-148015646D01*
X134299646Y-147890147D01*
X134447216Y-147791544D01*
X134611188Y-147723624D01*
X134760488Y-147693927D01*
X134785258Y-147689000D01*
X134962742Y-147689000D01*
X134987512Y-147693927D01*
G37*
G36*
X140067512Y-147693927D02*
G01*
X140216812Y-147723624D01*
X140380784Y-147791544D01*
X140528354Y-147890147D01*
X140653853Y-148015646D01*
X140752456Y-148163216D01*
X140820376Y-148327188D01*
X140855000Y-148501259D01*
X140855000Y-148678741D01*
X140820376Y-148852812D01*
X140752456Y-149016784D01*
X140653853Y-149164354D01*
X140528354Y-149289853D01*
X140380784Y-149388456D01*
X140216812Y-149456376D01*
X140067512Y-149486073D01*
X140042742Y-149491000D01*
X139865258Y-149491000D01*
X139840488Y-149486073D01*
X139691188Y-149456376D01*
X139527216Y-149388456D01*
X139379646Y-149289853D01*
X139254147Y-149164354D01*
X139155544Y-149016784D01*
X139087624Y-148852812D01*
X139053000Y-148678741D01*
X139053000Y-148501259D01*
X139087624Y-148327188D01*
X139155544Y-148163216D01*
X139254147Y-148015646D01*
X139379646Y-147890147D01*
X139527216Y-147791544D01*
X139691188Y-147723624D01*
X139840488Y-147693927D01*
X139865258Y-147689000D01*
X140042742Y-147689000D01*
X140067512Y-147693927D01*
G37*
G36*
X137527512Y-147693927D02*
G01*
X137676812Y-147723624D01*
X137840784Y-147791544D01*
X137988354Y-147890147D01*
X138113853Y-148015646D01*
X138212456Y-148163216D01*
X138280376Y-148327188D01*
X138315000Y-148501259D01*
X138315000Y-148678741D01*
X138280376Y-148852812D01*
X138212456Y-149016784D01*
X138113853Y-149164354D01*
X137988354Y-149289853D01*
X137840784Y-149388456D01*
X137676812Y-149456376D01*
X137527512Y-149486073D01*
X137502742Y-149491000D01*
X137325258Y-149491000D01*
X137300488Y-149486073D01*
X137151188Y-149456376D01*
X136987216Y-149388456D01*
X136839646Y-149289853D01*
X136714147Y-149164354D01*
X136615544Y-149016784D01*
X136547624Y-148852812D01*
X136513000Y-148678741D01*
X136513000Y-148501259D01*
X136547624Y-148327188D01*
X136615544Y-148163216D01*
X136714147Y-148015646D01*
X136839646Y-147890147D01*
X136987216Y-147791544D01*
X137151188Y-147723624D01*
X137300488Y-147693927D01*
X137325258Y-147689000D01*
X137502742Y-147689000D01*
X137527512Y-147693927D01*
G37*
G36*
X129306831Y-140024957D02*
G01*
X129636776Y-140161625D01*
X129735309Y-140227463D01*
X129933720Y-140360036D01*
X130186249Y-140612565D01*
X130318822Y-140810976D01*
X130384660Y-140909509D01*
X130521328Y-141239454D01*
X130591000Y-141589719D01*
X130591000Y-141946851D01*
X130521328Y-142297116D01*
X130384660Y-142627061D01*
X130384659Y-142627062D01*
X130186249Y-142924005D01*
X129933720Y-143176534D01*
X129735309Y-143309107D01*
X129636776Y-143374945D01*
X129306831Y-143511613D01*
X128956566Y-143581285D01*
X128599434Y-143581285D01*
X128249169Y-143511613D01*
X127919224Y-143374945D01*
X127820691Y-143309107D01*
X127622280Y-143176534D01*
X127369751Y-142924005D01*
X127171341Y-142627062D01*
X127171340Y-142627061D01*
X127034672Y-142297116D01*
X126965000Y-141946851D01*
X126965000Y-141589719D01*
X127034672Y-141239454D01*
X127171340Y-140909509D01*
X127237178Y-140810976D01*
X127369751Y-140612565D01*
X127622280Y-140360036D01*
X127820691Y-140227463D01*
X127919224Y-140161625D01*
X128249169Y-140024957D01*
X128599434Y-139955285D01*
X128956566Y-139955285D01*
X129306831Y-140024957D01*
G37*
G36*
X138704831Y-140024957D02*
G01*
X139034776Y-140161625D01*
X139133309Y-140227463D01*
X139331720Y-140360036D01*
X139584249Y-140612565D01*
X139716822Y-140810976D01*
X139782660Y-140909509D01*
X139919328Y-141239454D01*
X139989000Y-141589719D01*
X139989000Y-141946851D01*
X139919328Y-142297116D01*
X139782660Y-142627061D01*
X139782659Y-142627062D01*
X139584249Y-142924005D01*
X139331720Y-143176534D01*
X139133309Y-143309107D01*
X139034776Y-143374945D01*
X138704831Y-143511613D01*
X138354566Y-143581285D01*
X137997434Y-143581285D01*
X137647169Y-143511613D01*
X137317224Y-143374945D01*
X137218691Y-143309107D01*
X137020280Y-143176534D01*
X136767751Y-142924005D01*
X136569341Y-142627062D01*
X136569340Y-142627061D01*
X136432672Y-142297116D01*
X136363000Y-141946851D01*
X136363000Y-141589719D01*
X136432672Y-141239454D01*
X136569340Y-140909509D01*
X136635178Y-140810976D01*
X136767751Y-140612565D01*
X137020280Y-140360036D01*
X137218691Y-140227463D01*
X137317224Y-140161625D01*
X137647169Y-140024957D01*
X137997434Y-139955285D01*
X138354566Y-139955285D01*
X138704831Y-140024957D01*
G37*
G36*
X134005831Y-140024957D02*
G01*
X134335776Y-140161625D01*
X134434309Y-140227463D01*
X134632720Y-140360036D01*
X134885249Y-140612565D01*
X135017822Y-140810976D01*
X135083660Y-140909509D01*
X135220328Y-141239454D01*
X135290000Y-141589719D01*
X135290000Y-141946851D01*
X135220328Y-142297116D01*
X135083660Y-142627061D01*
X135083659Y-142627062D01*
X134885249Y-142924005D01*
X134632720Y-143176534D01*
X134434309Y-143309107D01*
X134335776Y-143374945D01*
X134005831Y-143511613D01*
X133655566Y-143581285D01*
X133298434Y-143581285D01*
X132948169Y-143511613D01*
X132618224Y-143374945D01*
X132519691Y-143309107D01*
X132321280Y-143176534D01*
X132068751Y-142924005D01*
X131870341Y-142627062D01*
X131870340Y-142627061D01*
X131733672Y-142297116D01*
X131664000Y-141946851D01*
X131664000Y-141589719D01*
X131733672Y-141239454D01*
X131870340Y-140909509D01*
X131936178Y-140810976D01*
X132068751Y-140612565D01*
X132321280Y-140360036D01*
X132519691Y-140227463D01*
X132618224Y-140161625D01*
X132948169Y-140024957D01*
X133298434Y-139955285D01*
X133655566Y-139955285D01*
X134005831Y-140024957D01*
G37*
G36*
X148271000Y-140397000D02*
G01*
X146369000Y-140397000D01*
X146369000Y-138495000D01*
X148271000Y-138495000D01*
X148271000Y-140397000D01*
G37*
G36*
X145057395Y-138531546D02*
G01*
X145230466Y-138603234D01*
X145230467Y-138603235D01*
X145386227Y-138707310D01*
X145518690Y-138839773D01*
X145518691Y-138839775D01*
X145622766Y-138995534D01*
X145694454Y-139168605D01*
X145731000Y-139352333D01*
X145731000Y-139539667D01*
X145694454Y-139723395D01*
X145622766Y-139896466D01*
X145622765Y-139896467D01*
X145518690Y-140052227D01*
X145386227Y-140184690D01*
X145307818Y-140237081D01*
X145230466Y-140288766D01*
X145057395Y-140360454D01*
X144873667Y-140397000D01*
X144686333Y-140397000D01*
X144502605Y-140360454D01*
X144329534Y-140288766D01*
X144252182Y-140237081D01*
X144173773Y-140184690D01*
X144041310Y-140052227D01*
X143937235Y-139896467D01*
X143937234Y-139896466D01*
X143865546Y-139723395D01*
X143829000Y-139539667D01*
X143829000Y-139352333D01*
X143865546Y-139168605D01*
X143937234Y-138995534D01*
X144041309Y-138839775D01*
X144041310Y-138839773D01*
X144173773Y-138707310D01*
X144329533Y-138603235D01*
X144329534Y-138603234D01*
X144502605Y-138531546D01*
X144686333Y-138495000D01*
X144873667Y-138495000D01*
X145057395Y-138531546D01*
G37*
G36*
X122832395Y-138531546D02*
G01*
X123005466Y-138603234D01*
X123005467Y-138603235D01*
X123161227Y-138707310D01*
X123293690Y-138839773D01*
X123293691Y-138839775D01*
X123397766Y-138995534D01*
X123469454Y-139168605D01*
X123506000Y-139352333D01*
X123506000Y-139539667D01*
X123469454Y-139723395D01*
X123397766Y-139896466D01*
X123397765Y-139896467D01*
X123293690Y-140052227D01*
X123161227Y-140184690D01*
X123082818Y-140237081D01*
X123005466Y-140288766D01*
X122832395Y-140360454D01*
X122648667Y-140397000D01*
X122461333Y-140397000D01*
X122277605Y-140360454D01*
X122104534Y-140288766D01*
X122027182Y-140237081D01*
X121948773Y-140184690D01*
X121816310Y-140052227D01*
X121712235Y-139896467D01*
X121712234Y-139896466D01*
X121640546Y-139723395D01*
X121604000Y-139539667D01*
X121604000Y-139352333D01*
X121640546Y-139168605D01*
X121712234Y-138995534D01*
X121816309Y-138839775D01*
X121816310Y-138839773D01*
X121948773Y-138707310D01*
X122104533Y-138603235D01*
X122104534Y-138603234D01*
X122277605Y-138531546D01*
X122461333Y-138495000D01*
X122648667Y-138495000D01*
X122832395Y-138531546D01*
G37*
G36*
X120966000Y-140397000D02*
G01*
X119064000Y-140397000D01*
X119064000Y-138495000D01*
X120966000Y-138495000D01*
X120966000Y-140397000D01*
G37*
G36*
X129306831Y-135198957D02*
G01*
X129636776Y-135335625D01*
X129636777Y-135335626D01*
X129933720Y-135534036D01*
X130186249Y-135786565D01*
X130318822Y-135984976D01*
X130384660Y-136083509D01*
X130521328Y-136413454D01*
X130591000Y-136763719D01*
X130591000Y-137120851D01*
X130521328Y-137471116D01*
X130384660Y-137801061D01*
X130384659Y-137801062D01*
X130186249Y-138098005D01*
X129933720Y-138350534D01*
X129735309Y-138483107D01*
X129636776Y-138548945D01*
X129306831Y-138685613D01*
X128956566Y-138755285D01*
X128599434Y-138755285D01*
X128249169Y-138685613D01*
X127919224Y-138548945D01*
X127820691Y-138483107D01*
X127622280Y-138350534D01*
X127369751Y-138098005D01*
X127171341Y-137801062D01*
X127171340Y-137801061D01*
X127034672Y-137471116D01*
X126965000Y-137120851D01*
X126965000Y-136763719D01*
X127034672Y-136413454D01*
X127171340Y-136083509D01*
X127237178Y-135984976D01*
X127369751Y-135786565D01*
X127622280Y-135534036D01*
X127919223Y-135335626D01*
X127919224Y-135335625D01*
X128249169Y-135198957D01*
X128599434Y-135129285D01*
X128956566Y-135129285D01*
X129306831Y-135198957D01*
G37*
G36*
X134005831Y-135198957D02*
G01*
X134335776Y-135335625D01*
X134335777Y-135335626D01*
X134632720Y-135534036D01*
X134885249Y-135786565D01*
X135017822Y-135984976D01*
X135083660Y-136083509D01*
X135220328Y-136413454D01*
X135290000Y-136763719D01*
X135290000Y-137120851D01*
X135220328Y-137471116D01*
X135083660Y-137801061D01*
X135083659Y-137801062D01*
X134885249Y-138098005D01*
X134632720Y-138350534D01*
X134434309Y-138483107D01*
X134335776Y-138548945D01*
X134005831Y-138685613D01*
X133655566Y-138755285D01*
X133298434Y-138755285D01*
X132948169Y-138685613D01*
X132618224Y-138548945D01*
X132519691Y-138483107D01*
X132321280Y-138350534D01*
X132068751Y-138098005D01*
X131870341Y-137801062D01*
X131870340Y-137801061D01*
X131733672Y-137471116D01*
X131664000Y-137120851D01*
X131664000Y-136763719D01*
X131733672Y-136413454D01*
X131870340Y-136083509D01*
X131936178Y-135984976D01*
X132068751Y-135786565D01*
X132321280Y-135534036D01*
X132618223Y-135335626D01*
X132618224Y-135335625D01*
X132948169Y-135198957D01*
X133298434Y-135129285D01*
X133655566Y-135129285D01*
X134005831Y-135198957D01*
G37*
G36*
X138704831Y-135198957D02*
G01*
X139034776Y-135335625D01*
X139034777Y-135335626D01*
X139331720Y-135534036D01*
X139584249Y-135786565D01*
X139716822Y-135984976D01*
X139782660Y-136083509D01*
X139919328Y-136413454D01*
X139989000Y-136763719D01*
X139989000Y-137120851D01*
X139919328Y-137471116D01*
X139782660Y-137801061D01*
X139782659Y-137801062D01*
X139584249Y-138098005D01*
X139331720Y-138350534D01*
X139133309Y-138483107D01*
X139034776Y-138548945D01*
X138704831Y-138685613D01*
X138354566Y-138755285D01*
X137997434Y-138755285D01*
X137647169Y-138685613D01*
X137317224Y-138548945D01*
X137218691Y-138483107D01*
X137020280Y-138350534D01*
X136767751Y-138098005D01*
X136569341Y-137801062D01*
X136569340Y-137801061D01*
X136432672Y-137471116D01*
X136363000Y-137120851D01*
X136363000Y-136763719D01*
X136432672Y-136413454D01*
X136569340Y-136083509D01*
X136635178Y-135984976D01*
X136767751Y-135786565D01*
X137020280Y-135534036D01*
X137317223Y-135335626D01*
X137317224Y-135335625D01*
X137647169Y-135198957D01*
X137997434Y-135129285D01*
X138354566Y-135129285D01*
X138704831Y-135198957D01*
G37*
G36*
X145155228Y-129102703D02*
G01*
X145310100Y-129166853D01*
X145449481Y-129259985D01*
X145568015Y-129378519D01*
X145661147Y-129517900D01*
X145725297Y-129672772D01*
X145758000Y-129837184D01*
X145758000Y-130004816D01*
X145725297Y-130169228D01*
X145661147Y-130324100D01*
X145568015Y-130463481D01*
X145449481Y-130582015D01*
X145310100Y-130675147D01*
X145155228Y-130739297D01*
X144990816Y-130772000D01*
X144823184Y-130772000D01*
X144658772Y-130739297D01*
X144503900Y-130675147D01*
X144364519Y-130582015D01*
X144245985Y-130463481D01*
X144152853Y-130324100D01*
X144088703Y-130169228D01*
X144056000Y-130004816D01*
X144056000Y-129837184D01*
X144088703Y-129672772D01*
X144152853Y-129517900D01*
X144245985Y-129378519D01*
X144364519Y-129259985D01*
X144503900Y-129166853D01*
X144658772Y-129102703D01*
X144823184Y-129070000D01*
X144990816Y-129070000D01*
X145155228Y-129102703D01*
G37*
G36*
X137535228Y-129102703D02*
G01*
X137690100Y-129166853D01*
X137829481Y-129259985D01*
X137948015Y-129378519D01*
X138041147Y-129517900D01*
X138105297Y-129672772D01*
X138138000Y-129837184D01*
X138138000Y-130004816D01*
X138105297Y-130169228D01*
X138041147Y-130324100D01*
X137948015Y-130463481D01*
X137829481Y-130582015D01*
X137690100Y-130675147D01*
X137535228Y-130739297D01*
X137370816Y-130772000D01*
X137203184Y-130772000D01*
X137038772Y-130739297D01*
X136883900Y-130675147D01*
X136744519Y-130582015D01*
X136625985Y-130463481D01*
X136532853Y-130324100D01*
X136468703Y-130169228D01*
X136436000Y-130004816D01*
X136436000Y-129837184D01*
X136468703Y-129672772D01*
X136532853Y-129517900D01*
X136625985Y-129378519D01*
X136744519Y-129259985D01*
X136883900Y-129166853D01*
X137038772Y-129102703D01*
X137203184Y-129070000D01*
X137370816Y-129070000D01*
X137535228Y-129102703D01*
G37*
G36*
X138704831Y-117437100D02*
G01*
X139034776Y-117573768D01*
X139133309Y-117639606D01*
X139331720Y-117772179D01*
X139584249Y-118024708D01*
X139716822Y-118223119D01*
X139782660Y-118321652D01*
X139919328Y-118651597D01*
X139989000Y-119001862D01*
X139989000Y-119358994D01*
X139919328Y-119709259D01*
X139782660Y-120039204D01*
X139782659Y-120039205D01*
X139584249Y-120336148D01*
X139331720Y-120588677D01*
X139133309Y-120721250D01*
X139034776Y-120787088D01*
X138704831Y-120923756D01*
X138354566Y-120993428D01*
X137997434Y-120993428D01*
X137647169Y-120923756D01*
X137317224Y-120787088D01*
X137218691Y-120721250D01*
X137020280Y-120588677D01*
X136767751Y-120336148D01*
X136569341Y-120039205D01*
X136569340Y-120039204D01*
X136432672Y-119709259D01*
X136363000Y-119358994D01*
X136363000Y-119001862D01*
X136432672Y-118651597D01*
X136569340Y-118321652D01*
X136635178Y-118223119D01*
X136767751Y-118024708D01*
X137020280Y-117772179D01*
X137218691Y-117639606D01*
X137317224Y-117573768D01*
X137647169Y-117437100D01*
X137997434Y-117367428D01*
X138354566Y-117367428D01*
X138704831Y-117437100D01*
G37*
G36*
X134005831Y-117437100D02*
G01*
X134335776Y-117573768D01*
X134434309Y-117639606D01*
X134632720Y-117772179D01*
X134885249Y-118024708D01*
X135017822Y-118223119D01*
X135083660Y-118321652D01*
X135220328Y-118651597D01*
X135290000Y-119001862D01*
X135290000Y-119358994D01*
X135220328Y-119709259D01*
X135083660Y-120039204D01*
X135083659Y-120039205D01*
X134885249Y-120336148D01*
X134632720Y-120588677D01*
X134434309Y-120721250D01*
X134335776Y-120787088D01*
X134005831Y-120923756D01*
X133655566Y-120993428D01*
X133298434Y-120993428D01*
X132948169Y-120923756D01*
X132618224Y-120787088D01*
X132519691Y-120721250D01*
X132321280Y-120588677D01*
X132068751Y-120336148D01*
X131870341Y-120039205D01*
X131870340Y-120039204D01*
X131733672Y-119709259D01*
X131664000Y-119358994D01*
X131664000Y-119001862D01*
X131733672Y-118651597D01*
X131870340Y-118321652D01*
X131936178Y-118223119D01*
X132068751Y-118024708D01*
X132321280Y-117772179D01*
X132519691Y-117639606D01*
X132618224Y-117573768D01*
X132948169Y-117437100D01*
X133298434Y-117367428D01*
X133655566Y-117367428D01*
X134005831Y-117437100D01*
G37*
G36*
X129306831Y-117437100D02*
G01*
X129636776Y-117573768D01*
X129735309Y-117639606D01*
X129933720Y-117772179D01*
X130186249Y-118024708D01*
X130318822Y-118223119D01*
X130384660Y-118321652D01*
X130521328Y-118651597D01*
X130591000Y-119001862D01*
X130591000Y-119358994D01*
X130521328Y-119709259D01*
X130384660Y-120039204D01*
X130384659Y-120039205D01*
X130186249Y-120336148D01*
X129933720Y-120588677D01*
X129735309Y-120721250D01*
X129636776Y-120787088D01*
X129306831Y-120923756D01*
X128956566Y-120993428D01*
X128599434Y-120993428D01*
X128249169Y-120923756D01*
X127919224Y-120787088D01*
X127820691Y-120721250D01*
X127622280Y-120588677D01*
X127369751Y-120336148D01*
X127171341Y-120039205D01*
X127171340Y-120039204D01*
X127034672Y-119709259D01*
X126965000Y-119358994D01*
X126965000Y-119001862D01*
X127034672Y-118651597D01*
X127171340Y-118321652D01*
X127237178Y-118223119D01*
X127369751Y-118024708D01*
X127622280Y-117772179D01*
X127820691Y-117639606D01*
X127919224Y-117573768D01*
X128249169Y-117437100D01*
X128599434Y-117367428D01*
X128956566Y-117367428D01*
X129306831Y-117437100D01*
G37*
G36*
X148271000Y-117791000D02*
G01*
X146369000Y-117791000D01*
X146369000Y-115889000D01*
X148271000Y-115889000D01*
X148271000Y-117791000D01*
G37*
G36*
X145057395Y-115925546D02*
G01*
X145230466Y-115997234D01*
X145230467Y-115997235D01*
X145386227Y-116101310D01*
X145518690Y-116233773D01*
X145518691Y-116233775D01*
X145622766Y-116389534D01*
X145694454Y-116562605D01*
X145731000Y-116746333D01*
X145731000Y-116933667D01*
X145694454Y-117117395D01*
X145622766Y-117290466D01*
X145571342Y-117367428D01*
X145518690Y-117446227D01*
X145386227Y-117578690D01*
X145307818Y-117631081D01*
X145230466Y-117682766D01*
X145057395Y-117754454D01*
X144873667Y-117791000D01*
X144686333Y-117791000D01*
X144502605Y-117754454D01*
X144329534Y-117682766D01*
X144252182Y-117631081D01*
X144173773Y-117578690D01*
X144041310Y-117446227D01*
X143988658Y-117367428D01*
X143937234Y-117290466D01*
X143865546Y-117117395D01*
X143829000Y-116933667D01*
X143829000Y-116746333D01*
X143865546Y-116562605D01*
X143937234Y-116389534D01*
X144041309Y-116233775D01*
X144041310Y-116233773D01*
X144173773Y-116101310D01*
X144329533Y-115997235D01*
X144329534Y-115997234D01*
X144502605Y-115925546D01*
X144686333Y-115889000D01*
X144873667Y-115889000D01*
X145057395Y-115925546D01*
G37*
G36*
X122832395Y-115671546D02*
G01*
X123005466Y-115743234D01*
X123005467Y-115743235D01*
X123161227Y-115847310D01*
X123293690Y-115979773D01*
X123346081Y-116058182D01*
X123397766Y-116135534D01*
X123469454Y-116308605D01*
X123506000Y-116492333D01*
X123506000Y-116679667D01*
X123469454Y-116863395D01*
X123397766Y-117036466D01*
X123397765Y-117036467D01*
X123293690Y-117192227D01*
X123161227Y-117324690D01*
X123097265Y-117367428D01*
X123005466Y-117428766D01*
X122832395Y-117500454D01*
X122648667Y-117537000D01*
X122461333Y-117537000D01*
X122277605Y-117500454D01*
X122104534Y-117428766D01*
X122012735Y-117367428D01*
X121948773Y-117324690D01*
X121816310Y-117192227D01*
X121712235Y-117036467D01*
X121712234Y-117036466D01*
X121640546Y-116863395D01*
X121604000Y-116679667D01*
X121604000Y-116492333D01*
X121640546Y-116308605D01*
X121712234Y-116135534D01*
X121763919Y-116058182D01*
X121816310Y-115979773D01*
X121948773Y-115847310D01*
X122104533Y-115743235D01*
X122104534Y-115743234D01*
X122277605Y-115671546D01*
X122461333Y-115635000D01*
X122648667Y-115635000D01*
X122832395Y-115671546D01*
G37*
G36*
X120966000Y-117537000D02*
G01*
X119064000Y-117537000D01*
X119064000Y-115635000D01*
X120966000Y-115635000D01*
X120966000Y-117537000D01*
G37*
G36*
X134005831Y-112611100D02*
G01*
X134335776Y-112747768D01*
X134335777Y-112747769D01*
X134632720Y-112946179D01*
X134885249Y-113198708D01*
X135017822Y-113397119D01*
X135083660Y-113495652D01*
X135220328Y-113825597D01*
X135290000Y-114175862D01*
X135290000Y-114532994D01*
X135220328Y-114883259D01*
X135083660Y-115213204D01*
X135083659Y-115213205D01*
X134885249Y-115510148D01*
X134632720Y-115762677D01*
X134506057Y-115847310D01*
X134335776Y-115961088D01*
X134005831Y-116097756D01*
X133655566Y-116167428D01*
X133298434Y-116167428D01*
X132948169Y-116097756D01*
X132618224Y-115961088D01*
X132447943Y-115847310D01*
X132321280Y-115762677D01*
X132068751Y-115510148D01*
X131870341Y-115213205D01*
X131870340Y-115213204D01*
X131733672Y-114883259D01*
X131664000Y-114532994D01*
X131664000Y-114175862D01*
X131733672Y-113825597D01*
X131870340Y-113495652D01*
X131936178Y-113397119D01*
X132068751Y-113198708D01*
X132321280Y-112946179D01*
X132618223Y-112747769D01*
X132618224Y-112747768D01*
X132948169Y-112611100D01*
X133298434Y-112541428D01*
X133655566Y-112541428D01*
X134005831Y-112611100D01*
G37*
G36*
X138704831Y-112611100D02*
G01*
X139034776Y-112747768D01*
X139034777Y-112747769D01*
X139331720Y-112946179D01*
X139584249Y-113198708D01*
X139716822Y-113397119D01*
X139782660Y-113495652D01*
X139919328Y-113825597D01*
X139989000Y-114175862D01*
X139989000Y-114532994D01*
X139919328Y-114883259D01*
X139782660Y-115213204D01*
X139782659Y-115213205D01*
X139584249Y-115510148D01*
X139331720Y-115762677D01*
X139205057Y-115847310D01*
X139034776Y-115961088D01*
X138704831Y-116097756D01*
X138354566Y-116167428D01*
X137997434Y-116167428D01*
X137647169Y-116097756D01*
X137317224Y-115961088D01*
X137146943Y-115847310D01*
X137020280Y-115762677D01*
X136767751Y-115510148D01*
X136569341Y-115213205D01*
X136569340Y-115213204D01*
X136432672Y-114883259D01*
X136363000Y-114532994D01*
X136363000Y-114175862D01*
X136432672Y-113825597D01*
X136569340Y-113495652D01*
X136635178Y-113397119D01*
X136767751Y-113198708D01*
X137020280Y-112946179D01*
X137317223Y-112747769D01*
X137317224Y-112747768D01*
X137647169Y-112611100D01*
X137997434Y-112541428D01*
X138354566Y-112541428D01*
X138704831Y-112611100D01*
G37*
G36*
X129306831Y-112611100D02*
G01*
X129636776Y-112747768D01*
X129636777Y-112747769D01*
X129933720Y-112946179D01*
X130186249Y-113198708D01*
X130318822Y-113397119D01*
X130384660Y-113495652D01*
X130521328Y-113825597D01*
X130591000Y-114175862D01*
X130591000Y-114532994D01*
X130521328Y-114883259D01*
X130384660Y-115213204D01*
X130384659Y-115213205D01*
X130186249Y-115510148D01*
X129933720Y-115762677D01*
X129807057Y-115847310D01*
X129636776Y-115961088D01*
X129306831Y-116097756D01*
X128956566Y-116167428D01*
X128599434Y-116167428D01*
X128249169Y-116097756D01*
X127919224Y-115961088D01*
X127748943Y-115847310D01*
X127622280Y-115762677D01*
X127369751Y-115510148D01*
X127171341Y-115213205D01*
X127171340Y-115213204D01*
X127034672Y-114883259D01*
X126965000Y-114532994D01*
X126965000Y-114175862D01*
X127034672Y-113825597D01*
X127171340Y-113495652D01*
X127237178Y-113397119D01*
X127369751Y-113198708D01*
X127622280Y-112946179D01*
X127919223Y-112747769D01*
X127919224Y-112747768D01*
X128249169Y-112611100D01*
X128599434Y-112541428D01*
X128956566Y-112541428D01*
X129306831Y-112611100D01*
G37*
G36*
X137535228Y-108147703D02*
G01*
X137690100Y-108211853D01*
X137829481Y-108304985D01*
X137948015Y-108423519D01*
X138041147Y-108562900D01*
X138105297Y-108717772D01*
X138138000Y-108882184D01*
X138138000Y-109049816D01*
X138105297Y-109214228D01*
X138041147Y-109369100D01*
X137948015Y-109508481D01*
X137829481Y-109627015D01*
X137690100Y-109720147D01*
X137535228Y-109784297D01*
X137370816Y-109817000D01*
X137203184Y-109817000D01*
X137038772Y-109784297D01*
X136883900Y-109720147D01*
X136744519Y-109627015D01*
X136625985Y-109508481D01*
X136532853Y-109369100D01*
X136468703Y-109214228D01*
X136436000Y-109049816D01*
X136436000Y-108882184D01*
X136468703Y-108717772D01*
X136532853Y-108562900D01*
X136625985Y-108423519D01*
X136744519Y-108304985D01*
X136883900Y-108211853D01*
X137038772Y-108147703D01*
X137203184Y-108115000D01*
X137370816Y-108115000D01*
X137535228Y-108147703D01*
G37*
G36*
X145155228Y-108147703D02*
G01*
X145310100Y-108211853D01*
X145449481Y-108304985D01*
X145568015Y-108423519D01*
X145661147Y-108562900D01*
X145725297Y-108717772D01*
X145758000Y-108882184D01*
X145758000Y-109049816D01*
X145725297Y-109214228D01*
X145661147Y-109369100D01*
X145568015Y-109508481D01*
X145449481Y-109627015D01*
X145310100Y-109720147D01*
X145155228Y-109784297D01*
X144990816Y-109817000D01*
X144823184Y-109817000D01*
X144658772Y-109784297D01*
X144503900Y-109720147D01*
X144364519Y-109627015D01*
X144245985Y-109508481D01*
X144152853Y-109369100D01*
X144088703Y-109214228D01*
X144056000Y-109049816D01*
X144056000Y-108882184D01*
X144088703Y-108717772D01*
X144152853Y-108562900D01*
X144245985Y-108423519D01*
X144364519Y-108304985D01*
X144503900Y-108211853D01*
X144658772Y-108147703D01*
X144823184Y-108115000D01*
X144990816Y-108115000D01*
X145155228Y-108147703D01*
G37*
G36*
X138704831Y-94849243D02*
G01*
X139034776Y-94985911D01*
X139034777Y-94985912D01*
X139331720Y-95184322D01*
X139584249Y-95436851D01*
X139716822Y-95635262D01*
X139782660Y-95733795D01*
X139919328Y-96063740D01*
X139989000Y-96414005D01*
X139989000Y-96771137D01*
X139919328Y-97121402D01*
X139782660Y-97451347D01*
X139782659Y-97451348D01*
X139584249Y-97748291D01*
X139331720Y-98000820D01*
X139133309Y-98133393D01*
X139034776Y-98199231D01*
X138704831Y-98335899D01*
X138354566Y-98405571D01*
X137997434Y-98405571D01*
X137647169Y-98335899D01*
X137317224Y-98199231D01*
X137218691Y-98133393D01*
X137020280Y-98000820D01*
X136767751Y-97748291D01*
X136569341Y-97451348D01*
X136569340Y-97451347D01*
X136432672Y-97121402D01*
X136363000Y-96771137D01*
X136363000Y-96414005D01*
X136432672Y-96063740D01*
X136569340Y-95733795D01*
X136635178Y-95635262D01*
X136767751Y-95436851D01*
X137020280Y-95184322D01*
X137317223Y-94985912D01*
X137317224Y-94985911D01*
X137647169Y-94849243D01*
X137997434Y-94779571D01*
X138354566Y-94779571D01*
X138704831Y-94849243D01*
G37*
G36*
X134005831Y-94849243D02*
G01*
X134335776Y-94985911D01*
X134335777Y-94985912D01*
X134632720Y-95184322D01*
X134885249Y-95436851D01*
X135017822Y-95635262D01*
X135083660Y-95733795D01*
X135220328Y-96063740D01*
X135290000Y-96414005D01*
X135290000Y-96771137D01*
X135220328Y-97121402D01*
X135083660Y-97451347D01*
X135083659Y-97451348D01*
X134885249Y-97748291D01*
X134632720Y-98000820D01*
X134434309Y-98133393D01*
X134335776Y-98199231D01*
X134005831Y-98335899D01*
X133655566Y-98405571D01*
X133298434Y-98405571D01*
X132948169Y-98335899D01*
X132618224Y-98199231D01*
X132519691Y-98133393D01*
X132321280Y-98000820D01*
X132068751Y-97748291D01*
X131870341Y-97451348D01*
X131870340Y-97451347D01*
X131733672Y-97121402D01*
X131664000Y-96771137D01*
X131664000Y-96414005D01*
X131733672Y-96063740D01*
X131870340Y-95733795D01*
X131936178Y-95635262D01*
X132068751Y-95436851D01*
X132321280Y-95184322D01*
X132618223Y-94985912D01*
X132618224Y-94985911D01*
X132948169Y-94849243D01*
X133298434Y-94779571D01*
X133655566Y-94779571D01*
X134005831Y-94849243D01*
G37*
G36*
X129306831Y-94849243D02*
G01*
X129636776Y-94985911D01*
X129636777Y-94985912D01*
X129933720Y-95184322D01*
X130186249Y-95436851D01*
X130318822Y-95635262D01*
X130384660Y-95733795D01*
X130521328Y-96063740D01*
X130591000Y-96414005D01*
X130591000Y-96771137D01*
X130521328Y-97121402D01*
X130384660Y-97451347D01*
X130384659Y-97451348D01*
X130186249Y-97748291D01*
X129933720Y-98000820D01*
X129735309Y-98133393D01*
X129636776Y-98199231D01*
X129306831Y-98335899D01*
X128956566Y-98405571D01*
X128599434Y-98405571D01*
X128249169Y-98335899D01*
X127919224Y-98199231D01*
X127820691Y-98133393D01*
X127622280Y-98000820D01*
X127369751Y-97748291D01*
X127171341Y-97451348D01*
X127171340Y-97451347D01*
X127034672Y-97121402D01*
X126965000Y-96771137D01*
X126965000Y-96414005D01*
X127034672Y-96063740D01*
X127171340Y-95733795D01*
X127237178Y-95635262D01*
X127369751Y-95436851D01*
X127622280Y-95184322D01*
X127919223Y-94985912D01*
X127919224Y-94985911D01*
X128249169Y-94849243D01*
X128599434Y-94779571D01*
X128956566Y-94779571D01*
X129306831Y-94849243D01*
G37*
G36*
X122832395Y-93319546D02*
G01*
X123005466Y-93391234D01*
X123005467Y-93391235D01*
X123161227Y-93495310D01*
X123293690Y-93627773D01*
X123293691Y-93627775D01*
X123397766Y-93783534D01*
X123469454Y-93956605D01*
X123506000Y-94140333D01*
X123506000Y-94327667D01*
X123469454Y-94511395D01*
X123397766Y-94684466D01*
X123346081Y-94761818D01*
X123293690Y-94840227D01*
X123161227Y-94972690D01*
X123082818Y-95025081D01*
X123005466Y-95076766D01*
X122832395Y-95148454D01*
X122648667Y-95185000D01*
X122461333Y-95185000D01*
X122277605Y-95148454D01*
X122104534Y-95076766D01*
X122027182Y-95025081D01*
X121948773Y-94972690D01*
X121816310Y-94840227D01*
X121763919Y-94761818D01*
X121712234Y-94684466D01*
X121640546Y-94511395D01*
X121604000Y-94327667D01*
X121604000Y-94140333D01*
X121640546Y-93956605D01*
X121712234Y-93783534D01*
X121816309Y-93627775D01*
X121816310Y-93627773D01*
X121948773Y-93495310D01*
X122104533Y-93391235D01*
X122104534Y-93391234D01*
X122277605Y-93319546D01*
X122461333Y-93283000D01*
X122648667Y-93283000D01*
X122832395Y-93319546D01*
G37*
G36*
X120966000Y-95185000D02*
G01*
X119064000Y-95185000D01*
X119064000Y-93283000D01*
X120966000Y-93283000D01*
X120966000Y-95185000D01*
G37*
G36*
X148271000Y-94931000D02*
G01*
X146369000Y-94931000D01*
X146369000Y-93029000D01*
X148271000Y-93029000D01*
X148271000Y-94931000D01*
G37*
G36*
X145057395Y-93065546D02*
G01*
X145230466Y-93137234D01*
X145230467Y-93137235D01*
X145386227Y-93241310D01*
X145518690Y-93373773D01*
X145571081Y-93452182D01*
X145622766Y-93529534D01*
X145694454Y-93702605D01*
X145731000Y-93886333D01*
X145731000Y-94073667D01*
X145694454Y-94257395D01*
X145622766Y-94430466D01*
X145622765Y-94430467D01*
X145518690Y-94586227D01*
X145386227Y-94718690D01*
X145307818Y-94771081D01*
X145230466Y-94822766D01*
X145057395Y-94894454D01*
X144873667Y-94931000D01*
X144686333Y-94931000D01*
X144502605Y-94894454D01*
X144329534Y-94822766D01*
X144252182Y-94771081D01*
X144173773Y-94718690D01*
X144041310Y-94586227D01*
X143937235Y-94430467D01*
X143937234Y-94430466D01*
X143865546Y-94257395D01*
X143829000Y-94073667D01*
X143829000Y-93886333D01*
X143865546Y-93702605D01*
X143937234Y-93529534D01*
X143988919Y-93452182D01*
X144041310Y-93373773D01*
X144173773Y-93241310D01*
X144329533Y-93137235D01*
X144329534Y-93137234D01*
X144502605Y-93065546D01*
X144686333Y-93029000D01*
X144873667Y-93029000D01*
X145057395Y-93065546D01*
G37*
G36*
X129306831Y-90023243D02*
G01*
X129636776Y-90159911D01*
X129636777Y-90159912D01*
X129933720Y-90358322D01*
X130186249Y-90610851D01*
X130318822Y-90809262D01*
X130384660Y-90907795D01*
X130521328Y-91237740D01*
X130591000Y-91588005D01*
X130591000Y-91945137D01*
X130521328Y-92295402D01*
X130384660Y-92625347D01*
X130384659Y-92625348D01*
X130186249Y-92922291D01*
X129933720Y-93174820D01*
X129834210Y-93241310D01*
X129636776Y-93373231D01*
X129306831Y-93509899D01*
X128956566Y-93579571D01*
X128599434Y-93579571D01*
X128249169Y-93509899D01*
X127919224Y-93373231D01*
X127721790Y-93241310D01*
X127622280Y-93174820D01*
X127369751Y-92922291D01*
X127171341Y-92625348D01*
X127171340Y-92625347D01*
X127034672Y-92295402D01*
X126965000Y-91945137D01*
X126965000Y-91588005D01*
X127034672Y-91237740D01*
X127171340Y-90907795D01*
X127237178Y-90809262D01*
X127369751Y-90610851D01*
X127622280Y-90358322D01*
X127919223Y-90159912D01*
X127919224Y-90159911D01*
X128249169Y-90023243D01*
X128599434Y-89953571D01*
X128956566Y-89953571D01*
X129306831Y-90023243D01*
G37*
G36*
X134005831Y-90023243D02*
G01*
X134335776Y-90159911D01*
X134335777Y-90159912D01*
X134632720Y-90358322D01*
X134885249Y-90610851D01*
X135017822Y-90809262D01*
X135083660Y-90907795D01*
X135220328Y-91237740D01*
X135290000Y-91588005D01*
X135290000Y-91945137D01*
X135220328Y-92295402D01*
X135083660Y-92625347D01*
X135083659Y-92625348D01*
X134885249Y-92922291D01*
X134632720Y-93174820D01*
X134533210Y-93241310D01*
X134335776Y-93373231D01*
X134005831Y-93509899D01*
X133655566Y-93579571D01*
X133298434Y-93579571D01*
X132948169Y-93509899D01*
X132618224Y-93373231D01*
X132420790Y-93241310D01*
X132321280Y-93174820D01*
X132068751Y-92922291D01*
X131870341Y-92625348D01*
X131870340Y-92625347D01*
X131733672Y-92295402D01*
X131664000Y-91945137D01*
X131664000Y-91588005D01*
X131733672Y-91237740D01*
X131870340Y-90907795D01*
X131936178Y-90809262D01*
X132068751Y-90610851D01*
X132321280Y-90358322D01*
X132618223Y-90159912D01*
X132618224Y-90159911D01*
X132948169Y-90023243D01*
X133298434Y-89953571D01*
X133655566Y-89953571D01*
X134005831Y-90023243D01*
G37*
G36*
X138704831Y-90023243D02*
G01*
X139034776Y-90159911D01*
X139034777Y-90159912D01*
X139331720Y-90358322D01*
X139584249Y-90610851D01*
X139716822Y-90809262D01*
X139782660Y-90907795D01*
X139919328Y-91237740D01*
X139989000Y-91588005D01*
X139989000Y-91945137D01*
X139919328Y-92295402D01*
X139782660Y-92625347D01*
X139782659Y-92625348D01*
X139584249Y-92922291D01*
X139331720Y-93174820D01*
X139232210Y-93241310D01*
X139034776Y-93373231D01*
X138704831Y-93509899D01*
X138354566Y-93579571D01*
X137997434Y-93579571D01*
X137647169Y-93509899D01*
X137317224Y-93373231D01*
X137119790Y-93241310D01*
X137020280Y-93174820D01*
X136767751Y-92922291D01*
X136569341Y-92625348D01*
X136569340Y-92625347D01*
X136432672Y-92295402D01*
X136363000Y-91945137D01*
X136363000Y-91588005D01*
X136432672Y-91237740D01*
X136569340Y-90907795D01*
X136635178Y-90809262D01*
X136767751Y-90610851D01*
X137020280Y-90358322D01*
X137317223Y-90159912D01*
X137317224Y-90159911D01*
X137647169Y-90023243D01*
X137997434Y-89953571D01*
X138354566Y-89953571D01*
X138704831Y-90023243D01*
G37*
G36*
X137535228Y-84017703D02*
G01*
X137690100Y-84081853D01*
X137829481Y-84174985D01*
X137948015Y-84293519D01*
X138041147Y-84432900D01*
X138105297Y-84587772D01*
X138138000Y-84752184D01*
X138138000Y-84919816D01*
X138105297Y-85084228D01*
X138041147Y-85239100D01*
X137948015Y-85378481D01*
X137829481Y-85497015D01*
X137690100Y-85590147D01*
X137535228Y-85654297D01*
X137370816Y-85687000D01*
X137203184Y-85687000D01*
X137038772Y-85654297D01*
X136883900Y-85590147D01*
X136744519Y-85497015D01*
X136625985Y-85378481D01*
X136532853Y-85239100D01*
X136468703Y-85084228D01*
X136436000Y-84919816D01*
X136436000Y-84752184D01*
X136468703Y-84587772D01*
X136532853Y-84432900D01*
X136625985Y-84293519D01*
X136744519Y-84174985D01*
X136883900Y-84081853D01*
X137038772Y-84017703D01*
X137203184Y-83985000D01*
X137370816Y-83985000D01*
X137535228Y-84017703D01*
G37*
G36*
X145155228Y-84017703D02*
G01*
X145310100Y-84081853D01*
X145449481Y-84174985D01*
X145568015Y-84293519D01*
X145661147Y-84432900D01*
X145725297Y-84587772D01*
X145758000Y-84752184D01*
X145758000Y-84919816D01*
X145725297Y-85084228D01*
X145661147Y-85239100D01*
X145568015Y-85378481D01*
X145449481Y-85497015D01*
X145310100Y-85590147D01*
X145155228Y-85654297D01*
X144990816Y-85687000D01*
X144823184Y-85687000D01*
X144658772Y-85654297D01*
X144503900Y-85590147D01*
X144364519Y-85497015D01*
X144245985Y-85378481D01*
X144152853Y-85239100D01*
X144088703Y-85084228D01*
X144056000Y-84919816D01*
X144056000Y-84752184D01*
X144088703Y-84587772D01*
X144152853Y-84432900D01*
X144245985Y-84293519D01*
X144364519Y-84174985D01*
X144503900Y-84081853D01*
X144658772Y-84017703D01*
X144823184Y-83985000D01*
X144990816Y-83985000D01*
X145155228Y-84017703D01*
G37*
G36*
X138704831Y-72261386D02*
G01*
X139034776Y-72398054D01*
X139034777Y-72398055D01*
X139331720Y-72596465D01*
X139584249Y-72848994D01*
X139716822Y-73047405D01*
X139782660Y-73145938D01*
X139919328Y-73475883D01*
X139989000Y-73826148D01*
X139989000Y-74183280D01*
X139919328Y-74533545D01*
X139782660Y-74863490D01*
X139782659Y-74863491D01*
X139584249Y-75160434D01*
X139331720Y-75412963D01*
X139133309Y-75545536D01*
X139034776Y-75611374D01*
X138704831Y-75748042D01*
X138354566Y-75817714D01*
X137997434Y-75817714D01*
X137647169Y-75748042D01*
X137317224Y-75611374D01*
X137218691Y-75545536D01*
X137020280Y-75412963D01*
X136767751Y-75160434D01*
X136569341Y-74863491D01*
X136569340Y-74863490D01*
X136432672Y-74533545D01*
X136363000Y-74183280D01*
X136363000Y-73826148D01*
X136432672Y-73475883D01*
X136569340Y-73145938D01*
X136635178Y-73047405D01*
X136767751Y-72848994D01*
X137020280Y-72596465D01*
X137317223Y-72398055D01*
X137317224Y-72398054D01*
X137647169Y-72261386D01*
X137997434Y-72191714D01*
X138354566Y-72191714D01*
X138704831Y-72261386D01*
G37*
G36*
X134005831Y-72261386D02*
G01*
X134335776Y-72398054D01*
X134335777Y-72398055D01*
X134632720Y-72596465D01*
X134885249Y-72848994D01*
X135017822Y-73047405D01*
X135083660Y-73145938D01*
X135220328Y-73475883D01*
X135290000Y-73826148D01*
X135290000Y-74183280D01*
X135220328Y-74533545D01*
X135083660Y-74863490D01*
X135083659Y-74863491D01*
X134885249Y-75160434D01*
X134632720Y-75412963D01*
X134434309Y-75545536D01*
X134335776Y-75611374D01*
X134005831Y-75748042D01*
X133655566Y-75817714D01*
X133298434Y-75817714D01*
X132948169Y-75748042D01*
X132618224Y-75611374D01*
X132519691Y-75545536D01*
X132321280Y-75412963D01*
X132068751Y-75160434D01*
X131870341Y-74863491D01*
X131870340Y-74863490D01*
X131733672Y-74533545D01*
X131664000Y-74183280D01*
X131664000Y-73826148D01*
X131733672Y-73475883D01*
X131870340Y-73145938D01*
X131936178Y-73047405D01*
X132068751Y-72848994D01*
X132321280Y-72596465D01*
X132618223Y-72398055D01*
X132618224Y-72398054D01*
X132948169Y-72261386D01*
X133298434Y-72191714D01*
X133655566Y-72191714D01*
X134005831Y-72261386D01*
G37*
G36*
X129306831Y-72261386D02*
G01*
X129636776Y-72398054D01*
X129636777Y-72398055D01*
X129933720Y-72596465D01*
X130186249Y-72848994D01*
X130318822Y-73047405D01*
X130384660Y-73145938D01*
X130521328Y-73475883D01*
X130591000Y-73826148D01*
X130591000Y-74183280D01*
X130521328Y-74533545D01*
X130384660Y-74863490D01*
X130384659Y-74863491D01*
X130186249Y-75160434D01*
X129933720Y-75412963D01*
X129735309Y-75545536D01*
X129636776Y-75611374D01*
X129306831Y-75748042D01*
X128956566Y-75817714D01*
X128599434Y-75817714D01*
X128249169Y-75748042D01*
X127919224Y-75611374D01*
X127820691Y-75545536D01*
X127622280Y-75412963D01*
X127369751Y-75160434D01*
X127171341Y-74863491D01*
X127171340Y-74863490D01*
X127034672Y-74533545D01*
X126965000Y-74183280D01*
X126965000Y-73826148D01*
X127034672Y-73475883D01*
X127171340Y-73145938D01*
X127237178Y-73047405D01*
X127369751Y-72848994D01*
X127622280Y-72596465D01*
X127919223Y-72398055D01*
X127919224Y-72398054D01*
X128249169Y-72261386D01*
X128599434Y-72191714D01*
X128956566Y-72191714D01*
X129306831Y-72261386D01*
G37*
G36*
X122832395Y-70713546D02*
G01*
X123005466Y-70785234D01*
X123082818Y-70836919D01*
X123161227Y-70889310D01*
X123293690Y-71021773D01*
X123293691Y-71021775D01*
X123397766Y-71177534D01*
X123469454Y-71350605D01*
X123506000Y-71534333D01*
X123506000Y-71721667D01*
X123469454Y-71905395D01*
X123397766Y-72078466D01*
X123346081Y-72155818D01*
X123293690Y-72234227D01*
X123161227Y-72366690D01*
X123114287Y-72398054D01*
X123005466Y-72470766D01*
X122832395Y-72542454D01*
X122648667Y-72579000D01*
X122461333Y-72579000D01*
X122277605Y-72542454D01*
X122104534Y-72470766D01*
X121995713Y-72398054D01*
X121948773Y-72366690D01*
X121816310Y-72234227D01*
X121763919Y-72155818D01*
X121712234Y-72078466D01*
X121640546Y-71905395D01*
X121604000Y-71721667D01*
X121604000Y-71534333D01*
X121640546Y-71350605D01*
X121712234Y-71177534D01*
X121816309Y-71021775D01*
X121816310Y-71021773D01*
X121948773Y-70889310D01*
X122027182Y-70836919D01*
X122104534Y-70785234D01*
X122277605Y-70713546D01*
X122461333Y-70677000D01*
X122648667Y-70677000D01*
X122832395Y-70713546D01*
G37*
G36*
X120966000Y-72579000D02*
G01*
X119064000Y-72579000D01*
X119064000Y-70677000D01*
X120966000Y-70677000D01*
X120966000Y-72579000D01*
G37*
G36*
X148271000Y-72325000D02*
G01*
X146369000Y-72325000D01*
X146369000Y-70423000D01*
X148271000Y-70423000D01*
X148271000Y-72325000D01*
G37*
G36*
X145057395Y-70459546D02*
G01*
X145230466Y-70531234D01*
X145230467Y-70531235D01*
X145386227Y-70635310D01*
X145518690Y-70767773D01*
X145571081Y-70846182D01*
X145622766Y-70923534D01*
X145694454Y-71096605D01*
X145731000Y-71280333D01*
X145731000Y-71467667D01*
X145694454Y-71651395D01*
X145622766Y-71824466D01*
X145622765Y-71824467D01*
X145518690Y-71980227D01*
X145386227Y-72112690D01*
X145307818Y-72165081D01*
X145230466Y-72216766D01*
X145057395Y-72288454D01*
X144873667Y-72325000D01*
X144686333Y-72325000D01*
X144502605Y-72288454D01*
X144329534Y-72216766D01*
X144252182Y-72165081D01*
X144173773Y-72112690D01*
X144041310Y-71980227D01*
X143937235Y-71824467D01*
X143937234Y-71824466D01*
X143865546Y-71651395D01*
X143829000Y-71467667D01*
X143829000Y-71280333D01*
X143865546Y-71096605D01*
X143937234Y-70923534D01*
X143988919Y-70846182D01*
X144041310Y-70767773D01*
X144173773Y-70635310D01*
X144329533Y-70531235D01*
X144329534Y-70531234D01*
X144502605Y-70459546D01*
X144686333Y-70423000D01*
X144873667Y-70423000D01*
X145057395Y-70459546D01*
G37*
G36*
X138704831Y-67435386D02*
G01*
X139034776Y-67572054D01*
X139034777Y-67572055D01*
X139331720Y-67770465D01*
X139584249Y-68022994D01*
X139716822Y-68221405D01*
X139782660Y-68319938D01*
X139919328Y-68649883D01*
X139989000Y-69000148D01*
X139989000Y-69357280D01*
X139919328Y-69707545D01*
X139782660Y-70037490D01*
X139782659Y-70037491D01*
X139584249Y-70334434D01*
X139331720Y-70586963D01*
X139259363Y-70635310D01*
X139034776Y-70785374D01*
X138704831Y-70922042D01*
X138354566Y-70991714D01*
X137997434Y-70991714D01*
X137647169Y-70922042D01*
X137317224Y-70785374D01*
X137092637Y-70635310D01*
X137020280Y-70586963D01*
X136767751Y-70334434D01*
X136569341Y-70037491D01*
X136569340Y-70037490D01*
X136432672Y-69707545D01*
X136363000Y-69357280D01*
X136363000Y-69000148D01*
X136432672Y-68649883D01*
X136569340Y-68319938D01*
X136635178Y-68221405D01*
X136767751Y-68022994D01*
X137020280Y-67770465D01*
X137317223Y-67572055D01*
X137317224Y-67572054D01*
X137647169Y-67435386D01*
X137997434Y-67365714D01*
X138354566Y-67365714D01*
X138704831Y-67435386D01*
G37*
G36*
X134005831Y-67435386D02*
G01*
X134335776Y-67572054D01*
X134335777Y-67572055D01*
X134632720Y-67770465D01*
X134885249Y-68022994D01*
X135017822Y-68221405D01*
X135083660Y-68319938D01*
X135220328Y-68649883D01*
X135290000Y-69000148D01*
X135290000Y-69357280D01*
X135220328Y-69707545D01*
X135083660Y-70037490D01*
X135083659Y-70037491D01*
X134885249Y-70334434D01*
X134632720Y-70586963D01*
X134560363Y-70635310D01*
X134335776Y-70785374D01*
X134005831Y-70922042D01*
X133655566Y-70991714D01*
X133298434Y-70991714D01*
X132948169Y-70922042D01*
X132618224Y-70785374D01*
X132393637Y-70635310D01*
X132321280Y-70586963D01*
X132068751Y-70334434D01*
X131870341Y-70037491D01*
X131870340Y-70037490D01*
X131733672Y-69707545D01*
X131664000Y-69357280D01*
X131664000Y-69000148D01*
X131733672Y-68649883D01*
X131870340Y-68319938D01*
X131936178Y-68221405D01*
X132068751Y-68022994D01*
X132321280Y-67770465D01*
X132618223Y-67572055D01*
X132618224Y-67572054D01*
X132948169Y-67435386D01*
X133298434Y-67365714D01*
X133655566Y-67365714D01*
X134005831Y-67435386D01*
G37*
G36*
X129306831Y-67435386D02*
G01*
X129636776Y-67572054D01*
X129636777Y-67572055D01*
X129933720Y-67770465D01*
X130186249Y-68022994D01*
X130318822Y-68221405D01*
X130384660Y-68319938D01*
X130521328Y-68649883D01*
X130591000Y-69000148D01*
X130591000Y-69357280D01*
X130521328Y-69707545D01*
X130384660Y-70037490D01*
X130384659Y-70037491D01*
X130186249Y-70334434D01*
X129933720Y-70586963D01*
X129861363Y-70635310D01*
X129636776Y-70785374D01*
X129306831Y-70922042D01*
X128956566Y-70991714D01*
X128599434Y-70991714D01*
X128249169Y-70922042D01*
X127919224Y-70785374D01*
X127694637Y-70635310D01*
X127622280Y-70586963D01*
X127369751Y-70334434D01*
X127171341Y-70037491D01*
X127171340Y-70037490D01*
X127034672Y-69707545D01*
X126965000Y-69357280D01*
X126965000Y-69000148D01*
X127034672Y-68649883D01*
X127171340Y-68319938D01*
X127237178Y-68221405D01*
X127369751Y-68022994D01*
X127622280Y-67770465D01*
X127919223Y-67572055D01*
X127919224Y-67572054D01*
X128249169Y-67435386D01*
X128599434Y-67365714D01*
X128956566Y-67365714D01*
X129306831Y-67435386D01*
G37*
G36*
X137535228Y-61792703D02*
G01*
X137690100Y-61856853D01*
X137829481Y-61949985D01*
X137948015Y-62068519D01*
X138041147Y-62207900D01*
X138105297Y-62362772D01*
X138138000Y-62527184D01*
X138138000Y-62694816D01*
X138105297Y-62859228D01*
X138041147Y-63014100D01*
X137948015Y-63153481D01*
X137829481Y-63272015D01*
X137690100Y-63365147D01*
X137535228Y-63429297D01*
X137370816Y-63462000D01*
X137203184Y-63462000D01*
X137038772Y-63429297D01*
X136883900Y-63365147D01*
X136744519Y-63272015D01*
X136625985Y-63153481D01*
X136532853Y-63014100D01*
X136468703Y-62859228D01*
X136436000Y-62694816D01*
X136436000Y-62527184D01*
X136468703Y-62362772D01*
X136532853Y-62207900D01*
X136625985Y-62068519D01*
X136744519Y-61949985D01*
X136883900Y-61856853D01*
X137038772Y-61792703D01*
X137203184Y-61760000D01*
X137370816Y-61760000D01*
X137535228Y-61792703D01*
G37*
G36*
X145155228Y-61792703D02*
G01*
X145310100Y-61856853D01*
X145449481Y-61949985D01*
X145568015Y-62068519D01*
X145661147Y-62207900D01*
X145725297Y-62362772D01*
X145758000Y-62527184D01*
X145758000Y-62694816D01*
X145725297Y-62859228D01*
X145661147Y-63014100D01*
X145568015Y-63153481D01*
X145449481Y-63272015D01*
X145310100Y-63365147D01*
X145155228Y-63429297D01*
X144990816Y-63462000D01*
X144823184Y-63462000D01*
X144658772Y-63429297D01*
X144503900Y-63365147D01*
X144364519Y-63272015D01*
X144245985Y-63153481D01*
X144152853Y-63014100D01*
X144088703Y-62859228D01*
X144056000Y-62694816D01*
X144056000Y-62527184D01*
X144088703Y-62362772D01*
X144152853Y-62207900D01*
X144245985Y-62068519D01*
X144364519Y-61949985D01*
X144503900Y-61856853D01*
X144658772Y-61792703D01*
X144823184Y-61760000D01*
X144990816Y-61760000D01*
X145155228Y-61792703D01*
G37*
G36*
X129907512Y-57015927D02*
G01*
X130056812Y-57045624D01*
X130220784Y-57113544D01*
X130368354Y-57212147D01*
X130493853Y-57337646D01*
X130592456Y-57485216D01*
X130660376Y-57649188D01*
X130695000Y-57823259D01*
X130695000Y-58000741D01*
X130660376Y-58174812D01*
X130592456Y-58338784D01*
X130493853Y-58486354D01*
X130368354Y-58611853D01*
X130220784Y-58710456D01*
X130056812Y-58778376D01*
X129907512Y-58808073D01*
X129882742Y-58813000D01*
X129705258Y-58813000D01*
X129680488Y-58808073D01*
X129531188Y-58778376D01*
X129367216Y-58710456D01*
X129219646Y-58611853D01*
X129094147Y-58486354D01*
X128995544Y-58338784D01*
X128927624Y-58174812D01*
X128893000Y-58000741D01*
X128893000Y-57823259D01*
X128927624Y-57649188D01*
X128995544Y-57485216D01*
X129094147Y-57337646D01*
X129219646Y-57212147D01*
X129367216Y-57113544D01*
X129531188Y-57045624D01*
X129680488Y-57015927D01*
X129705258Y-57011000D01*
X129882742Y-57011000D01*
X129907512Y-57015927D01*
G37*
G36*
X132447512Y-57015927D02*
G01*
X132596812Y-57045624D01*
X132760784Y-57113544D01*
X132908354Y-57212147D01*
X133033853Y-57337646D01*
X133132456Y-57485216D01*
X133200376Y-57649188D01*
X133235000Y-57823259D01*
X133235000Y-58000741D01*
X133200376Y-58174812D01*
X133132456Y-58338784D01*
X133033853Y-58486354D01*
X132908354Y-58611853D01*
X132760784Y-58710456D01*
X132596812Y-58778376D01*
X132447512Y-58808073D01*
X132422742Y-58813000D01*
X132245258Y-58813000D01*
X132220488Y-58808073D01*
X132071188Y-58778376D01*
X131907216Y-58710456D01*
X131759646Y-58611853D01*
X131634147Y-58486354D01*
X131535544Y-58338784D01*
X131467624Y-58174812D01*
X131433000Y-58000741D01*
X131433000Y-57823259D01*
X131467624Y-57649188D01*
X131535544Y-57485216D01*
X131634147Y-57337646D01*
X131759646Y-57212147D01*
X131907216Y-57113544D01*
X132071188Y-57045624D01*
X132220488Y-57015927D01*
X132245258Y-57011000D01*
X132422742Y-57011000D01*
X132447512Y-57015927D01*
G37*
G36*
X128155000Y-58813000D02*
G01*
X126353000Y-58813000D01*
X126353000Y-57011000D01*
X128155000Y-57011000D01*
X128155000Y-58813000D01*
G37*
G36*
X137527512Y-57015927D02*
G01*
X137676812Y-57045624D01*
X137840784Y-57113544D01*
X137988354Y-57212147D01*
X138113853Y-57337646D01*
X138212456Y-57485216D01*
X138280376Y-57649188D01*
X138315000Y-57823259D01*
X138315000Y-58000741D01*
X138280376Y-58174812D01*
X138212456Y-58338784D01*
X138113853Y-58486354D01*
X137988354Y-58611853D01*
X137840784Y-58710456D01*
X137676812Y-58778376D01*
X137527512Y-58808073D01*
X137502742Y-58813000D01*
X137325258Y-58813000D01*
X137300488Y-58808073D01*
X137151188Y-58778376D01*
X136987216Y-58710456D01*
X136839646Y-58611853D01*
X136714147Y-58486354D01*
X136615544Y-58338784D01*
X136547624Y-58174812D01*
X136513000Y-58000741D01*
X136513000Y-57823259D01*
X136547624Y-57649188D01*
X136615544Y-57485216D01*
X136714147Y-57337646D01*
X136839646Y-57212147D01*
X136987216Y-57113544D01*
X137151188Y-57045624D01*
X137300488Y-57015927D01*
X137325258Y-57011000D01*
X137502742Y-57011000D01*
X137527512Y-57015927D01*
G37*
G36*
X134987512Y-57015927D02*
G01*
X135136812Y-57045624D01*
X135300784Y-57113544D01*
X135448354Y-57212147D01*
X135573853Y-57337646D01*
X135672456Y-57485216D01*
X135740376Y-57649188D01*
X135775000Y-57823259D01*
X135775000Y-58000741D01*
X135740376Y-58174812D01*
X135672456Y-58338784D01*
X135573853Y-58486354D01*
X135448354Y-58611853D01*
X135300784Y-58710456D01*
X135136812Y-58778376D01*
X134987512Y-58808073D01*
X134962742Y-58813000D01*
X134785258Y-58813000D01*
X134760488Y-58808073D01*
X134611188Y-58778376D01*
X134447216Y-58710456D01*
X134299646Y-58611853D01*
X134174147Y-58486354D01*
X134075544Y-58338784D01*
X134007624Y-58174812D01*
X133973000Y-58000741D01*
X133973000Y-57823259D01*
X134007624Y-57649188D01*
X134075544Y-57485216D01*
X134174147Y-57337646D01*
X134299646Y-57212147D01*
X134447216Y-57113544D01*
X134611188Y-57045624D01*
X134760488Y-57015927D01*
X134785258Y-57011000D01*
X134962742Y-57011000D01*
X134987512Y-57015927D01*
G37*
G36*
X140067512Y-57015927D02*
G01*
X140216812Y-57045624D01*
X140380784Y-57113544D01*
X140528354Y-57212147D01*
X140653853Y-57337646D01*
X140752456Y-57485216D01*
X140820376Y-57649188D01*
X140855000Y-57823259D01*
X140855000Y-58000741D01*
X140820376Y-58174812D01*
X140752456Y-58338784D01*
X140653853Y-58486354D01*
X140528354Y-58611853D01*
X140380784Y-58710456D01*
X140216812Y-58778376D01*
X140067512Y-58808073D01*
X140042742Y-58813000D01*
X139865258Y-58813000D01*
X139840488Y-58808073D01*
X139691188Y-58778376D01*
X139527216Y-58710456D01*
X139379646Y-58611853D01*
X139254147Y-58486354D01*
X139155544Y-58338784D01*
X139087624Y-58174812D01*
X139053000Y-58000741D01*
X139053000Y-57823259D01*
X139087624Y-57649188D01*
X139155544Y-57485216D01*
X139254147Y-57337646D01*
X139379646Y-57212147D01*
X139527216Y-57113544D01*
X139691188Y-57045624D01*
X139840488Y-57015927D01*
X139865258Y-57011000D01*
X140042742Y-57011000D01*
X140067512Y-57015927D01*
G37*
G36*
X138704831Y-49673529D02*
G01*
X139034776Y-49810197D01*
X139034777Y-49810198D01*
X139331720Y-50008608D01*
X139584249Y-50261137D01*
X139716822Y-50459548D01*
X139782660Y-50558081D01*
X139919328Y-50888026D01*
X139989000Y-51238291D01*
X139989000Y-51595423D01*
X139919328Y-51945688D01*
X139782660Y-52275633D01*
X139782659Y-52275634D01*
X139584249Y-52572577D01*
X139331720Y-52825106D01*
X139133309Y-52957679D01*
X139034776Y-53023517D01*
X138704831Y-53160185D01*
X138354566Y-53229857D01*
X137997434Y-53229857D01*
X137647169Y-53160185D01*
X137317224Y-53023517D01*
X137218691Y-52957679D01*
X137020280Y-52825106D01*
X136767751Y-52572577D01*
X136569341Y-52275634D01*
X136569340Y-52275633D01*
X136432672Y-51945688D01*
X136363000Y-51595423D01*
X136363000Y-51238291D01*
X136432672Y-50888026D01*
X136569340Y-50558081D01*
X136635178Y-50459548D01*
X136767751Y-50261137D01*
X137020280Y-50008608D01*
X137317223Y-49810198D01*
X137317224Y-49810197D01*
X137647169Y-49673529D01*
X137997434Y-49603857D01*
X138354566Y-49603857D01*
X138704831Y-49673529D01*
G37*
G36*
X129306831Y-49673529D02*
G01*
X129636776Y-49810197D01*
X129636777Y-49810198D01*
X129933720Y-50008608D01*
X130186249Y-50261137D01*
X130318822Y-50459548D01*
X130384660Y-50558081D01*
X130521328Y-50888026D01*
X130591000Y-51238291D01*
X130591000Y-51595423D01*
X130521328Y-51945688D01*
X130384660Y-52275633D01*
X130384659Y-52275634D01*
X130186249Y-52572577D01*
X129933720Y-52825106D01*
X129735309Y-52957679D01*
X129636776Y-53023517D01*
X129306831Y-53160185D01*
X128956566Y-53229857D01*
X128599434Y-53229857D01*
X128249169Y-53160185D01*
X127919224Y-53023517D01*
X127820691Y-52957679D01*
X127622280Y-52825106D01*
X127369751Y-52572577D01*
X127171341Y-52275634D01*
X127171340Y-52275633D01*
X127034672Y-51945688D01*
X126965000Y-51595423D01*
X126965000Y-51238291D01*
X127034672Y-50888026D01*
X127171340Y-50558081D01*
X127237178Y-50459548D01*
X127369751Y-50261137D01*
X127622280Y-50008608D01*
X127919223Y-49810198D01*
X127919224Y-49810197D01*
X128249169Y-49673529D01*
X128599434Y-49603857D01*
X128956566Y-49603857D01*
X129306831Y-49673529D01*
G37*
G36*
X134005831Y-49673529D02*
G01*
X134335776Y-49810197D01*
X134335777Y-49810198D01*
X134632720Y-50008608D01*
X134885249Y-50261137D01*
X135017822Y-50459548D01*
X135083660Y-50558081D01*
X135220328Y-50888026D01*
X135290000Y-51238291D01*
X135290000Y-51595423D01*
X135220328Y-51945688D01*
X135083660Y-52275633D01*
X135083659Y-52275634D01*
X134885249Y-52572577D01*
X134632720Y-52825106D01*
X134434309Y-52957679D01*
X134335776Y-53023517D01*
X134005831Y-53160185D01*
X133655566Y-53229857D01*
X133298434Y-53229857D01*
X132948169Y-53160185D01*
X132618224Y-53023517D01*
X132519691Y-52957679D01*
X132321280Y-52825106D01*
X132068751Y-52572577D01*
X131870341Y-52275634D01*
X131870340Y-52275633D01*
X131733672Y-51945688D01*
X131664000Y-51595423D01*
X131664000Y-51238291D01*
X131733672Y-50888026D01*
X131870340Y-50558081D01*
X131936178Y-50459548D01*
X132068751Y-50261137D01*
X132321280Y-50008608D01*
X132618223Y-49810198D01*
X132618224Y-49810197D01*
X132948169Y-49673529D01*
X133298434Y-49603857D01*
X133655566Y-49603857D01*
X134005831Y-49673529D01*
G37*
G36*
X120966000Y-49973000D02*
G01*
X119064000Y-49973000D01*
X119064000Y-48071000D01*
X120966000Y-48071000D01*
X120966000Y-49973000D01*
G37*
G36*
X122832395Y-48107546D02*
G01*
X123005466Y-48179234D01*
X123005467Y-48179235D01*
X123161227Y-48283310D01*
X123293690Y-48415773D01*
X123293691Y-48415775D01*
X123397766Y-48571534D01*
X123469454Y-48744605D01*
X123506000Y-48928333D01*
X123506000Y-49115667D01*
X123469454Y-49299395D01*
X123397766Y-49472466D01*
X123346081Y-49549818D01*
X123293690Y-49628227D01*
X123161227Y-49760690D01*
X123087134Y-49810197D01*
X123005466Y-49864766D01*
X122832395Y-49936454D01*
X122648667Y-49973000D01*
X122461333Y-49973000D01*
X122277605Y-49936454D01*
X122104534Y-49864766D01*
X122022866Y-49810197D01*
X121948773Y-49760690D01*
X121816310Y-49628227D01*
X121763919Y-49549818D01*
X121712234Y-49472466D01*
X121640546Y-49299395D01*
X121604000Y-49115667D01*
X121604000Y-48928333D01*
X121640546Y-48744605D01*
X121712234Y-48571534D01*
X121816309Y-48415775D01*
X121816310Y-48415773D01*
X121948773Y-48283310D01*
X122104533Y-48179235D01*
X122104534Y-48179234D01*
X122277605Y-48107546D01*
X122461333Y-48071000D01*
X122648667Y-48071000D01*
X122832395Y-48107546D01*
G37*
G36*
X145057395Y-47853546D02*
G01*
X145230466Y-47925234D01*
X145230467Y-47925235D01*
X145386227Y-48029310D01*
X145518690Y-48161773D01*
X145542573Y-48197517D01*
X145622766Y-48317534D01*
X145694454Y-48490605D01*
X145731000Y-48674333D01*
X145731000Y-48861667D01*
X145694454Y-49045395D01*
X145622766Y-49218466D01*
X145622765Y-49218467D01*
X145518690Y-49374227D01*
X145386227Y-49506690D01*
X145307818Y-49559081D01*
X145230466Y-49610766D01*
X145057395Y-49682454D01*
X144873667Y-49719000D01*
X144686333Y-49719000D01*
X144502605Y-49682454D01*
X144329534Y-49610766D01*
X144252182Y-49559081D01*
X144173773Y-49506690D01*
X144041310Y-49374227D01*
X143937235Y-49218467D01*
X143937234Y-49218466D01*
X143865546Y-49045395D01*
X143829000Y-48861667D01*
X143829000Y-48674333D01*
X143865546Y-48490605D01*
X143937234Y-48317534D01*
X144017427Y-48197517D01*
X144041310Y-48161773D01*
X144173773Y-48029310D01*
X144329533Y-47925235D01*
X144329534Y-47925234D01*
X144502605Y-47853546D01*
X144686333Y-47817000D01*
X144873667Y-47817000D01*
X145057395Y-47853546D01*
G37*
G36*
X148271000Y-49719000D02*
G01*
X146369000Y-49719000D01*
X146369000Y-47817000D01*
X148271000Y-47817000D01*
X148271000Y-49719000D01*
G37*
G36*
X129306831Y-44847529D02*
G01*
X129636776Y-44984197D01*
X129636777Y-44984198D01*
X129933720Y-45182608D01*
X130186249Y-45435137D01*
X130318822Y-45633548D01*
X130384660Y-45732081D01*
X130521328Y-46062026D01*
X130591000Y-46412291D01*
X130591000Y-46769423D01*
X130521328Y-47119688D01*
X130384660Y-47449633D01*
X130384659Y-47449634D01*
X130186249Y-47746577D01*
X129933720Y-47999106D01*
X129888516Y-48029310D01*
X129636776Y-48197517D01*
X129306831Y-48334185D01*
X128956566Y-48403857D01*
X128599434Y-48403857D01*
X128249169Y-48334185D01*
X127919224Y-48197517D01*
X127667484Y-48029310D01*
X127622280Y-47999106D01*
X127369751Y-47746577D01*
X127171341Y-47449634D01*
X127171340Y-47449633D01*
X127034672Y-47119688D01*
X126965000Y-46769423D01*
X126965000Y-46412291D01*
X127034672Y-46062026D01*
X127171340Y-45732081D01*
X127237178Y-45633548D01*
X127369751Y-45435137D01*
X127622280Y-45182608D01*
X127919223Y-44984198D01*
X127919224Y-44984197D01*
X128249169Y-44847529D01*
X128599434Y-44777857D01*
X128956566Y-44777857D01*
X129306831Y-44847529D01*
G37*
G36*
X138704831Y-44847529D02*
G01*
X139034776Y-44984197D01*
X139034777Y-44984198D01*
X139331720Y-45182608D01*
X139584249Y-45435137D01*
X139716822Y-45633548D01*
X139782660Y-45732081D01*
X139919328Y-46062026D01*
X139989000Y-46412291D01*
X139989000Y-46769423D01*
X139919328Y-47119688D01*
X139782660Y-47449633D01*
X139782659Y-47449634D01*
X139584249Y-47746577D01*
X139331720Y-47999106D01*
X139286516Y-48029310D01*
X139034776Y-48197517D01*
X138704831Y-48334185D01*
X138354566Y-48403857D01*
X137997434Y-48403857D01*
X137647169Y-48334185D01*
X137317224Y-48197517D01*
X137065484Y-48029310D01*
X137020280Y-47999106D01*
X136767751Y-47746577D01*
X136569341Y-47449634D01*
X136569340Y-47449633D01*
X136432672Y-47119688D01*
X136363000Y-46769423D01*
X136363000Y-46412291D01*
X136432672Y-46062026D01*
X136569340Y-45732081D01*
X136635178Y-45633548D01*
X136767751Y-45435137D01*
X137020280Y-45182608D01*
X137317223Y-44984198D01*
X137317224Y-44984197D01*
X137647169Y-44847529D01*
X137997434Y-44777857D01*
X138354566Y-44777857D01*
X138704831Y-44847529D01*
G37*
G36*
X134005831Y-44847529D02*
G01*
X134335776Y-44984197D01*
X134335777Y-44984198D01*
X134632720Y-45182608D01*
X134885249Y-45435137D01*
X135017822Y-45633548D01*
X135083660Y-45732081D01*
X135220328Y-46062026D01*
X135290000Y-46412291D01*
X135290000Y-46769423D01*
X135220328Y-47119688D01*
X135083660Y-47449633D01*
X135083659Y-47449634D01*
X134885249Y-47746577D01*
X134632720Y-47999106D01*
X134587516Y-48029310D01*
X134335776Y-48197517D01*
X134005831Y-48334185D01*
X133655566Y-48403857D01*
X133298434Y-48403857D01*
X132948169Y-48334185D01*
X132618224Y-48197517D01*
X132366484Y-48029310D01*
X132321280Y-47999106D01*
X132068751Y-47746577D01*
X131870341Y-47449634D01*
X131870340Y-47449633D01*
X131733672Y-47119688D01*
X131664000Y-46769423D01*
X131664000Y-46412291D01*
X131733672Y-46062026D01*
X131870340Y-45732081D01*
X131936178Y-45633548D01*
X132068751Y-45435137D01*
X132321280Y-45182608D01*
X132618223Y-44984198D01*
X132618224Y-44984197D01*
X132948169Y-44847529D01*
X133298434Y-44777857D01*
X133655566Y-44777857D01*
X134005831Y-44847529D01*
G37*
G36*
X145155228Y-40075703D02*
G01*
X145310100Y-40139853D01*
X145449481Y-40232985D01*
X145568015Y-40351519D01*
X145661147Y-40490900D01*
X145725297Y-40645772D01*
X145758000Y-40810184D01*
X145758000Y-40977816D01*
X145725297Y-41142228D01*
X145661147Y-41297100D01*
X145568015Y-41436481D01*
X145449481Y-41555015D01*
X145310100Y-41648147D01*
X145155228Y-41712297D01*
X144990816Y-41745000D01*
X144823184Y-41745000D01*
X144658772Y-41712297D01*
X144503900Y-41648147D01*
X144364519Y-41555015D01*
X144245985Y-41436481D01*
X144152853Y-41297100D01*
X144088703Y-41142228D01*
X144056000Y-40977816D01*
X144056000Y-40810184D01*
X144088703Y-40645772D01*
X144152853Y-40490900D01*
X144245985Y-40351519D01*
X144364519Y-40232985D01*
X144503900Y-40139853D01*
X144658772Y-40075703D01*
X144823184Y-40043000D01*
X144990816Y-40043000D01*
X145155228Y-40075703D01*
G37*
G36*
X137535228Y-40075703D02*
G01*
X137690100Y-40139853D01*
X137829481Y-40232985D01*
X137948015Y-40351519D01*
X138041147Y-40490900D01*
X138105297Y-40645772D01*
X138138000Y-40810184D01*
X138138000Y-40977816D01*
X138105297Y-41142228D01*
X138041147Y-41297100D01*
X137948015Y-41436481D01*
X137829481Y-41555015D01*
X137690100Y-41648147D01*
X137535228Y-41712297D01*
X137370816Y-41745000D01*
X137203184Y-41745000D01*
X137038772Y-41712297D01*
X136883900Y-41648147D01*
X136744519Y-41555015D01*
X136625985Y-41436481D01*
X136532853Y-41297100D01*
X136468703Y-41142228D01*
X136436000Y-40977816D01*
X136436000Y-40810184D01*
X136468703Y-40645772D01*
X136532853Y-40490900D01*
X136625985Y-40351519D01*
X136744519Y-40232985D01*
X136883900Y-40139853D01*
X137038772Y-40075703D01*
X137203184Y-40043000D01*
X137370816Y-40043000D01*
X137535228Y-40075703D01*
G37*
G36*
X129306831Y-27085672D02*
G01*
X129636776Y-27222340D01*
X129636777Y-27222341D01*
X129933720Y-27420751D01*
X130186249Y-27673280D01*
X130318822Y-27871691D01*
X130384660Y-27970224D01*
X130521328Y-28300169D01*
X130591000Y-28650434D01*
X130591000Y-29007566D01*
X130521328Y-29357831D01*
X130384660Y-29687776D01*
X130384659Y-29687777D01*
X130186249Y-29984720D01*
X129933720Y-30237249D01*
X129735309Y-30369822D01*
X129636776Y-30435660D01*
X129306831Y-30572328D01*
X128956566Y-30642000D01*
X128599434Y-30642000D01*
X128249169Y-30572328D01*
X127919224Y-30435660D01*
X127820691Y-30369822D01*
X127622280Y-30237249D01*
X127369751Y-29984720D01*
X127171341Y-29687777D01*
X127171340Y-29687776D01*
X127034672Y-29357831D01*
X126965000Y-29007566D01*
X126965000Y-28650434D01*
X127034672Y-28300169D01*
X127171340Y-27970224D01*
X127237178Y-27871691D01*
X127369751Y-27673280D01*
X127622280Y-27420751D01*
X127919223Y-27222341D01*
X127919224Y-27222340D01*
X128249169Y-27085672D01*
X128599434Y-27016000D01*
X128956566Y-27016000D01*
X129306831Y-27085672D01*
G37*
G36*
X138704831Y-27085672D02*
G01*
X139034776Y-27222340D01*
X139034777Y-27222341D01*
X139331720Y-27420751D01*
X139584249Y-27673280D01*
X139716822Y-27871691D01*
X139782660Y-27970224D01*
X139919328Y-28300169D01*
X139989000Y-28650434D01*
X139989000Y-29007566D01*
X139919328Y-29357831D01*
X139782660Y-29687776D01*
X139782659Y-29687777D01*
X139584249Y-29984720D01*
X139331720Y-30237249D01*
X139133309Y-30369822D01*
X139034776Y-30435660D01*
X138704831Y-30572328D01*
X138354566Y-30642000D01*
X137997434Y-30642000D01*
X137647169Y-30572328D01*
X137317224Y-30435660D01*
X137218691Y-30369822D01*
X137020280Y-30237249D01*
X136767751Y-29984720D01*
X136569341Y-29687777D01*
X136569340Y-29687776D01*
X136432672Y-29357831D01*
X136363000Y-29007566D01*
X136363000Y-28650434D01*
X136432672Y-28300169D01*
X136569340Y-27970224D01*
X136635178Y-27871691D01*
X136767751Y-27673280D01*
X137020280Y-27420751D01*
X137317223Y-27222341D01*
X137317224Y-27222340D01*
X137647169Y-27085672D01*
X137997434Y-27016000D01*
X138354566Y-27016000D01*
X138704831Y-27085672D01*
G37*
G36*
X134005831Y-27085672D02*
G01*
X134335776Y-27222340D01*
X134335777Y-27222341D01*
X134632720Y-27420751D01*
X134885249Y-27673280D01*
X135017822Y-27871691D01*
X135083660Y-27970224D01*
X135220328Y-28300169D01*
X135290000Y-28650434D01*
X135290000Y-29007566D01*
X135220328Y-29357831D01*
X135083660Y-29687776D01*
X135083659Y-29687777D01*
X134885249Y-29984720D01*
X134632720Y-30237249D01*
X134434309Y-30369822D01*
X134335776Y-30435660D01*
X134005831Y-30572328D01*
X133655566Y-30642000D01*
X133298434Y-30642000D01*
X132948169Y-30572328D01*
X132618224Y-30435660D01*
X132519691Y-30369822D01*
X132321280Y-30237249D01*
X132068751Y-29984720D01*
X131870341Y-29687777D01*
X131870340Y-29687776D01*
X131733672Y-29357831D01*
X131664000Y-29007566D01*
X131664000Y-28650434D01*
X131733672Y-28300169D01*
X131870340Y-27970224D01*
X131936178Y-27871691D01*
X132068751Y-27673280D01*
X132321280Y-27420751D01*
X132618223Y-27222341D01*
X132618224Y-27222340D01*
X132948169Y-27085672D01*
X133298434Y-27016000D01*
X133655566Y-27016000D01*
X134005831Y-27085672D01*
G37*
G36*
X145057395Y-25501546D02*
G01*
X145230466Y-25573234D01*
X145230467Y-25573235D01*
X145386227Y-25677310D01*
X145518690Y-25809773D01*
X145571081Y-25888182D01*
X145622766Y-25965534D01*
X145694454Y-26138605D01*
X145731000Y-26322333D01*
X145731000Y-26509667D01*
X145694454Y-26693395D01*
X145622766Y-26866466D01*
X145622765Y-26866467D01*
X145518690Y-27022227D01*
X145386227Y-27154690D01*
X145307818Y-27207081D01*
X145230466Y-27258766D01*
X145057395Y-27330454D01*
X144873667Y-27367000D01*
X144686333Y-27367000D01*
X144502605Y-27330454D01*
X144329534Y-27258766D01*
X144252182Y-27207081D01*
X144173773Y-27154690D01*
X144041310Y-27022227D01*
X143937235Y-26866467D01*
X143937234Y-26866466D01*
X143865546Y-26693395D01*
X143829000Y-26509667D01*
X143829000Y-26322333D01*
X143865546Y-26138605D01*
X143937234Y-25965534D01*
X143988919Y-25888182D01*
X144041310Y-25809773D01*
X144173773Y-25677310D01*
X144329533Y-25573235D01*
X144329534Y-25573234D01*
X144502605Y-25501546D01*
X144686333Y-25465000D01*
X144873667Y-25465000D01*
X145057395Y-25501546D01*
G37*
G36*
X148271000Y-27367000D02*
G01*
X146369000Y-27367000D01*
X146369000Y-25465000D01*
X148271000Y-25465000D01*
X148271000Y-27367000D01*
G37*
G36*
X120966000Y-27367000D02*
G01*
X119064000Y-27367000D01*
X119064000Y-25465000D01*
X120966000Y-25465000D01*
X120966000Y-27367000D01*
G37*
G36*
X122832395Y-25501546D02*
G01*
X123005466Y-25573234D01*
X123005467Y-25573235D01*
X123161227Y-25677310D01*
X123293690Y-25809773D01*
X123346081Y-25888182D01*
X123397766Y-25965534D01*
X123469454Y-26138605D01*
X123506000Y-26322333D01*
X123506000Y-26509667D01*
X123469454Y-26693395D01*
X123397766Y-26866466D01*
X123397765Y-26866467D01*
X123293690Y-27022227D01*
X123161227Y-27154690D01*
X123082818Y-27207081D01*
X123005466Y-27258766D01*
X122832395Y-27330454D01*
X122648667Y-27367000D01*
X122461333Y-27367000D01*
X122277605Y-27330454D01*
X122104534Y-27258766D01*
X122027182Y-27207081D01*
X121948773Y-27154690D01*
X121816310Y-27022227D01*
X121712235Y-26866467D01*
X121712234Y-26866466D01*
X121640546Y-26693395D01*
X121604000Y-26509667D01*
X121604000Y-26322333D01*
X121640546Y-26138605D01*
X121712234Y-25965534D01*
X121763919Y-25888182D01*
X121816310Y-25809773D01*
X121948773Y-25677310D01*
X122104533Y-25573235D01*
X122104534Y-25573234D01*
X122277605Y-25501546D01*
X122461333Y-25465000D01*
X122648667Y-25465000D01*
X122832395Y-25501546D01*
G37*
G36*
X138704831Y-22259672D02*
G01*
X139034776Y-22396340D01*
X139034777Y-22396341D01*
X139331720Y-22594751D01*
X139584249Y-22847280D01*
X139716822Y-23045691D01*
X139782660Y-23144224D01*
X139919328Y-23474169D01*
X139989000Y-23824434D01*
X139989000Y-24181566D01*
X139919328Y-24531831D01*
X139782660Y-24861776D01*
X139782659Y-24861777D01*
X139584249Y-25158720D01*
X139331720Y-25411249D01*
X139196580Y-25501546D01*
X139034776Y-25609660D01*
X138704831Y-25746328D01*
X138354566Y-25816000D01*
X137997434Y-25816000D01*
X137647169Y-25746328D01*
X137317224Y-25609660D01*
X137155420Y-25501546D01*
X137020280Y-25411249D01*
X136767751Y-25158720D01*
X136569341Y-24861777D01*
X136569340Y-24861776D01*
X136432672Y-24531831D01*
X136363000Y-24181566D01*
X136363000Y-23824434D01*
X136432672Y-23474169D01*
X136569340Y-23144224D01*
X136635178Y-23045691D01*
X136767751Y-22847280D01*
X137020280Y-22594751D01*
X137317223Y-22396341D01*
X137317224Y-22396340D01*
X137647169Y-22259672D01*
X137997434Y-22190000D01*
X138354566Y-22190000D01*
X138704831Y-22259672D01*
G37*
G36*
X134005831Y-22259672D02*
G01*
X134335776Y-22396340D01*
X134335777Y-22396341D01*
X134632720Y-22594751D01*
X134885249Y-22847280D01*
X135017822Y-23045691D01*
X135083660Y-23144224D01*
X135220328Y-23474169D01*
X135290000Y-23824434D01*
X135290000Y-24181566D01*
X135220328Y-24531831D01*
X135083660Y-24861776D01*
X135083659Y-24861777D01*
X134885249Y-25158720D01*
X134632720Y-25411249D01*
X134497580Y-25501546D01*
X134335776Y-25609660D01*
X134005831Y-25746328D01*
X133655566Y-25816000D01*
X133298434Y-25816000D01*
X132948169Y-25746328D01*
X132618224Y-25609660D01*
X132456420Y-25501546D01*
X132321280Y-25411249D01*
X132068751Y-25158720D01*
X131870341Y-24861777D01*
X131870340Y-24861776D01*
X131733672Y-24531831D01*
X131664000Y-24181566D01*
X131664000Y-23824434D01*
X131733672Y-23474169D01*
X131870340Y-23144224D01*
X131936178Y-23045691D01*
X132068751Y-22847280D01*
X132321280Y-22594751D01*
X132618223Y-22396341D01*
X132618224Y-22396340D01*
X132948169Y-22259672D01*
X133298434Y-22190000D01*
X133655566Y-22190000D01*
X134005831Y-22259672D01*
G37*
G36*
X129306831Y-22259672D02*
G01*
X129636776Y-22396340D01*
X129636777Y-22396341D01*
X129933720Y-22594751D01*
X130186249Y-22847280D01*
X130318822Y-23045691D01*
X130384660Y-23144224D01*
X130521328Y-23474169D01*
X130591000Y-23824434D01*
X130591000Y-24181566D01*
X130521328Y-24531831D01*
X130384660Y-24861776D01*
X130384659Y-24861777D01*
X130186249Y-25158720D01*
X129933720Y-25411249D01*
X129798580Y-25501546D01*
X129636776Y-25609660D01*
X129306831Y-25746328D01*
X128956566Y-25816000D01*
X128599434Y-25816000D01*
X128249169Y-25746328D01*
X127919224Y-25609660D01*
X127757420Y-25501546D01*
X127622280Y-25411249D01*
X127369751Y-25158720D01*
X127171341Y-24861777D01*
X127171340Y-24861776D01*
X127034672Y-24531831D01*
X126965000Y-24181566D01*
X126965000Y-23824434D01*
X127034672Y-23474169D01*
X127171340Y-23144224D01*
X127237178Y-23045691D01*
X127369751Y-22847280D01*
X127622280Y-22594751D01*
X127919223Y-22396341D01*
X127919224Y-22396340D01*
X128249169Y-22259672D01*
X128599434Y-22190000D01*
X128956566Y-22190000D01*
X129306831Y-22259672D01*
G37*
G36*
X145155228Y-18739703D02*
G01*
X145310100Y-18803853D01*
X145449481Y-18896985D01*
X145568015Y-19015519D01*
X145661147Y-19154900D01*
X145725297Y-19309772D01*
X145758000Y-19474184D01*
X145758000Y-19641816D01*
X145725297Y-19806228D01*
X145661147Y-19961100D01*
X145568015Y-20100481D01*
X145449481Y-20219015D01*
X145310100Y-20312147D01*
X145155228Y-20376297D01*
X144990816Y-20409000D01*
X144823184Y-20409000D01*
X144658772Y-20376297D01*
X144503900Y-20312147D01*
X144364519Y-20219015D01*
X144245985Y-20100481D01*
X144152853Y-19961100D01*
X144088703Y-19806228D01*
X144056000Y-19641816D01*
X144056000Y-19474184D01*
X144088703Y-19309772D01*
X144152853Y-19154900D01*
X144245985Y-19015519D01*
X144364519Y-18896985D01*
X144503900Y-18803853D01*
X144658772Y-18739703D01*
X144823184Y-18707000D01*
X144990816Y-18707000D01*
X145155228Y-18739703D01*
G37*
G36*
X137535228Y-18739703D02*
G01*
X137690100Y-18803853D01*
X137829481Y-18896985D01*
X137948015Y-19015519D01*
X138041147Y-19154900D01*
X138105297Y-19309772D01*
X138138000Y-19474184D01*
X138138000Y-19641816D01*
X138105297Y-19806228D01*
X138041147Y-19961100D01*
X137948015Y-20100481D01*
X137829481Y-20219015D01*
X137690100Y-20312147D01*
X137535228Y-20376297D01*
X137370816Y-20409000D01*
X137203184Y-20409000D01*
X137038772Y-20376297D01*
X136883900Y-20312147D01*
X136744519Y-20219015D01*
X136625985Y-20100481D01*
X136532853Y-19961100D01*
X136468703Y-19806228D01*
X136436000Y-19641816D01*
X136436000Y-19474184D01*
X136468703Y-19309772D01*
X136532853Y-19154900D01*
X136625985Y-19015519D01*
X136744519Y-18896985D01*
X136883900Y-18803853D01*
X137038772Y-18739703D01*
X137203184Y-18707000D01*
X137370816Y-18707000D01*
X137535228Y-18739703D01*
G37*
M02*
