M48
; DRILL file {KiCad (5.1.5)-3} date 5/19/2020 5:08:52 PM
; FORMAT={-:-/ absolute / inch / decimal}
; #@! TF.CreationDate,2020-05-19T17:08:52-07:00
; #@! TF.GenerationSoftware,Kicad,Pcbnew,(5.1.5)-3
; #@! TF.FileFunction,Plated,1,2,PTH
FMAT,2
INCH
T1C0.0157
T2C0.0315
T3C0.0354
T4C0.0394
T5C0.0906
%
G90
G05
T1
X4.84Y-5.74
X4.86Y-2.39
X4.91Y-4.99
X4.92Y-6.08
X4.93Y-2.98
X4.93Y-3.28
X4.93Y-3.91
X4.98Y-6.59
X5.11Y-2.56
X5.26Y-5.95
X5.55Y-2.14
X5.56Y-2.44
X5.5835Y-3.15
X5.6Y-2.57
X5.62Y-6.05
T2
X5.405Y-5.115
X5.705Y-5.115
X5.405Y-6.865
X5.705Y-6.865
X5.405Y-0.77
X5.705Y-0.77
X5.405Y-4.29
X5.705Y-4.29
X5.405Y-3.34
X5.705Y-3.34
X5.405Y-1.61
X5.705Y-1.61
X5.405Y-2.465
X5.705Y-2.465
X5.405Y-6.05
X5.705Y-6.05
T3
X4.725Y-4.59
X4.825Y-4.59
X4.725Y-1.93
X4.825Y-1.93
X5.7Y-3.7
X5.8Y-3.7
X5.7Y-1.92
X5.8Y-1.92
X4.725Y-2.82
X4.825Y-2.82
X4.725Y-3.71
X4.825Y-3.71
X5.7Y-6.38
X5.8Y-6.38
X4.725Y-1.04
X4.825Y-1.04
X5.7Y-2.81
X5.8Y-2.81
X4.725Y-7.26
X4.825Y-7.26
X4.725Y-5.49
X4.825Y-5.49
X4.725Y-6.37
X4.825Y-6.37
X5.7Y-1.04
X5.8Y-1.04
X5.7Y-4.6
X5.8Y-4.6
X5.7Y-5.49
X5.8Y-5.49
X5.7Y-7.26
X5.8Y-7.26
T4
X5.01Y-2.28
X5.11Y-2.28
X5.21Y-2.28
X5.31Y-2.28
X5.41Y-2.28
X5.51Y-2.28
X5.01Y-5.85
X5.11Y-5.85
X5.21Y-5.85
X5.31Y-5.85
X5.41Y-5.85
X5.51Y-5.85
T5
X5.07Y-3.6129
X5.07Y-3.8029
X5.255Y-3.6129
X5.255Y-3.8029
X5.44Y-3.6129
X5.44Y-3.8029
X5.07Y-4.5021
X5.07Y-4.6921
X5.255Y-4.5021
X5.255Y-4.6921
X5.44Y-4.5021
X5.44Y-4.6921
X5.07Y-2.7236
X5.07Y-2.9136
X5.255Y-2.7236
X5.255Y-2.9136
X5.44Y-2.7236
X5.44Y-2.9136
X5.07Y-6.2807
X5.07Y-6.4707
X5.255Y-6.2807
X5.255Y-6.4707
X5.44Y-6.2807
X5.44Y-6.4707
X5.07Y-0.945
X5.07Y-1.135
X5.255Y-0.945
X5.255Y-1.135
X5.44Y-0.945
X5.44Y-1.135
X5.07Y-5.3914
X5.07Y-5.5814
X5.255Y-5.3914
X5.255Y-5.5814
X5.44Y-5.3914
X5.44Y-5.5814
X5.07Y-1.8343
X5.07Y-2.0243
X5.255Y-1.8343
X5.255Y-2.0243
X5.44Y-1.8343
X5.44Y-2.0243
X5.07Y-7.17
X5.07Y-7.36
X5.255Y-7.17
X5.255Y-7.36
X5.44Y-7.17
X5.44Y-7.36
T0
M30
