%FSLAX45Y45*%
G04 Gerber Fmt 4.5, Leading zero omitted, Abs format (unit mm)*
G04 Created by KiCad (PCBNEW (5.1.5)-3) date 2020-05-19 17:08:53*
%MOMM*%
%LPD*%
G04 APERTURE LIST*
%TA.AperFunction,Profile*%
%ADD10C,0.050000*%
%TD*%
%ADD11C,0.200000*%
%ADD12C,0.300000*%
G04 APERTURE END LIST*
D10*
X11887200Y-19278600D02*
X14882200Y-19278600D01*
X14882200Y-1803400D02*
X14882200Y-19278600D01*
X11887200Y-1803400D02*
X11887200Y-19278600D01*
X11887200Y-1803400D02*
X14882200Y-1803400D01*
D11*
D12*
X12171128Y-19746814D02*
X12171128Y-19446814D01*
X12242557Y-19446814D01*
X12285414Y-19461100D01*
X12313986Y-19489672D01*
X12328271Y-19518243D01*
X12342557Y-19575386D01*
X12342557Y-19618243D01*
X12328271Y-19675386D01*
X12313986Y-19703957D01*
X12285414Y-19732529D01*
X12242557Y-19746814D01*
X12171128Y-19746814D01*
X12471128Y-19746814D02*
X12471128Y-19546814D01*
X12471128Y-19603957D02*
X12485414Y-19575386D01*
X12499700Y-19561100D01*
X12528271Y-19546814D01*
X12556843Y-19546814D01*
X12656843Y-19746814D02*
X12656843Y-19546814D01*
X12656843Y-19446814D02*
X12642557Y-19461100D01*
X12656843Y-19475386D01*
X12671128Y-19461100D01*
X12656843Y-19446814D01*
X12656843Y-19475386D01*
X12842557Y-19746814D02*
X12813986Y-19732529D01*
X12799700Y-19703957D01*
X12799700Y-19446814D01*
X12999700Y-19746814D02*
X12971128Y-19732529D01*
X12956843Y-19703957D01*
X12956843Y-19446814D01*
X13342557Y-19746814D02*
X13342557Y-19446814D01*
X13442557Y-19661100D01*
X13542557Y-19446814D01*
X13542557Y-19746814D01*
X13813986Y-19746814D02*
X13813986Y-19589672D01*
X13799700Y-19561100D01*
X13771128Y-19546814D01*
X13713986Y-19546814D01*
X13685414Y-19561100D01*
X13813986Y-19732529D02*
X13785414Y-19746814D01*
X13713986Y-19746814D01*
X13685414Y-19732529D01*
X13671128Y-19703957D01*
X13671128Y-19675386D01*
X13685414Y-19646814D01*
X13713986Y-19632529D01*
X13785414Y-19632529D01*
X13813986Y-19618243D01*
X13956843Y-19546814D02*
X13956843Y-19846814D01*
X13956843Y-19561100D02*
X13985414Y-19546814D01*
X14042557Y-19546814D01*
X14071128Y-19561100D01*
X14085414Y-19575386D01*
X14099700Y-19603957D01*
X14099700Y-19689672D01*
X14085414Y-19718243D01*
X14071128Y-19732529D01*
X14042557Y-19746814D01*
X13985414Y-19746814D01*
X13956843Y-19732529D01*
X14228271Y-19718243D02*
X14242557Y-19732529D01*
X14228271Y-19746814D01*
X14213986Y-19732529D01*
X14228271Y-19718243D01*
X14228271Y-19746814D01*
X14228271Y-19561100D02*
X14242557Y-19575386D01*
X14228271Y-19589672D01*
X14213986Y-19575386D01*
X14228271Y-19561100D01*
X14228271Y-19589672D01*
M02*
